0
SECTION
2
ENTITIES
0
POLYLINE
8
0
70
0
66
1
0
VERTEX
8
0
10
0.0
20
3.0098472222222221
0
VERTEX
8
0
10
3.0098472222222221
20
3.0098472222222221
0
VERTEX
8
0
10
3.0098472222222221
20
-0.0
0
VERTEX
8
0
10
0.0
20
-0.0
0
VERTEX
8
0
10
0.0
20
3.0098472222222221
0
SEQEND
8
0
0
POLYLINE
8
0
70
0
66
1
0
VERTEX
8
0
10
1.4254777777777776
20
2.2071430555555556
42
0.4142495411455128
0
VERTEX
8
0
10
1.3382416666666666
20
2.1399347222222223
42
0.4141746114605219
0
VERTEX
8
0
10
1.4054500000000001
20
2.052698611111111
42
0.0644937586684889
0
VERTEX
8
0
10
1.4254777777777776
20
2.052698611111111
0
SEQEND
8
0
0
POLYLINE
8
0
70
0
66
1
0
VERTEX
8
0
10
1.4254777777777776
20
2.2071430555555556
0
VERTEX
8
0
10
1.6273944444444444
20
2.1809625000000001
0
SEQEND
8
0
0
POLYLINE
8
0
70
0
66
1
0
VERTEX
8
0
10
1.6273902777777778
20
2.0788763888888888
42
0.4142248374088137
0
VERTEX
8
0
10
1.6718208333333333
20
2.1365430555555553
42
0.3404720888393246
0
VERTEX
8
0
10
1.6273902777777778
20
2.1809597222222221
0
SEQEND
8
0
0
POLYLINE
8
0
70
0
66
1
0
VERTEX
8
0
10
1.6273902777777778
20
2.0788763888888888
0
VERTEX
8
0
10
1.425473611111111
20
2.0526958333333334
0
SEQEND
8
0
0
POLYLINE
8
0
70
0
66
1
0
VERTEX
8
0
10
0.4254777777777777
20
2.4571430555555556
42
0.4142495411455167
0
VERTEX
8
0
10
0.3382416666666667
20
2.3899347222222223
42
0.4141746114605204
0
VERTEX
8
0
10
0.40545
20
2.302698611111111
42
0.0644937586684886
0
VERTEX
8
0
10
0.4254777777777777
20
2.302698611111111
0
SEQEND
8
0
0
POLYLINE
8
0
70
0
66
1
0
VERTEX
8
0
10
0.4254777777777777
20
2.4571430555555556
0
VERTEX
8
0
10
0.6273944444444444
20
2.4309625000000001
0
SEQEND
8
0
0
POLYLINE
8
0
70
0
66
1
0
VERTEX
8
0
10
0.6273902777777778
20
2.3288763888888888
42
0.4142248374088123
0
VERTEX
8
0
10
0.6718208333333333
20
2.3865430555555553
42
0.3404720888393159
0
VERTEX
8
0
10
0.6273902777777778
20
2.4309597222222221
0
SEQEND
8
0
0
POLYLINE
8
0
70
0
66
1
0
VERTEX
8
0
10
0.6273902777777778
20
2.3288763888888888
0
VERTEX
8
0
10
0.4254736111111111
20
2.3026958333333334
0
SEQEND
8
0
0
POLYLINE
8
0
70
0
66
1
0
VERTEX
8
0
10
1.1299208333333333
20
1.5049208333333333
42
0.4142499999999995
0
VERTEX
8
0
10
1.0049208333333333
20
1.6299208333333333
42
0.4142500000000001
0
VERTEX
8
0
10
0.8799208333333333
20
1.5049208333333333
42
0.41425
0
VERTEX
8
0
10
1.0049208333333333
20
1.3799208333333333
42
0.4142499999999992
0
VERTEX
8
0
10
1.1299208333333333
20
1.5049208333333333
0
SEQEND
8
0
0
POLYLINE
8
0
70
0
66
1
0
VERTEX
8
0
10
0.3799208333333333
20
0.2549208333333333
42
0.41425
0
VERTEX
8
0
10
0.2549208333333333
20
0.3799208333333333
42
0.4142499999999998
0
VERTEX
8
0
10
0.1299208333333333
20
0.2549208333333333
42
0.4142499999999998
0
VERTEX
8
0
10
0.2549208333333333
20
0.1299208333333333
42
0.4142500000000005
0
VERTEX
8
0
10
0.3799208333333333
20
0.2549208333333333
0
SEQEND
8
0
0
POLYLINE
8
0
70
0
66
1
0
VERTEX
8
0
10
0.3799208333333333
20
2.7549208333333333
42
0.4142499999999992
0
VERTEX
8
0
10
0.2549208333333333
20
2.8799208333333333
42
0.4142499999999993
0
VERTEX
8
0
10
0.1299208333333333
20
2.7549208333333333
42
0.4142499999999993
0
VERTEX
8
0
10
0.2549208333333333
20
2.6299208333333333
42
0.4142499999999992
0
VERTEX
8
0
10
0.3799208333333333
20
2.7549208333333333
0
SEQEND
8
0
0
POLYLINE
8
0
70
0
66
1
0
VERTEX
8
0
10
0.0049208333333333
20
3.0049208333333333
0
VERTEX
8
0
10
0.0049208333333333
20
0.0049208333333333
0
SEQEND
8
0
0
POLYLINE
8
0
70
0
66
1
0
VERTEX
8
0
10
0.0049208333333333
20
0.0049208333333333
0
VERTEX
8
0
10
3.0049208333333333
20
0.0049208333333333
0
SEQEND
8
0
0
POLYLINE
8
0
70
0
66
1
0
VERTEX
8
0
10
3.0049208333333333
20
0.0049208333333333
0
VERTEX
8
0
10
3.0049208333333333
20
3.0049208333333333
0
SEQEND
8
0
0
POLYLINE
8
0
70
0
66
1
0
VERTEX
8
0
10
3.0049208333333333
20
3.0049208333333333
0
VERTEX
8
0
10
0.0049208333333333
20
3.0049208333333333
0
SEQEND
8
0
0
POLYLINE
8
0
70
0
66
1
0
VERTEX
8
0
10
2.8799208333333333
20
2.7549208333333333
42
0.4142499999999997
0
VERTEX
8
0
10
2.7549208333333333
20
2.8799208333333333
42
0.4142500000000014
0
VERTEX
8
0
10
2.6299208333333333
20
2.7549208333333333
42
0.4142500000000005
0
VERTEX
8
0
10
2.7549208333333333
20
2.6299208333333333
42
0.4142499999999997
0
VERTEX
8
0
10
2.8799208333333333
20
2.7549208333333333
0
SEQEND
8
0
0
POLYLINE
8
0
70
0
66
1
0
VERTEX
8
0
10
2.8799208333333333
20
0.2549208333333333
42
0.41425
0
VERTEX
8
0
10
2.7549208333333333
20
0.3799208333333333
42
0.4142500000000013
0
VERTEX
8
0
10
2.6299208333333333
20
0.2549208333333333
42
0.4142500000000006
0
VERTEX
8
0
10
2.7549208333333333
20
0.1299208333333333
42
0.4142499999999997
0
VERTEX
8
0
10
2.8799208333333333
20
0.2549208333333333
0
SEQEND
8
0
0
POLYLINE
8
0
70
0
66
1
0
VERTEX
8
0
10
2.1299208333333333
20
1.5049208333333333
42
0.4142500000000005
0
VERTEX
8
0
10
2.0049208333333333
20
1.6299208333333333
42
0.4142500000000023
0
VERTEX
8
0
10
1.8799208333333333
20
1.5049208333333333
42
0.4142500000000016
0
VERTEX
8
0
10
2.0049208333333333
20
1.3799208333333333
42
0.4142500000000016
0
VERTEX
8
0
10
2.1299208333333333
20
1.5049208333333333
0
SEQEND
8
0
0
POLYLINE
8
0
70
0
66
1
0
VERTEX
8
0
10
1.4254777777777776
20
1.9571430555555553
42
0.4142495411455128
0
VERTEX
8
0
10
1.3382416666666666
20
1.889934722222222
42
0.4141746114605219
0
VERTEX
8
0
10
1.4054500000000001
20
1.802698611111111
42
0.0644937586684889
0
VERTEX
8
0
10
1.4254777777777776
20
1.802698611111111
0
SEQEND
8
0
0
POLYLINE
8
0
70
0
66
1
0
VERTEX
8
0
10
1.4254777777777776
20
1.9571430555555553
0
VERTEX
8
0
10
1.6273944444444444
20
1.9309624999999999
0
SEQEND
8
0
0
POLYLINE
8
0
70
0
66
1
0
VERTEX
8
0
10
1.6273902777777778
20
1.8288763888888888
42
0.4142248374088066
0
VERTEX
8
0
10
1.6718208333333333
20
1.8865430555555553
42
0.3404720888393246
0
VERTEX
8
0
10
1.6273902777777778
20
1.9309597222222221
0
SEQEND
8
0
0
POLYLINE
8
0
70
0
66
1
0
VERTEX
8
0
10
1.6273902777777778
20
1.8288763888888888
0
VERTEX
8
0
10
1.425473611111111
20
1.8026958333333334
0
SEQEND
8
0
0
POLYLINE
8
0
70
0
66
1
0
VERTEX
8
0
10
1.4254777777777776
20
1.7071430555555553
42
0.4142495411455097
0
VERTEX
8
0
10
1.3382416666666666
20
1.639934722222222
42
0.414174611460516
0
VERTEX
8
0
10
1.4054500000000001
20
1.552698611111111
42
0.0644937586685254
0
VERTEX
8
0
10
1.4254777777777776
20
1.552698611111111
0
SEQEND
8
0
0
POLYLINE
8
0
70
0
66
1
0
VERTEX
8
0
10
1.4254777777777776
20
1.7071430555555553
0
VERTEX
8
0
10
1.6273944444444444
20
1.6809624999999997
0
SEQEND
8
0
0
POLYLINE
8
0
70
0
66
1
0
VERTEX
8
0
10
1.6273902777777778
20
1.5788763888888888
42
0.4142248374088032
0
VERTEX
8
0
10
1.6718208333333333
20
1.6365430555555556
42
0.3404720888393218
0
VERTEX
8
0
10
1.6273902777777778
20
1.6809597222222221
0
SEQEND
8
0
0
POLYLINE
8
0
70
0
66
1
0
VERTEX
8
0
10
1.6273902777777778
20
1.5788763888888888
0
VERTEX
8
0
10
1.425473611111111
20
1.5526958333333332
0
SEQEND
8
0
0
POLYLINE
8
0
70
0
66
1
0
VERTEX
8
0
10
1.4254777777777776
20
1.4571430555555553
42
0.4142495411455097
0
VERTEX
8
0
10
1.3382416666666666
20
1.389934722222222
42
0.414174611460516
0
VERTEX
8
0
10
1.4054500000000001
20
1.302698611111111
42
0.0644937586685254
0
VERTEX
8
0
10
1.4254777777777776
20
1.302698611111111
0
SEQEND
8
0
0
POLYLINE
8
0
70
0
66
1
0
VERTEX
8
0
10
1.4254777777777776
20
1.4571430555555553
0
VERTEX
8
0
10
1.6273944444444444
20
1.4309624999999999
0
SEQEND
8
0
0
POLYLINE
8
0
70
0
66
1
0
VERTEX
8
0
10
1.6273902777777778
20
1.3288763888888888
42
0.4142248374088032
0
VERTEX
8
0
10
1.6718208333333333
20
1.3865430555555556
42
0.3404720888393218
0
VERTEX
8
0
10
1.6273902777777778
20
1.4309597222222221
0
SEQEND
8
0
0
POLYLINE
8
0
70
0
66
1
0
VERTEX
8
0
10
1.6273902777777778
20
1.3288763888888888
0
VERTEX
8
0
10
1.425473611111111
20
1.3026958333333332
0
SEQEND
8
0
0
POLYLINE
8
0
70
0
66
1
0
VERTEX
8
0
10
1.4254777777777776
20
1.2071430555555553
42
0.4142495411455097
0
VERTEX
8
0
10
1.3382416666666666
20
1.139934722222222
42
0.4141746114605165
0
VERTEX
8
0
10
1.4054500000000001
20
1.052698611111111
42
0.0644937586685254
0
VERTEX
8
0
10
1.4254777777777776
20
1.052698611111111
0
SEQEND
8
0
0
POLYLINE
8
0
70
0
66
1
0
VERTEX
8
0
10
1.4254777777777776
20
1.2071430555555553
0
VERTEX
8
0
10
1.6273944444444444
20
1.1809624999999999
0
SEQEND
8
0
0
POLYLINE
8
0
70
0
66
1
0
VERTEX
8
0
10
1.6273902777777778
20
1.0788763888888888
42
0.4142248374088097
0
VERTEX
8
0
10
1.6718208333333333
20
1.1365430555555556
42
0.3404720888393218
0
VERTEX
8
0
10
1.6273902777777778
20
1.1809597222222221
0
SEQEND
8
0
0
POLYLINE
8
0
70
0
66
1
0
VERTEX
8
0
10
1.6273902777777778
20
1.0788763888888888
0
VERTEX
8
0
10
1.425473611111111
20
1.0526958333333334
0
SEQEND
8
0
0
POLYLINE
8
0
70
0
66
1
0
VERTEX
8
0
10
1.4254777777777776
20
0.9571430555555555
42
0.4142495411455097
0
VERTEX
8
0
10
1.3382416666666666
20
0.8899347222222221
42
0.4141746114605187
0
VERTEX
8
0
10
1.4054500000000001
20
0.8026986111111111
42
0.0644937586685176
0
VERTEX
8
0
10
1.4254777777777776
20
0.8026986111111111
0
SEQEND
8
0
0
POLYLINE
8
0
70
0
66
1
0
VERTEX
8
0
10
1.4254777777777776
20
0.9571430555555555
0
VERTEX
8
0
10
1.6273944444444444
20
0.9309624999999998
0
SEQEND
8
0
0
POLYLINE
8
0
70
0
66
1
0
VERTEX
8
0
10
1.6273902777777778
20
0.8288763888888888
42
0.4142248374088061
0
VERTEX
8
0
10
1.6718208333333333
20
0.8865430555555555
42
0.3404720888393222
0
VERTEX
8
0
10
1.6273902777777778
20
0.9309597222222221
0
SEQEND
8
0
0
POLYLINE
8
0
70
0
66
1
0
VERTEX
8
0
10
1.6273902777777778
20
0.8288763888888888
0
VERTEX
8
0
10
1.425473611111111
20
0.8026958333333333
0
SEQEND
8
0
0
POLYLINE
8
0
70
0
66
1
0
VERTEX
8
0
10
0.4254777777777777
20
2.2071430555555556
42
0.4142495411455167
0
VERTEX
8
0
10
0.3382416666666667
20
2.1399347222222223
42
0.4141746114605204
0
VERTEX
8
0
10
0.40545
20
2.052698611111111
42
0.0644937586684886
0
VERTEX
8
0
10
0.4254777777777777
20
2.052698611111111
0
SEQEND
8
0
0
POLYLINE
8
0
70
0
66
1
0
VERTEX
8
0
10
0.4254777777777777
20
2.2071430555555556
0
VERTEX
8
0
10
0.6273944444444444
20
2.1809625000000001
0
SEQEND
8
0
0
POLYLINE
8
0
70
0
66
1
0
VERTEX
8
0
10
0.6273902777777778
20
2.0788763888888888
42
0.4142248374088123
0
VERTEX
8
0
10
0.6718208333333333
20
2.1365430555555553
42
0.3404720888393237
0
VERTEX
8
0
10
0.6273902777777778
20
2.1809597222222221
0
SEQEND
8
0
0
POLYLINE
8
0
70
0
66
1
0
VERTEX
8
0
10
0.6273902777777778
20
2.0788763888888888
0
VERTEX
8
0
10
0.4254736111111111
20
2.0526958333333334
0
SEQEND
8
0
0
POLYLINE
8
0
70
0
66
1
0
VERTEX
8
0
10
0.4254777777777777
20
1.9571430555555553
42
0.414249541145517
0
VERTEX
8
0
10
0.3382416666666667
20
1.889934722222222
42
0.4141746114605204
0
VERTEX
8
0
10
0.40545
20
1.802698611111111
42
0.0644937586684886
0
VERTEX
8
0
10
0.4254777777777777
20
1.802698611111111
0
SEQEND
8
0
0
POLYLINE
8
0
70
0
66
1
0
VERTEX
8
0
10
0.4254777777777777
20
1.9571430555555553
0
VERTEX
8
0
10
0.6273944444444444
20
1.9309624999999999
0
SEQEND
8
0
0
POLYLINE
8
0
70
0
66
1
0
VERTEX
8
0
10
0.6273902777777778
20
1.8288763888888888
42
0.4142248374088004
0
VERTEX
8
0
10
0.6718208333333333
20
1.8865430555555553
42
0.3404720888393265
0
VERTEX
8
0
10
0.6273902777777778
20
1.9309597222222221
0
SEQEND
8
0
0
POLYLINE
8
0
70
0
66
1
0
VERTEX
8
0
10
0.6273902777777778
20
1.8288763888888888
0
VERTEX
8
0
10
0.4254736111111111
20
1.8026958333333334
0
SEQEND
8
0
0
POLYLINE
8
0
70
0
66
1
0
VERTEX
8
0
10
0.4254777777777777
20
1.7071430555555553
42
0.4142495411455162
0
VERTEX
8
0
10
0.3382416666666667
20
1.639934722222222
42
0.4141746114605185
0
VERTEX
8
0
10
0.40545
20
1.552698611111111
42
0.0644937586685283
0
VERTEX
8
0
10
0.4254777777777777
20
1.552698611111111
0
SEQEND
8
0
0
POLYLINE
8
0
70
0
66
1
0
VERTEX
8
0
10
0.4254777777777777
20
1.7071430555555553
0
VERTEX
8
0
10
0.6273944444444444
20
1.6809624999999997
0
SEQEND
8
0
0
POLYLINE
8
0
70
0
66
1
0
VERTEX
8
0
10
0.6273902777777778
20
1.5788763888888888
42
0.4142248374088017
0
VERTEX
8
0
10
0.6718208333333333
20
1.6365430555555556
42
0.3404720888393186
0
VERTEX
8
0
10
0.6273902777777778
20
1.6809597222222221
0
SEQEND
8
0
0
POLYLINE
8
0
70
0
66
1
0
VERTEX
8
0
10
0.6273902777777778
20
1.5788763888888888
0
VERTEX
8
0
10
0.4254736111111111
20
1.5526958333333332
0
SEQEND
8
0
0
POLYLINE
8
0
70
0
66
1
0
VERTEX
8
0
10
0.4254777777777777
20
1.4571430555555553
42
0.4142495411455162
0
VERTEX
8
0
10
0.3382416666666667
20
1.389934722222222
42
0.4141746114605182
0
VERTEX
8
0
10
0.40545
20
1.302698611111111
42
0.0644937586685283
0
VERTEX
8
0
10
0.4254777777777777
20
1.302698611111111
0
SEQEND
8
0
0
POLYLINE
8
0
70
0
66
1
0
VERTEX
8
0
10
0.4254777777777777
20
1.4571430555555553
0
VERTEX
8
0
10
0.6273944444444444
20
1.4309624999999999
0
SEQEND
8
0
0
POLYLINE
8
0
70
0
66
1
0
VERTEX
8
0
10
0.6273902777777778
20
1.3288763888888888
42
0.4142248374088017
0
VERTEX
8
0
10
0.6718208333333333
20
1.3865430555555556
42
0.3404720888393186
0
VERTEX
8
0
10
0.6273902777777778
20
1.4309597222222221
0
SEQEND
8
0
0
POLYLINE
8
0
70
0
66
1
0
VERTEX
8
0
10
0.6273902777777778
20
1.3288763888888888
0
VERTEX
8
0
10
0.4254736111111111
20
1.3026958333333332
0
SEQEND
8
0
0
POLYLINE
8
0
70
0
66
1
0
VERTEX
8
0
10
0.4254777777777777
20
1.2071430555555553
42
0.4142495411455162
0
VERTEX
8
0
10
0.3382416666666667
20
1.139934722222222
42
0.4141746114605182
0
VERTEX
8
0
10
0.40545
20
1.052698611111111
42
0.0644937586685283
0
VERTEX
8
0
10
0.4254777777777777
20
1.052698611111111
0
SEQEND
8
0
0
POLYLINE
8
0
70
0
66
1
0
VERTEX
8
0
10
0.4254777777777777
20
1.2071430555555553
0
VERTEX
8
0
10
0.6273944444444444
20
1.1809624999999999
0
SEQEND
8
0
0
POLYLINE
8
0
70
0
66
1
0
VERTEX
8
0
10
0.6273902777777778
20
1.0788763888888888
42
0.4142248374088027
0
VERTEX
8
0
10
0.6718208333333333
20
1.1365430555555556
42
0.3404720888393186
0
VERTEX
8
0
10
0.6273902777777778
20
1.1809597222222221
0
SEQEND
8
0
0
POLYLINE
8
0
70
0
66
1
0
VERTEX
8
0
10
0.6273902777777778
20
1.0788763888888888
0
VERTEX
8
0
10
0.4254736111111111
20
1.0526958333333334
0
SEQEND
8
0
0
POLYLINE
8
0
70
0
66
1
0
VERTEX
8
0
10
0.4254777777777777
20
0.9571430555555555
42
0.4142495411455162
0
VERTEX
8
0
10
0.3382416666666667
20
0.8899347222222221
42
0.4141746114605204
0
VERTEX
8
0
10
0.40545
20
0.8026986111111111
42
0.0644937586685181
0
VERTEX
8
0
10
0.4254777777777777
20
0.8026986111111111
0
SEQEND
8
0
0
POLYLINE
8
0
70
0
66
1
0
VERTEX
8
0
10
0.4254777777777777
20
0.9571430555555555
0
VERTEX
8
0
10
0.6273944444444444
20
0.9309624999999998
0
SEQEND
8
0
0
POLYLINE
8
0
70
0
66
1
0
VERTEX
8
0
10
0.6273902777777778
20
0.8288763888888888
42
0.4142248374088014
0
VERTEX
8
0
10
0.6718208333333333
20
0.8865430555555555
42
0.3404720888393218
0
VERTEX
8
0
10
0.6273902777777778
20
0.9309597222222221
0
SEQEND
8
0
0
POLYLINE
8
0
70
0
66
1
0
VERTEX
8
0
10
0.6273902777777778
20
0.8288763888888888
0
VERTEX
8
0
10
0.4254736111111111
20
0.8026958333333333
0
SEQEND
8
0
0
POLYLINE
8
0
70
0
66
1
0
VERTEX
8
0
10
0.4254777777777777
20
0.7071430555555555
42
0.4142495411455188
0
VERTEX
8
0
10
0.3382416666666667
20
0.6399347222222221
42
0.4141746114605204
0
VERTEX
8
0
10
0.40545
20
0.5526986111111111
42
0.0644937586685181
0
VERTEX
8
0
10
0.4254777777777777
20
0.5526986111111111
0
SEQEND
8
0
0
POLYLINE
8
0
70
0
66
1
0
VERTEX
8
0
10
0.4254777777777777
20
0.7071430555555555
0
VERTEX
8
0
10
0.6273944444444444
20
0.6809624999999999
0
SEQEND
8
0
0
POLYLINE
8
0
70
0
66
1
0
VERTEX
8
0
10
0.6273902777777778
20
0.5788763888888888
42
0.4142248374088038
0
VERTEX
8
0
10
0.6718208333333333
20
0.6365430555555555
42
0.3404720888393209
0
VERTEX
8
0
10
0.6273902777777778
20
0.6809597222222222
0
SEQEND
8
0
0
POLYLINE
8
0
70
0
66
1
0
VERTEX
8
0
10
0.6273902777777778
20
0.5788763888888888
0
VERTEX
8
0
10
0.4254736111111111
20
0.5526958333333333
0
SEQEND
8
0
0
POLYLINE
8
0
70
0
66
1
0
VERTEX
8
0
10
1.4254777777777776
20
2.4571430555555556
42
0.4142495411455128
0
VERTEX
8
0
10
1.3382416666666666
20
2.3899347222222223
42
0.4141746114605203
0
VERTEX
8
0
10
1.4054500000000001
20
2.302698611111111
42
0.0644937586684889
0
VERTEX
8
0
10
1.4254777777777776
20
2.302698611111111
0
SEQEND
8
0
0
POLYLINE
8
0
70
0
66
1
0
VERTEX
8
0
10
1.4254777777777776
20
2.4571430555555556
0
VERTEX
8
0
10
1.6273944444444444
20
2.4309625000000001
0
SEQEND
8
0
0
POLYLINE
8
0
70
0
66
1
0
VERTEX
8
0
10
1.6273902777777778
20
2.3288763888888888
42
0.4142248374088137
0
VERTEX
8
0
10
1.6718208333333333
20
2.3865430555555553
42
0.3404720888393154
0
VERTEX
8
0
10
1.6273902777777778
20
2.4309597222222221
0
SEQEND
8
0
0
POLYLINE
8
0
70
0
66
1
0
VERTEX
8
0
10
1.6273902777777778
20
2.3288763888888888
0
VERTEX
8
0
10
1.425473611111111
20
2.3026958333333334
0
SEQEND
8
0
0
POLYLINE
8
0
70
0
66
1
0
VERTEX
8
0
10
1.4254777777777776
20
0.7071430555555555
42
0.414249541145522
0
VERTEX
8
0
10
1.3382416666666666
20
0.6399347222222221
42
0.4141746114605187
0
VERTEX
8
0
10
1.4054500000000001
20
0.5526986111111111
42
0.0644937586685176
0
VERTEX
8
0
10
1.4254777777777776
20
0.5526986111111111
0
SEQEND
8
0
0
POLYLINE
8
0
70
0
66
1
0
VERTEX
8
0
10
1.4254777777777776
20
0.7071430555555555
0
VERTEX
8
0
10
1.6273944444444444
20
0.6809624999999999
0
SEQEND
8
0
0
POLYLINE
8
0
70
0
66
1
0
VERTEX
8
0
10
1.6273902777777778
20
0.5788763888888888
42
0.4142248374088061
0
VERTEX
8
0
10
1.6718208333333333
20
0.6365430555555555
42
0.3404720888393222
0
VERTEX
8
0
10
1.6273902777777778
20
0.6809597222222222
0
SEQEND
8
0
0
POLYLINE
8
0
70
0
66
1
0
VERTEX
8
0
10
1.6273902777777778
20
0.5788763888888888
0
VERTEX
8
0
10
1.425473611111111
20
0.5526958333333333
0
SEQEND
8
0
0
POLYLINE
8
0
70
0
66
1
0
VERTEX
8
0
10
2.4254777777777776
20
2.4571430555555556
42
0.4142495411455097
0
VERTEX
8
0
10
2.3382416666666663
20
2.3899347222222223
42
0.4141746114605187
0
VERTEX
8
0
10
2.4054499999999996
20
2.302698611111111
42
0.0644937586684895
0
VERTEX
8
0
10
2.4254777777777776
20
2.302698611111111
0
SEQEND
8
0
0
POLYLINE
8
0
70
0
66
1
0
VERTEX
8
0
10
2.4254777777777776
20
2.4571430555555556
0
VERTEX
8
0
10
2.6273944444444446
20
2.4309625000000001
0
SEQEND
8
0
0
POLYLINE
8
0
70
0
66
1
0
VERTEX
8
0
10
2.6273902777777778
20
2.3288763888888888
42
0.4142248374088077
0
VERTEX
8
0
10
2.6718208333333333
20
2.3865430555555553
42
0.3404720888393137
0
VERTEX
8
0
10
2.6273902777777778
20
2.4309597222222221
0
SEQEND
8
0
0
POLYLINE
8
0
70
0
66
1
0
VERTEX
8
0
10
2.6273902777777778
20
2.3288763888888888
0
VERTEX
8
0
10
2.4254736111111108
20
2.3026958333333334
0
SEQEND
8
0
0
POLYLINE
8
0
70
0
66
1
0
VERTEX
8
0
10
2.4254777777777776
20
2.2071430555555556
42
0.4142495411455097
0
VERTEX
8
0
10
2.3382416666666663
20
2.1399347222222223
42
0.4141746114605187
0
VERTEX
8
0
10
2.4054499999999996
20
2.052698611111111
42
0.0644937586684895
0
VERTEX
8
0
10
2.4254777777777776
20
2.052698611111111
0
SEQEND
8
0
0
POLYLINE
8
0
70
0
66
1
0
VERTEX
8
0
10
2.4254777777777776
20
2.2071430555555556
0
VERTEX
8
0
10
2.6273944444444446
20
2.1809625000000001
0
SEQEND
8
0
0
POLYLINE
8
0
70
0
66
1
0
VERTEX
8
0
10
2.6273902777777778
20
2.0788763888888888
42
0.4142248374088077
0
VERTEX
8
0
10
2.6718208333333333
20
2.1365430555555553
42
0.340472088839323
0
VERTEX
8
0
10
2.6273902777777778
20
2.1809597222222221
0
SEQEND
8
0
0
POLYLINE
8
0
70
0
66
1
0
VERTEX
8
0
10
2.6273902777777778
20
2.0788763888888888
0
VERTEX
8
0
10
2.4254736111111108
20
2.0526958333333334
0
SEQEND
8
0
0
POLYLINE
8
0
70
0
66
1
0
VERTEX
8
0
10
2.4254777777777776
20
1.9571430555555553
42
0.4142495411455097
0
VERTEX
8
0
10
2.3382416666666663
20
1.889934722222222
42
0.4141746114605187
0
VERTEX
8
0
10
2.4054499999999996
20
1.802698611111111
42
0.0644937586684895
0
VERTEX
8
0
10
2.4254777777777776
20
1.802698611111111
0
SEQEND
8
0
0
POLYLINE
8
0
70
0
66
1
0
VERTEX
8
0
10
2.4254777777777776
20
1.9571430555555553
0
VERTEX
8
0
10
2.6273944444444446
20
1.9309624999999999
0
SEQEND
8
0
0
POLYLINE
8
0
70
0
66
1
0
VERTEX
8
0
10
2.6273902777777778
20
1.8288763888888888
42
0.4142248374087926
0
VERTEX
8
0
10
2.6718208333333333
20
1.8865430555555553
42
0.340472088839323
0
VERTEX
8
0
10
2.6273902777777778
20
1.9309597222222221
0
SEQEND
8
0
0
POLYLINE
8
0
70
0
66
1
0
VERTEX
8
0
10
2.6273902777777778
20
1.8288763888888888
0
VERTEX
8
0
10
2.4254736111111108
20
1.8026958333333334
0
SEQEND
8
0
0
POLYLINE
8
0
70
0
66
1
0
VERTEX
8
0
10
2.4254777777777776
20
1.7071430555555553
42
0.4142495411455097
0
VERTEX
8
0
10
2.3382416666666663
20
1.639934722222222
42
0.4141746114605187
0
VERTEX
8
0
10
2.4054499999999996
20
1.552698611111111
42
0.0644937586685261
0
VERTEX
8
0
10
2.4254777777777776
20
1.552698611111111
0
SEQEND
8
0
0
POLYLINE
8
0
70
0
66
1
0
VERTEX
8
0
10
2.4254777777777776
20
1.7071430555555553
0
VERTEX
8
0
10
2.6273944444444446
20
1.6809624999999997
0
SEQEND
8
0
0
POLYLINE
8
0
70
0
66
1
0
VERTEX
8
0
10
2.6273902777777778
20
1.5788763888888888
42
0.4142248374087998
0
VERTEX
8
0
10
2.6718208333333333
20
1.6365430555555556
42
0.3404720888393117
0
VERTEX
8
0
10
2.6273902777777778
20
1.6809597222222221
0
SEQEND
8
0
0
POLYLINE
8
0
70
0
66
1
0
VERTEX
8
0
10
2.6273902777777778
20
1.5788763888888888
0
VERTEX
8
0
10
2.4254736111111108
20
1.5526958333333332
0
SEQEND
8
0
0
POLYLINE
8
0
70
0
66
1
0
VERTEX
8
0
10
2.4254777777777776
20
1.4571430555555553
42
0.4142495411455097
0
VERTEX
8
0
10
2.3382416666666663
20
1.389934722222222
42
0.4141746114605187
0
VERTEX
8
0
10
2.4054499999999996
20
1.302698611111111
42
0.0644937586685261
0
VERTEX
8
0
10
2.4254777777777776
20
1.302698611111111
0
SEQEND
8
0
0
POLYLINE
8
0
70
0
66
1
0
VERTEX
8
0
10
2.4254777777777776
20
1.4571430555555553
0
VERTEX
8
0
10
2.6273944444444446
20
1.4309624999999999
0
SEQEND
8
0
0
POLYLINE
8
0
70
0
66
1
0
VERTEX
8
0
10
2.6273902777777778
20
1.3288763888888888
42
0.4142248374087998
0
VERTEX
8
0
10
2.6718208333333333
20
1.3865430555555556
42
0.3404720888393117
0
VERTEX
8
0
10
2.6273902777777778
20
1.4309597222222221
0
SEQEND
8
0
0
POLYLINE
8
0
70
0
66
1
0
VERTEX
8
0
10
2.6273902777777778
20
1.3288763888888888
0
VERTEX
8
0
10
2.4254736111111108
20
1.3026958333333332
0
SEQEND
8
0
0
POLYLINE
8
0
70
0
66
1
0
VERTEX
8
0
10
2.4254777777777776
20
1.2071430555555553
42
0.4142495411455097
0
VERTEX
8
0
10
2.3382416666666663
20
1.139934722222222
42
0.4141746114605187
0
VERTEX
8
0
10
2.4054499999999996
20
1.052698611111111
42
0.0644937586685261
0
VERTEX
8
0
10
2.4254777777777776
20
1.052698611111111
0
SEQEND
8
0
0
POLYLINE
8
0
70
0
66
1
0
VERTEX
8
0
10
2.4254777777777776
20
1.2071430555555553
0
VERTEX
8
0
10
2.6273944444444446
20
1.1809624999999999
0
SEQEND
8
0
0
POLYLINE
8
0
70
0
66
1
0
VERTEX
8
0
10
2.6273902777777778
20
1.0788763888888888
42
0.4142248374088089
0
VERTEX
8
0
10
2.6718208333333333
20
1.1365430555555556
42
0.3404720888393117
0
VERTEX
8
0
10
2.6273902777777778
20
1.1809597222222221
0
SEQEND
8
0
0
POLYLINE
8
0
70
0
66
1
0
VERTEX
8
0
10
2.6273902777777778
20
1.0788763888888888
0
VERTEX
8
0
10
2.4254736111111108
20
1.0526958333333334
0
SEQEND
8
0
0
POLYLINE
8
0
70
0
66
1
0
VERTEX
8
0
10
2.4254777777777776
20
0.9571430555555555
42
0.4142495411455097
0
VERTEX
8
0
10
2.3382416666666663
20
0.8899347222222221
42
0.4141746114605183
0
VERTEX
8
0
10
2.4054499999999996
20
0.8026986111111111
42
0.0644937586685261
0
VERTEX
8
0
10
2.4254777777777776
20
0.8026986111111111
0
SEQEND
8
0
0
POLYLINE
8
0
70
0
66
1
0
VERTEX
8
0
10
2.4254777777777776
20
0.9571430555555555
0
VERTEX
8
0
10
2.6273944444444446
20
0.9309624999999998
0
SEQEND
8
0
0
POLYLINE
8
0
70
0
66
1
0
VERTEX
8
0
10
2.6273902777777778
20
0.8288763888888888
42
0.4142248374087996
0
VERTEX
8
0
10
2.6718208333333333
20
0.8865430555555555
42
0.3404720888393122
0
VERTEX
8
0
10
2.6273902777777778
20
0.9309597222222221
0
SEQEND
8
0
0
POLYLINE
8
0
70
0
66
1
0
VERTEX
8
0
10
2.6273902777777778
20
0.8288763888888888
0
VERTEX
8
0
10
2.4254736111111108
20
0.8026958333333333
0
SEQEND
8
0
0
POLYLINE
8
0
70
0
66
1
0
VERTEX
8
0
10
2.4254777777777776
20
0.7071430555555555
42
0.4142495411455188
0
VERTEX
8
0
10
2.3382416666666663
20
0.6399347222222221
42
0.4141746114605183
0
VERTEX
8
0
10
2.4054499999999996
20
0.5526986111111111
42
0.0644937586685261
0
VERTEX
8
0
10
2.4254777777777776
20
0.5526986111111111
0
SEQEND
8
0
0
POLYLINE
8
0
70
0
66
1
0
VERTEX
8
0
10
2.4254777777777776
20
0.7071430555555555
0
VERTEX
8
0
10
2.6273944444444446
20
0.6809624999999999
0
SEQEND
8
0
0
POLYLINE
8
0
70
0
66
1
0
VERTEX
8
0
10
2.6273902777777778
20
0.5788763888888888
42
0.4142248374087996
0
VERTEX
8
0
10
2.6718208333333333
20
0.6365430555555555
42
0.3404720888393122
0
VERTEX
8
0
10
2.6273902777777778
20
0.6809597222222222
0
SEQEND
8
0
0
POLYLINE
8
0
70
0
66
1
0
VERTEX
8
0
10
2.6273902777777778
20
0.5788763888888888
0
VERTEX
8
0
10
2.4254736111111108
20
0.5526958333333333
0
SEQEND
8
0
0
POLYLINE
8
0
70
0
66
1
0
VERTEX
8
0
10
0.0
20
3.0098472222222221
0
VERTEX
8
0
10
3.0098472222222221
20
3.0098472222222221
0
VERTEX
8
0
10
3.0098472222222221
20
-0.0
0
VERTEX
8
0
10
0.0
20
-0.0
0
VERTEX
8
0
10
0.0
20
3.0098472222222221
0
SEQEND
8
0
0
POLYLINE
8
0
70
0
66
1
0
VERTEX
8
0
10
1.4254777777777776
20
2.2071430555555556
42
0.4142495411455128
0
VERTEX
8
0
10
1.3382416666666666
20
2.1399347222222223
42
0.4141746114605219
0
VERTEX
8
0
10
1.4054500000000001
20
2.052698611111111
42
0.0644937586684889
0
VERTEX
8
0
10
1.4254777777777776
20
2.052698611111111
0
SEQEND
8
0
0
POLYLINE
8
0
70
0
66
1
0
VERTEX
8
0
10
1.4254777777777776
20
2.2071430555555556
0
VERTEX
8
0
10
1.6273944444444444
20
2.1809625000000001
0
SEQEND
8
0
0
POLYLINE
8
0
70
0
66
1
0
VERTEX
8
0
10
1.6273902777777778
20
2.0788763888888888
42
0.4142248374088137
0
VERTEX
8
0
10
1.6718208333333333
20
2.1365430555555553
42
0.3404720888393246
0
VERTEX
8
0
10
1.6273902777777778
20
2.1809597222222221
0
SEQEND
8
0
0
POLYLINE
8
0
70
0
66
1
0
VERTEX
8
0
10
1.6273902777777778
20
2.0788763888888888
0
VERTEX
8
0
10
1.425473611111111
20
2.0526958333333334
0
SEQEND
8
0
0
POLYLINE
8
0
70
0
66
1
0
VERTEX
8
0
10
0.4254777777777777
20
2.4571430555555556
42
0.4142495411455167
0
VERTEX
8
0
10
0.3382416666666667
20
2.3899347222222223
42
0.4141746114605204
0
VERTEX
8
0
10
0.40545
20
2.302698611111111
42
0.0644937586684886
0
VERTEX
8
0
10
0.4254777777777777
20
2.302698611111111
0
SEQEND
8
0
0
POLYLINE
8
0
70
0
66
1
0
VERTEX
8
0
10
0.4254777777777777
20
2.4571430555555556
0
VERTEX
8
0
10
0.6273944444444444
20
2.4309625000000001
0
SEQEND
8
0
0
POLYLINE
8
0
70
0
66
1
0
VERTEX
8
0
10
0.6273902777777778
20
2.3288763888888888
42
0.4142248374088123
0
VERTEX
8
0
10
0.6718208333333333
20
2.3865430555555553
42
0.3404720888393159
0
VERTEX
8
0
10
0.6273902777777778
20
2.4309597222222221
0
SEQEND
8
0
0
POLYLINE
8
0
70
0
66
1
0
VERTEX
8
0
10
0.6273902777777778
20
2.3288763888888888
0
VERTEX
8
0
10
0.4254736111111111
20
2.3026958333333334
0
SEQEND
8
0
0
POLYLINE
8
0
70
0
66
1
0
VERTEX
8
0
10
1.1299208333333333
20
1.5049208333333333
42
0.4142499999999995
0
VERTEX
8
0
10
1.0049208333333333
20
1.6299208333333333
42
0.4142500000000001
0
VERTEX
8
0
10
0.8799208333333333
20
1.5049208333333333
42
0.41425
0
VERTEX
8
0
10
1.0049208333333333
20
1.3799208333333333
42
0.4142499999999992
0
VERTEX
8
0
10
1.1299208333333333
20
1.5049208333333333
0
SEQEND
8
0
0
POLYLINE
8
0
70
0
66
1
0
VERTEX
8
0
10
0.3799208333333333
20
0.2549208333333333
42
0.41425
0
VERTEX
8
0
10
0.2549208333333333
20
0.3799208333333333
42
0.4142499999999998
0
VERTEX
8
0
10
0.1299208333333333
20
0.2549208333333333
42
0.4142499999999998
0
VERTEX
8
0
10
0.2549208333333333
20
0.1299208333333333
42
0.4142500000000005
0
VERTEX
8
0
10
0.3799208333333333
20
0.2549208333333333
0
SEQEND
8
0
0
POLYLINE
8
0
70
0
66
1
0
VERTEX
8
0
10
0.3799208333333333
20
2.7549208333333333
42
0.4142499999999992
0
VERTEX
8
0
10
0.2549208333333333
20
2.8799208333333333
42
0.4142499999999993
0
VERTEX
8
0
10
0.1299208333333333
20
2.7549208333333333
42
0.4142499999999993
0
VERTEX
8
0
10
0.2549208333333333
20
2.6299208333333333
42
0.4142499999999992
0
VERTEX
8
0
10
0.3799208333333333
20
2.7549208333333333
0
SEQEND
8
0
0
POLYLINE
8
0
70
0
66
1
0
VERTEX
8
0
10
0.0049208333333333
20
3.0049208333333333
0
VERTEX
8
0
10
0.0049208333333333
20
0.0049208333333333
0
SEQEND
8
0
0
POLYLINE
8
0
70
0
66
1
0
VERTEX
8
0
10
0.0049208333333333
20
0.0049208333333333
0
VERTEX
8
0
10
3.0049208333333333
20
0.0049208333333333
0
SEQEND
8
0
0
POLYLINE
8
0
70
0
66
1
0
VERTEX
8
0
10
3.0049208333333333
20
0.0049208333333333
0
VERTEX
8
0
10
3.0049208333333333
20
3.0049208333333333
0
SEQEND
8
0
0
POLYLINE
8
0
70
0
66
1
0
VERTEX
8
0
10
3.0049208333333333
20
3.0049208333333333
0
VERTEX
8
0
10
0.0049208333333333
20
3.0049208333333333
0
SEQEND
8
0
0
POLYLINE
8
0
70
0
66
1
0
VERTEX
8
0
10
2.8799208333333333
20
2.7549208333333333
42
0.4142499999999997
0
VERTEX
8
0
10
2.7549208333333333
20
2.8799208333333333
42
0.4142500000000014
0
VERTEX
8
0
10
2.6299208333333333
20
2.7549208333333333
42
0.4142500000000005
0
VERTEX
8
0
10
2.7549208333333333
20
2.6299208333333333
42
0.4142499999999997
0
VERTEX
8
0
10
2.8799208333333333
20
2.7549208333333333
0
SEQEND
8
0
0
POLYLINE
8
0
70
0
66
1
0
VERTEX
8
0
10
2.8799208333333333
20
0.2549208333333333
42
0.41425
0
VERTEX
8
0
10
2.7549208333333333
20
0.3799208333333333
42
0.4142500000000013
0
VERTEX
8
0
10
2.6299208333333333
20
0.2549208333333333
42
0.4142500000000006
0
VERTEX
8
0
10
2.7549208333333333
20
0.1299208333333333
42
0.4142499999999997
0
VERTEX
8
0
10
2.8799208333333333
20
0.2549208333333333
0
SEQEND
8
0
0
POLYLINE
8
0
70
0
66
1
0
VERTEX
8
0
10
2.1299208333333333
20
1.5049208333333333
42
0.4142500000000005
0
VERTEX
8
0
10
2.0049208333333333
20
1.6299208333333333
42
0.4142500000000023
0
VERTEX
8
0
10
1.8799208333333333
20
1.5049208333333333
42
0.4142500000000016
0
VERTEX
8
0
10
2.0049208333333333
20
1.3799208333333333
42
0.4142500000000016
0
VERTEX
8
0
10
2.1299208333333333
20
1.5049208333333333
0
SEQEND
8
0
0
POLYLINE
8
0
70
0
66
1
0
VERTEX
8
0
10
1.4254777777777776
20
1.9571430555555553
42
0.4142495411455128
0
VERTEX
8
0
10
1.3382416666666666
20
1.889934722222222
42
0.4141746114605219
0
VERTEX
8
0
10
1.4054500000000001
20
1.802698611111111
42
0.0644937586684889
0
VERTEX
8
0
10
1.4254777777777776
20
1.802698611111111
0
SEQEND
8
0
0
POLYLINE
8
0
70
0
66
1
0
VERTEX
8
0
10
1.4254777777777776
20
1.9571430555555553
0
VERTEX
8
0
10
1.6273944444444444
20
1.9309624999999999
0
SEQEND
8
0
0
POLYLINE
8
0
70
0
66
1
0
VERTEX
8
0
10
1.6273902777777778
20
1.8288763888888888
42
0.4142248374088066
0
VERTEX
8
0
10
1.6718208333333333
20
1.8865430555555553
42
0.3404720888393246
0
VERTEX
8
0
10
1.6273902777777778
20
1.9309597222222221
0
SEQEND
8
0
0
POLYLINE
8
0
70
0
66
1
0
VERTEX
8
0
10
1.6273902777777778
20
1.8288763888888888
0
VERTEX
8
0
10
1.425473611111111
20
1.8026958333333334
0
SEQEND
8
0
0
POLYLINE
8
0
70
0
66
1
0
VERTEX
8
0
10
1.4254777777777776
20
1.7071430555555553
42
0.4142495411455097
0
VERTEX
8
0
10
1.3382416666666666
20
1.639934722222222
42
0.414174611460516
0
VERTEX
8
0
10
1.4054500000000001
20
1.552698611111111
42
0.0644937586685254
0
VERTEX
8
0
10
1.4254777777777776
20
1.552698611111111
0
SEQEND
8
0
0
POLYLINE
8
0
70
0
66
1
0
VERTEX
8
0
10
1.4254777777777776
20
1.7071430555555553
0
VERTEX
8
0
10
1.6273944444444444
20
1.6809624999999997
0
SEQEND
8
0
0
POLYLINE
8
0
70
0
66
1
0
VERTEX
8
0
10
1.6273902777777778
20
1.5788763888888888
42
0.4142248374088032
0
VERTEX
8
0
10
1.6718208333333333
20
1.6365430555555556
42
0.3404720888393218
0
VERTEX
8
0
10
1.6273902777777778
20
1.6809597222222221
0
SEQEND
8
0
0
POLYLINE
8
0
70
0
66
1
0
VERTEX
8
0
10
1.6273902777777778
20
1.5788763888888888
0
VERTEX
8
0
10
1.425473611111111
20
1.5526958333333332
0
SEQEND
8
0
0
POLYLINE
8
0
70
0
66
1
0
VERTEX
8
0
10
1.4254777777777776
20
1.4571430555555553
42
0.4142495411455097
0
VERTEX
8
0
10
1.3382416666666666
20
1.389934722222222
42
0.414174611460516
0
VERTEX
8
0
10
1.4054500000000001
20
1.302698611111111
42
0.0644937586685254
0
VERTEX
8
0
10
1.4254777777777776
20
1.302698611111111
0
SEQEND
8
0
0
POLYLINE
8
0
70
0
66
1
0
VERTEX
8
0
10
1.4254777777777776
20
1.4571430555555553
0
VERTEX
8
0
10
1.6273944444444444
20
1.4309624999999999
0
SEQEND
8
0
0
POLYLINE
8
0
70
0
66
1
0
VERTEX
8
0
10
1.6273902777777778
20
1.3288763888888888
42
0.4142248374088032
0
VERTEX
8
0
10
1.6718208333333333
20
1.3865430555555556
42
0.3404720888393218
0
VERTEX
8
0
10
1.6273902777777778
20
1.4309597222222221
0
SEQEND
8
0
0
POLYLINE
8
0
70
0
66
1
0
VERTEX
8
0
10
1.6273902777777778
20
1.3288763888888888
0
VERTEX
8
0
10
1.425473611111111
20
1.3026958333333332
0
SEQEND
8
0
0
POLYLINE
8
0
70
0
66
1
0
VERTEX
8
0
10
1.4254777777777776
20
1.2071430555555553
42
0.4142495411455097
0
VERTEX
8
0
10
1.3382416666666666
20
1.139934722222222
42
0.4141746114605165
0
VERTEX
8
0
10
1.4054500000000001
20
1.052698611111111
42
0.0644937586685254
0
VERTEX
8
0
10
1.4254777777777776
20
1.052698611111111
0
SEQEND
8
0
0
POLYLINE
8
0
70
0
66
1
0
VERTEX
8
0
10
1.4254777777777776
20
1.2071430555555553
0
VERTEX
8
0
10
1.6273944444444444
20
1.1809624999999999
0
SEQEND
8
0
0
POLYLINE
8
0
70
0
66
1
0
VERTEX
8
0
10
1.6273902777777778
20
1.0788763888888888
42
0.4142248374088097
0
VERTEX
8
0
10
1.6718208333333333
20
1.1365430555555556
42
0.3404720888393218
0
VERTEX
8
0
10
1.6273902777777778
20
1.1809597222222221
0
SEQEND
8
0
0
POLYLINE
8
0
70
0
66
1
0
VERTEX
8
0
10
1.6273902777777778
20
1.0788763888888888
0
VERTEX
8
0
10
1.425473611111111
20
1.0526958333333334
0
SEQEND
8
0
0
POLYLINE
8
0
70
0
66
1
0
VERTEX
8
0
10
1.4254777777777776
20
0.9571430555555555
42
0.4142495411455097
0
VERTEX
8
0
10
1.3382416666666666
20
0.8899347222222221
42
0.4141746114605187
0
VERTEX
8
0
10
1.4054500000000001
20
0.8026986111111111
42
0.0644937586685176
0
VERTEX
8
0
10
1.4254777777777776
20
0.8026986111111111
0
SEQEND
8
0
0
POLYLINE
8
0
70
0
66
1
0
VERTEX
8
0
10
1.4254777777777776
20
0.9571430555555555
0
VERTEX
8
0
10
1.6273944444444444
20
0.9309624999999998
0
SEQEND
8
0
0
POLYLINE
8
0
70
0
66
1
0
VERTEX
8
0
10
1.6273902777777778
20
0.8288763888888888
42
0.4142248374088061
0
VERTEX
8
0
10
1.6718208333333333
20
0.8865430555555555
42
0.3404720888393222
0
VERTEX
8
0
10
1.6273902777777778
20
0.9309597222222221
0
SEQEND
8
0
0
POLYLINE
8
0
70
0
66
1
0
VERTEX
8
0
10
1.6273902777777778
20
0.8288763888888888
0
VERTEX
8
0
10
1.425473611111111
20
0.8026958333333333
0
SEQEND
8
0
0
POLYLINE
8
0
70
0
66
1
0
VERTEX
8
0
10
0.4254777777777777
20
2.2071430555555556
42
0.4142495411455167
0
VERTEX
8
0
10
0.3382416666666667
20
2.1399347222222223
42
0.4141746114605204
0
VERTEX
8
0
10
0.40545
20
2.052698611111111
42
0.0644937586684886
0
VERTEX
8
0
10
0.4254777777777777
20
2.052698611111111
0
SEQEND
8
0
0
POLYLINE
8
0
70
0
66
1
0
VERTEX
8
0
10
0.4254777777777777
20
2.2071430555555556
0
VERTEX
8
0
10
0.6273944444444444
20
2.1809625000000001
0
SEQEND
8
0
0
POLYLINE
8
0
70
0
66
1
0
VERTEX
8
0
10
0.6273902777777778
20
2.0788763888888888
42
0.4142248374088123
0
VERTEX
8
0
10
0.6718208333333333
20
2.1365430555555553
42
0.3404720888393237
0
VERTEX
8
0
10
0.6273902777777778
20
2.1809597222222221
0
SEQEND
8
0
0
POLYLINE
8
0
70
0
66
1
0
VERTEX
8
0
10
0.6273902777777778
20
2.0788763888888888
0
VERTEX
8
0
10
0.4254736111111111
20
2.0526958333333334
0
SEQEND
8
0
0
POLYLINE
8
0
70
0
66
1
0
VERTEX
8
0
10
0.4254777777777777
20
1.9571430555555553
42
0.414249541145517
0
VERTEX
8
0
10
0.3382416666666667
20
1.889934722222222
42
0.4141746114605204
0
VERTEX
8
0
10
0.40545
20
1.802698611111111
42
0.0644937586684886
0
VERTEX
8
0
10
0.4254777777777777
20
1.802698611111111
0
SEQEND
8
0
0
POLYLINE
8
0
70
0
66
1
0
VERTEX
8
0
10
0.4254777777777777
20
1.9571430555555553
0
VERTEX
8
0
10
0.6273944444444444
20
1.9309624999999999
0
SEQEND
8
0
0
POLYLINE
8
0
70
0
66
1
0
VERTEX
8
0
10
0.6273902777777778
20
1.8288763888888888
42
0.4142248374088004
0
VERTEX
8
0
10
0.6718208333333333
20
1.8865430555555553
42
0.3404720888393265
0
VERTEX
8
0
10
0.6273902777777778
20
1.9309597222222221
0
SEQEND
8
0
0
POLYLINE
8
0
70
0
66
1
0
VERTEX
8
0
10
0.6273902777777778
20
1.8288763888888888
0
VERTEX
8
0
10
0.4254736111111111
20
1.8026958333333334
0
SEQEND
8
0
0
POLYLINE
8
0
70
0
66
1
0
VERTEX
8
0
10
0.4254777777777777
20
1.7071430555555553
42
0.4142495411455162
0
VERTEX
8
0
10
0.3382416666666667
20
1.639934722222222
42
0.4141746114605185
0
VERTEX
8
0
10
0.40545
20
1.552698611111111
42
0.0644937586685283
0
VERTEX
8
0
10
0.4254777777777777
20
1.552698611111111
0
SEQEND
8
0
0
POLYLINE
8
0
70
0
66
1
0
VERTEX
8
0
10
0.4254777777777777
20
1.7071430555555553
0
VERTEX
8
0
10
0.6273944444444444
20
1.6809624999999997
0
SEQEND
8
0
0
POLYLINE
8
0
70
0
66
1
0
VERTEX
8
0
10
0.6273902777777778
20
1.5788763888888888
42
0.4142248374088017
0
VERTEX
8
0
10
0.6718208333333333
20
1.6365430555555556
42
0.3404720888393186
0
VERTEX
8
0
10
0.6273902777777778
20
1.6809597222222221
0
SEQEND
8
0
0
POLYLINE
8
0
70
0
66
1
0
VERTEX
8
0
10
0.6273902777777778
20
1.5788763888888888
0
VERTEX
8
0
10
0.4254736111111111
20
1.5526958333333332
0
SEQEND
8
0
0
POLYLINE
8
0
70
0
66
1
0
VERTEX
8
0
10
0.4254777777777777
20
1.4571430555555553
42
0.4142495411455162
0
VERTEX
8
0
10
0.3382416666666667
20
1.389934722222222
42
0.4141746114605182
0
VERTEX
8
0
10
0.40545
20
1.302698611111111
42
0.0644937586685283
0
VERTEX
8
0
10
0.4254777777777777
20
1.302698611111111
0
SEQEND
8
0
0
POLYLINE
8
0
70
0
66
1
0
VERTEX
8
0
10
0.4254777777777777
20
1.4571430555555553
0
VERTEX
8
0
10
0.6273944444444444
20
1.4309624999999999
0
SEQEND
8
0
0
POLYLINE
8
0
70
0
66
1
0
VERTEX
8
0
10
0.6273902777777778
20
1.3288763888888888
42
0.4142248374088017
0
VERTEX
8
0
10
0.6718208333333333
20
1.3865430555555556
42
0.3404720888393186
0
VERTEX
8
0
10
0.6273902777777778
20
1.4309597222222221
0
SEQEND
8
0
0
POLYLINE
8
0
70
0
66
1
0
VERTEX
8
0
10
0.6273902777777778
20
1.3288763888888888
0
VERTEX
8
0
10
0.4254736111111111
20
1.3026958333333332
0
SEQEND
8
0
0
POLYLINE
8
0
70
0
66
1
0
VERTEX
8
0
10
0.4254777777777777
20
1.2071430555555553
42
0.4142495411455162
0
VERTEX
8
0
10
0.3382416666666667
20
1.139934722222222
42
0.4141746114605182
0
VERTEX
8
0
10
0.40545
20
1.052698611111111
42
0.0644937586685283
0
VERTEX
8
0
10
0.4254777777777777
20
1.052698611111111
0
SEQEND
8
0
0
POLYLINE
8
0
70
0
66
1
0
VERTEX
8
0
10
0.4254777777777777
20
1.2071430555555553
0
VERTEX
8
0
10
0.6273944444444444
20
1.1809624999999999
0
SEQEND
8
0
0
POLYLINE
8
0
70
0
66
1
0
VERTEX
8
0
10
0.6273902777777778
20
1.0788763888888888
42
0.4142248374088027
0
VERTEX
8
0
10
0.6718208333333333
20
1.1365430555555556
42
0.3404720888393186
0
VERTEX
8
0
10
0.6273902777777778
20
1.1809597222222221
0
SEQEND
8
0
0
POLYLINE
8
0
70
0
66
1
0
VERTEX
8
0
10
0.6273902777777778
20
1.0788763888888888
0
VERTEX
8
0
10
0.4254736111111111
20
1.0526958333333334
0
SEQEND
8
0
0
POLYLINE
8
0
70
0
66
1
0
VERTEX
8
0
10
0.4254777777777777
20
0.9571430555555555
42
0.4142495411455162
0
VERTEX
8
0
10
0.3382416666666667
20
0.8899347222222221
42
0.4141746114605204
0
VERTEX
8
0
10
0.40545
20
0.8026986111111111
42
0.0644937586685181
0
VERTEX
8
0
10
0.4254777777777777
20
0.8026986111111111
0
SEQEND
8
0
0
POLYLINE
8
0
70
0
66
1
0
VERTEX
8
0
10
0.4254777777777777
20
0.9571430555555555
0
VERTEX
8
0
10
0.6273944444444444
20
0.9309624999999998
0
SEQEND
8
0
0
POLYLINE
8
0
70
0
66
1
0
VERTEX
8
0
10
0.6273902777777778
20
0.8288763888888888
42
0.4142248374088014
0
VERTEX
8
0
10
0.6718208333333333
20
0.8865430555555555
42
0.3404720888393218
0
VERTEX
8
0
10
0.6273902777777778
20
0.9309597222222221
0
SEQEND
8
0
0
POLYLINE
8
0
70
0
66
1
0
VERTEX
8
0
10
0.6273902777777778
20
0.8288763888888888
0
VERTEX
8
0
10
0.4254736111111111
20
0.8026958333333333
0
SEQEND
8
0
0
POLYLINE
8
0
70
0
66
1
0
VERTEX
8
0
10
0.4254777777777777
20
0.7071430555555555
42
0.4142495411455188
0
VERTEX
8
0
10
0.3382416666666667
20
0.6399347222222221
42
0.4141746114605204
0
VERTEX
8
0
10
0.40545
20
0.5526986111111111
42
0.0644937586685181
0
VERTEX
8
0
10
0.4254777777777777
20
0.5526986111111111
0
SEQEND
8
0
0
POLYLINE
8
0
70
0
66
1
0
VERTEX
8
0
10
0.4254777777777777
20
0.7071430555555555
0
VERTEX
8
0
10
0.6273944444444444
20
0.6809624999999999
0
SEQEND
8
0
0
POLYLINE
8
0
70
0
66
1
0
VERTEX
8
0
10
0.6273902777777778
20
0.5788763888888888
42
0.4142248374088038
0
VERTEX
8
0
10
0.6718208333333333
20
0.6365430555555555
42
0.3404720888393209
0
VERTEX
8
0
10
0.6273902777777778
20
0.6809597222222222
0
SEQEND
8
0
0
POLYLINE
8
0
70
0
66
1
0
VERTEX
8
0
10
0.6273902777777778
20
0.5788763888888888
0
VERTEX
8
0
10
0.4254736111111111
20
0.5526958333333333
0
SEQEND
8
0
0
POLYLINE
8
0
70
0
66
1
0
VERTEX
8
0
10
1.4254777777777776
20
2.4571430555555556
42
0.4142495411455128
0
VERTEX
8
0
10
1.3382416666666666
20
2.3899347222222223
42
0.4141746114605203
0
VERTEX
8
0
10
1.4054500000000001
20
2.302698611111111
42
0.0644937586684889
0
VERTEX
8
0
10
1.4254777777777776
20
2.302698611111111
0
SEQEND
8
0
0
POLYLINE
8
0
70
0
66
1
0
VERTEX
8
0
10
1.4254777777777776
20
2.4571430555555556
0
VERTEX
8
0
10
1.6273944444444444
20
2.4309625000000001
0
SEQEND
8
0
0
POLYLINE
8
0
70
0
66
1
0
VERTEX
8
0
10
1.6273902777777778
20
2.3288763888888888
42
0.4142248374088137
0
VERTEX
8
0
10
1.6718208333333333
20
2.3865430555555553
42
0.3404720888393154
0
VERTEX
8
0
10
1.6273902777777778
20
2.4309597222222221
0
SEQEND
8
0
0
POLYLINE
8
0
70
0
66
1
0
VERTEX
8
0
10
1.6273902777777778
20
2.3288763888888888
0
VERTEX
8
0
10
1.425473611111111
20
2.3026958333333334
0
SEQEND
8
0
0
POLYLINE
8
0
70
0
66
1
0
VERTEX
8
0
10
1.4254777777777776
20
0.7071430555555555
42
0.414249541145522
0
VERTEX
8
0
10
1.3382416666666666
20
0.6399347222222221
42
0.4141746114605187
0
VERTEX
8
0
10
1.4054500000000001
20
0.5526986111111111
42
0.0644937586685176
0
VERTEX
8
0
10
1.4254777777777776
20
0.5526986111111111
0
SEQEND
8
0
0
POLYLINE
8
0
70
0
66
1
0
VERTEX
8
0
10
1.4254777777777776
20
0.7071430555555555
0
VERTEX
8
0
10
1.6273944444444444
20
0.6809624999999999
0
SEQEND
8
0
0
POLYLINE
8
0
70
0
66
1
0
VERTEX
8
0
10
1.6273902777777778
20
0.5788763888888888
42
0.4142248374088061
0
VERTEX
8
0
10
1.6718208333333333
20
0.6365430555555555
42
0.3404720888393222
0
VERTEX
8
0
10
1.6273902777777778
20
0.6809597222222222
0
SEQEND
8
0
0
POLYLINE
8
0
70
0
66
1
0
VERTEX
8
0
10
1.6273902777777778
20
0.5788763888888888
0
VERTEX
8
0
10
1.425473611111111
20
0.5526958333333333
0
SEQEND
8
0
0
POLYLINE
8
0
70
0
66
1
0
VERTEX
8
0
10
2.4254777777777776
20
2.4571430555555556
42
0.4142495411455097
0
VERTEX
8
0
10
2.3382416666666663
20
2.3899347222222223
42
0.4141746114605187
0
VERTEX
8
0
10
2.4054499999999996
20
2.302698611111111
42
0.0644937586684895
0
VERTEX
8
0
10
2.4254777777777776
20
2.302698611111111
0
SEQEND
8
0
0
POLYLINE
8
0
70
0
66
1
0
VERTEX
8
0
10
2.4254777777777776
20
2.4571430555555556
0
VERTEX
8
0
10
2.6273944444444446
20
2.4309625000000001
0
SEQEND
8
0
0
POLYLINE
8
0
70
0
66
1
0
VERTEX
8
0
10
2.6273902777777778
20
2.3288763888888888
42
0.4142248374088077
0
VERTEX
8
0
10
2.6718208333333333
20
2.3865430555555553
42
0.3404720888393137
0
VERTEX
8
0
10
2.6273902777777778
20
2.4309597222222221
0
SEQEND
8
0
0
POLYLINE
8
0
70
0
66
1
0
VERTEX
8
0
10
2.6273902777777778
20
2.3288763888888888
0
VERTEX
8
0
10
2.4254736111111108
20
2.3026958333333334
0
SEQEND
8
0
0
POLYLINE
8
0
70
0
66
1
0
VERTEX
8
0
10
2.4254777777777776
20
2.2071430555555556
42
0.4142495411455097
0
VERTEX
8
0
10
2.3382416666666663
20
2.1399347222222223
42
0.4141746114605187
0
VERTEX
8
0
10
2.4054499999999996
20
2.052698611111111
42
0.0644937586684895
0
VERTEX
8
0
10
2.4254777777777776
20
2.052698611111111
0
SEQEND
8
0
0
POLYLINE
8
0
70
0
66
1
0
VERTEX
8
0
10
2.4254777777777776
20
2.2071430555555556
0
VERTEX
8
0
10
2.6273944444444446
20
2.1809625000000001
0
SEQEND
8
0
0
POLYLINE
8
0
70
0
66
1
0
VERTEX
8
0
10
2.6273902777777778
20
2.0788763888888888
42
0.4142248374088077
0
VERTEX
8
0
10
2.6718208333333333
20
2.1365430555555553
42
0.340472088839323
0
VERTEX
8
0
10
2.6273902777777778
20
2.1809597222222221
0
SEQEND
8
0
0
POLYLINE
8
0
70
0
66
1
0
VERTEX
8
0
10
2.6273902777777778
20
2.0788763888888888
0
VERTEX
8
0
10
2.4254736111111108
20
2.0526958333333334
0
SEQEND
8
0
0
POLYLINE
8
0
70
0
66
1
0
VERTEX
8
0
10
2.4254777777777776
20
1.9571430555555553
42
0.4142495411455097
0
VERTEX
8
0
10
2.3382416666666663
20
1.889934722222222
42
0.4141746114605187
0
VERTEX
8
0
10
2.4054499999999996
20
1.802698611111111
42
0.0644937586684895
0
VERTEX
8
0
10
2.4254777777777776
20
1.802698611111111
0
SEQEND
8
0
0
POLYLINE
8
0
70
0
66
1
0
VERTEX
8
0
10
2.4254777777777776
20
1.9571430555555553
0
VERTEX
8
0
10
2.6273944444444446
20
1.9309624999999999
0
SEQEND
8
0
0
POLYLINE
8
0
70
0
66
1
0
VERTEX
8
0
10
2.6273902777777778
20
1.8288763888888888
42
0.4142248374087926
0
VERTEX
8
0
10
2.6718208333333333
20
1.8865430555555553
42
0.340472088839323
0
VERTEX
8
0
10
2.6273902777777778
20
1.9309597222222221
0
SEQEND
8
0
0
POLYLINE
8
0
70
0
66
1
0
VERTEX
8
0
10
2.6273902777777778
20
1.8288763888888888
0
VERTEX
8
0
10
2.4254736111111108
20
1.8026958333333334
0
SEQEND
8
0
0
POLYLINE
8
0
70
0
66
1
0
VERTEX
8
0
10
2.4254777777777776
20
1.7071430555555553
42
0.4142495411455097
0
VERTEX
8
0
10
2.3382416666666663
20
1.639934722222222
42
0.4141746114605187
0
VERTEX
8
0
10
2.4054499999999996
20
1.552698611111111
42
0.0644937586685261
0
VERTEX
8
0
10
2.4254777777777776
20
1.552698611111111
0
SEQEND
8
0
0
POLYLINE
8
0
70
0
66
1
0
VERTEX
8
0
10
2.4254777777777776
20
1.7071430555555553
0
VERTEX
8
0
10
2.6273944444444446
20
1.6809624999999997
0
SEQEND
8
0
0
POLYLINE
8
0
70
0
66
1
0
VERTEX
8
0
10
2.6273902777777778
20
1.5788763888888888
42
0.4142248374087998
0
VERTEX
8
0
10
2.6718208333333333
20
1.6365430555555556
42
0.3404720888393117
0
VERTEX
8
0
10
2.6273902777777778
20
1.6809597222222221
0
SEQEND
8
0
0
POLYLINE
8
0
70
0
66
1
0
VERTEX
8
0
10
2.6273902777777778
20
1.5788763888888888
0
VERTEX
8
0
10
2.4254736111111108
20
1.5526958333333332
0
SEQEND
8
0
0
POLYLINE
8
0
70
0
66
1
0
VERTEX
8
0
10
2.4254777777777776
20
1.4571430555555553
42
0.4142495411455097
0
VERTEX
8
0
10
2.3382416666666663
20
1.389934722222222
42
0.4141746114605187
0
VERTEX
8
0
10
2.4054499999999996
20
1.302698611111111
42
0.0644937586685261
0
VERTEX
8
0
10
2.4254777777777776
20
1.302698611111111
0
SEQEND
8
0
0
POLYLINE
8
0
70
0
66
1
0
VERTEX
8
0
10
2.4254777777777776
20
1.4571430555555553
0
VERTEX
8
0
10
2.6273944444444446
20
1.4309624999999999
0
SEQEND
8
0
0
POLYLINE
8
0
70
0
66
1
0
VERTEX
8
0
10
2.6273902777777778
20
1.3288763888888888
42
0.4142248374087998
0
VERTEX
8
0
10
2.6718208333333333
20
1.3865430555555556
42
0.3404720888393117
0
VERTEX
8
0
10
2.6273902777777778
20
1.4309597222222221
0
SEQEND
8
0
0
POLYLINE
8
0
70
0
66
1
0
VERTEX
8
0
10
2.6273902777777778
20
1.3288763888888888
0
VERTEX
8
0
10
2.4254736111111108
20
1.3026958333333332
0
SEQEND
8
0
0
POLYLINE
8
0
70
0
66
1
0
VERTEX
8
0
10
2.4254777777777776
20
1.2071430555555553
42
0.4142495411455097
0
VERTEX
8
0
10
2.3382416666666663
20
1.139934722222222
42
0.4141746114605187
0
VERTEX
8
0
10
2.4054499999999996
20
1.052698611111111
42
0.0644937586685261
0
VERTEX
8
0
10
2.4254777777777776
20
1.052698611111111
0
SEQEND
8
0
0
POLYLINE
8
0
70
0
66
1
0
VERTEX
8
0
10
2.4254777777777776
20
1.2071430555555553
0
VERTEX
8
0
10
2.6273944444444446
20
1.1809624999999999
0
SEQEND
8
0
0
POLYLINE
8
0
70
0
66
1
0
VERTEX
8
0
10
2.6273902777777778
20
1.0788763888888888
42
0.4142248374088089
0
VERTEX
8
0
10
2.6718208333333333
20
1.1365430555555556
42
0.3404720888393117
0
VERTEX
8
0
10
2.6273902777777778
20
1.1809597222222221
0
SEQEND
8
0
0
POLYLINE
8
0
70
0
66
1
0
VERTEX
8
0
10
2.6273902777777778
20
1.0788763888888888
0
VERTEX
8
0
10
2.4254736111111108
20
1.0526958333333334
0
SEQEND
8
0
0
POLYLINE
8
0
70
0
66
1
0
VERTEX
8
0
10
2.4254777777777776
20
0.9571430555555555
42
0.4142495411455097
0
VERTEX
8
0
10
2.3382416666666663
20
0.8899347222222221
42
0.4141746114605183
0
VERTEX
8
0
10
2.4054499999999996
20
0.8026986111111111
42
0.0644937586685261
0
VERTEX
8
0
10
2.4254777777777776
20
0.8026986111111111
0
SEQEND
8
0
0
POLYLINE
8
0
70
0
66
1
0
VERTEX
8
0
10
2.4254777777777776
20
0.9571430555555555
0
VERTEX
8
0
10
2.6273944444444446
20
0.9309624999999998
0
SEQEND
8
0
0
POLYLINE
8
0
70
0
66
1
0
VERTEX
8
0
10
2.6273902777777778
20
0.8288763888888888
42
0.4142248374087996
0
VERTEX
8
0
10
2.6718208333333333
20
0.8865430555555555
42
0.3404720888393122
0
VERTEX
8
0
10
2.6273902777777778
20
0.9309597222222221
0
SEQEND
8
0
0
POLYLINE
8
0
70
0
66
1
0
VERTEX
8
0
10
2.6273902777777778
20
0.8288763888888888
0
VERTEX
8
0
10
2.4254736111111108
20
0.8026958333333333
0
SEQEND
8
0
0
POLYLINE
8
0
70
0
66
1
0
VERTEX
8
0
10
2.4254777777777776
20
0.7071430555555555
42
0.4142495411455188
0
VERTEX
8
0
10
2.3382416666666663
20
0.6399347222222221
42
0.4141746114605183
0
VERTEX
8
0
10
2.4054499999999996
20
0.5526986111111111
42
0.0644937586685261
0
VERTEX
8
0
10
2.4254777777777776
20
0.5526986111111111
0
SEQEND
8
0
0
POLYLINE
8
0
70
0
66
1
0
VERTEX
8
0
10
2.4254777777777776
20
0.7071430555555555
0
VERTEX
8
0
10
2.6273944444444446
20
0.6809624999999999
0
SEQEND
8
0
0
POLYLINE
8
0
70
0
66
1
0
VERTEX
8
0
10
2.6273902777777778
20
0.5788763888888888
42
0.4142248374087996
0
VERTEX
8
0
10
2.6718208333333333
20
0.6365430555555555
42
0.3404720888393122
0
VERTEX
8
0
10
2.6273902777777778
20
0.6809597222222222
0
SEQEND
8
0
0
POLYLINE
8
0
70
0
66
1
0
VERTEX
8
0
10
2.6273902777777778
20
0.5788763888888888
0
VERTEX
8
0
10
2.4254736111111108
20
0.5526958333333333
0
SEQEND
8
0
0
POLYLINE
8
0
70
0
66
1
0
VERTEX
8
0
10
0.0
20
3.0098472222222221
0
VERTEX
8
0
10
3.0098472222222221
20
3.0098472222222221
0
VERTEX
8
0
10
3.0098472222222221
20
-0.0
0
VERTEX
8
0
10
0.0
20
-0.0
0
VERTEX
8
0
10
0.0
20
3.0098472222222221
0
SEQEND
8
0
0
POLYLINE
8
0
70
0
66
1
0
VERTEX
8
0
10
1.4254777777777776
20
2.2071430555555556
42
0.4142495411455128
0
VERTEX
8
0
10
1.3382416666666666
20
2.1399347222222223
42
0.4141746114605219
0
VERTEX
8
0
10
1.4054500000000001
20
2.052698611111111
42
0.0644937586684889
0
VERTEX
8
0
10
1.4254777777777776
20
2.052698611111111
0
SEQEND
8
0
0
POLYLINE
8
0
70
0
66
1
0
VERTEX
8
0
10
1.4254777777777776
20
2.2071430555555556
0
VERTEX
8
0
10
1.6273944444444444
20
2.1809625000000001
0
SEQEND
8
0
0
POLYLINE
8
0
70
0
66
1
0
VERTEX
8
0
10
1.6273902777777778
20
2.0788763888888888
42
0.4142248374088137
0
VERTEX
8
0
10
1.6718208333333333
20
2.1365430555555553
42
0.3404720888393246
0
VERTEX
8
0
10
1.6273902777777778
20
2.1809597222222221
0
SEQEND
8
0
0
POLYLINE
8
0
70
0
66
1
0
VERTEX
8
0
10
1.6273902777777778
20
2.0788763888888888
0
VERTEX
8
0
10
1.425473611111111
20
2.0526958333333334
0
SEQEND
8
0
0
POLYLINE
8
0
70
0
66
1
0
VERTEX
8
0
10
0.4254777777777777
20
2.4571430555555556
42
0.4142495411455167
0
VERTEX
8
0
10
0.3382416666666667
20
2.3899347222222223
42
0.4141746114605204
0
VERTEX
8
0
10
0.40545
20
2.302698611111111
42
0.0644937586684886
0
VERTEX
8
0
10
0.4254777777777777
20
2.302698611111111
0
SEQEND
8
0
0
POLYLINE
8
0
70
0
66
1
0
VERTEX
8
0
10
0.4254777777777777
20
2.4571430555555556
0
VERTEX
8
0
10
0.6273944444444444
20
2.4309625000000001
0
SEQEND
8
0
0
POLYLINE
8
0
70
0
66
1
0
VERTEX
8
0
10
0.6273902777777778
20
2.3288763888888888
42
0.4142248374088123
0
VERTEX
8
0
10
0.6718208333333333
20
2.3865430555555553
42
0.3404720888393159
0
VERTEX
8
0
10
0.6273902777777778
20
2.4309597222222221
0
SEQEND
8
0
0
POLYLINE
8
0
70
0
66
1
0
VERTEX
8
0
10
0.6273902777777778
20
2.3288763888888888
0
VERTEX
8
0
10
0.4254736111111111
20
2.3026958333333334
0
SEQEND
8
0
0
POLYLINE
8
0
70
0
66
1
0
VERTEX
8
0
10
1.1299208333333333
20
1.5049208333333333
42
0.4142499999999995
0
VERTEX
8
0
10
1.0049208333333333
20
1.6299208333333333
42
0.4142500000000001
0
VERTEX
8
0
10
0.8799208333333333
20
1.5049208333333333
42
0.41425
0
VERTEX
8
0
10
1.0049208333333333
20
1.3799208333333333
42
0.4142499999999992
0
VERTEX
8
0
10
1.1299208333333333
20
1.5049208333333333
0
SEQEND
8
0
0
POLYLINE
8
0
70
0
66
1
0
VERTEX
8
0
10
0.3799208333333333
20
0.2549208333333333
42
0.41425
0
VERTEX
8
0
10
0.2549208333333333
20
0.3799208333333333
42
0.4142499999999998
0
VERTEX
8
0
10
0.1299208333333333
20
0.2549208333333333
42
0.4142499999999998
0
VERTEX
8
0
10
0.2549208333333333
20
0.1299208333333333
42
0.4142500000000005
0
VERTEX
8
0
10
0.3799208333333333
20
0.2549208333333333
0
SEQEND
8
0
0
POLYLINE
8
0
70
0
66
1
0
VERTEX
8
0
10
0.3799208333333333
20
2.7549208333333333
42
0.4142499999999992
0
VERTEX
8
0
10
0.2549208333333333
20
2.8799208333333333
42
0.4142499999999993
0
VERTEX
8
0
10
0.1299208333333333
20
2.7549208333333333
42
0.4142499999999993
0
VERTEX
8
0
10
0.2549208333333333
20
2.6299208333333333
42
0.4142499999999992
0
VERTEX
8
0
10
0.3799208333333333
20
2.7549208333333333
0
SEQEND
8
0
0
POLYLINE
8
0
70
0
66
1
0
VERTEX
8
0
10
0.0049208333333333
20
3.0049208333333333
0
VERTEX
8
0
10
0.0049208333333333
20
0.0049208333333333
0
SEQEND
8
0
0
POLYLINE
8
0
70
0
66
1
0
VERTEX
8
0
10
0.0049208333333333
20
0.0049208333333333
0
VERTEX
8
0
10
3.0049208333333333
20
0.0049208333333333
0
SEQEND
8
0
0
POLYLINE
8
0
70
0
66
1
0
VERTEX
8
0
10
3.0049208333333333
20
0.0049208333333333
0
VERTEX
8
0
10
3.0049208333333333
20
3.0049208333333333
0
SEQEND
8
0
0
POLYLINE
8
0
70
0
66
1
0
VERTEX
8
0
10
3.0049208333333333
20
3.0049208333333333
0
VERTEX
8
0
10
0.0049208333333333
20
3.0049208333333333
0
SEQEND
8
0
0
POLYLINE
8
0
70
0
66
1
0
VERTEX
8
0
10
2.8799208333333333
20
2.7549208333333333
42
0.4142499999999997
0
VERTEX
8
0
10
2.7549208333333333
20
2.8799208333333333
42
0.4142500000000014
0
VERTEX
8
0
10
2.6299208333333333
20
2.7549208333333333
42
0.4142500000000005
0
VERTEX
8
0
10
2.7549208333333333
20
2.6299208333333333
42
0.4142499999999997
0
VERTEX
8
0
10
2.8799208333333333
20
2.7549208333333333
0
SEQEND
8
0
0
POLYLINE
8
0
70
0
66
1
0
VERTEX
8
0
10
2.8799208333333333
20
0.2549208333333333
42
0.41425
0
VERTEX
8
0
10
2.7549208333333333
20
0.3799208333333333
42
0.4142500000000013
0
VERTEX
8
0
10
2.6299208333333333
20
0.2549208333333333
42
0.4142500000000006
0
VERTEX
8
0
10
2.7549208333333333
20
0.1299208333333333
42
0.4142499999999997
0
VERTEX
8
0
10
2.8799208333333333
20
0.2549208333333333
0
SEQEND
8
0
0
POLYLINE
8
0
70
0
66
1
0
VERTEX
8
0
10
2.1299208333333333
20
1.5049208333333333
42
0.4142500000000005
0
VERTEX
8
0
10
2.0049208333333333
20
1.6299208333333333
42
0.4142500000000023
0
VERTEX
8
0
10
1.8799208333333333
20
1.5049208333333333
42
0.4142500000000016
0
VERTEX
8
0
10
2.0049208333333333
20
1.3799208333333333
42
0.4142500000000016
0
VERTEX
8
0
10
2.1299208333333333
20
1.5049208333333333
0
SEQEND
8
0
0
POLYLINE
8
0
70
0
66
1
0
VERTEX
8
0
10
1.4254777777777776
20
1.9571430555555553
42
0.4142495411455128
0
VERTEX
8
0
10
1.3382416666666666
20
1.889934722222222
42
0.4141746114605219
0
VERTEX
8
0
10
1.4054500000000001
20
1.802698611111111
42
0.0644937586684889
0
VERTEX
8
0
10
1.4254777777777776
20
1.802698611111111
0
SEQEND
8
0
0
POLYLINE
8
0
70
0
66
1
0
VERTEX
8
0
10
1.4254777777777776
20
1.9571430555555553
0
VERTEX
8
0
10
1.6273944444444444
20
1.9309624999999999
0
SEQEND
8
0
0
POLYLINE
8
0
70
0
66
1
0
VERTEX
8
0
10
1.6273902777777778
20
1.8288763888888888
42
0.4142248374088066
0
VERTEX
8
0
10
1.6718208333333333
20
1.8865430555555553
42
0.3404720888393246
0
VERTEX
8
0
10
1.6273902777777778
20
1.9309597222222221
0
SEQEND
8
0
0
POLYLINE
8
0
70
0
66
1
0
VERTEX
8
0
10
1.6273902777777778
20
1.8288763888888888
0
VERTEX
8
0
10
1.425473611111111
20
1.8026958333333334
0
SEQEND
8
0
0
POLYLINE
8
0
70
0
66
1
0
VERTEX
8
0
10
1.4254777777777776
20
1.7071430555555553
42
0.4142495411455097
0
VERTEX
8
0
10
1.3382416666666666
20
1.639934722222222
42
0.414174611460516
0
VERTEX
8
0
10
1.4054500000000001
20
1.552698611111111
42
0.0644937586685254
0
VERTEX
8
0
10
1.4254777777777776
20
1.552698611111111
0
SEQEND
8
0
0
POLYLINE
8
0
70
0
66
1
0
VERTEX
8
0
10
1.4254777777777776
20
1.7071430555555553
0
VERTEX
8
0
10
1.6273944444444444
20
1.6809624999999997
0
SEQEND
8
0
0
POLYLINE
8
0
70
0
66
1
0
VERTEX
8
0
10
1.6273902777777778
20
1.5788763888888888
42
0.4142248374088032
0
VERTEX
8
0
10
1.6718208333333333
20
1.6365430555555556
42
0.3404720888393218
0
VERTEX
8
0
10
1.6273902777777778
20
1.6809597222222221
0
SEQEND
8
0
0
POLYLINE
8
0
70
0
66
1
0
VERTEX
8
0
10
1.6273902777777778
20
1.5788763888888888
0
VERTEX
8
0
10
1.425473611111111
20
1.5526958333333332
0
SEQEND
8
0
0
POLYLINE
8
0
70
0
66
1
0
VERTEX
8
0
10
1.4254777777777776
20
1.4571430555555553
42
0.4142495411455097
0
VERTEX
8
0
10
1.3382416666666666
20
1.389934722222222
42
0.414174611460516
0
VERTEX
8
0
10
1.4054500000000001
20
1.302698611111111
42
0.0644937586685254
0
VERTEX
8
0
10
1.4254777777777776
20
1.302698611111111
0
SEQEND
8
0
0
POLYLINE
8
0
70
0
66
1
0
VERTEX
8
0
10
1.4254777777777776
20
1.4571430555555553
0
VERTEX
8
0
10
1.6273944444444444
20
1.4309624999999999
0
SEQEND
8
0
0
POLYLINE
8
0
70
0
66
1
0
VERTEX
8
0
10
1.6273902777777778
20
1.3288763888888888
42
0.4142248374088032
0
VERTEX
8
0
10
1.6718208333333333
20
1.3865430555555556
42
0.3404720888393218
0
VERTEX
8
0
10
1.6273902777777778
20
1.4309597222222221
0
SEQEND
8
0
0
POLYLINE
8
0
70
0
66
1
0
VERTEX
8
0
10
1.6273902777777778
20
1.3288763888888888
0
VERTEX
8
0
10
1.425473611111111
20
1.3026958333333332
0
SEQEND
8
0
0
POLYLINE
8
0
70
0
66
1
0
VERTEX
8
0
10
1.4254777777777776
20
1.2071430555555553
42
0.4142495411455097
0
VERTEX
8
0
10
1.3382416666666666
20
1.139934722222222
42
0.4141746114605165
0
VERTEX
8
0
10
1.4054500000000001
20
1.052698611111111
42
0.0644937586685254
0
VERTEX
8
0
10
1.4254777777777776
20
1.052698611111111
0
SEQEND
8
0
0
POLYLINE
8
0
70
0
66
1
0
VERTEX
8
0
10
1.4254777777777776
20
1.2071430555555553
0
VERTEX
8
0
10
1.6273944444444444
20
1.1809624999999999
0
SEQEND
8
0
0
POLYLINE
8
0
70
0
66
1
0
VERTEX
8
0
10
1.6273902777777778
20
1.0788763888888888
42
0.4142248374088097
0
VERTEX
8
0
10
1.6718208333333333
20
1.1365430555555556
42
0.3404720888393218
0
VERTEX
8
0
10
1.6273902777777778
20
1.1809597222222221
0
SEQEND
8
0
0
POLYLINE
8
0
70
0
66
1
0
VERTEX
8
0
10
1.6273902777777778
20
1.0788763888888888
0
VERTEX
8
0
10
1.425473611111111
20
1.0526958333333334
0
SEQEND
8
0
0
POLYLINE
8
0
70
0
66
1
0
VERTEX
8
0
10
1.4254777777777776
20
0.9571430555555555
42
0.4142495411455097
0
VERTEX
8
0
10
1.3382416666666666
20
0.8899347222222221
42
0.4141746114605187
0
VERTEX
8
0
10
1.4054500000000001
20
0.8026986111111111
42
0.0644937586685176
0
VERTEX
8
0
10
1.4254777777777776
20
0.8026986111111111
0
SEQEND
8
0
0
POLYLINE
8
0
70
0
66
1
0
VERTEX
8
0
10
1.4254777777777776
20
0.9571430555555555
0
VERTEX
8
0
10
1.6273944444444444
20
0.9309624999999998
0
SEQEND
8
0
0
POLYLINE
8
0
70
0
66
1
0
VERTEX
8
0
10
1.6273902777777778
20
0.8288763888888888
42
0.4142248374088061
0
VERTEX
8
0
10
1.6718208333333333
20
0.8865430555555555
42
0.3404720888393222
0
VERTEX
8
0
10
1.6273902777777778
20
0.9309597222222221
0
SEQEND
8
0
0
POLYLINE
8
0
70
0
66
1
0
VERTEX
8
0
10
1.6273902777777778
20
0.8288763888888888
0
VERTEX
8
0
10
1.425473611111111
20
0.8026958333333333
0
SEQEND
8
0
0
POLYLINE
8
0
70
0
66
1
0
VERTEX
8
0
10
0.4254777777777777
20
2.2071430555555556
42
0.4142495411455167
0
VERTEX
8
0
10
0.3382416666666667
20
2.1399347222222223
42
0.4141746114605204
0
VERTEX
8
0
10
0.40545
20
2.052698611111111
42
0.0644937586684886
0
VERTEX
8
0
10
0.4254777777777777
20
2.052698611111111
0
SEQEND
8
0
0
POLYLINE
8
0
70
0
66
1
0
VERTEX
8
0
10
0.4254777777777777
20
2.2071430555555556
0
VERTEX
8
0
10
0.6273944444444444
20
2.1809625000000001
0
SEQEND
8
0
0
POLYLINE
8
0
70
0
66
1
0
VERTEX
8
0
10
0.6273902777777778
20
2.0788763888888888
42
0.4142248374088123
0
VERTEX
8
0
10
0.6718208333333333
20
2.1365430555555553
42
0.3404720888393237
0
VERTEX
8
0
10
0.6273902777777778
20
2.1809597222222221
0
SEQEND
8
0
0
POLYLINE
8
0
70
0
66
1
0
VERTEX
8
0
10
0.6273902777777778
20
2.0788763888888888
0
VERTEX
8
0
10
0.4254736111111111
20
2.0526958333333334
0
SEQEND
8
0
0
POLYLINE
8
0
70
0
66
1
0
VERTEX
8
0
10
0.4254777777777777
20
1.9571430555555553
42
0.414249541145517
0
VERTEX
8
0
10
0.3382416666666667
20
1.889934722222222
42
0.4141746114605204
0
VERTEX
8
0
10
0.40545
20
1.802698611111111
42
0.0644937586684886
0
VERTEX
8
0
10
0.4254777777777777
20
1.802698611111111
0
SEQEND
8
0
0
POLYLINE
8
0
70
0
66
1
0
VERTEX
8
0
10
0.4254777777777777
20
1.9571430555555553
0
VERTEX
8
0
10
0.6273944444444444
20
1.9309624999999999
0
SEQEND
8
0
0
POLYLINE
8
0
70
0
66
1
0
VERTEX
8
0
10
0.6273902777777778
20
1.8288763888888888
42
0.4142248374088004
0
VERTEX
8
0
10
0.6718208333333333
20
1.8865430555555553
42
0.3404720888393265
0
VERTEX
8
0
10
0.6273902777777778
20
1.9309597222222221
0
SEQEND
8
0
0
POLYLINE
8
0
70
0
66
1
0
VERTEX
8
0
10
0.6273902777777778
20
1.8288763888888888
0
VERTEX
8
0
10
0.4254736111111111
20
1.8026958333333334
0
SEQEND
8
0
0
POLYLINE
8
0
70
0
66
1
0
VERTEX
8
0
10
0.4254777777777777
20
1.7071430555555553
42
0.4142495411455162
0
VERTEX
8
0
10
0.3382416666666667
20
1.639934722222222
42
0.4141746114605185
0
VERTEX
8
0
10
0.40545
20
1.552698611111111
42
0.0644937586685283
0
VERTEX
8
0
10
0.4254777777777777
20
1.552698611111111
0
SEQEND
8
0
0
POLYLINE
8
0
70
0
66
1
0
VERTEX
8
0
10
0.4254777777777777
20
1.7071430555555553
0
VERTEX
8
0
10
0.6273944444444444
20
1.6809624999999997
0
SEQEND
8
0
0
POLYLINE
8
0
70
0
66
1
0
VERTEX
8
0
10
0.6273902777777778
20
1.5788763888888888
42
0.4142248374088017
0
VERTEX
8
0
10
0.6718208333333333
20
1.6365430555555556
42
0.3404720888393186
0
VERTEX
8
0
10
0.6273902777777778
20
1.6809597222222221
0
SEQEND
8
0
0
POLYLINE
8
0
70
0
66
1
0
VERTEX
8
0
10
0.6273902777777778
20
1.5788763888888888
0
VERTEX
8
0
10
0.4254736111111111
20
1.5526958333333332
0
SEQEND
8
0
0
POLYLINE
8
0
70
0
66
1
0
VERTEX
8
0
10
0.4254777777777777
20
1.4571430555555553
42
0.4142495411455162
0
VERTEX
8
0
10
0.3382416666666667
20
1.389934722222222
42
0.4141746114605182
0
VERTEX
8
0
10
0.40545
20
1.302698611111111
42
0.0644937586685283
0
VERTEX
8
0
10
0.4254777777777777
20
1.302698611111111
0
SEQEND
8
0
0
POLYLINE
8
0
70
0
66
1
0
VERTEX
8
0
10
0.4254777777777777
20
1.4571430555555553
0
VERTEX
8
0
10
0.6273944444444444
20
1.4309624999999999
0
SEQEND
8
0
0
POLYLINE
8
0
70
0
66
1
0
VERTEX
8
0
10
0.6273902777777778
20
1.3288763888888888
42
0.4142248374088017
0
VERTEX
8
0
10
0.6718208333333333
20
1.3865430555555556
42
0.3404720888393186
0
VERTEX
8
0
10
0.6273902777777778
20
1.4309597222222221
0
SEQEND
8
0
0
POLYLINE
8
0
70
0
66
1
0
VERTEX
8
0
10
0.6273902777777778
20
1.3288763888888888
0
VERTEX
8
0
10
0.4254736111111111
20
1.3026958333333332
0
SEQEND
8
0
0
POLYLINE
8
0
70
0
66
1
0
VERTEX
8
0
10
0.4254777777777777
20
1.2071430555555553
42
0.4142495411455162
0
VERTEX
8
0
10
0.3382416666666667
20
1.139934722222222
42
0.4141746114605182
0
VERTEX
8
0
10
0.40545
20
1.052698611111111
42
0.0644937586685283
0
VERTEX
8
0
10
0.4254777777777777
20
1.052698611111111
0
SEQEND
8
0
0
POLYLINE
8
0
70
0
66
1
0
VERTEX
8
0
10
0.4254777777777777
20
1.2071430555555553
0
VERTEX
8
0
10
0.6273944444444444
20
1.1809624999999999
0
SEQEND
8
0
0
POLYLINE
8
0
70
0
66
1
0
VERTEX
8
0
10
0.6273902777777778
20
1.0788763888888888
42
0.4142248374088027
0
VERTEX
8
0
10
0.6718208333333333
20
1.1365430555555556
42
0.3404720888393186
0
VERTEX
8
0
10
0.6273902777777778
20
1.1809597222222221
0
SEQEND
8
0
0
POLYLINE
8
0
70
0
66
1
0
VERTEX
8
0
10
0.6273902777777778
20
1.0788763888888888
0
VERTEX
8
0
10
0.4254736111111111
20
1.0526958333333334
0
SEQEND
8
0
0
POLYLINE
8
0
70
0
66
1
0
VERTEX
8
0
10
0.4254777777777777
20
0.9571430555555555
42
0.4142495411455162
0
VERTEX
8
0
10
0.3382416666666667
20
0.8899347222222221
42
0.4141746114605204
0
VERTEX
8
0
10
0.40545
20
0.8026986111111111
42
0.0644937586685181
0
VERTEX
8
0
10
0.4254777777777777
20
0.8026986111111111
0
SEQEND
8
0
0
POLYLINE
8
0
70
0
66
1
0
VERTEX
8
0
10
0.4254777777777777
20
0.9571430555555555
0
VERTEX
8
0
10
0.6273944444444444
20
0.9309624999999998
0
SEQEND
8
0
0
POLYLINE
8
0
70
0
66
1
0
VERTEX
8
0
10
0.6273902777777778
20
0.8288763888888888
42
0.4142248374088014
0
VERTEX
8
0
10
0.6718208333333333
20
0.8865430555555555
42
0.3404720888393218
0
VERTEX
8
0
10
0.6273902777777778
20
0.9309597222222221
0
SEQEND
8
0
0
POLYLINE
8
0
70
0
66
1
0
VERTEX
8
0
10
0.6273902777777778
20
0.8288763888888888
0
VERTEX
8
0
10
0.4254736111111111
20
0.8026958333333333
0
SEQEND
8
0
0
POLYLINE
8
0
70
0
66
1
0
VERTEX
8
0
10
0.4254777777777777
20
0.7071430555555555
42
0.4142495411455188
0
VERTEX
8
0
10
0.3382416666666667
20
0.6399347222222221
42
0.4141746114605204
0
VERTEX
8
0
10
0.40545
20
0.5526986111111111
42
0.0644937586685181
0
VERTEX
8
0
10
0.4254777777777777
20
0.5526986111111111
0
SEQEND
8
0
0
POLYLINE
8
0
70
0
66
1
0
VERTEX
8
0
10
0.4254777777777777
20
0.7071430555555555
0
VERTEX
8
0
10
0.6273944444444444
20
0.6809624999999999
0
SEQEND
8
0
0
POLYLINE
8
0
70
0
66
1
0
VERTEX
8
0
10
0.6273902777777778
20
0.5788763888888888
42
0.4142248374088038
0
VERTEX
8
0
10
0.6718208333333333
20
0.6365430555555555
42
0.3404720888393209
0
VERTEX
8
0
10
0.6273902777777778
20
0.6809597222222222
0
SEQEND
8
0
0
POLYLINE
8
0
70
0
66
1
0
VERTEX
8
0
10
0.6273902777777778
20
0.5788763888888888
0
VERTEX
8
0
10
0.4254736111111111
20
0.5526958333333333
0
SEQEND
8
0
0
POLYLINE
8
0
70
0
66
1
0
VERTEX
8
0
10
1.4254777777777776
20
2.4571430555555556
42
0.4142495411455128
0
VERTEX
8
0
10
1.3382416666666666
20
2.3899347222222223
42
0.4141746114605203
0
VERTEX
8
0
10
1.4054500000000001
20
2.302698611111111
42
0.0644937586684889
0
VERTEX
8
0
10
1.4254777777777776
20
2.302698611111111
0
SEQEND
8
0
0
POLYLINE
8
0
70
0
66
1
0
VERTEX
8
0
10
1.4254777777777776
20
2.4571430555555556
0
VERTEX
8
0
10
1.6273944444444444
20
2.4309625000000001
0
SEQEND
8
0
0
POLYLINE
8
0
70
0
66
1
0
VERTEX
8
0
10
1.6273902777777778
20
2.3288763888888888
42
0.4142248374088137
0
VERTEX
8
0
10
1.6718208333333333
20
2.3865430555555553
42
0.3404720888393154
0
VERTEX
8
0
10
1.6273902777777778
20
2.4309597222222221
0
SEQEND
8
0
0
POLYLINE
8
0
70
0
66
1
0
VERTEX
8
0
10
1.6273902777777778
20
2.3288763888888888
0
VERTEX
8
0
10
1.425473611111111
20
2.3026958333333334
0
SEQEND
8
0
0
POLYLINE
8
0
70
0
66
1
0
VERTEX
8
0
10
1.4254777777777776
20
0.7071430555555555
42
0.414249541145522
0
VERTEX
8
0
10
1.3382416666666666
20
0.6399347222222221
42
0.4141746114605187
0
VERTEX
8
0
10
1.4054500000000001
20
0.5526986111111111
42
0.0644937586685176
0
VERTEX
8
0
10
1.4254777777777776
20
0.5526986111111111
0
SEQEND
8
0
0
POLYLINE
8
0
70
0
66
1
0
VERTEX
8
0
10
1.4254777777777776
20
0.7071430555555555
0
VERTEX
8
0
10
1.6273944444444444
20
0.6809624999999999
0
SEQEND
8
0
0
POLYLINE
8
0
70
0
66
1
0
VERTEX
8
0
10
1.6273902777777778
20
0.5788763888888888
42
0.4142248374088061
0
VERTEX
8
0
10
1.6718208333333333
20
0.6365430555555555
42
0.3404720888393222
0
VERTEX
8
0
10
1.6273902777777778
20
0.6809597222222222
0
SEQEND
8
0
0
POLYLINE
8
0
70
0
66
1
0
VERTEX
8
0
10
1.6273902777777778
20
0.5788763888888888
0
VERTEX
8
0
10
1.425473611111111
20
0.5526958333333333
0
SEQEND
8
0
0
POLYLINE
8
0
70
0
66
1
0
VERTEX
8
0
10
2.4254777777777776
20
2.4571430555555556
42
0.4142495411455097
0
VERTEX
8
0
10
2.3382416666666663
20
2.3899347222222223
42
0.4141746114605187
0
VERTEX
8
0
10
2.4054499999999996
20
2.302698611111111
42
0.0644937586684895
0
VERTEX
8
0
10
2.4254777777777776
20
2.302698611111111
0
SEQEND
8
0
0
POLYLINE
8
0
70
0
66
1
0
VERTEX
8
0
10
2.4254777777777776
20
2.4571430555555556
0
VERTEX
8
0
10
2.6273944444444446
20
2.4309625000000001
0
SEQEND
8
0
0
POLYLINE
8
0
70
0
66
1
0
VERTEX
8
0
10
2.6273902777777778
20
2.3288763888888888
42
0.4142248374088077
0
VERTEX
8
0
10
2.6718208333333333
20
2.3865430555555553
42
0.3404720888393137
0
VERTEX
8
0
10
2.6273902777777778
20
2.4309597222222221
0
SEQEND
8
0
0
POLYLINE
8
0
70
0
66
1
0
VERTEX
8
0
10
2.6273902777777778
20
2.3288763888888888
0
VERTEX
8
0
10
2.4254736111111108
20
2.3026958333333334
0
SEQEND
8
0
0
POLYLINE
8
0
70
0
66
1
0
VERTEX
8
0
10
2.4254777777777776
20
2.2071430555555556
42
0.4142495411455097
0
VERTEX
8
0
10
2.3382416666666663
20
2.1399347222222223
42
0.4141746114605187
0
VERTEX
8
0
10
2.4054499999999996
20
2.052698611111111
42
0.0644937586684895
0
VERTEX
8
0
10
2.4254777777777776
20
2.052698611111111
0
SEQEND
8
0
0
POLYLINE
8
0
70
0
66
1
0
VERTEX
8
0
10
2.4254777777777776
20
2.2071430555555556
0
VERTEX
8
0
10
2.6273944444444446
20
2.1809625000000001
0
SEQEND
8
0
0
POLYLINE
8
0
70
0
66
1
0
VERTEX
8
0
10
2.6273902777777778
20
2.0788763888888888
42
0.4142248374088077
0
VERTEX
8
0
10
2.6718208333333333
20
2.1365430555555553
42
0.340472088839323
0
VERTEX
8
0
10
2.6273902777777778
20
2.1809597222222221
0
SEQEND
8
0
0
POLYLINE
8
0
70
0
66
1
0
VERTEX
8
0
10
2.6273902777777778
20
2.0788763888888888
0
VERTEX
8
0
10
2.4254736111111108
20
2.0526958333333334
0
SEQEND
8
0
0
POLYLINE
8
0
70
0
66
1
0
VERTEX
8
0
10
2.4254777777777776
20
1.9571430555555553
42
0.4142495411455097
0
VERTEX
8
0
10
2.3382416666666663
20
1.889934722222222
42
0.4141746114605187
0
VERTEX
8
0
10
2.4054499999999996
20
1.802698611111111
42
0.0644937586684895
0
VERTEX
8
0
10
2.4254777777777776
20
1.802698611111111
0
SEQEND
8
0
0
POLYLINE
8
0
70
0
66
1
0
VERTEX
8
0
10
2.4254777777777776
20
1.9571430555555553
0
VERTEX
8
0
10
2.6273944444444446
20
1.9309624999999999
0
SEQEND
8
0
0
POLYLINE
8
0
70
0
66
1
0
VERTEX
8
0
10
2.6273902777777778
20
1.8288763888888888
42
0.4142248374087926
0
VERTEX
8
0
10
2.6718208333333333
20
1.8865430555555553
42
0.340472088839323
0
VERTEX
8
0
10
2.6273902777777778
20
1.9309597222222221
0
SEQEND
8
0
0
POLYLINE
8
0
70
0
66
1
0
VERTEX
8
0
10
2.6273902777777778
20
1.8288763888888888
0
VERTEX
8
0
10
2.4254736111111108
20
1.8026958333333334
0
SEQEND
8
0
0
POLYLINE
8
0
70
0
66
1
0
VERTEX
8
0
10
2.4254777777777776
20
1.7071430555555553
42
0.4142495411455097
0
VERTEX
8
0
10
2.3382416666666663
20
1.639934722222222
42
0.4141746114605187
0
VERTEX
8
0
10
2.4054499999999996
20
1.552698611111111
42
0.0644937586685261
0
VERTEX
8
0
10
2.4254777777777776
20
1.552698611111111
0
SEQEND
8
0
0
POLYLINE
8
0
70
0
66
1
0
VERTEX
8
0
10
2.4254777777777776
20
1.7071430555555553
0
VERTEX
8
0
10
2.6273944444444446
20
1.6809624999999997
0
SEQEND
8
0
0
POLYLINE
8
0
70
0
66
1
0
VERTEX
8
0
10
2.6273902777777778
20
1.5788763888888888
42
0.4142248374087998
0
VERTEX
8
0
10
2.6718208333333333
20
1.6365430555555556
42
0.3404720888393117
0
VERTEX
8
0
10
2.6273902777777778
20
1.6809597222222221
0
SEQEND
8
0
0
POLYLINE
8
0
70
0
66
1
0
VERTEX
8
0
10
2.6273902777777778
20
1.5788763888888888
0
VERTEX
8
0
10
2.4254736111111108
20
1.5526958333333332
0
SEQEND
8
0
0
POLYLINE
8
0
70
0
66
1
0
VERTEX
8
0
10
2.4254777777777776
20
1.4571430555555553
42
0.4142495411455097
0
VERTEX
8
0
10
2.3382416666666663
20
1.389934722222222
42
0.4141746114605187
0
VERTEX
8
0
10
2.4054499999999996
20
1.302698611111111
42
0.0644937586685261
0
VERTEX
8
0
10
2.4254777777777776
20
1.302698611111111
0
SEQEND
8
0
0
POLYLINE
8
0
70
0
66
1
0
VERTEX
8
0
10
2.4254777777777776
20
1.4571430555555553
0
VERTEX
8
0
10
2.6273944444444446
20
1.4309624999999999
0
SEQEND
8
0
0
POLYLINE
8
0
70
0
66
1
0
VERTEX
8
0
10
2.6273902777777778
20
1.3288763888888888
42
0.4142248374087998
0
VERTEX
8
0
10
2.6718208333333333
20
1.3865430555555556
42
0.3404720888393117
0
VERTEX
8
0
10
2.6273902777777778
20
1.4309597222222221
0
SEQEND
8
0
0
POLYLINE
8
0
70
0
66
1
0
VERTEX
8
0
10
2.6273902777777778
20
1.3288763888888888
0
VERTEX
8
0
10
2.4254736111111108
20
1.3026958333333332
0
SEQEND
8
0
0
POLYLINE
8
0
70
0
66
1
0
VERTEX
8
0
10
2.4254777777777776
20
1.2071430555555553
42
0.4142495411455097
0
VERTEX
8
0
10
2.3382416666666663
20
1.139934722222222
42
0.4141746114605187
0
VERTEX
8
0
10
2.4054499999999996
20
1.052698611111111
42
0.0644937586685261
0
VERTEX
8
0
10
2.4254777777777776
20
1.052698611111111
0
SEQEND
8
0
0
POLYLINE
8
0
70
0
66
1
0
VERTEX
8
0
10
2.4254777777777776
20
1.2071430555555553
0
VERTEX
8
0
10
2.6273944444444446
20
1.1809624999999999
0
SEQEND
8
0
0
POLYLINE
8
0
70
0
66
1
0
VERTEX
8
0
10
2.6273902777777778
20
1.0788763888888888
42
0.4142248374088089
0
VERTEX
8
0
10
2.6718208333333333
20
1.1365430555555556
42
0.3404720888393117
0
VERTEX
8
0
10
2.6273902777777778
20
1.1809597222222221
0
SEQEND
8
0
0
POLYLINE
8
0
70
0
66
1
0
VERTEX
8
0
10
2.6273902777777778
20
1.0788763888888888
0
VERTEX
8
0
10
2.4254736111111108
20
1.0526958333333334
0
SEQEND
8
0
0
POLYLINE
8
0
70
0
66
1
0
VERTEX
8
0
10
2.4254777777777776
20
0.9571430555555555
42
0.4142495411455097
0
VERTEX
8
0
10
2.3382416666666663
20
0.8899347222222221
42
0.4141746114605183
0
VERTEX
8
0
10
2.4054499999999996
20
0.8026986111111111
42
0.0644937586685261
0
VERTEX
8
0
10
2.4254777777777776
20
0.8026986111111111
0
SEQEND
8
0
0
POLYLINE
8
0
70
0
66
1
0
VERTEX
8
0
10
2.4254777777777776
20
0.9571430555555555
0
VERTEX
8
0
10
2.6273944444444446
20
0.9309624999999998
0
SEQEND
8
0
0
POLYLINE
8
0
70
0
66
1
0
VERTEX
8
0
10
2.6273902777777778
20
0.8288763888888888
42
0.4142248374087996
0
VERTEX
8
0
10
2.6718208333333333
20
0.8865430555555555
42
0.3404720888393122
0
VERTEX
8
0
10
2.6273902777777778
20
0.9309597222222221
0
SEQEND
8
0
0
POLYLINE
8
0
70
0
66
1
0
VERTEX
8
0
10
2.6273902777777778
20
0.8288763888888888
0
VERTEX
8
0
10
2.4254736111111108
20
0.8026958333333333
0
SEQEND
8
0
0
POLYLINE
8
0
70
0
66
1
0
VERTEX
8
0
10
2.4254777777777776
20
0.7071430555555555
42
0.4142495411455188
0
VERTEX
8
0
10
2.3382416666666663
20
0.6399347222222221
42
0.4141746114605183
0
VERTEX
8
0
10
2.4054499999999996
20
0.5526986111111111
42
0.0644937586685261
0
VERTEX
8
0
10
2.4254777777777776
20
0.5526986111111111
0
SEQEND
8
0
0
POLYLINE
8
0
70
0
66
1
0
VERTEX
8
0
10
2.4254777777777776
20
0.7071430555555555
0
VERTEX
8
0
10
2.6273944444444446
20
0.6809624999999999
0
SEQEND
8
0
0
POLYLINE
8
0
70
0
66
1
0
VERTEX
8
0
10
2.6273902777777778
20
0.5788763888888888
42
0.4142248374087996
0
VERTEX
8
0
10
2.6718208333333333
20
0.6365430555555555
42
0.3404720888393122
0
VERTEX
8
0
10
2.6273902777777778
20
0.6809597222222222
0
SEQEND
8
0
0
POLYLINE
8
0
70
0
66
1
0
VERTEX
8
0
10
2.6273902777777778
20
0.5788763888888888
0
VERTEX
8
0
10
2.4254736111111108
20
0.5526958333333333
0
SEQEND
8
0
0
POLYLINE
8
0
70
0
66
1
0
VERTEX
8
0
10
0.0
20
3.0098472222222221
0
VERTEX
8
0
10
3.0098472222222221
20
3.0098472222222221
0
VERTEX
8
0
10
3.0098472222222221
20
-0.0
0
VERTEX
8
0
10
0.0
20
-0.0
0
VERTEX
8
0
10
0.0
20
3.0098472222222221
0
SEQEND
8
0
0
POLYLINE
8
0
70
0
66
1
0
VERTEX
8
0
10
1.4254777777777776
20
2.2071430555555556
42
0.4142495411455128
0
VERTEX
8
0
10
1.3382416666666666
20
2.1399347222222223
42
0.4141746114605219
0
VERTEX
8
0
10
1.4054500000000001
20
2.052698611111111
42
0.0644937586684889
0
VERTEX
8
0
10
1.4254777777777776
20
2.052698611111111
0
SEQEND
8
0
0
POLYLINE
8
0
70
0
66
1
0
VERTEX
8
0
10
1.4254777777777776
20
2.2071430555555556
0
VERTEX
8
0
10
1.6273944444444444
20
2.1809625000000001
0
SEQEND
8
0
0
POLYLINE
8
0
70
0
66
1
0
VERTEX
8
0
10
1.6273902777777778
20
2.0788763888888888
42
0.4142248374088137
0
VERTEX
8
0
10
1.6718208333333333
20
2.1365430555555553
42
0.3404720888393246
0
VERTEX
8
0
10
1.6273902777777778
20
2.1809597222222221
0
SEQEND
8
0
0
POLYLINE
8
0
70
0
66
1
0
VERTEX
8
0
10
1.6273902777777778
20
2.0788763888888888
0
VERTEX
8
0
10
1.425473611111111
20
2.0526958333333334
0
SEQEND
8
0
0
POLYLINE
8
0
70
0
66
1
0
VERTEX
8
0
10
0.4254777777777777
20
2.4571430555555556
42
0.4142495411455167
0
VERTEX
8
0
10
0.3382416666666667
20
2.3899347222222223
42
0.4141746114605204
0
VERTEX
8
0
10
0.40545
20
2.302698611111111
42
0.0644937586684886
0
VERTEX
8
0
10
0.4254777777777777
20
2.302698611111111
0
SEQEND
8
0
0
POLYLINE
8
0
70
0
66
1
0
VERTEX
8
0
10
0.4254777777777777
20
2.4571430555555556
0
VERTEX
8
0
10
0.6273944444444444
20
2.4309625000000001
0
SEQEND
8
0
0
POLYLINE
8
0
70
0
66
1
0
VERTEX
8
0
10
0.6273902777777778
20
2.3288763888888888
42
0.4142248374088123
0
VERTEX
8
0
10
0.6718208333333333
20
2.3865430555555553
42
0.3404720888393159
0
VERTEX
8
0
10
0.6273902777777778
20
2.4309597222222221
0
SEQEND
8
0
0
POLYLINE
8
0
70
0
66
1
0
VERTEX
8
0
10
0.6273902777777778
20
2.3288763888888888
0
VERTEX
8
0
10
0.4254736111111111
20
2.3026958333333334
0
SEQEND
8
0
0
POLYLINE
8
0
70
0
66
1
0
VERTEX
8
0
10
1.1299208333333333
20
1.5049208333333333
42
0.4142499999999995
0
VERTEX
8
0
10
1.0049208333333333
20
1.6299208333333333
42
0.4142500000000001
0
VERTEX
8
0
10
0.8799208333333333
20
1.5049208333333333
42
0.41425
0
VERTEX
8
0
10
1.0049208333333333
20
1.3799208333333333
42
0.4142499999999992
0
VERTEX
8
0
10
1.1299208333333333
20
1.5049208333333333
0
SEQEND
8
0
0
POLYLINE
8
0
70
0
66
1
0
VERTEX
8
0
10
0.3799208333333333
20
0.2549208333333333
42
0.41425
0
VERTEX
8
0
10
0.2549208333333333
20
0.3799208333333333
42
0.4142499999999998
0
VERTEX
8
0
10
0.1299208333333333
20
0.2549208333333333
42
0.4142499999999998
0
VERTEX
8
0
10
0.2549208333333333
20
0.1299208333333333
42
0.4142500000000005
0
VERTEX
8
0
10
0.3799208333333333
20
0.2549208333333333
0
SEQEND
8
0
0
POLYLINE
8
0
70
0
66
1
0
VERTEX
8
0
10
0.3799208333333333
20
2.7549208333333333
42
0.4142499999999992
0
VERTEX
8
0
10
0.2549208333333333
20
2.8799208333333333
42
0.4142499999999993
0
VERTEX
8
0
10
0.1299208333333333
20
2.7549208333333333
42
0.4142499999999993
0
VERTEX
8
0
10
0.2549208333333333
20
2.6299208333333333
42
0.4142499999999992
0
VERTEX
8
0
10
0.3799208333333333
20
2.7549208333333333
0
SEQEND
8
0
0
POLYLINE
8
0
70
0
66
1
0
VERTEX
8
0
10
0.0049208333333333
20
3.0049208333333333
0
VERTEX
8
0
10
0.0049208333333333
20
0.0049208333333333
0
SEQEND
8
0
0
POLYLINE
8
0
70
0
66
1
0
VERTEX
8
0
10
0.0049208333333333
20
0.0049208333333333
0
VERTEX
8
0
10
3.0049208333333333
20
0.0049208333333333
0
SEQEND
8
0
0
POLYLINE
8
0
70
0
66
1
0
VERTEX
8
0
10
3.0049208333333333
20
0.0049208333333333
0
VERTEX
8
0
10
3.0049208333333333
20
3.0049208333333333
0
SEQEND
8
0
0
POLYLINE
8
0
70
0
66
1
0
VERTEX
8
0
10
3.0049208333333333
20
3.0049208333333333
0
VERTEX
8
0
10
0.0049208333333333
20
3.0049208333333333
0
SEQEND
8
0
0
POLYLINE
8
0
70
0
66
1
0
VERTEX
8
0
10
2.8799208333333333
20
2.7549208333333333
42
0.4142499999999997
0
VERTEX
8
0
10
2.7549208333333333
20
2.8799208333333333
42
0.4142500000000014
0
VERTEX
8
0
10
2.6299208333333333
20
2.7549208333333333
42
0.4142500000000005
0
VERTEX
8
0
10
2.7549208333333333
20
2.6299208333333333
42
0.4142499999999997
0
VERTEX
8
0
10
2.8799208333333333
20
2.7549208333333333
0
SEQEND
8
0
0
POLYLINE
8
0
70
0
66
1
0
VERTEX
8
0
10
2.8799208333333333
20
0.2549208333333333
42
0.41425
0
VERTEX
8
0
10
2.7549208333333333
20
0.3799208333333333
42
0.4142500000000013
0
VERTEX
8
0
10
2.6299208333333333
20
0.2549208333333333
42
0.4142500000000006
0
VERTEX
8
0
10
2.7549208333333333
20
0.1299208333333333
42
0.4142499999999997
0
VERTEX
8
0
10
2.8799208333333333
20
0.2549208333333333
0
SEQEND
8
0
0
POLYLINE
8
0
70
0
66
1
0
VERTEX
8
0
10
2.1299208333333333
20
1.5049208333333333
42
0.4142500000000005
0
VERTEX
8
0
10
2.0049208333333333
20
1.6299208333333333
42
0.4142500000000023
0
VERTEX
8
0
10
1.8799208333333333
20
1.5049208333333333
42
0.4142500000000016
0
VERTEX
8
0
10
2.0049208333333333
20
1.3799208333333333
42
0.4142500000000016
0
VERTEX
8
0
10
2.1299208333333333
20
1.5049208333333333
0
SEQEND
8
0
0
POLYLINE
8
0
70
0
66
1
0
VERTEX
8
0
10
1.4254777777777776
20
1.9571430555555553
42
0.4142495411455128
0
VERTEX
8
0
10
1.3382416666666666
20
1.889934722222222
42
0.4141746114605219
0
VERTEX
8
0
10
1.4054500000000001
20
1.802698611111111
42
0.0644937586684889
0
VERTEX
8
0
10
1.4254777777777776
20
1.802698611111111
0
SEQEND
8
0
0
POLYLINE
8
0
70
0
66
1
0
VERTEX
8
0
10
1.4254777777777776
20
1.9571430555555553
0
VERTEX
8
0
10
1.6273944444444444
20
1.9309624999999999
0
SEQEND
8
0
0
POLYLINE
8
0
70
0
66
1
0
VERTEX
8
0
10
1.6273902777777778
20
1.8288763888888888
42
0.4142248374088066
0
VERTEX
8
0
10
1.6718208333333333
20
1.8865430555555553
42
0.3404720888393246
0
VERTEX
8
0
10
1.6273902777777778
20
1.9309597222222221
0
SEQEND
8
0
0
POLYLINE
8
0
70
0
66
1
0
VERTEX
8
0
10
1.6273902777777778
20
1.8288763888888888
0
VERTEX
8
0
10
1.425473611111111
20
1.8026958333333334
0
SEQEND
8
0
0
POLYLINE
8
0
70
0
66
1
0
VERTEX
8
0
10
1.4254777777777776
20
1.7071430555555553
42
0.4142495411455097
0
VERTEX
8
0
10
1.3382416666666666
20
1.639934722222222
42
0.414174611460516
0
VERTEX
8
0
10
1.4054500000000001
20
1.552698611111111
42
0.0644937586685254
0
VERTEX
8
0
10
1.4254777777777776
20
1.552698611111111
0
SEQEND
8
0
0
POLYLINE
8
0
70
0
66
1
0
VERTEX
8
0
10
1.4254777777777776
20
1.7071430555555553
0
VERTEX
8
0
10
1.6273944444444444
20
1.6809624999999997
0
SEQEND
8
0
0
POLYLINE
8
0
70
0
66
1
0
VERTEX
8
0
10
1.6273902777777778
20
1.5788763888888888
42
0.4142248374088032
0
VERTEX
8
0
10
1.6718208333333333
20
1.6365430555555556
42
0.3404720888393218
0
VERTEX
8
0
10
1.6273902777777778
20
1.6809597222222221
0
SEQEND
8
0
0
POLYLINE
8
0
70
0
66
1
0
VERTEX
8
0
10
1.6273902777777778
20
1.5788763888888888
0
VERTEX
8
0
10
1.425473611111111
20
1.5526958333333332
0
SEQEND
8
0
0
POLYLINE
8
0
70
0
66
1
0
VERTEX
8
0
10
1.4254777777777776
20
1.4571430555555553
42
0.4142495411455097
0
VERTEX
8
0
10
1.3382416666666666
20
1.389934722222222
42
0.414174611460516
0
VERTEX
8
0
10
1.4054500000000001
20
1.302698611111111
42
0.0644937586685254
0
VERTEX
8
0
10
1.4254777777777776
20
1.302698611111111
0
SEQEND
8
0
0
POLYLINE
8
0
70
0
66
1
0
VERTEX
8
0
10
1.4254777777777776
20
1.4571430555555553
0
VERTEX
8
0
10
1.6273944444444444
20
1.4309624999999999
0
SEQEND
8
0
0
POLYLINE
8
0
70
0
66
1
0
VERTEX
8
0
10
1.6273902777777778
20
1.3288763888888888
42
0.4142248374088032
0
VERTEX
8
0
10
1.6718208333333333
20
1.3865430555555556
42
0.3404720888393218
0
VERTEX
8
0
10
1.6273902777777778
20
1.4309597222222221
0
SEQEND
8
0
0
POLYLINE
8
0
70
0
66
1
0
VERTEX
8
0
10
1.6273902777777778
20
1.3288763888888888
0
VERTEX
8
0
10
1.425473611111111
20
1.3026958333333332
0
SEQEND
8
0
0
POLYLINE
8
0
70
0
66
1
0
VERTEX
8
0
10
1.4254777777777776
20
1.2071430555555553
42
0.4142495411455097
0
VERTEX
8
0
10
1.3382416666666666
20
1.139934722222222
42
0.4141746114605165
0
VERTEX
8
0
10
1.4054500000000001
20
1.052698611111111
42
0.0644937586685254
0
VERTEX
8
0
10
1.4254777777777776
20
1.052698611111111
0
SEQEND
8
0
0
POLYLINE
8
0
70
0
66
1
0
VERTEX
8
0
10
1.4254777777777776
20
1.2071430555555553
0
VERTEX
8
0
10
1.6273944444444444
20
1.1809624999999999
0
SEQEND
8
0
0
POLYLINE
8
0
70
0
66
1
0
VERTEX
8
0
10
1.6273902777777778
20
1.0788763888888888
42
0.4142248374088097
0
VERTEX
8
0
10
1.6718208333333333
20
1.1365430555555556
42
0.3404720888393218
0
VERTEX
8
0
10
1.6273902777777778
20
1.1809597222222221
0
SEQEND
8
0
0
POLYLINE
8
0
70
0
66
1
0
VERTEX
8
0
10
1.6273902777777778
20
1.0788763888888888
0
VERTEX
8
0
10
1.425473611111111
20
1.0526958333333334
0
SEQEND
8
0
0
POLYLINE
8
0
70
0
66
1
0
VERTEX
8
0
10
1.4254777777777776
20
0.9571430555555555
42
0.4142495411455097
0
VERTEX
8
0
10
1.3382416666666666
20
0.8899347222222221
42
0.4141746114605187
0
VERTEX
8
0
10
1.4054500000000001
20
0.8026986111111111
42
0.0644937586685176
0
VERTEX
8
0
10
1.4254777777777776
20
0.8026986111111111
0
SEQEND
8
0
0
POLYLINE
8
0
70
0
66
1
0
VERTEX
8
0
10
1.4254777777777776
20
0.9571430555555555
0
VERTEX
8
0
10
1.6273944444444444
20
0.9309624999999998
0
SEQEND
8
0
0
POLYLINE
8
0
70
0
66
1
0
VERTEX
8
0
10
1.6273902777777778
20
0.8288763888888888
42
0.4142248374088061
0
VERTEX
8
0
10
1.6718208333333333
20
0.8865430555555555
42
0.3404720888393222
0
VERTEX
8
0
10
1.6273902777777778
20
0.9309597222222221
0
SEQEND
8
0
0
POLYLINE
8
0
70
0
66
1
0
VERTEX
8
0
10
1.6273902777777778
20
0.8288763888888888
0
VERTEX
8
0
10
1.425473611111111
20
0.8026958333333333
0
SEQEND
8
0
0
POLYLINE
8
0
70
0
66
1
0
VERTEX
8
0
10
0.4254777777777777
20
2.2071430555555556
42
0.4142495411455167
0
VERTEX
8
0
10
0.3382416666666667
20
2.1399347222222223
42
0.4141746114605204
0
VERTEX
8
0
10
0.40545
20
2.052698611111111
42
0.0644937586684886
0
VERTEX
8
0
10
0.4254777777777777
20
2.052698611111111
0
SEQEND
8
0
0
POLYLINE
8
0
70
0
66
1
0
VERTEX
8
0
10
0.4254777777777777
20
2.2071430555555556
0
VERTEX
8
0
10
0.6273944444444444
20
2.1809625000000001
0
SEQEND
8
0
0
POLYLINE
8
0
70
0
66
1
0
VERTEX
8
0
10
0.6273902777777778
20
2.0788763888888888
42
0.4142248374088123
0
VERTEX
8
0
10
0.6718208333333333
20
2.1365430555555553
42
0.3404720888393237
0
VERTEX
8
0
10
0.6273902777777778
20
2.1809597222222221
0
SEQEND
8
0
0
POLYLINE
8
0
70
0
66
1
0
VERTEX
8
0
10
0.6273902777777778
20
2.0788763888888888
0
VERTEX
8
0
10
0.4254736111111111
20
2.0526958333333334
0
SEQEND
8
0
0
POLYLINE
8
0
70
0
66
1
0
VERTEX
8
0
10
0.4254777777777777
20
1.9571430555555553
42
0.414249541145517
0
VERTEX
8
0
10
0.3382416666666667
20
1.889934722222222
42
0.4141746114605204
0
VERTEX
8
0
10
0.40545
20
1.802698611111111
42
0.0644937586684886
0
VERTEX
8
0
10
0.4254777777777777
20
1.802698611111111
0
SEQEND
8
0
0
POLYLINE
8
0
70
0
66
1
0
VERTEX
8
0
10
0.4254777777777777
20
1.9571430555555553
0
VERTEX
8
0
10
0.6273944444444444
20
1.9309624999999999
0
SEQEND
8
0
0
POLYLINE
8
0
70
0
66
1
0
VERTEX
8
0
10
0.6273902777777778
20
1.8288763888888888
42
0.4142248374088004
0
VERTEX
8
0
10
0.6718208333333333
20
1.8865430555555553
42
0.3404720888393265
0
VERTEX
8
0
10
0.6273902777777778
20
1.9309597222222221
0
SEQEND
8
0
0
POLYLINE
8
0
70
0
66
1
0
VERTEX
8
0
10
0.6273902777777778
20
1.8288763888888888
0
VERTEX
8
0
10
0.4254736111111111
20
1.8026958333333334
0
SEQEND
8
0
0
POLYLINE
8
0
70
0
66
1
0
VERTEX
8
0
10
0.4254777777777777
20
1.7071430555555553
42
0.4142495411455162
0
VERTEX
8
0
10
0.3382416666666667
20
1.639934722222222
42
0.4141746114605185
0
VERTEX
8
0
10
0.40545
20
1.552698611111111
42
0.0644937586685283
0
VERTEX
8
0
10
0.4254777777777777
20
1.552698611111111
0
SEQEND
8
0
0
POLYLINE
8
0
70
0
66
1
0
VERTEX
8
0
10
0.4254777777777777
20
1.7071430555555553
0
VERTEX
8
0
10
0.6273944444444444
20
1.6809624999999997
0
SEQEND
8
0
0
POLYLINE
8
0
70
0
66
1
0
VERTEX
8
0
10
0.6273902777777778
20
1.5788763888888888
42
0.4142248374088017
0
VERTEX
8
0
10
0.6718208333333333
20
1.6365430555555556
42
0.3404720888393186
0
VERTEX
8
0
10
0.6273902777777778
20
1.6809597222222221
0
SEQEND
8
0
0
POLYLINE
8
0
70
0
66
1
0
VERTEX
8
0
10
0.6273902777777778
20
1.5788763888888888
0
VERTEX
8
0
10
0.4254736111111111
20
1.5526958333333332
0
SEQEND
8
0
0
POLYLINE
8
0
70
0
66
1
0
VERTEX
8
0
10
0.4254777777777777
20
1.4571430555555553
42
0.4142495411455162
0
VERTEX
8
0
10
0.3382416666666667
20
1.389934722222222
42
0.4141746114605182
0
VERTEX
8
0
10
0.40545
20
1.302698611111111
42
0.0644937586685283
0
VERTEX
8
0
10
0.4254777777777777
20
1.302698611111111
0
SEQEND
8
0
0
POLYLINE
8
0
70
0
66
1
0
VERTEX
8
0
10
0.4254777777777777
20
1.4571430555555553
0
VERTEX
8
0
10
0.6273944444444444
20
1.4309624999999999
0
SEQEND
8
0
0
POLYLINE
8
0
70
0
66
1
0
VERTEX
8
0
10
0.6273902777777778
20
1.3288763888888888
42
0.4142248374088017
0
VERTEX
8
0
10
0.6718208333333333
20
1.3865430555555556
42
0.3404720888393186
0
VERTEX
8
0
10
0.6273902777777778
20
1.4309597222222221
0
SEQEND
8
0
0
POLYLINE
8
0
70
0
66
1
0
VERTEX
8
0
10
0.6273902777777778
20
1.3288763888888888
0
VERTEX
8
0
10
0.4254736111111111
20
1.3026958333333332
0
SEQEND
8
0
0
POLYLINE
8
0
70
0
66
1
0
VERTEX
8
0
10
0.4254777777777777
20
1.2071430555555553
42
0.4142495411455162
0
VERTEX
8
0
10
0.3382416666666667
20
1.139934722222222
42
0.4141746114605182
0
VERTEX
8
0
10
0.40545
20
1.052698611111111
42
0.0644937586685283
0
VERTEX
8
0
10
0.4254777777777777
20
1.052698611111111
0
SEQEND
8
0
0
POLYLINE
8
0
70
0
66
1
0
VERTEX
8
0
10
0.4254777777777777
20
1.2071430555555553
0
VERTEX
8
0
10
0.6273944444444444
20
1.1809624999999999
0
SEQEND
8
0
0
POLYLINE
8
0
70
0
66
1
0
VERTEX
8
0
10
0.6273902777777778
20
1.0788763888888888
42
0.4142248374088027
0
VERTEX
8
0
10
0.6718208333333333
20
1.1365430555555556
42
0.3404720888393186
0
VERTEX
8
0
10
0.6273902777777778
20
1.1809597222222221
0
SEQEND
8
0
0
POLYLINE
8
0
70
0
66
1
0
VERTEX
8
0
10
0.6273902777777778
20
1.0788763888888888
0
VERTEX
8
0
10
0.4254736111111111
20
1.0526958333333334
0
SEQEND
8
0
0
POLYLINE
8
0
70
0
66
1
0
VERTEX
8
0
10
0.4254777777777777
20
0.9571430555555555
42
0.4142495411455162
0
VERTEX
8
0
10
0.3382416666666667
20
0.8899347222222221
42
0.4141746114605204
0
VERTEX
8
0
10
0.40545
20
0.8026986111111111
42
0.0644937586685181
0
VERTEX
8
0
10
0.4254777777777777
20
0.8026986111111111
0
SEQEND
8
0
0
POLYLINE
8
0
70
0
66
1
0
VERTEX
8
0
10
0.4254777777777777
20
0.9571430555555555
0
VERTEX
8
0
10
0.6273944444444444
20
0.9309624999999998
0
SEQEND
8
0
0
POLYLINE
8
0
70
0
66
1
0
VERTEX
8
0
10
0.6273902777777778
20
0.8288763888888888
42
0.4142248374088014
0
VERTEX
8
0
10
0.6718208333333333
20
0.8865430555555555
42
0.3404720888393218
0
VERTEX
8
0
10
0.6273902777777778
20
0.9309597222222221
0
SEQEND
8
0
0
POLYLINE
8
0
70
0
66
1
0
VERTEX
8
0
10
0.6273902777777778
20
0.8288763888888888
0
VERTEX
8
0
10
0.4254736111111111
20
0.8026958333333333
0
SEQEND
8
0
0
POLYLINE
8
0
70
0
66
1
0
VERTEX
8
0
10
0.4254777777777777
20
0.7071430555555555
42
0.4142495411455188
0
VERTEX
8
0
10
0.3382416666666667
20
0.6399347222222221
42
0.4141746114605204
0
VERTEX
8
0
10
0.40545
20
0.5526986111111111
42
0.0644937586685181
0
VERTEX
8
0
10
0.4254777777777777
20
0.5526986111111111
0
SEQEND
8
0
0
POLYLINE
8
0
70
0
66
1
0
VERTEX
8
0
10
0.4254777777777777
20
0.7071430555555555
0
VERTEX
8
0
10
0.6273944444444444
20
0.6809624999999999
0
SEQEND
8
0
0
POLYLINE
8
0
70
0
66
1
0
VERTEX
8
0
10
0.6273902777777778
20
0.5788763888888888
42
0.4142248374088038
0
VERTEX
8
0
10
0.6718208333333333
20
0.6365430555555555
42
0.3404720888393209
0
VERTEX
8
0
10
0.6273902777777778
20
0.6809597222222222
0
SEQEND
8
0
0
POLYLINE
8
0
70
0
66
1
0
VERTEX
8
0
10
0.6273902777777778
20
0.5788763888888888
0
VERTEX
8
0
10
0.4254736111111111
20
0.5526958333333333
0
SEQEND
8
0
0
POLYLINE
8
0
70
0
66
1
0
VERTEX
8
0
10
1.4254777777777776
20
2.4571430555555556
42
0.4142495411455128
0
VERTEX
8
0
10
1.3382416666666666
20
2.3899347222222223
42
0.4141746114605203
0
VERTEX
8
0
10
1.4054500000000001
20
2.302698611111111
42
0.0644937586684889
0
VERTEX
8
0
10
1.4254777777777776
20
2.302698611111111
0
SEQEND
8
0
0
POLYLINE
8
0
70
0
66
1
0
VERTEX
8
0
10
1.4254777777777776
20
2.4571430555555556
0
VERTEX
8
0
10
1.6273944444444444
20
2.4309625000000001
0
SEQEND
8
0
0
POLYLINE
8
0
70
0
66
1
0
VERTEX
8
0
10
1.6273902777777778
20
2.3288763888888888
42
0.4142248374088137
0
VERTEX
8
0
10
1.6718208333333333
20
2.3865430555555553
42
0.3404720888393154
0
VERTEX
8
0
10
1.6273902777777778
20
2.4309597222222221
0
SEQEND
8
0
0
POLYLINE
8
0
70
0
66
1
0
VERTEX
8
0
10
1.6273902777777778
20
2.3288763888888888
0
VERTEX
8
0
10
1.425473611111111
20
2.3026958333333334
0
SEQEND
8
0
0
POLYLINE
8
0
70
0
66
1
0
VERTEX
8
0
10
1.4254777777777776
20
0.7071430555555555
42
0.414249541145522
0
VERTEX
8
0
10
1.3382416666666666
20
0.6399347222222221
42
0.4141746114605187
0
VERTEX
8
0
10
1.4054500000000001
20
0.5526986111111111
42
0.0644937586685176
0
VERTEX
8
0
10
1.4254777777777776
20
0.5526986111111111
0
SEQEND
8
0
0
POLYLINE
8
0
70
0
66
1
0
VERTEX
8
0
10
1.4254777777777776
20
0.7071430555555555
0
VERTEX
8
0
10
1.6273944444444444
20
0.6809624999999999
0
SEQEND
8
0
0
POLYLINE
8
0
70
0
66
1
0
VERTEX
8
0
10
1.6273902777777778
20
0.5788763888888888
42
0.4142248374088061
0
VERTEX
8
0
10
1.6718208333333333
20
0.6365430555555555
42
0.3404720888393222
0
VERTEX
8
0
10
1.6273902777777778
20
0.6809597222222222
0
SEQEND
8
0
0
POLYLINE
8
0
70
0
66
1
0
VERTEX
8
0
10
1.6273902777777778
20
0.5788763888888888
0
VERTEX
8
0
10
1.425473611111111
20
0.5526958333333333
0
SEQEND
8
0
0
POLYLINE
8
0
70
0
66
1
0
VERTEX
8
0
10
2.4254777777777776
20
2.4571430555555556
42
0.4142495411455097
0
VERTEX
8
0
10
2.3382416666666663
20
2.3899347222222223
42
0.4141746114605187
0
VERTEX
8
0
10
2.4054499999999996
20
2.302698611111111
42
0.0644937586684895
0
VERTEX
8
0
10
2.4254777777777776
20
2.302698611111111
0
SEQEND
8
0
0
POLYLINE
8
0
70
0
66
1
0
VERTEX
8
0
10
2.4254777777777776
20
2.4571430555555556
0
VERTEX
8
0
10
2.6273944444444446
20
2.4309625000000001
0
SEQEND
8
0
0
POLYLINE
8
0
70
0
66
1
0
VERTEX
8
0
10
2.6273902777777778
20
2.3288763888888888
42
0.4142248374088077
0
VERTEX
8
0
10
2.6718208333333333
20
2.3865430555555553
42
0.3404720888393137
0
VERTEX
8
0
10
2.6273902777777778
20
2.4309597222222221
0
SEQEND
8
0
0
POLYLINE
8
0
70
0
66
1
0
VERTEX
8
0
10
2.6273902777777778
20
2.3288763888888888
0
VERTEX
8
0
10
2.4254736111111108
20
2.3026958333333334
0
SEQEND
8
0
0
POLYLINE
8
0
70
0
66
1
0
VERTEX
8
0
10
2.4254777777777776
20
2.2071430555555556
42
0.4142495411455097
0
VERTEX
8
0
10
2.3382416666666663
20
2.1399347222222223
42
0.4141746114605187
0
VERTEX
8
0
10
2.4054499999999996
20
2.052698611111111
42
0.0644937586684895
0
VERTEX
8
0
10
2.4254777777777776
20
2.052698611111111
0
SEQEND
8
0
0
POLYLINE
8
0
70
0
66
1
0
VERTEX
8
0
10
2.4254777777777776
20
2.2071430555555556
0
VERTEX
8
0
10
2.6273944444444446
20
2.1809625000000001
0
SEQEND
8
0
0
POLYLINE
8
0
70
0
66
1
0
VERTEX
8
0
10
2.6273902777777778
20
2.0788763888888888
42
0.4142248374088077
0
VERTEX
8
0
10
2.6718208333333333
20
2.1365430555555553
42
0.340472088839323
0
VERTEX
8
0
10
2.6273902777777778
20
2.1809597222222221
0
SEQEND
8
0
0
POLYLINE
8
0
70
0
66
1
0
VERTEX
8
0
10
2.6273902777777778
20
2.0788763888888888
0
VERTEX
8
0
10
2.4254736111111108
20
2.0526958333333334
0
SEQEND
8
0
0
POLYLINE
8
0
70
0
66
1
0
VERTEX
8
0
10
2.4254777777777776
20
1.9571430555555553
42
0.4142495411455097
0
VERTEX
8
0
10
2.3382416666666663
20
1.889934722222222
42
0.4141746114605187
0
VERTEX
8
0
10
2.4054499999999996
20
1.802698611111111
42
0.0644937586684895
0
VERTEX
8
0
10
2.4254777777777776
20
1.802698611111111
0
SEQEND
8
0
0
POLYLINE
8
0
70
0
66
1
0
VERTEX
8
0
10
2.4254777777777776
20
1.9571430555555553
0
VERTEX
8
0
10
2.6273944444444446
20
1.9309624999999999
0
SEQEND
8
0
0
POLYLINE
8
0
70
0
66
1
0
VERTEX
8
0
10
2.6273902777777778
20
1.8288763888888888
42
0.4142248374087926
0
VERTEX
8
0
10
2.6718208333333333
20
1.8865430555555553
42
0.340472088839323
0
VERTEX
8
0
10
2.6273902777777778
20
1.9309597222222221
0
SEQEND
8
0
0
POLYLINE
8
0
70
0
66
1
0
VERTEX
8
0
10
2.6273902777777778
20
1.8288763888888888
0
VERTEX
8
0
10
2.4254736111111108
20
1.8026958333333334
0
SEQEND
8
0
0
POLYLINE
8
0
70
0
66
1
0
VERTEX
8
0
10
2.4254777777777776
20
1.7071430555555553
42
0.4142495411455097
0
VERTEX
8
0
10
2.3382416666666663
20
1.639934722222222
42
0.4141746114605187
0
VERTEX
8
0
10
2.4054499999999996
20
1.552698611111111
42
0.0644937586685261
0
VERTEX
8
0
10
2.4254777777777776
20
1.552698611111111
0
SEQEND
8
0
0
POLYLINE
8
0
70
0
66
1
0
VERTEX
8
0
10
2.4254777777777776
20
1.7071430555555553
0
VERTEX
8
0
10
2.6273944444444446
20
1.6809624999999997
0
SEQEND
8
0
0
POLYLINE
8
0
70
0
66
1
0
VERTEX
8
0
10
2.6273902777777778
20
1.5788763888888888
42
0.4142248374087998
0
VERTEX
8
0
10
2.6718208333333333
20
1.6365430555555556
42
0.3404720888393117
0
VERTEX
8
0
10
2.6273902777777778
20
1.6809597222222221
0
SEQEND
8
0
0
POLYLINE
8
0
70
0
66
1
0
VERTEX
8
0
10
2.6273902777777778
20
1.5788763888888888
0
VERTEX
8
0
10
2.4254736111111108
20
1.5526958333333332
0
SEQEND
8
0
0
POLYLINE
8
0
70
0
66
1
0
VERTEX
8
0
10
2.4254777777777776
20
1.4571430555555553
42
0.4142495411455097
0
VERTEX
8
0
10
2.3382416666666663
20
1.389934722222222
42
0.4141746114605187
0
VERTEX
8
0
10
2.4054499999999996
20
1.302698611111111
42
0.0644937586685261
0
VERTEX
8
0
10
2.4254777777777776
20
1.302698611111111
0
SEQEND
8
0
0
POLYLINE
8
0
70
0
66
1
0
VERTEX
8
0
10
2.4254777777777776
20
1.4571430555555553
0
VERTEX
8
0
10
2.6273944444444446
20
1.4309624999999999
0
SEQEND
8
0
0
POLYLINE
8
0
70
0
66
1
0
VERTEX
8
0
10
2.6273902777777778
20
1.3288763888888888
42
0.4142248374087998
0
VERTEX
8
0
10
2.6718208333333333
20
1.3865430555555556
42
0.3404720888393117
0
VERTEX
8
0
10
2.6273902777777778
20
1.4309597222222221
0
SEQEND
8
0
0
POLYLINE
8
0
70
0
66
1
0
VERTEX
8
0
10
2.6273902777777778
20
1.3288763888888888
0
VERTEX
8
0
10
2.4254736111111108
20
1.3026958333333332
0
SEQEND
8
0
0
POLYLINE
8
0
70
0
66
1
0
VERTEX
8
0
10
2.4254777777777776
20
1.2071430555555553
42
0.4142495411455097
0
VERTEX
8
0
10
2.3382416666666663
20
1.139934722222222
42
0.4141746114605187
0
VERTEX
8
0
10
2.4054499999999996
20
1.052698611111111
42
0.0644937586685261
0
VERTEX
8
0
10
2.4254777777777776
20
1.052698611111111
0
SEQEND
8
0
0
POLYLINE
8
0
70
0
66
1
0
VERTEX
8
0
10
2.4254777777777776
20
1.2071430555555553
0
VERTEX
8
0
10
2.6273944444444446
20
1.1809624999999999
0
SEQEND
8
0
0
POLYLINE
8
0
70
0
66
1
0
VERTEX
8
0
10
2.6273902777777778
20
1.0788763888888888
42
0.4142248374088089
0
VERTEX
8
0
10
2.6718208333333333
20
1.1365430555555556
42
0.3404720888393117
0
VERTEX
8
0
10
2.6273902777777778
20
1.1809597222222221
0
SEQEND
8
0
0
POLYLINE
8
0
70
0
66
1
0
VERTEX
8
0
10
2.6273902777777778
20
1.0788763888888888
0
VERTEX
8
0
10
2.4254736111111108
20
1.0526958333333334
0
SEQEND
8
0
0
POLYLINE
8
0
70
0
66
1
0
VERTEX
8
0
10
2.4254777777777776
20
0.9571430555555555
42
0.4142495411455097
0
VERTEX
8
0
10
2.3382416666666663
20
0.8899347222222221
42
0.4141746114605183
0
VERTEX
8
0
10
2.4054499999999996
20
0.8026986111111111
42
0.0644937586685261
0
VERTEX
8
0
10
2.4254777777777776
20
0.8026986111111111
0
SEQEND
8
0
0
POLYLINE
8
0
70
0
66
1
0
VERTEX
8
0
10
2.4254777777777776
20
0.9571430555555555
0
VERTEX
8
0
10
2.6273944444444446
20
0.9309624999999998
0
SEQEND
8
0
0
POLYLINE
8
0
70
0
66
1
0
VERTEX
8
0
10
2.6273902777777778
20
0.8288763888888888
42
0.4142248374087996
0
VERTEX
8
0
10
2.6718208333333333
20
0.8865430555555555
42
0.3404720888393122
0
VERTEX
8
0
10
2.6273902777777778
20
0.9309597222222221
0
SEQEND
8
0
0
POLYLINE
8
0
70
0
66
1
0
VERTEX
8
0
10
2.6273902777777778
20
0.8288763888888888
0
VERTEX
8
0
10
2.4254736111111108
20
0.8026958333333333
0
SEQEND
8
0
0
POLYLINE
8
0
70
0
66
1
0
VERTEX
8
0
10
2.4254777777777776
20
0.7071430555555555
42
0.4142495411455188
0
VERTEX
8
0
10
2.3382416666666663
20
0.6399347222222221
42
0.4141746114605183
0
VERTEX
8
0
10
2.4054499999999996
20
0.5526986111111111
42
0.0644937586685261
0
VERTEX
8
0
10
2.4254777777777776
20
0.5526986111111111
0
SEQEND
8
0
0
POLYLINE
8
0
70
0
66
1
0
VERTEX
8
0
10
2.4254777777777776
20
0.7071430555555555
0
VERTEX
8
0
10
2.6273944444444446
20
0.6809624999999999
0
SEQEND
8
0
0
POLYLINE
8
0
70
0
66
1
0
VERTEX
8
0
10
2.6273902777777778
20
0.5788763888888888
42
0.4142248374087996
0
VERTEX
8
0
10
2.6718208333333333
20
0.6365430555555555
42
0.3404720888393122
0
VERTEX
8
0
10
2.6273902777777778
20
0.6809597222222222
0
SEQEND
8
0
0
POLYLINE
8
0
70
0
66
1
0
VERTEX
8
0
10
2.6273902777777778
20
0.5788763888888888
0
VERTEX
8
0
10
2.4254736111111108
20
0.5526958333333333
0
SEQEND
8
0
0
ENDSEC
0
EOF
