  0
SECTION
  2
HEADER
  9
$ACADVER
  1
AC1003
  9
$EXTMIN
 10
0.85
 20
4.05
  9
$EXTMAX
 10
4
 20
1
  9
$INSUNITS
 70
1
  9
$INSBASE
 10
2.425
 20
2.525
999
Created with OMAX LAYOUT for Windows. (www.omax.com) 3/13/2023
  0
ENDSEC
  0
SECTION
  2
TABLES
  0
TABLE
  2
LAYER
 70
    10
  0
LAYER
  2
0
 70
     0
 62
     7
  6
CONTINUOUS
  0
LAYER
  2
1
 70
     0
 62
     7
  6
CONTINUOUS
  0
LAYER
  2
2
 70
     0
 62
     7
  6
CONTINUOUS
  0
LAYER
  2
3
 70
     0
 62
     7
  6
CONTINUOUS
  0
LAYER
  2
4
 70
     0
 62
     7
  6
CONTINUOUS
  0
LAYER
  2
5
 70
     0
 62
     7
  6
CONTINUOUS
  0
LAYER
  2
6
 70
     0
 62
     7
  6
CONTINUOUS
  0
LAYER
  2
7
 70
     0
 62
     7
  6
CONTINUOUS
  0
LAYER
  2
8
 70
     0
 62
     7
  6
CONTINUOUS
  0
LAYER
  2
9
 70
     0
 62
     7
  6
CONTINUOUS
  0
LAYER
  2
10
 70
     0
 62
     7
  6
CONTINUOUS
  0
LAYER
  2
11
 70
     0
 62
     7
  6
CONTINUOUS
  0
LAYER
  2
12
 70
     0
 62
     7
  6
CONTINUOUS
  0
LAYER
  2
13
 70
     0
 62
     7
  6
CONTINUOUS
  0
LAYER
  2
14
 70
     0
 62
     7
  6
CONTINUOUS
  0
LAYER
  2
15
 70
     0
 62
     7
  6
CONTINUOUS
  0
LAYER
  2
16
 70
     0
 62
     7
  6
CONTINUOUS
  0
LAYER
  2
17
 70
     0
 62
     7
  6
CONTINUOUS
  0
LAYER
  2
18
 70
     0
 62
     7
  6
CONTINUOUS
  0
LAYER
  2
19
 70
     0
 62
     7
  6
CONTINUOUS
  0
LAYER
  2
20
 70
     0
 62
     7
  6
CONTINUOUS
  0
LAYER
  2
21
 70
     0
 62
     7
  6
CONTINUOUS
  0
LAYER
  2
22
 70
     0
 62
     7
  6
CONTINUOUS
  0
LAYER
  2
23
 70
     0
 62
     7
  6
CONTINUOUS
  0
LAYER
  2
24
 70
     0
 62
     7
  6
CONTINUOUS
  0
LAYER
  2
25
 70
     0
 62
     7
  6
CONTINUOUS
  0
LAYER
  2
26
 70
     0
 62
     7
  6
CONTINUOUS
  0
LAYER
  2
27
 70
     0
 62
     7
  6
CONTINUOUS
  0
LAYER
  2
28
 70
     0
 62
     7
  6
CONTINUOUS
  0
LAYER
  2
29
 70
     0
 62
     7
  6
CONTINUOUS
  0
LAYER
  2
30
 70
     0
 62
     7
  6
CONTINUOUS
  0
LAYER
  2
31
 70
     0
 62
     7
  6
CONTINUOUS
  0
ENDTAB
  0
ENDSEC
  0
SECTION
  2
ENTITIES
  0
LINE
  8
0
  6
CONTINUOUS
 62
0
 10
0.85
 20
1
 30
0.0
 11
3.75377131945295
 21
1.25393957169636
 31
0.0
  0
LINE
  8
0
  6
CONTINUOUS
 62
0
 10
3.69539116273247
 20
1.30152448080781
 30
0.0
 11
3.38138057932008
 21
1.62498875711744
 31
0.0
  0
LINE
  8
0
  6
CONTINUOUS
 62
0
 10
3.38241108734659
 20
1.62498875711744
 30
0.0
 11
3.47901086282348
 21
1.62497144664746
 31
0.0
  0
LINE
  8
0
  6
CONTINUOUS
 62
0
 10
3.4816280260654
 20
1.62497144664746
 30
0.0
 11
3.61826227289788
 21
1.62450521271363
 31
0.0
  0
LINE
  8
0
  6
CONTINUOUS
 62
0
 10
3.61799555779449
 20
1.62550060703063
 30
0.0
 11
3.61863330956881
 21
1.87501124288256
 31
0.0
  0
LINE
  8
0
  6
CONTINUOUS
 62
0
 10
3.6176028015423
 20
1.87501124288256
 30
0.0
 11
3.4816280260654
 21
1.87502855335254
 31
0.0
  0
LINE
  8
0
  6
CONTINUOUS
 62
0
 10
3.47901086282348
 20
1.87502855335254
 30
0.0
 11
3.38204005067566
 21
1.87450521271363
 31
0.0
  0
LINE
  8
0
  6
CONTINUOUS
 62
0
 10
3.38177333557227
 20
1.87550060703063
 30
0.0
 11
3.38138057932008
 21
2.12498875711744
 31
0.0
  0
LINE
  8
0
  6
CONTINUOUS
 62
0
 10
3.38241108734659
 20
2.12498875711744
 30
0.0
 11
3.47901086282348
 21
2.12497144664746
 31
0.0
  0
LINE
  8
0
  6
CONTINUOUS
 62
0
 10
3.4816280260654
 20
2.12497144664746
 30
0.0
 11
3.61799555779449
 21
2.12449939296937
 31
0.0
  0
LINE
  8
0
  6
CONTINUOUS
 62
0
 10
3.61826227289788
 20
2.12549478728637
 30
0.0
 11
3.74470257110445
 21
3.75129627260386
 31
0.0
  0
LINE
  8
0
  6
CONTINUOUS
 62
0
 10
3.7326829093374
 20
3.67694511925128
 30
0.0
 11
3.61863330956881
 21
3.37501124288256
 31
0.0
  0
LINE
  8
0
  6
CONTINUOUS
 62
0
 10
3.6176028015423
 20
3.37501124288256
 30
0.0
 11
3.4816280260654
 21
3.37502855335254
 31
0.0
  0
LINE
  8
0
  6
CONTINUOUS
 62
0
 10
3.47901086282348
 20
3.37502855335254
 30
0.0
 11
3.38175161599101
 21
3.37549478728637
 31
0.0
  0
LINE
  8
0
  6
CONTINUOUS
 62
0
 10
3.3820183310944
 20
3.37449939296937
 30
0.0
 11
3.38138057932008
 21
3.12498875711744
 31
0.0
  0
LINE
  8
0
  6
CONTINUOUS
 62
0
 10
3.38241108734659
 20
3.12498875711744
 30
0.0
 11
3.47901086282348
 21
3.12497144664746
 31
0.0
  0
LINE
  8
0
  6
CONTINUOUS
 62
0
 10
3.4816280260654
 20
3.12497144664746
 30
0.0
 11
3.61797383821323
 21
3.12549478728637
 31
0.0
  0
LINE
  8
0
  6
CONTINUOUS
 62
0
 10
3.61824055331662
 20
3.12449939296937
 30
0.0
 11
3.61863330956881
 21
2.87501124288256
 31
0.0
  0
LINE
  8
0
  6
CONTINUOUS
 62
0
 10
3.6176028015423
 20
2.87501124288256
 30
0.0
 11
3.4816280260654
 21
2.87502855335254
 31
0.0
  0
LINE
  8
0
  6
CONTINUOUS
 62
0
 10
3.47901086282348
 20
2.87502855335254
 30
0.0
 11
3.38175161599101
 21
2.87549478728637
 31
0.0
  0
LINE
  8
0
  6
CONTINUOUS
 62
0
 10
3.3820183310944
 20
2.87449939296937
 30
0.0
 11
3.38138057932008
 21
2.62498875711744
 31
0.0
  0
LINE
  8
0
  6
CONTINUOUS
 62
0
 10
3.38241108734659
 20
2.62498875711744
 30
0.0
 11
3.47901086282348
 21
2.62497144664746
 31
0.0
  0
LINE
  8
0
  6
CONTINUOUS
 62
0
 10
3.4816280260654
 20
2.62497144664746
 30
0.0
 11
3.61797383821323
 21
2.62549478728637
 31
0.0
  0
LINE
  8
0
  6
CONTINUOUS
 62
0
 10
3.61824055331662
 20
2.62449939296937
 30
0.0
 11
3.61863330956881
 21
2.37501124288256
 31
0.0
  0
LINE
  8
0
  6
CONTINUOUS
 62
0
 10
3.6176028015423
 20
2.37501124288256
 30
0.0
 11
3.4816280260654
 21
2.37502855335254
 31
0.0
  0
LINE
  8
0
  6
CONTINUOUS
 62
0
 10
3.47901086282348
 20
2.37502855335254
 30
0.0
 11
3.38239644036396
 21
2.37487750223894
 31
0.0
  0
LINE
  8
0
  6
CONTINUOUS
 62
0
 10
3.38140104604696
 20
2.37514421734233
 30
0.0
 11
3.00129627260386
 21
2.50529742889555
 31
0.0
  0
LINE
  8
0
  6
CONTINUOUS
 62
0
 10
2.92694511925128
 20
2.5173170906626
 30
0.0
 11
2.00478142334562
 21
2.49737682132578
 31
0.0
  0
LINE
  8
0
  6
CONTINUOUS
 62
0
 10
2.03563501958266
 20
2.56608360318241
 30
0.0
 11
2.38138057932008
 21
3.37498875711744
 31
0.0
  0
LINE
  8
0
  6
CONTINUOUS
 62
0
 10
2.38241108734659
 20
3.37498875711744
 30
0.0
 11
2.47901086282348
 21
3.37497144664746
 31
0.0
  0
LINE
  8
0
  6
CONTINUOUS
 62
0
 10
2.4816280260654
 20
3.37497144664746
 30
0.0
 11
2.61797383821323
 21
3.37549478728637
 31
0.0
  0
LINE
  8
0
  6
CONTINUOUS
 62
0
 10
2.61824055331662
 20
3.37449939296937
 30
0.0
 11
2.61863330956881
 21
3.12501124288256
 31
0.0
  0
LINE
  8
0
  6
CONTINUOUS
 62
0
 10
2.6176028015423
 20
3.12501124288256
 30
0.0
 11
2.4816280260654
 21
3.12502855335254
 31
0.0
  0
LINE
  8
0
  6
CONTINUOUS
 62
0
 10
2.47901086282348
 20
3.12502855335254
 30
0.0
 11
2.38175161599101
 21
3.12549478728637
 31
0.0
  0
LINE
  8
0
  6
CONTINUOUS
 62
0
 10
2.3820183310944
 20
3.12449939296937
 30
0.0
 11
2.38138057932008
 21
2.87498875711744
 31
0.0
  0
LINE
  8
0
  6
CONTINUOUS
 62
0
 10
2.38241108734659
 20
2.87498875711744
 30
0.0
 11
2.47901086282348
 21
2.87497144664746
 31
0.0
  0
LINE
  8
0
  6
CONTINUOUS
 62
0
 10
2.4816280260654
 20
2.87497144664746
 30
0.0
 11
2.61797383821323
 21
2.87549478728637
 31
0.0
  0
LINE
  8
0
  6
CONTINUOUS
 62
0
 10
2.61824055331662
 20
2.87449939296937
 30
0.0
 11
2.61863330956881
 21
2.62501124288256
 31
0.0
  0
LINE
  8
0
  6
CONTINUOUS
 62
0
 10
2.6176028015423
 20
2.62501124288256
 30
0.0
 11
2.4816280260654
 21
2.62502855335254
 31
0.0
  0
LINE
  8
0
  6
CONTINUOUS
 62
0
 10
2.47901086282348
 20
2.62502855335254
 30
0.0
 11
2.38175161599101
 21
2.62549478728637
 31
0.0
  0
LINE
  8
0
  6
CONTINUOUS
 62
0
 10
2.3820183310944
 20
2.62449939296937
 30
0.0
 11
2.38138057932008
 21
2.37498875711744
 31
0.0
  0
LINE
  8
0
  6
CONTINUOUS
 62
0
 10
2.38241108734659
 20
2.37498875711744
 30
0.0
 11
2.47901086282348
 21
2.37497144664746
 31
0.0
  0
LINE
  8
0
  6
CONTINUOUS
 62
0
 10
2.4816280260654
 20
2.37497144664746
 30
0.0
 11
2.61797383821323
 21
2.37549478728637
 31
0.0
  0
LINE
  8
0
  6
CONTINUOUS
 62
0
 10
2.61824055331662
 20
2.37449939296937
 30
0.0
 11
2.61863330956881
 21
2.12501124288256
 31
0.0
  0
LINE
  8
0
  6
CONTINUOUS
 62
0
 10
2.6176028015423
 20
2.12501124288256
 30
0.0
 11
2.4816280260654
 21
2.12502855335254
 31
0.0
  0
LINE
  8
0
  6
CONTINUOUS
 62
0
 10
2.47901086282348
 20
2.12502855335254
 30
0.0
 11
2.38175161599101
 21
2.12549478728637
 31
0.0
  0
LINE
  8
0
  6
CONTINUOUS
 62
0
 10
2.3820183310944
 20
2.12449939296937
 30
0.0
 11
2.38138057932008
 21
1.87498875711744
 31
0.0
  0
LINE
  8
0
  6
CONTINUOUS
 62
0
 10
2.38241108734659
 20
1.87498875711744
 30
0.0
 11
2.47901086282348
 21
1.87497144664746
 31
0.0
  0
LINE
  8
0
  6
CONTINUOUS
 62
0
 10
2.4816280260654
 20
1.87497144664746
 30
0.0
 11
2.61797383821323
 21
1.87549478728637
 31
0.0
  0
LINE
  8
0
  6
CONTINUOUS
 62
0
 10
2.61824055331662
 20
1.87449939296937
 30
0.0
 11
2.61863330956881
 21
1.62501124288256
 31
0.0
  0
LINE
  8
0
  6
CONTINUOUS
 62
0
 10
2.6176028015423
 20
1.62501124288256
 30
0.0
 11
2.4816280260654
 21
1.62502855335254
 31
0.0
  0
LINE
  8
0
  6
CONTINUOUS
 62
0
 10
2.47901086282348
 20
1.62502855335254
 30
0.0
 11
2.3823906206197
 21
1.62514421734233
 31
0.0
  0
LINE
  8
0
  6
CONTINUOUS
 62
0
 10
2.3813952263027
 20
1.62487750223894
 30
0.0
 11
1.25529742889555
 21
1.24870372739614
 31
0.0
  0
LINE
  8
0
  6
CONTINUOUS
 62
0
 10
1.2673170906626
 20
1.32305488074872
 30
0.0
 11
1.38138057932008
 21
1.62498875711744
 31
0.0
  0
LINE
  8
0
  6
CONTINUOUS
 62
0
 10
1.38241108734659
 20
1.62498875711744
 30
0.0
 11
1.47901086282348
 21
1.62497144664746
 31
0.0
  0
LINE
  8
0
  6
CONTINUOUS
 62
0
 10
1.4816280260654
 20
1.62497144664746
 30
0.0
 11
1.61826227289788
 21
1.62450521271363
 31
0.0
  0
LINE
  8
0
  6
CONTINUOUS
 62
0
 10
1.61799555779449
 20
1.62550060703063
 30
0.0
 11
1.61863330956881
 21
1.87501124288256
 31
0.0
  0
LINE
  8
0
  6
CONTINUOUS
 62
0
 10
1.6176028015423
 20
1.87501124288256
 30
0.0
 11
1.4816280260654
 21
1.87502855335254
 31
0.0
  0
LINE
  8
0
  6
CONTINUOUS
 62
0
 10
1.47901086282348
 20
1.87502855335254
 30
0.0
 11
1.38204005067566
 21
1.87450521271363
 31
0.0
  0
LINE
  8
0
  6
CONTINUOUS
 62
0
 10
1.38177333557227
 20
1.87550060703063
 30
0.0
 11
1.38138057932008
 21
2.12498875711744
 31
0.0
  0
LINE
  8
0
  6
CONTINUOUS
 62
0
 10
1.38241108734659
 20
2.12498875711744
 30
0.0
 11
1.47901086282348
 21
2.12497144664746
 31
0.0
  0
LINE
  8
0
  6
CONTINUOUS
 62
0
 10
1.4816280260654
 20
2.12497144664746
 30
0.0
 11
1.61826227289788
 21
2.12450521271363
 31
0.0
  0
LINE
  8
0
  6
CONTINUOUS
 62
0
 10
1.61799555779449
 20
2.12550060703063
 30
0.0
 11
1.61863330956881
 21
2.37501124288256
 31
0.0
  0
LINE
  8
0
  6
CONTINUOUS
 62
0
 10
1.6176028015423
 20
2.37501124288256
 30
0.0
 11
1.4816280260654
 21
2.37502855335254
 31
0.0
  0
LINE
  8
0
  6
CONTINUOUS
 62
0
 10
1.47901086282348
 20
2.37502855335254
 30
0.0
 11
1.38204005067566
 21
2.37450521271363
 31
0.0
  0
LINE
  8
0
  6
CONTINUOUS
 62
0
 10
1.38177333557227
 20
2.37550060703063
 30
0.0
 11
1.38138057932008
 21
2.62498875711744
 31
0.0
  0
LINE
  8
0
  6
CONTINUOUS
 62
0
 10
1.38241108734659
 20
2.62498875711744
 30
0.0
 11
1.47901086282348
 21
2.62497144664746
 31
0.0
  0
LINE
  8
0
  6
CONTINUOUS
 62
0
 10
1.4816280260654
 20
2.62497144664746
 30
0.0
 11
1.61826227289788
 21
2.62450521271363
 31
0.0
  0
LINE
  8
0
  6
CONTINUOUS
 62
0
 10
1.61799555779449
 20
2.62550060703063
 30
0.0
 11
1.61863330956881
 21
2.87501124288256
 31
0.0
  0
LINE
  8
0
  6
CONTINUOUS
 62
0
 10
1.6176028015423
 20
2.87501124288256
 30
0.0
 11
1.4816280260654
 21
2.87502855335254
 31
0.0
  0
LINE
  8
0
  6
CONTINUOUS
 62
0
 10
1.47901086282348
 20
2.87502855335254
 30
0.0
 11
1.38204005067566
 21
2.87450521271363
 31
0.0
  0
LINE
  8
0
  6
CONTINUOUS
 62
0
 10
1.38177333557227
 20
2.87550060703063
 30
0.0
 11
1.38138057932008
 21
3.12498875711744
 31
0.0
  0
LINE
  8
0
  6
CONTINUOUS
 62
0
 10
1.38241108734659
 20
3.12498875711744
 30
0.0
 11
1.47901086282348
 21
3.12497144664746
 31
0.0
  0
LINE
  8
0
  6
CONTINUOUS
 62
0
 10
1.4816280260654
 20
3.12497144664746
 30
0.0
 11
1.61826227289788
 21
3.12450521271363
 31
0.0
  0
LINE
  8
0
  6
CONTINUOUS
 62
0
 10
1.61799555779449
 20
3.12550060703063
 30
0.0
 11
1.61863330956881
 21
3.37501124288256
 31
0.0
  0
LINE
  8
0
  6
CONTINUOUS
 62
0
 10
1.6176028015423
 20
3.37501124288256
 30
0.0
 11
1.4816280260654
 21
3.37502855335254
 31
0.0
  0
LINE
  8
0
  6
CONTINUOUS
 62
0
 10
1.47901086282348
 20
3.37502855335254
 30
0.0
 11
1.38204005067566
 21
3.37450521271363
 31
0.0
  0
LINE
  8
0
  6
CONTINUOUS
 62
0
 10
1.38177333557227
 20
3.37550060703063
 30
0.0
 11
1.25262317867422
 21
3.75478142334562
 31
0.0
  0
LINE
  8
0
  6
CONTINUOUS
 62
0
 10
1.18391639681759
 20
3.78563501958266
 30
0.0
 11
0.85
 21
4
 31
0.0
  0
LINE
  8
0
  6
CONTINUOUS
 62
0
 10
1
 20
4.05
 30
0.0
 11
0.85
 21
4.05
 31
0.0
  0
ARC
  8
3
  6
CONTINUOUS
 62
3
 10
3.74999999998645
 20
1.25000000000561
 30
0.0
 40
0.124999999986451
 50
134.999999997427
 51
180.000000002572
  0
ARC
  8
3
  6
CONTINUOUS
 62
3
 10
3.75
 20
1.25
 30
0.0
 40
0.125
 50
179.999999999999
 51
359.999999999999
  0
ARC
  8
3
  6
CONTINUOUS
 62
3
 10
3.75000000000465
 20
1.25000000001123
 30
0.0
 40
0.124999999995351
 50
359.999999994855
 51
135.000000005145
  0
ARC
  8
3
  6
CONTINUOUS
 62
3
 10
3.75000000000862
 20
3.74999999998878
 30
0.0
 40
0.124999999991387
 50
254.999999994855
 51
5.14475075276685E-9
  0
ARC
  8
3
  6
CONTINUOUS
 62
3
 10
3.75
 20
3.75
 30
0.0
 40
0.125
 50
359.999999999999
 51
180
  0
ARC
  8
3
  6
CONTINUOUS
 62
3
 10
3.74999999999269
 20
3.74999999999439
 30
0.0
 40
0.124999999992686
 50
179.999999997427
 51
255.000000002572
  0
ARC
  8
3
  6
CONTINUOUS
 62
3
 10
2.99999999995737
 20
2.50000000000561
 30
0.0
 40
0.124999999957371
 50
164.999999997428
 51
180.000000002572
  0
ARC
  8
3
  6
CONTINUOUS
 62
3
 10
3
 20
2.5
 30
0.0
 40
0.125
 50
179.999999999999
 51
359.999999999999
  0
ARC
  8
3
  6
CONTINUOUS
 62
3
 10
3.00000000000148
 20
2.50000000001123
 30
0.0
 40
0.124999999998522
 50
359.999999994855
 51
165.000000005145
  0
ARC
  8
3
  6
CONTINUOUS
 62
3
 10
1.99999999999676
 20
2.50000000000561
 30
0.0
 40
0.124999999996761
 50
59.9999999974274
 51
180.000000002572
  0
ARC
  8
3
  6
CONTINUOUS
 62
3
 10
2
 20
2.5
 30
0.0
 40
0.125000000000002
 50
179.999999999999
 51
359.999999999999
  0
ARC
  8
3
  6
CONTINUOUS
 62
3
 10
2.00000000001944
 20
2.50000000001123
 30
0.0
 40
0.124999999980561
 50
359.999999994854
 51
60.0000000051447
  0
ARC
  8
3
  6
CONTINUOUS
 62
3
 10
1.24999999999569
 20
1.25000000000561
 30
0.0
 40
0.124999999995694
 50
74.9999999974274
 51
180.000000002572
  0
ARC
  8
3
  6
CONTINUOUS
 62
3
 10
1.25
 20
1.25
 30
0.0
 40
0.125
 50
179.999999999999
 51
359.999999999999
  0
ARC
  8
3
  6
CONTINUOUS
 62
3
 10
1.25000000001463
 20
1.25000000001123
 30
0.0
 40
0.124999999985372
 50
359.999999994855
 51
75.0000000051448
  0
ARC
  8
3
  6
CONTINUOUS
 62
3
 10
1.24999999997906
 20
3.75000000000561
 30
0.0
 40
0.124999999979055
 50
149.999999997427
 51
180.000000002572
  0
ARC
  8
3
  6
CONTINUOUS
 62
3
 10
1.25
 20
3.75
 30
0.0
 40
0.125
 50
179.999999999999
 51
359.999999999999
  0
ARC
  8
3
  6
CONTINUOUS
 62
3
 10
1.25000000000301
 20
3.75000000001123
 30
0.0
 40
0.124999999996992
 50
359.999999994855
 51
150.000000005145
  0
ARC
  8
5
  6
CONTINUOUS
 62
5
 10
3.38189583333413
 20
1.6249999999992
 30
0.0
 40
0.0118124999992045
 50
269.999999996141
 51
3.85850263403619E-9
  0
ARC
  8
5
  6
CONTINUOUS
 62
5
 10
3.38189583333333
 20
1.625
 30
0.0
 40
0.0118125
 50
359.999999999999
 51
180
  0
ARC
  8
5
  6
CONTINUOUS
 62
5
 10
3.38189583333254
 20
1.6249999999992
 30
0.0
 40
0.0118124999992045
 50
179.999999996141
 51
270.000000003858
  0
ARC
  8
5
  6
CONTINUOUS
 62
5
 10
3.48031944444646
 20
1.62499999999798
 30
0.0
 40
0.0299999999979794
 50
269.999999996141
 51
3.85850263403619E-9
  0
ARC
  8
5
  6
CONTINUOUS
 62
5
 10
3.48031944444444
 20
1.625
 30
0.0
 40
0.0299999999999998
 50
359.999999999999
 51
180
  0
ARC
  8
5
  6
CONTINUOUS
 62
5
 10
3.48031944444242
 20
1.62499999999798
 30
0.0
 40
0.0299999999979794
 50
179.999999996141
 51
270.000000003858
  0
ARC
  8
5
  6
CONTINUOUS
 62
5
 10
3.61811805555548
 20
1.62500000000053
 30
0.0
 40
0.0118124999999303
 50
14.9999999974275
 51
180.000000002572
  0
ARC
  8
5
  6
CONTINUOUS
 62
5
 10
3.61811805555555
 20
1.625
 30
0.0
 40
0.0118125
 50
179.999999999999
 51
359.999999999999
  0
ARC
  8
5
  6
CONTINUOUS
 62
5
 10
3.61811805556361
 20
1.62500000000106
 30
0.0
 40
0.0118124999919432
 50
359.99999999485
 51
15.0000000051407
  0
ARC
  8
5
  6
CONTINUOUS
 62
5
 10
3.61811805555476
 20
1.8750000000008
 30
0.0
 40
0.0118124999992045
 50
89.9999999961411
 51
180.000000003858
  0
ARC
  8
5
  6
CONTINUOUS
 62
5
 10
3.61811805555555
 20
1.875
 30
0.0
 40
0.0118125
 50
179.999999999999
 51
359.999999999999
  0
ARC
  8
5
  6
CONTINUOUS
 62
5
 10
3.61811805555635
 20
1.8750000000008
 30
0.0
 40
0.0118124999992045
 50
359.999999996141
 51
90.0000000038585
  0
ARC
  8
5
  6
CONTINUOUS
 62
5
 10
3.48031944444242
 20
1.87500000000202
 30
0.0
 40
0.0299999999979794
 50
89.9999999961411
 51
180.000000003858
  0
ARC
  8
5
  6
CONTINUOUS
 62
5
 10
3.48031944444444
 20
1.875
 30
0.0
 40
0.0299999999999998
 50
179.999999999999
 51
359.999999999999
  0
ARC
  8
5
  6
CONTINUOUS
 62
5
 10
3.48031944444646
 20
1.87500000000202
 30
0.0
 40
0.0299999999979794
 50
359.999999996141
 51
90.0000000038585
  0
ARC
  8
5
  6
CONTINUOUS
 62
5
 10
3.38189583333326
 20
1.87500000000053
 30
0.0
 40
0.0118124999999303
 50
14.9999999974275
 51
180.000000002572
  0
ARC
  8
5
  6
CONTINUOUS
 62
5
 10
3.38189583333333
 20
1.875
 30
0.0
 40
0.0118125
 50
179.999999999999
 51
359.999999999999
  0
ARC
  8
5
  6
CONTINUOUS
 62
5
 10
3.38189583334139
 20
1.87500000000106
 30
0.0
 40
0.0118124999919432
 50
359.99999999485
 51
15.0000000051407
  0
ARC
  8
5
  6
CONTINUOUS
 62
5
 10
3.38189583333413
 20
2.1249999999992
 30
0.0
 40
0.0118124999992045
 50
269.999999996141
 51
3.85850263403619E-9
  0
ARC
  8
5
  6
CONTINUOUS
 62
5
 10
3.38189583333333
 20
2.125
 30
0.0
 40
0.0118125
 50
359.999999999999
 51
180
  0
ARC
  8
5
  6
CONTINUOUS
 62
5
 10
3.38189583333254
 20
2.1249999999992
 30
0.0
 40
0.0118124999992045
 50
179.999999996141
 51
270.000000003858
  0
ARC
  8
5
  6
CONTINUOUS
 62
5
 10
3.48031944444646
 20
2.12499999999798
 30
0.0
 40
0.0299999999979794
 50
269.999999996141
 51
3.85850263403619E-9
  0
ARC
  8
5
  6
CONTINUOUS
 62
5
 10
3.48031944444444
 20
2.125
 30
0.0
 40
0.0299999999999998
 50
359.999999999999
 51
180
  0
ARC
  8
5
  6
CONTINUOUS
 62
5
 10
3.48031944444242
 20
2.12499999999798
 30
0.0
 40
0.0299999999979794
 50
179.999999996141
 51
270.000000003858
  0
ARC
  8
5
  6
CONTINUOUS
 62
5
 10
3.61811805556361
 20
2.12499999999894
 30
0.0
 40
0.0118124999919432
 50
344.999999994859
 51
5.14885366830594E-9
  0
ARC
  8
5
  6
CONTINUOUS
 62
5
 10
3.61811805555555
 20
2.125
 30
0.0
 40
0.0118125
 50
359.999999999999
 51
180
  0
ARC
  8
5
  6
CONTINUOUS
 62
5
 10
3.61811805555548
 20
2.12499999999947
 30
0.0
 40
0.0118124999999303
 50
179.999999997427
 51
345.000000002572
  0
ARC
  8
5
  6
CONTINUOUS
 62
5
 10
3.61811805555476
 20
3.3750000000008
 30
0.0
 40
0.0118124999992045
 50
89.9999999961411
 51
180.000000003858
  0
ARC
  8
5
  6
CONTINUOUS
 62
5
 10
3.61811805555555
 20
3.375
 30
0.0
 40
0.0118125
 50
179.999999999999
 51
359.999999999999
  0
ARC
  8
5
  6
CONTINUOUS
 62
5
 10
3.61811805555635
 20
3.3750000000008
 30
0.0
 40
0.0118124999992045
 50
359.999999996141
 51
90.0000000038585
  0
ARC
  8
5
  6
CONTINUOUS
 62
5
 10
3.48031944444242
 20
3.37500000000202
 30
0.0
 40
0.0299999999979794
 50
89.9999999961411
 51
180.000000003858
  0
ARC
  8
5
  6
CONTINUOUS
 62
5
 10
3.48031944444444
 20
3.375
 30
0.0
 40
0.0299999999999998
 50
179.999999999999
 51
359.999999999999
  0
ARC
  8
5
  6
CONTINUOUS
 62
5
 10
3.48031944444646
 20
3.37500000000202
 30
0.0
 40
0.0299999999979794
 50
359.999999996141
 51
90.0000000038585
  0
ARC
  8
5
  6
CONTINUOUS
 62
5
 10
3.38189583333347
 20
3.37499999999894
 30
0.0
 40
0.0118124999998605
 50
194.999999994855
 51
5.14481436386048E-9
  0
ARC
  8
5
  6
CONTINUOUS
 62
5
 10
3.38189583333333
 20
3.375
 30
0.0
 40
0.0118125
 50
359.999999999999
 51
180
  0
ARC
  8
5
  6
CONTINUOUS
 62
5
 10
3.3818958333293
 20
3.37499999999947
 30
0.0
 40
0.0118124999959717
 50
179.999999997423
 51
195.000000002568
  0
ARC
  8
5
  6
CONTINUOUS
 62
5
 10
3.38189583333413
 20
3.1249999999992
 30
0.0
 40
0.0118124999992045
 50
269.999999996141
 51
3.85850263403619E-9
  0
ARC
  8
5
  6
CONTINUOUS
 62
5
 10
3.38189583333333
 20
3.125
 30
0.0
 40
0.0118125
 50
359.999999999999
 51
180
  0
ARC
  8
5
  6
CONTINUOUS
 62
5
 10
3.38189583333254
 20
3.1249999999992
 30
0.0
 40
0.0118124999992045
 50
179.999999996141
 51
270.000000003858
  0
ARC
  8
5
  6
CONTINUOUS
 62
5
 10
3.48031944444646
 20
3.12499999999798
 30
0.0
 40
0.0299999999979794
 50
269.999999996141
 51
3.85850263403619E-9
  0
ARC
  8
5
  6
CONTINUOUS
 62
5
 10
3.48031944444444
 20
3.125
 30
0.0
 40
0.0299999999999998
 50
359.999999999999
 51
180
  0
ARC
  8
5
  6
CONTINUOUS
 62
5
 10
3.48031944444242
 20
3.12499999999798
 30
0.0
 40
0.0299999999979794
 50
179.999999996141
 51
270.000000003858
  0
ARC
  8
5
  6
CONTINUOUS
 62
5
 10
3.61811805555569
 20
3.12499999999894
 30
0.0
 40
0.0118124999998605
 50
194.999999994855
 51
5.14481436386048E-9
  0
ARC
  8
5
  6
CONTINUOUS
 62
5
 10
3.61811805555555
 20
3.125
 30
0.0
 40
0.0118125
 50
359.999999999999
 51
180
  0
ARC
  8
5
  6
CONTINUOUS
 62
5
 10
3.61811805555153
 20
3.12499999999947
 30
0.0
 40
0.0118124999959717
 50
179.999999997423
 51
195.000000002568
  0
ARC
  8
5
  6
CONTINUOUS
 62
5
 10
3.61811805555476
 20
2.8750000000008
 30
0.0
 40
0.0118124999992045
 50
89.9999999961411
 51
180.000000003858
  0
ARC
  8
5
  6
CONTINUOUS
 62
5
 10
3.61811805555555
 20
2.875
 30
0.0
 40
0.0118125
 50
179.999999999999
 51
359.999999999999
  0
ARC
  8
5
  6
CONTINUOUS
 62
5
 10
3.61811805555635
 20
2.8750000000008
 30
0.0
 40
0.0118124999992045
 50
359.999999996141
 51
90.0000000038585
  0
ARC
  8
5
  6
CONTINUOUS
 62
5
 10
3.48031944444242
 20
2.87500000000202
 30
0.0
 40
0.0299999999979794
 50
89.9999999961411
 51
180.000000003858
  0
ARC
  8
5
  6
CONTINUOUS
 62
5
 10
3.48031944444444
 20
2.875
 30
0.0
 40
0.0299999999999998
 50
179.999999999999
 51
359.999999999999
  0
ARC
  8
5
  6
CONTINUOUS
 62
5
 10
3.48031944444646
 20
2.87500000000202
 30
0.0
 40
0.0299999999979794
 50
359.999999996141
 51
90.0000000038585
  0
ARC
  8
5
  6
CONTINUOUS
 62
5
 10
3.38189583333347
 20
2.87499999999894
 30
0.0
 40
0.0118124999998605
 50
194.999999994855
 51
5.14481436386048E-9
  0
ARC
  8
5
  6
CONTINUOUS
 62
5
 10
3.38189583333333
 20
2.875
 30
0.0
 40
0.0118125
 50
359.999999999999
 51
180
  0
ARC
  8
5
  6
CONTINUOUS
 62
5
 10
3.3818958333293
 20
2.87499999999947
 30
0.0
 40
0.0118124999959717
 50
179.999999997423
 51
195.000000002568
  0
ARC
  8
5
  6
CONTINUOUS
 62
5
 10
3.38189583333413
 20
2.6249999999992
 30
0.0
 40
0.0118124999992045
 50
269.999999996141
 51
3.85850263403619E-9
  0
ARC
  8
5
  6
CONTINUOUS
 62
5
 10
3.38189583333333
 20
2.625
 30
0.0
 40
0.0118125
 50
359.999999999999
 51
180
  0
ARC
  8
5
  6
CONTINUOUS
 62
5
 10
3.38189583333254
 20
2.6249999999992
 30
0.0
 40
0.0118124999992045
 50
179.999999996141
 51
270.000000003858
  0
ARC
  8
5
  6
CONTINUOUS
 62
5
 10
3.48031944444646
 20
2.62499999999798
 30
0.0
 40
0.0299999999979794
 50
269.999999996141
 51
3.85850263403619E-9
  0
ARC
  8
5
  6
CONTINUOUS
 62
5
 10
3.48031944444444
 20
2.625
 30
0.0
 40
0.0299999999999998
 50
359.999999999999
 51
180
  0
ARC
  8
5
  6
CONTINUOUS
 62
5
 10
3.48031944444242
 20
2.62499999999798
 30
0.0
 40
0.0299999999979794
 50
179.999999996141
 51
270.000000003858
  0
ARC
  8
5
  6
CONTINUOUS
 62
5
 10
3.61811805555569
 20
2.62499999999894
 30
0.0
 40
0.0118124999998605
 50
194.999999994855
 51
5.14481436386048E-9
  0
ARC
  8
5
  6
CONTINUOUS
 62
5
 10
3.61811805555555
 20
2.625
 30
0.0
 40
0.0118125
 50
359.999999999999
 51
180
  0
ARC
  8
5
  6
CONTINUOUS
 62
5
 10
3.61811805555153
 20
2.62499999999947
 30
0.0
 40
0.0118124999959717
 50
179.999999997423
 51
195.000000002568
  0
ARC
  8
5
  6
CONTINUOUS
 62
5
 10
3.61811805555476
 20
2.3750000000008
 30
0.0
 40
0.0118124999992045
 50
89.9999999961411
 51
180.000000003858
  0
ARC
  8
5
  6
CONTINUOUS
 62
5
 10
3.61811805555555
 20
2.375
 30
0.0
 40
0.0118125
 50
179.999999999999
 51
359.999999999999
  0
ARC
  8
5
  6
CONTINUOUS
 62
5
 10
3.61811805555635
 20
2.3750000000008
 30
0.0
 40
0.0118124999992045
 50
359.999999996141
 51
90.0000000038585
  0
ARC
  8
5
  6
CONTINUOUS
 62
5
 10
3.48031944444242
 20
2.37500000000202
 30
0.0
 40
0.0299999999979794
 50
89.9999999961411
 51
180.000000003858
  0
ARC
  8
5
  6
CONTINUOUS
 62
5
 10
3.48031944444444
 20
2.375
 30
0.0
 40
0.0299999999999998
 50
179.999999999999
 51
359.999999999999
  0
ARC
  8
5
  6
CONTINUOUS
 62
5
 10
3.48031944444646
 20
2.37500000000202
 30
0.0
 40
0.0299999999979794
 50
359.999999996141
 51
90.0000000038585
  0
ARC
  8
5
  6
CONTINUOUS
 62
5
 10
3.38189583333293
 20
2.37500000000053
 30
0.0
 40
0.0118124999995932
 50
74.9999999974277
 51
180.000000002573
  0
ARC
  8
5
  6
CONTINUOUS
 62
5
 10
3.38189583333333
 20
2.375
 30
0.0
 40
0.0118125
 50
179.999999999999
 51
359.999999999999
  0
ARC
  8
5
  6
CONTINUOUS
 62
5
 10
3.38189583333472
 20
2.37500000000106
 30
0.0
 40
0.0118124999986178
 50
359.999999994854
 51
75.000000005144
  0
ARC
  8
5
  6
CONTINUOUS
 62
5
 10
2.38189583333413
 20
3.3749999999992
 30
0.0
 40
0.0118124999992045
 50
269.999999996141
 51
3.85850263403619E-9
  0
ARC
  8
5
  6
CONTINUOUS
 62
5
 10
2.38189583333333
 20
3.375
 30
0.0
 40
0.0118125
 50
359.999999999999
 51
180
  0
ARC
  8
5
  6
CONTINUOUS
 62
5
 10
2.38189583333254
 20
3.3749999999992
 30
0.0
 40
0.0118124999992045
 50
179.999999996141
 51
270.000000003858
  0
ARC
  8
5
  6
CONTINUOUS
 62
5
 10
2.48031944444646
 20
3.37499999999798
 30
0.0
 40
0.0299999999979794
 50
269.999999996141
 51
3.85850263403619E-9
  0
ARC
  8
5
  6
CONTINUOUS
 62
5
 10
2.48031944444444
 20
3.375
 30
0.0
 40
0.0299999999999998
 50
359.999999999999
 51
180
  0
ARC
  8
5
  6
CONTINUOUS
 62
5
 10
2.48031944444242
 20
3.37499999999798
 30
0.0
 40
0.0299999999979794
 50
179.999999996141
 51
270.000000003858
  0
ARC
  8
5
  6
CONTINUOUS
 62
5
 10
2.61811805555569
 20
3.37499999999894
 30
0.0
 40
0.0118124999998605
 50
194.999999994855
 51
5.14481436386048E-9
  0
ARC
  8
5
  6
CONTINUOUS
 62
5
 10
2.61811805555555
 20
3.375
 30
0.0
 40
0.0118125
 50
359.999999999999
 51
180
  0
ARC
  8
5
  6
CONTINUOUS
 62
5
 10
2.61811805555153
 20
3.37499999999947
 30
0.0
 40
0.0118124999959717
 50
179.999999997423
 51
195.000000002568
  0
ARC
  8
5
  6
CONTINUOUS
 62
5
 10
2.61811805555476
 20
3.1250000000008
 30
0.0
 40
0.0118124999992045
 50
89.9999999961411
 51
180.000000003858
  0
ARC
  8
5
  6
CONTINUOUS
 62
5
 10
2.61811805555555
 20
3.125
 30
0.0
 40
0.0118125
 50
179.999999999999
 51
359.999999999999
  0
ARC
  8
5
  6
CONTINUOUS
 62
5
 10
2.61811805555635
 20
3.1250000000008
 30
0.0
 40
0.0118124999992045
 50
359.999999996141
 51
90.0000000038585
  0
ARC
  8
5
  6
CONTINUOUS
 62
5
 10
2.48031944444242
 20
3.12500000000202
 30
0.0
 40
0.0299999999979794
 50
89.9999999961411
 51
180.000000003858
  0
ARC
  8
5
  6
CONTINUOUS
 62
5
 10
2.48031944444444
 20
3.125
 30
0.0
 40
0.0299999999999998
 50
179.999999999999
 51
359.999999999999
  0
ARC
  8
5
  6
CONTINUOUS
 62
5
 10
2.48031944444646
 20
3.12500000000202
 30
0.0
 40
0.0299999999979794
 50
359.999999996141
 51
90.0000000038585
  0
ARC
  8
5
  6
CONTINUOUS
 62
5
 10
2.38189583333347
 20
3.12499999999894
 30
0.0
 40
0.0118124999998605
 50
194.999999994855
 51
5.14481436386048E-9
  0
ARC
  8
5
  6
CONTINUOUS
 62
5
 10
2.38189583333333
 20
3.125
 30
0.0
 40
0.0118125
 50
359.999999999999
 51
180
  0
ARC
  8
5
  6
CONTINUOUS
 62
5
 10
2.38189583332931
 20
3.12499999999947
 30
0.0
 40
0.0118124999959717
 50
179.999999997423
 51
195.000000002568
  0
ARC
  8
5
  6
CONTINUOUS
 62
5
 10
2.38189583333413
 20
2.8749999999992
 30
0.0
 40
0.0118124999992045
 50
269.999999996141
 51
3.85850263403619E-9
  0
ARC
  8
5
  6
CONTINUOUS
 62
5
 10
2.38189583333333
 20
2.875
 30
0.0
 40
0.0118125
 50
359.999999999999
 51
180
  0
ARC
  8
5
  6
CONTINUOUS
 62
5
 10
2.38189583333254
 20
2.8749999999992
 30
0.0
 40
0.0118124999992045
 50
179.999999996141
 51
270.000000003858
  0
ARC
  8
5
  6
CONTINUOUS
 62
5
 10
2.48031944444646
 20
2.87499999999798
 30
0.0
 40
0.0299999999979794
 50
269.999999996141
 51
3.85850263403619E-9
  0
ARC
  8
5
  6
CONTINUOUS
 62
5
 10
2.48031944444444
 20
2.875
 30
0.0
 40
0.0299999999999998
 50
359.999999999999
 51
180
  0
ARC
  8
5
  6
CONTINUOUS
 62
5
 10
2.48031944444242
 20
2.87499999999798
 30
0.0
 40
0.0299999999979794
 50
179.999999996141
 51
270.000000003858
  0
ARC
  8
5
  6
CONTINUOUS
 62
5
 10
2.61811805555569
 20
2.87499999999894
 30
0.0
 40
0.0118124999998605
 50
194.999999994855
 51
5.14481436386048E-9
  0
ARC
  8
5
  6
CONTINUOUS
 62
5
 10
2.61811805555555
 20
2.875
 30
0.0
 40
0.0118125
 50
359.999999999999
 51
180
  0
ARC
  8
5
  6
CONTINUOUS
 62
5
 10
2.61811805555153
 20
2.87499999999947
 30
0.0
 40
0.0118124999959717
 50
179.999999997423
 51
195.000000002568
  0
ARC
  8
5
  6
CONTINUOUS
 62
5
 10
2.61811805555476
 20
2.6250000000008
 30
0.0
 40
0.0118124999992045
 50
89.9999999961411
 51
180.000000003858
  0
ARC
  8
5
  6
CONTINUOUS
 62
5
 10
2.61811805555555
 20
2.625
 30
0.0
 40
0.0118125
 50
179.999999999999
 51
359.999999999999
  0
ARC
  8
5
  6
CONTINUOUS
 62
5
 10
2.61811805555635
 20
2.6250000000008
 30
0.0
 40
0.0118124999992045
 50
359.999999996141
 51
90.0000000038585
  0
ARC
  8
5
  6
CONTINUOUS
 62
5
 10
2.48031944444242
 20
2.62500000000202
 30
0.0
 40
0.0299999999979794
 50
89.9999999961411
 51
180.000000003858
  0
ARC
  8
5
  6
CONTINUOUS
 62
5
 10
2.48031944444444
 20
2.625
 30
0.0
 40
0.0299999999999998
 50
179.999999999999
 51
359.999999999999
  0
ARC
  8
5
  6
CONTINUOUS
 62
5
 10
2.48031944444646
 20
2.62500000000202
 30
0.0
 40
0.0299999999979794
 50
359.999999996141
 51
90.0000000038585
  0
ARC
  8
5
  6
CONTINUOUS
 62
5
 10
2.38189583333347
 20
2.62499999999894
 30
0.0
 40
0.0118124999998605
 50
194.999999994855
 51
5.14481436386048E-9
  0
ARC
  8
5
  6
CONTINUOUS
 62
5
 10
2.38189583333333
 20
2.625
 30
0.0
 40
0.0118125
 50
359.999999999999
 51
180
  0
ARC
  8
5
  6
CONTINUOUS
 62
5
 10
2.38189583332931
 20
2.62499999999947
 30
0.0
 40
0.0118124999959717
 50
179.999999997423
 51
195.000000002568
  0
ARC
  8
5
  6
CONTINUOUS
 62
5
 10
2.38189583333413
 20
2.3749999999992
 30
0.0
 40
0.0118124999992045
 50
269.999999996141
 51
3.85850263403619E-9
  0
ARC
  8
5
  6
CONTINUOUS
 62
5
 10
2.38189583333333
 20
2.375
 30
0.0
 40
0.0118125
 50
359.999999999999
 51
180
  0
ARC
  8
5
  6
CONTINUOUS
 62
5
 10
2.38189583333254
 20
2.3749999999992
 30
0.0
 40
0.0118124999992045
 50
179.999999996141
 51
270.000000003858
  0
ARC
  8
5
  6
CONTINUOUS
 62
5
 10
2.48031944444646
 20
2.37499999999798
 30
0.0
 40
0.0299999999979794
 50
269.999999996141
 51
3.85850263403619E-9
  0
ARC
  8
5
  6
CONTINUOUS
 62
5
 10
2.48031944444444
 20
2.375
 30
0.0
 40
0.0299999999999998
 50
359.999999999999
 51
180
  0
ARC
  8
5
  6
CONTINUOUS
 62
5
 10
2.48031944444242
 20
2.37499999999798
 30
0.0
 40
0.0299999999979794
 50
179.999999996141
 51
270.000000003858
  0
ARC
  8
5
  6
CONTINUOUS
 62
5
 10
2.61811805555569
 20
2.37499999999894
 30
0.0
 40
0.0118124999998605
 50
194.999999994855
 51
5.14481436386048E-9
  0
ARC
  8
5
  6
CONTINUOUS
 62
5
 10
2.61811805555555
 20
2.375
 30
0.0
 40
0.0118125
 50
359.999999999999
 51
180
  0
ARC
  8
5
  6
CONTINUOUS
 62
5
 10
2.61811805555153
 20
2.37499999999947
 30
0.0
 40
0.0118124999959717
 50
179.999999997423
 51
195.000000002568
  0
ARC
  8
5
  6
CONTINUOUS
 62
5
 10
2.61811805555476
 20
2.1250000000008
 30
0.0
 40
0.0118124999992045
 50
89.9999999961411
 51
180.000000003858
  0
ARC
  8
5
  6
CONTINUOUS
 62
5
 10
2.61811805555555
 20
2.125
 30
0.0
 40
0.0118125
 50
179.999999999999
 51
359.999999999999
  0
ARC
  8
5
  6
CONTINUOUS
 62
5
 10
2.61811805555635
 20
2.1250000000008
 30
0.0
 40
0.0118124999992045
 50
359.999999996141
 51
90.0000000038585
  0
ARC
  8
5
  6
CONTINUOUS
 62
5
 10
2.48031944444242
 20
2.12500000000202
 30
0.0
 40
0.0299999999979794
 50
89.9999999961411
 51
180.000000003858
  0
ARC
  8
5
  6
CONTINUOUS
 62
5
 10
2.48031944444444
 20
2.125
 30
0.0
 40
0.0299999999999998
 50
179.999999999999
 51
359.999999999999
  0
ARC
  8
5
  6
CONTINUOUS
 62
5
 10
2.48031944444646
 20
2.12500000000202
 30
0.0
 40
0.0299999999979794
 50
359.999999996141
 51
90.0000000038585
  0
ARC
  8
5
  6
CONTINUOUS
 62
5
 10
2.38189583333347
 20
2.12499999999894
 30
0.0
 40
0.0118124999998605
 50
194.999999994855
 51
5.14481436386048E-9
  0
ARC
  8
5
  6
CONTINUOUS
 62
5
 10
2.38189583333333
 20
2.125
 30
0.0
 40
0.0118125
 50
359.999999999999
 51
180
  0
ARC
  8
5
  6
CONTINUOUS
 62
5
 10
2.38189583332931
 20
2.12499999999947
 30
0.0
 40
0.0118124999959717
 50
179.999999997423
 51
195.000000002568
  0
ARC
  8
5
  6
CONTINUOUS
 62
5
 10
2.38189583333413
 20
1.8749999999992
 30
0.0
 40
0.0118124999992045
 50
269.999999996141
 51
3.85850263403619E-9
  0
ARC
  8
5
  6
CONTINUOUS
 62
5
 10
2.38189583333333
 20
1.875
 30
0.0
 40
0.0118125
 50
359.999999999999
 51
180
  0
ARC
  8
5
  6
CONTINUOUS
 62
5
 10
2.38189583333254
 20
1.8749999999992
 30
0.0
 40
0.0118124999992045
 50
179.999999996141
 51
270.000000003858
  0
ARC
  8
5
  6
CONTINUOUS
 62
5
 10
2.48031944444646
 20
1.87499999999798
 30
0.0
 40
0.0299999999979794
 50
269.999999996141
 51
3.85850263403619E-9
  0
ARC
  8
5
  6
CONTINUOUS
 62
5
 10
2.48031944444444
 20
1.875
 30
0.0
 40
0.0299999999999998
 50
359.999999999999
 51
180
  0
ARC
  8
5
  6
CONTINUOUS
 62
5
 10
2.48031944444242
 20
1.87499999999798
 30
0.0
 40
0.0299999999979794
 50
179.999999996141
 51
270.000000003858
  0
ARC
  8
5
  6
CONTINUOUS
 62
5
 10
2.61811805555569
 20
1.87499999999894
 30
0.0
 40
0.0118124999998605
 50
194.999999994855
 51
5.14481436386048E-9
  0
ARC
  8
5
  6
CONTINUOUS
 62
5
 10
2.61811805555555
 20
1.875
 30
0.0
 40
0.0118125
 50
359.999999999999
 51
180
  0
ARC
  8
5
  6
CONTINUOUS
 62
5
 10
2.61811805555153
 20
1.87499999999947
 30
0.0
 40
0.0118124999959717
 50
179.999999997423
 51
195.000000002568
  0
ARC
  8
5
  6
CONTINUOUS
 62
5
 10
2.61811805555476
 20
1.6250000000008
 30
0.0
 40
0.0118124999992045
 50
89.9999999961411
 51
180.000000003858
  0
ARC
  8
5
  6
CONTINUOUS
 62
5
 10
2.61811805555555
 20
1.625
 30
0.0
 40
0.0118125
 50
179.999999999999
 51
359.999999999999
  0
ARC
  8
5
  6
CONTINUOUS
 62
5
 10
2.61811805555635
 20
1.6250000000008
 30
0.0
 40
0.0118124999992045
 50
359.999999996141
 51
90.0000000038585
  0
ARC
  8
5
  6
CONTINUOUS
 62
5
 10
2.48031944444242
 20
1.62500000000202
 30
0.0
 40
0.0299999999979794
 50
89.9999999961411
 51
180.000000003858
  0
ARC
  8
5
  6
CONTINUOUS
 62
5
 10
2.48031944444444
 20
1.625
 30
0.0
 40
0.0299999999999998
 50
179.999999999999
 51
359.999999999999
  0
ARC
  8
5
  6
CONTINUOUS
 62
5
 10
2.48031944444646
 20
1.62500000000202
 30
0.0
 40
0.0299999999979794
 50
359.999999996141
 51
90.0000000038585
  0
ARC
  8
5
  6
CONTINUOUS
 62
5
 10
2.38189583333264
 20
1.62500000000053
 30
0.0
 40
0.0118124999993088
 50
104.999999997428
 51
180.000000002572
  0
ARC
  8
5
  6
CONTINUOUS
 62
5
 10
2.38189583333333
 20
1.625
 30
0.0
 40
0.0118125
 50
179.999999999999
 51
359.999999999999
  0
ARC
  8
5
  6
CONTINUOUS
 62
5
 10
2.38189583333415
 20
1.62500000000106
 30
0.0
 40
0.0118124999991861
 50
359.999999994854
 51
105.000000005145
  0
ARC
  8
5
  6
CONTINUOUS
 62
5
 10
1.38189583333413
 20
1.6249999999992
 30
0.0
 40
0.0118124999992045
 50
269.999999996141
 51
3.85850263403619E-9
  0
ARC
  8
5
  6
CONTINUOUS
 62
5
 10
1.38189583333333
 20
1.625
 30
0.0
 40
0.0118125
 50
359.999999999999
 51
180
  0
ARC
  8
5
  6
CONTINUOUS
 62
5
 10
1.38189583333254
 20
1.6249999999992
 30
0.0
 40
0.0118124999992045
 50
179.999999996141
 51
270.000000003858
  0
ARC
  8
5
  6
CONTINUOUS
 62
5
 10
1.48031944444646
 20
1.62499999999798
 30
0.0
 40
0.0299999999979796
 50
269.999999996141
 51
3.85850263403619E-9
  0
ARC
  8
5
  6
CONTINUOUS
 62
5
 10
1.48031944444444
 20
1.625
 30
0.0
 40
0.03
 50
359.999999999999
 51
180
  0
ARC
  8
5
  6
CONTINUOUS
 62
5
 10
1.48031944444242
 20
1.62499999999798
 30
0.0
 40
0.0299999999979796
 50
179.999999996141
 51
270.000000003858
  0
ARC
  8
5
  6
CONTINUOUS
 62
5
 10
1.61811805555549
 20
1.62500000000053
 30
0.0
 40
0.0118124999999302
 50
14.9999999974277
 51
180.000000002572
  0
ARC
  8
5
  6
CONTINUOUS
 62
5
 10
1.61811805555556
 20
1.625
 30
0.0
 40
0.0118125
 50
179.999999999999
 51
359.999999999999
  0
ARC
  8
5
  6
CONTINUOUS
 62
5
 10
1.61811805556361
 20
1.62500000000106
 30
0.0
 40
0.0118124999919431
 50
359.999999994854
 51
15.0000000051449
  0
ARC
  8
5
  6
CONTINUOUS
 62
5
 10
1.61811805555476
 20
1.8750000000008
 30
0.0
 40
0.0118124999992045
 50
89.9999999961411
 51
180.000000003858
  0
ARC
  8
5
  6
CONTINUOUS
 62
5
 10
1.61811805555556
 20
1.875
 30
0.0
 40
0.0118125
 50
179.999999999999
 51
359.999999999999
  0
ARC
  8
5
  6
CONTINUOUS
 62
5
 10
1.61811805555635
 20
1.8750000000008
 30
0.0
 40
0.0118124999992045
 50
359.999999996141
 51
90.0000000038585
  0
ARC
  8
5
  6
CONTINUOUS
 62
5
 10
1.48031944444242
 20
1.87500000000202
 30
0.0
 40
0.0299999999979796
 50
89.9999999961411
 51
180.000000003858
  0
ARC
  8
5
  6
CONTINUOUS
 62
5
 10
1.48031944444444
 20
1.875
 30
0.0
 40
0.03
 50
179.999999999999
 51
359.999999999999
  0
ARC
  8
5
  6
CONTINUOUS
 62
5
 10
1.48031944444646
 20
1.87500000000202
 30
0.0
 40
0.0299999999979796
 50
359.999999996141
 51
90.0000000038585
  0
ARC
  8
5
  6
CONTINUOUS
 62
5
 10
1.38189583333326
 20
1.87500000000053
 30
0.0
 40
0.0118124999999302
 50
14.9999999974277
 51
180.000000002572
  0
ARC
  8
5
  6
CONTINUOUS
 62
5
 10
1.38189583333333
 20
1.875
 30
0.0
 40
0.0118125
 50
179.999999999999
 51
359.999999999999
  0
ARC
  8
5
  6
CONTINUOUS
 62
5
 10
1.38189583334139
 20
1.87500000000106
 30
0.0
 40
0.0118124999919431
 50
359.999999994854
 51
15.0000000051449
  0
ARC
  8
5
  6
CONTINUOUS
 62
5
 10
1.38189583333413
 20
2.1249999999992
 30
0.0
 40
0.0118124999992045
 50
269.999999996141
 51
3.85850263403619E-9
  0
ARC
  8
5
  6
CONTINUOUS
 62
5
 10
1.38189583333333
 20
2.125
 30
0.0
 40
0.0118125
 50
359.999999999999
 51
180
  0
ARC
  8
5
  6
CONTINUOUS
 62
5
 10
1.38189583333254
 20
2.1249999999992
 30
0.0
 40
0.0118124999992045
 50
179.999999996141
 51
270.000000003858
  0
ARC
  8
5
  6
CONTINUOUS
 62
5
 10
1.48031944444646
 20
2.12499999999798
 30
0.0
 40
0.0299999999979797
 50
269.999999996141
 51
3.85871255064517E-9
  0
ARC
  8
5
  6
CONTINUOUS
 62
5
 10
1.48031944444444
 20
2.125
 30
0.0
 40
0.03
 50
359.999999999999
 51
180
  0
ARC
  8
5
  6
CONTINUOUS
 62
5
 10
1.48031944444242
 20
2.12499999999798
 30
0.0
 40
0.0299999999979797
 50
179.999999996141
 51
270.000000003858
  0
ARC
  8
5
  6
CONTINUOUS
 62
5
 10
1.61811805555549
 20
2.12500000000053
 30
0.0
 40
0.0118124999999302
 50
14.9999999974277
 51
180.000000002572
  0
ARC
  8
5
  6
CONTINUOUS
 62
5
 10
1.61811805555556
 20
2.125
 30
0.0
 40
0.0118125
 50
179.999999999999
 51
359.999999999999
  0
ARC
  8
5
  6
CONTINUOUS
 62
5
 10
1.61811805556361
 20
2.12500000000106
 30
0.0
 40
0.0118124999919431
 50
359.999999994854
 51
15.0000000051449
  0
ARC
  8
5
  6
CONTINUOUS
 62
5
 10
1.61811805555476
 20
2.3750000000008
 30
0.0
 40
0.0118124999992045
 50
89.9999999961411
 51
180.000000003858
  0
ARC
  8
5
  6
CONTINUOUS
 62
5
 10
1.61811805555556
 20
2.375
 30
0.0
 40
0.0118125
 50
179.999999999999
 51
359.999999999999
  0
ARC
  8
5
  6
CONTINUOUS
 62
5
 10
1.61811805555635
 20
2.3750000000008
 30
0.0
 40
0.0118124999992045
 50
359.999999996141
 51
90.0000000038585
  0
ARC
  8
5
  6
CONTINUOUS
 62
5
 10
1.48031944444242
 20
2.37500000000202
 30
0.0
 40
0.0299999999979797
 50
89.9999999961413
 51
180.000000003859
  0
ARC
  8
5
  6
CONTINUOUS
 62
5
 10
1.48031944444444
 20
2.375
 30
0.0
 40
0.03
 50
179.999999999999
 51
359.999999999999
  0
ARC
  8
5
  6
CONTINUOUS
 62
5
 10
1.48031944444646
 20
2.37500000000202
 30
0.0
 40
0.0299999999979797
 50
359.999999996141
 51
90.0000000038583
  0
ARC
  8
5
  6
CONTINUOUS
 62
5
 10
1.38189583333326
 20
2.37500000000053
 30
0.0
 40
0.0118124999999302
 50
14.9999999974277
 51
180.000000002572
  0
ARC
  8
5
  6
CONTINUOUS
 62
5
 10
1.38189583333333
 20
2.375
 30
0.0
 40
0.0118125
 50
179.999999999999
 51
359.999999999999
  0
ARC
  8
5
  6
CONTINUOUS
 62
5
 10
1.38189583334139
 20
2.37500000000106
 30
0.0
 40
0.0118124999919431
 50
359.999999994854
 51
15.0000000051449
  0
ARC
  8
5
  6
CONTINUOUS
 62
5
 10
1.38189583333413
 20
2.6249999999992
 30
0.0
 40
0.0118124999992045
 50
269.999999996141
 51
3.85850263403619E-9
  0
ARC
  8
5
  6
CONTINUOUS
 62
5
 10
1.38189583333333
 20
2.625
 30
0.0
 40
0.0118125
 50
359.999999999999
 51
180
  0
ARC
  8
5
  6
CONTINUOUS
 62
5
 10
1.38189583333254
 20
2.6249999999992
 30
0.0
 40
0.0118124999992045
 50
179.999999996141
 51
270.000000003858
  0
ARC
  8
5
  6
CONTINUOUS
 62
5
 10
1.48031944444646
 20
2.62499999999798
 30
0.0
 40
0.0299999999979797
 50
269.999999996141
 51
3.85871255064517E-9
  0
ARC
  8
5
  6
CONTINUOUS
 62
5
 10
1.48031944444444
 20
2.625
 30
0.0
 40
0.03
 50
359.999999999999
 51
180
  0
ARC
  8
5
  6
CONTINUOUS
 62
5
 10
1.48031944444242
 20
2.62499999999798
 30
0.0
 40
0.0299999999979797
 50
179.999999996141
 51
270.000000003858
  0
ARC
  8
5
  6
CONTINUOUS
 62
5
 10
1.61811805555549
 20
2.62500000000053
 30
0.0
 40
0.0118124999999302
 50
14.9999999974277
 51
180.000000002572
  0
ARC
  8
5
  6
CONTINUOUS
 62
5
 10
1.61811805555556
 20
2.625
 30
0.0
 40
0.0118125
 50
179.999999999999
 51
359.999999999999
  0
ARC
  8
5
  6
CONTINUOUS
 62
5
 10
1.61811805556361
 20
2.62500000000106
 30
0.0
 40
0.0118124999919431
 50
359.999999994854
 51
15.0000000051449
  0
ARC
  8
5
  6
CONTINUOUS
 62
5
 10
1.61811805555476
 20
2.8750000000008
 30
0.0
 40
0.0118124999992045
 50
89.9999999961411
 51
180.000000003858
  0
ARC
  8
5
  6
CONTINUOUS
 62
5
 10
1.61811805555556
 20
2.875
 30
0.0
 40
0.0118125
 50
179.999999999999
 51
359.999999999999
  0
ARC
  8
5
  6
CONTINUOUS
 62
5
 10
1.61811805555635
 20
2.8750000000008
 30
0.0
 40
0.0118124999992045
 50
359.999999996141
 51
90.0000000038585
  0
ARC
  8
5
  6
CONTINUOUS
 62
5
 10
1.48031944444242
 20
2.87500000000202
 30
0.0
 40
0.0299999999979797
 50
89.9999999961413
 51
180.000000003859
  0
ARC
  8
5
  6
CONTINUOUS
 62
5
 10
1.48031944444444
 20
2.875
 30
0.0
 40
0.03
 50
179.999999999999
 51
359.999999999999
  0
ARC
  8
5
  6
CONTINUOUS
 62
5
 10
1.48031944444646
 20
2.87500000000202
 30
0.0
 40
0.0299999999979797
 50
359.999999996141
 51
90.0000000038583
  0
ARC
  8
5
  6
CONTINUOUS
 62
5
 10
1.38189583333326
 20
2.87500000000053
 30
0.0
 40
0.0118124999999302
 50
14.9999999974277
 51
180.000000002572
  0
ARC
  8
5
  6
CONTINUOUS
 62
5
 10
1.38189583333333
 20
2.875
 30
0.0
 40
0.0118125
 50
179.999999999999
 51
359.999999999999
  0
ARC
  8
5
  6
CONTINUOUS
 62
5
 10
1.38189583334139
 20
2.87500000000106
 30
0.0
 40
0.0118124999919431
 50
359.999999994854
 51
15.0000000051449
  0
ARC
  8
5
  6
CONTINUOUS
 62
5
 10
1.38189583333413
 20
3.1249999999992
 30
0.0
 40
0.0118124999992045
 50
269.999999996141
 51
3.85850263403619E-9
  0
ARC
  8
5
  6
CONTINUOUS
 62
5
 10
1.38189583333333
 20
3.125
 30
0.0
 40
0.0118125
 50
359.999999999999
 51
180
  0
ARC
  8
5
  6
CONTINUOUS
 62
5
 10
1.38189583333254
 20
3.1249999999992
 30
0.0
 40
0.0118124999992045
 50
179.999999996141
 51
270.000000003858
  0
ARC
  8
5
  6
CONTINUOUS
 62
5
 10
1.48031944444646
 20
3.12499999999798
 30
0.0
 40
0.0299999999979797
 50
269.999999996141
 51
3.85871255064517E-9
  0
ARC
  8
5
  6
CONTINUOUS
 62
5
 10
1.48031944444444
 20
3.125
 30
0.0
 40
0.03
 50
359.999999999999
 51
180
  0
ARC
  8
5
  6
CONTINUOUS
 62
5
 10
1.48031944444242
 20
3.12499999999798
 30
0.0
 40
0.0299999999979797
 50
179.999999996141
 51
270.000000003858
  0
ARC
  8
5
  6
CONTINUOUS
 62
5
 10
1.61811805555549
 20
3.12500000000053
 30
0.0
 40
0.0118124999999302
 50
14.9999999974277
 51
180.000000002572
  0
ARC
  8
5
  6
CONTINUOUS
 62
5
 10
1.61811805555556
 20
3.125
 30
0.0
 40
0.0118125
 50
179.999999999999
 51
359.999999999999
  0
ARC
  8
5
  6
CONTINUOUS
 62
5
 10
1.61811805556361
 20
3.12500000000106
 30
0.0
 40
0.0118124999919431
 50
359.999999994854
 51
15.0000000051449
  0
ARC
  8
5
  6
CONTINUOUS
 62
5
 10
1.61811805555476
 20
3.3750000000008
 30
0.0
 40
0.0118124999992045
 50
89.9999999961411
 51
180.000000003858
  0
ARC
  8
5
  6
CONTINUOUS
 62
5
 10
1.61811805555556
 20
3.375
 30
0.0
 40
0.0118125
 50
179.999999999999
 51
359.999999999999
  0
ARC
  8
5
  6
CONTINUOUS
 62
5
 10
1.61811805555635
 20
3.3750000000008
 30
0.0
 40
0.0118124999992045
 50
359.999999996141
 51
90.0000000038585
  0
ARC
  8
5
  6
CONTINUOUS
 62
5
 10
1.48031944444242
 20
3.37500000000202
 30
0.0
 40
0.0299999999979797
 50
89.9999999961413
 51
180.000000003859
  0
ARC
  8
5
  6
CONTINUOUS
 62
5
 10
1.48031944444444
 20
3.375
 30
0.0
 40
0.03
 50
179.999999999999
 51
359.999999999999
  0
ARC
  8
5
  6
CONTINUOUS
 62
5
 10
1.48031944444646
 20
3.37500000000202
 30
0.0
 40
0.0299999999979797
 50
359.999999996141
 51
90.0000000038583
  0
ARC
  8
5
  6
CONTINUOUS
 62
5
 10
1.38189583333326
 20
3.37500000000053
 30
0.0
 40
0.0118124999999302
 50
14.9999999974277
 51
180.000000002572
  0
ARC
  8
5
  6
CONTINUOUS
 62
5
 10
1.38189583333333
 20
3.375
 30
0.0
 40
0.0118125
 50
179.999999999999
 51
359.999999999999
  0
ARC
  8
5
  6
CONTINUOUS
 62
5
 10
1.38189583334139
 20
3.37500000000106
 30
0.0
 40
0.0118124999919431
 50
359.999999994854
 51
15.0000000051449
  0
LINE
  8
6
  6
CONTINUOUS
 62
6
 10
1
 20
4
 30
0.0
 11
4
 21
4
 31
0.0
  0
LINE
  8
6
  6
CONTINUOUS
 62
6
 10
4
 20
4
 30
0.0
 11
4
 21
1
 31
0.0
  0
LINE
  8
6
  6
CONTINUOUS
 62
6
 10
4
 20
1
 30
0.0
 11
1
 21
1
 31
0.0
  0
LINE
  8
6
  6
CONTINUOUS
 62
6
 10
1
 20
1
 30
0.0
 11
1
 21
4
 31
0.0
  0
LINE
  8
9
  6
CONTINUOUS
 62
9
 10
3.75377131945295
 20
1.25393957169636
 30
0.0
 11
3.66161165235169
 21
1.33838834764832
 31
0.0
  0
LINE
  8
9
  6
CONTINUOUS
 62
9
 10
3.66161165235169
 20
1.33838834764832
 30
0.0
 11
3.69539116273247
 21
1.30152448080781
 31
0.0
  0
LINE
  8
9
  6
CONTINUOUS
 62
9
 10
3.38138057932008
 20
1.62498875711744
 30
0.0
 11
3.38189583333333
 21
1.6131875
 31
0.0
  0
LINE
  8
9
  6
CONTINUOUS
 62
9
 10
3.38189583333333
 20
1.6131875
 30
0.0
 11
3.38241108734659
 21
1.62498875711744
 31
0.0
  0
LINE
  8
9
  6
CONTINUOUS
 62
9
 10
3.47901086282348
 20
1.62497144664746
 30
0.0
 11
3.48031944444444
 21
1.595
 31
0.0
  0
LINE
  8
9
  6
CONTINUOUS
 62
9
 10
3.48031944444444
 20
1.595
 30
0.0
 11
3.4816280260654
 21
1.62497144664746
 31
0.0
  0
LINE
  8
9
  6
CONTINUOUS
 62
9
 10
3.61826227289788
 20
1.62450521271363
 30
0.0
 11
3.62952805437859
 21
1.62805729997027
 31
0.0
  0
LINE
  8
9
  6
CONTINUOUS
 62
9
 10
3.62952805437859
 20
1.62805729997027
 30
0.0
 11
3.61799555779449
 21
1.62550060703063
 31
0.0
  0
LINE
  8
9
  6
CONTINUOUS
 62
9
 10
3.61863330956881
 20
1.87501124288256
 30
0.0
 11
3.61811805555555
 21
1.8868125
 31
0.0
  0
LINE
  8
9
  6
CONTINUOUS
 62
9
 10
3.61811805555555
 20
1.8868125
 30
0.0
 11
3.6176028015423
 21
1.87501124288256
 31
0.0
  0
LINE
  8
9
  6
CONTINUOUS
 62
9
 10
3.4816280260654
 20
1.87502855335254
 30
0.0
 11
3.48031944444444
 21
1.905
 31
0.0
  0
LINE
  8
9
  6
CONTINUOUS
 62
9
 10
3.48031944444444
 20
1.905
 30
0.0
 11
3.47901086282348
 21
1.87502855335254
 31
0.0
  0
LINE
  8
9
  6
CONTINUOUS
 62
9
 10
3.38204005067566
 20
1.87450521271363
 30
0.0
 11
3.39330583215637
 21
1.87805729997027
 31
0.0
  0
LINE
  8
9
  6
CONTINUOUS
 62
9
 10
3.39330583215637
 20
1.87805729997027
 30
0.0
 11
3.38177333557227
 21
1.87550060703063
 31
0.0
  0
LINE
  8
9
  6
CONTINUOUS
 62
9
 10
3.38138057932008
 20
2.12498875711744
 30
0.0
 11
3.38189583333333
 21
2.1131875
 31
0.0
  0
LINE
  8
9
  6
CONTINUOUS
 62
9
 10
3.38189583333333
 20
2.1131875
 30
0.0
 11
3.38241108734659
 21
2.12498875711744
 31
0.0
  0
LINE
  8
9
  6
CONTINUOUS
 62
9
 10
3.47901086282348
 20
2.12497144664746
 30
0.0
 11
3.48031944444444
 21
2.095
 31
0.0
  0
LINE
  8
9
  6
CONTINUOUS
 62
9
 10
3.48031944444444
 20
2.095
 30
0.0
 11
3.4816280260654
 21
2.12497144664746
 31
0.0
  0
LINE
  8
9
  6
CONTINUOUS
 62
9
 10
3.61799555779449
 20
2.12449939296937
 30
0.0
 11
3.62952805437859
 21
2.12194270002973
 31
0.0
  0
LINE
  8
9
  6
CONTINUOUS
 62
9
 10
3.62952805437859
 20
2.12194270002973
 30
0.0
 11
3.61826227289788
 21
2.12549478728637
 31
0.0
  0
LINE
  8
9
  6
CONTINUOUS
 62
9
 10
3.74470257110445
 20
3.75129627260386
 30
0.0
 11
3.71764761936219
 21
3.62925927171387
 31
0.0
  0
LINE
  8
9
  6
CONTINUOUS
 62
9
 10
3.71764761936219
 20
3.62925927171387
 30
0.0
 11
3.7326829093374
 21
3.67694511925128
 31
0.0
  0
LINE
  8
9
  6
CONTINUOUS
 62
9
 10
3.61863330956881
 20
3.37501124288256
 30
0.0
 11
3.61811805555555
 21
3.3868125
 31
0.0
  0
LINE
  8
9
  6
CONTINUOUS
 62
9
 10
3.61811805555555
 20
3.3868125
 30
0.0
 11
3.6176028015423
 21
3.37501124288256
 31
0.0
  0
LINE
  8
9
  6
CONTINUOUS
 62
9
 10
3.4816280260654
 20
3.37502855335254
 30
0.0
 11
3.48031944444444
 21
3.405
 31
0.0
  0
LINE
  8
9
  6
CONTINUOUS
 62
9
 10
3.48031944444444
 20
3.405
 30
0.0
 11
3.47901086282348
 21
3.37502855335254
 31
0.0
  0
LINE
  8
9
  6
CONTINUOUS
 62
9
 10
3.38175161599101
 20
3.37549478728637
 30
0.0
 11
3.37048583451029
 21
3.37194270002973
 31
0.0
  0
LINE
  8
9
  6
CONTINUOUS
 62
9
 10
3.37048583451029
 20
3.37194270002973
 30
0.0
 11
3.3820183310944
 21
3.37449939296937
 31
0.0
  0
LINE
  8
9
  6
CONTINUOUS
 62
9
 10
3.38138057932008
 20
3.12498875711744
 30
0.0
 11
3.38189583333333
 21
3.1131875
 31
0.0
  0
LINE
  8
9
  6
CONTINUOUS
 62
9
 10
3.38189583333333
 20
3.1131875
 30
0.0
 11
3.38241108734659
 21
3.12498875711744
 31
0.0
  0
LINE
  8
9
  6
CONTINUOUS
 62
9
 10
3.47901086282348
 20
3.12497144664746
 30
0.0
 11
3.48031944444444
 21
3.095
 31
0.0
  0
LINE
  8
9
  6
CONTINUOUS
 62
9
 10
3.48031944444444
 20
3.095
 30
0.0
 11
3.4816280260654
 21
3.12497144664746
 31
0.0
  0
LINE
  8
9
  6
CONTINUOUS
 62
9
 10
3.61797383821323
 20
3.12549478728637
 30
0.0
 11
3.60670805673251
 21
3.12194270002973
 31
0.0
  0
LINE
  8
9
  6
CONTINUOUS
 62
9
 10
3.60670805673251
 20
3.12194270002973
 30
0.0
 11
3.61824055331662
 21
3.12449939296937
 31
0.0
  0
LINE
  8
9
  6
CONTINUOUS
 62
9
 10
3.61863330956881
 20
2.87501124288256
 30
0.0
 11
3.61811805555555
 21
2.8868125
 31
0.0
  0
LINE
  8
9
  6
CONTINUOUS
 62
9
 10
3.61811805555555
 20
2.8868125
 30
0.0
 11
3.6176028015423
 21
2.87501124288256
 31
0.0
  0
LINE
  8
9
  6
CONTINUOUS
 62
9
 10
3.4816280260654
 20
2.87502855335254
 30
0.0
 11
3.48031944444444
 21
2.905
 31
0.0
  0
LINE
  8
9
  6
CONTINUOUS
 62
9
 10
3.48031944444444
 20
2.905
 30
0.0
 11
3.47901086282348
 21
2.87502855335254
 31
0.0
  0
LINE
  8
9
  6
CONTINUOUS
 62
9
 10
3.38175161599101
 20
2.87549478728637
 30
0.0
 11
3.37048583451029
 21
2.87194270002973
 31
0.0
  0
LINE
  8
9
  6
CONTINUOUS
 62
9
 10
3.37048583451029
 20
2.87194270002973
 30
0.0
 11
3.3820183310944
 21
2.87449939296937
 31
0.0
  0
LINE
  8
9
  6
CONTINUOUS
 62
9
 10
3.38138057932008
 20
2.62498875711744
 30
0.0
 11
3.38189583333333
 21
2.6131875
 31
0.0
  0
LINE
  8
9
  6
CONTINUOUS
 62
9
 10
3.38189583333333
 20
2.6131875
 30
0.0
 11
3.38241108734659
 21
2.62498875711744
 31
0.0
  0
LINE
  8
9
  6
CONTINUOUS
 62
9
 10
3.47901086282348
 20
2.62497144664746
 30
0.0
 11
3.48031944444444
 21
2.595
 31
0.0
  0
LINE
  8
9
  6
CONTINUOUS
 62
9
 10
3.48031944444444
 20
2.595
 30
0.0
 11
3.4816280260654
 21
2.62497144664746
 31
0.0
  0
LINE
  8
9
  6
CONTINUOUS
 62
9
 10
3.61797383821323
 20
2.62549478728637
 30
0.0
 11
3.60670805673251
 21
2.62194270002973
 31
0.0
  0
LINE
  8
9
  6
CONTINUOUS
 62
9
 10
3.60670805673251
 20
2.62194270002973
 30
0.0
 11
3.61824055331662
 21
2.62449939296937
 31
0.0
  0
LINE
  8
9
  6
CONTINUOUS
 62
9
 10
3.61863330956881
 20
2.37501124288256
 30
0.0
 11
3.61811805555555
 21
2.3868125
 31
0.0
  0
LINE
  8
9
  6
CONTINUOUS
 62
9
 10
3.61811805555555
 20
2.3868125
 30
0.0
 11
3.6176028015423
 21
2.37501124288256
 31
0.0
  0
LINE
  8
9
  6
CONTINUOUS
 62
9
 10
3.4816280260654
 20
2.37502855335254
 30
0.0
 11
3.48031944444444
 21
2.405
 31
0.0
  0
LINE
  8
9
  6
CONTINUOUS
 62
9
 10
3.48031944444444
 20
2.405
 30
0.0
 11
3.47901086282348
 21
2.37502855335254
 31
0.0
  0
LINE
  8
9
  6
CONTINUOUS
 62
9
 10
3.38239644036396
 20
2.37487750223894
 30
0.0
 11
3.38495313330361
 21
2.38640999882304
 31
0.0
  0
LINE
  8
9
  6
CONTINUOUS
 62
9
 10
3.38495313330361
 20
2.38640999882304
 30
0.0
 11
3.38140104604696
 21
2.37514421734233
 31
0.0
  0
LINE
  8
9
  6
CONTINUOUS
 62
9
 10
3.00129627260386
 20
2.50529742889555
 30
0.0
 11
2.87925927171387
 21
2.53235238063782
 31
0.0
  0
LINE
  8
9
  6
CONTINUOUS
 62
9
 10
2.87925927171387
 20
2.53235238063782
 30
0.0
 11
2.92694511925128
 21
2.5173170906626
 31
0.0
  0
LINE
  8
9
  6
CONTINUOUS
 62
9
 10
2.00478142334562
 20
2.49737682132578
 30
0.0
 11
2.0625
 21
2.60825317547306
 31
0.0
  0
LINE
  8
9
  6
CONTINUOUS
 62
9
 10
2.0625
 20
2.60825317547306
 30
0.0
 11
2.03563501958266
 21
2.56608360318241
 31
0.0
  0
LINE
  8
9
  6
CONTINUOUS
 62
9
 10
2.38138057932008
 20
3.37498875711744
 30
0.0
 11
2.38189583333333
 21
3.3631875
 31
0.0
  0
LINE
  8
9
  6
CONTINUOUS
 62
9
 10
2.38189583333333
 20
3.3631875
 30
0.0
 11
2.38241108734659
 21
3.37498875711744
 31
0.0
  0
LINE
  8
9
  6
CONTINUOUS
 62
9
 10
2.47901086282348
 20
3.37497144664746
 30
0.0
 11
2.48031944444444
 21
3.345
 31
0.0
  0
LINE
  8
9
  6
CONTINUOUS
 62
9
 10
2.48031944444444
 20
3.345
 30
0.0
 11
2.4816280260654
 21
3.37497144664746
 31
0.0
  0
LINE
  8
9
  6
CONTINUOUS
 62
9
 10
2.61797383821323
 20
3.37549478728637
 30
0.0
 11
2.60670805673251
 21
3.37194270002973
 31
0.0
  0
LINE
  8
9
  6
CONTINUOUS
 62
9
 10
2.60670805673251
 20
3.37194270002973
 30
0.0
 11
2.61824055331662
 21
3.37449939296937
 31
0.0
  0
LINE
  8
9
  6
CONTINUOUS
 62
9
 10
2.61863330956881
 20
3.12501124288256
 30
0.0
 11
2.61811805555555
 21
3.1368125
 31
0.0
  0
LINE
  8
9
  6
CONTINUOUS
 62
9
 10
2.61811805555555
 20
3.1368125
 30
0.0
 11
2.6176028015423
 21
3.12501124288256
 31
0.0
  0
LINE
  8
9
  6
CONTINUOUS
 62
9
 10
2.4816280260654
 20
3.12502855335254
 30
0.0
 11
2.48031944444444
 21
3.155
 31
0.0
  0
LINE
  8
9
  6
CONTINUOUS
 62
9
 10
2.48031944444444
 20
3.155
 30
0.0
 11
2.47901086282348
 21
3.12502855335254
 31
0.0
  0
LINE
  8
9
  6
CONTINUOUS
 62
9
 10
2.38175161599101
 20
3.12549478728637
 30
0.0
 11
2.37048583451029
 21
3.12194270002973
 31
0.0
  0
LINE
  8
9
  6
CONTINUOUS
 62
9
 10
2.37048583451029
 20
3.12194270002973
 30
0.0
 11
2.3820183310944
 21
3.12449939296937
 31
0.0
  0
LINE
  8
9
  6
CONTINUOUS
 62
9
 10
2.38138057932008
 20
2.87498875711744
 30
0.0
 11
2.38189583333333
 21
2.8631875
 31
0.0
  0
LINE
  8
9
  6
CONTINUOUS
 62
9
 10
2.38189583333333
 20
2.8631875
 30
0.0
 11
2.38241108734659
 21
2.87498875711744
 31
0.0
  0
LINE
  8
9
  6
CONTINUOUS
 62
9
 10
2.47901086282348
 20
2.87497144664746
 30
0.0
 11
2.48031944444444
 21
2.845
 31
0.0
  0
LINE
  8
9
  6
CONTINUOUS
 62
9
 10
2.48031944444444
 20
2.845
 30
0.0
 11
2.4816280260654
 21
2.87497144664746
 31
0.0
  0
LINE
  8
9
  6
CONTINUOUS
 62
9
 10
2.61797383821323
 20
2.87549478728637
 30
0.0
 11
2.60670805673251
 21
2.87194270002973
 31
0.0
  0
LINE
  8
9
  6
CONTINUOUS
 62
9
 10
2.60670805673251
 20
2.87194270002973
 30
0.0
 11
2.61824055331662
 21
2.87449939296937
 31
0.0
  0
LINE
  8
9
  6
CONTINUOUS
 62
9
 10
2.61863330956881
 20
2.62501124288256
 30
0.0
 11
2.61811805555555
 21
2.6368125
 31
0.0
  0
LINE
  8
9
  6
CONTINUOUS
 62
9
 10
2.61811805555555
 20
2.6368125
 30
0.0
 11
2.6176028015423
 21
2.62501124288256
 31
0.0
  0
LINE
  8
9
  6
CONTINUOUS
 62
9
 10
2.4816280260654
 20
2.62502855335254
 30
0.0
 11
2.48031944444444
 21
2.655
 31
0.0
  0
LINE
  8
9
  6
CONTINUOUS
 62
9
 10
2.48031944444444
 20
2.655
 30
0.0
 11
2.47901086282348
 21
2.62502855335254
 31
0.0
  0
LINE
  8
9
  6
CONTINUOUS
 62
9
 10
2.38175161599101
 20
2.62549478728637
 30
0.0
 11
2.37048583451029
 21
2.62194270002973
 31
0.0
  0
LINE
  8
9
  6
CONTINUOUS
 62
9
 10
2.37048583451029
 20
2.62194270002973
 30
0.0
 11
2.3820183310944
 21
2.62449939296937
 31
0.0
  0
LINE
  8
9
  6
CONTINUOUS
 62
9
 10
2.38138057932008
 20
2.37498875711744
 30
0.0
 11
2.38189583333333
 21
2.3631875
 31
0.0
  0
LINE
  8
9
  6
CONTINUOUS
 62
9
 10
2.38189583333333
 20
2.3631875
 30
0.0
 11
2.38241108734659
 21
2.37498875711744
 31
0.0
  0
LINE
  8
9
  6
CONTINUOUS
 62
9
 10
2.47901086282348
 20
2.37497144664746
 30
0.0
 11
2.48031944444444
 21
2.345
 31
0.0
  0
LINE
  8
9
  6
CONTINUOUS
 62
9
 10
2.48031944444444
 20
2.345
 30
0.0
 11
2.4816280260654
 21
2.37497144664746
 31
0.0
  0
LINE
  8
9
  6
CONTINUOUS
 62
9
 10
2.61797383821323
 20
2.37549478728637
 30
0.0
 11
2.60670805673251
 21
2.37194270002973
 31
0.0
  0
LINE
  8
9
  6
CONTINUOUS
 62
9
 10
2.60670805673251
 20
2.37194270002973
 30
0.0
 11
2.61824055331662
 21
2.37449939296937
 31
0.0
  0
LINE
  8
9
  6
CONTINUOUS
 62
9
 10
2.61863330956881
 20
2.12501124288256
 30
0.0
 11
2.61811805555555
 21
2.1368125
 31
0.0
  0
LINE
  8
9
  6
CONTINUOUS
 62
9
 10
2.61811805555555
 20
2.1368125
 30
0.0
 11
2.6176028015423
 21
2.12501124288256
 31
0.0
  0
LINE
  8
9
  6
CONTINUOUS
 62
9
 10
2.4816280260654
 20
2.12502855335254
 30
0.0
 11
2.48031944444444
 21
2.155
 31
0.0
  0
LINE
  8
9
  6
CONTINUOUS
 62
9
 10
2.48031944444444
 20
2.155
 30
0.0
 11
2.47901086282348
 21
2.12502855335254
 31
0.0
  0
LINE
  8
9
  6
CONTINUOUS
 62
9
 10
2.38175161599101
 20
2.12549478728637
 30
0.0
 11
2.37048583451029
 21
2.12194270002973
 31
0.0
  0
LINE
  8
9
  6
CONTINUOUS
 62
9
 10
2.37048583451029
 20
2.12194270002973
 30
0.0
 11
2.3820183310944
 21
2.12449939296937
 31
0.0
  0
LINE
  8
9
  6
CONTINUOUS
 62
9
 10
2.38138057932008
 20
1.87498875711744
 30
0.0
 11
2.38189583333333
 21
1.8631875
 31
0.0
  0
LINE
  8
9
  6
CONTINUOUS
 62
9
 10
2.38189583333333
 20
1.8631875
 30
0.0
 11
2.38241108734659
 21
1.87498875711744
 31
0.0
  0
LINE
  8
9
  6
CONTINUOUS
 62
9
 10
2.47901086282348
 20
1.87497144664746
 30
0.0
 11
2.48031944444444
 21
1.845
 31
0.0
  0
LINE
  8
9
  6
CONTINUOUS
 62
9
 10
2.48031944444444
 20
1.845
 30
0.0
 11
2.4816280260654
 21
1.87497144664746
 31
0.0
  0
LINE
  8
9
  6
CONTINUOUS
 62
9
 10
2.61797383821323
 20
1.87549478728637
 30
0.0
 11
2.60670805673251
 21
1.87194270002973
 31
0.0
  0
LINE
  8
9
  6
CONTINUOUS
 62
9
 10
2.60670805673251
 20
1.87194270002973
 30
0.0
 11
2.61824055331662
 21
1.87449939296937
 31
0.0
  0
LINE
  8
9
  6
CONTINUOUS
 62
9
 10
2.61863330956881
 20
1.62501124288256
 30
0.0
 11
2.61811805555555
 21
1.6368125
 31
0.0
  0
LINE
  8
9
  6
CONTINUOUS
 62
9
 10
2.61811805555555
 20
1.6368125
 30
0.0
 11
2.6176028015423
 21
1.62501124288256
 31
0.0
  0
LINE
  8
9
  6
CONTINUOUS
 62
9
 10
2.4816280260654
 20
1.62502855335254
 30
0.0
 11
2.48031944444444
 21
1.655
 31
0.0
  0
LINE
  8
9
  6
CONTINUOUS
 62
9
 10
2.48031944444444
 20
1.655
 30
0.0
 11
2.47901086282348
 21
1.62502855335254
 31
0.0
  0
LINE
  8
9
  6
CONTINUOUS
 62
9
 10
2.3823906206197
 20
1.62514421734233
 30
0.0
 11
2.37883853336306
 21
1.63640999882304
 31
0.0
  0
LINE
  8
9
  6
CONTINUOUS
 62
9
 10
2.37883853336306
 20
1.63640999882304
 30
0.0
 11
2.3813952263027
 21
1.62487750223894
 31
0.0
  0
LINE
  8
9
  6
CONTINUOUS
 62
9
 10
1.25529742889555
 20
1.24870372739614
 30
0.0
 11
1.28235238063782
 21
1.37074072828613
 31
0.0
  0
LINE
  8
9
  6
CONTINUOUS
 62
9
 10
1.28235238063782
 20
1.37074072828613
 30
0.0
 11
1.2673170906626
 21
1.32305488074872
 31
0.0
  0
LINE
  8
9
  6
CONTINUOUS
 62
9
 10
1.38138057932008
 20
1.62498875711744
 30
0.0
 11
1.38189583333333
 21
1.6131875
 31
0.0
  0
LINE
  8
9
  6
CONTINUOUS
 62
9
 10
1.38189583333333
 20
1.6131875
 30
0.0
 11
1.38241108734659
 21
1.62498875711744
 31
0.0
  0
LINE
  8
9
  6
CONTINUOUS
 62
9
 10
1.47901086282348
 20
1.62497144664746
 30
0.0
 11
1.48031944444444
 21
1.595
 31
0.0
  0
LINE
  8
9
  6
CONTINUOUS
 62
9
 10
1.48031944444444
 20
1.595
 30
0.0
 11
1.4816280260654
 21
1.62497144664746
 31
0.0
  0
LINE
  8
9
  6
CONTINUOUS
 62
9
 10
1.61826227289788
 20
1.62450521271363
 30
0.0
 11
1.62952805437859
 21
1.62805729997027
 31
0.0
  0
LINE
  8
9
  6
CONTINUOUS
 62
9
 10
1.62952805437859
 20
1.62805729997027
 30
0.0
 11
1.61799555779449
 21
1.62550060703063
 31
0.0
  0
LINE
  8
9
  6
CONTINUOUS
 62
9
 10
1.61863330956881
 20
1.87501124288256
 30
0.0
 11
1.61811805555556
 21
1.8868125
 31
0.0
  0
LINE
  8
9
  6
CONTINUOUS
 62
9
 10
1.61811805555556
 20
1.8868125
 30
0.0
 11
1.6176028015423
 21
1.87501124288256
 31
0.0
  0
LINE
  8
9
  6
CONTINUOUS
 62
9
 10
1.4816280260654
 20
1.87502855335254
 30
0.0
 11
1.48031944444444
 21
1.905
 31
0.0
  0
LINE
  8
9
  6
CONTINUOUS
 62
9
 10
1.48031944444444
 20
1.905
 30
0.0
 11
1.47901086282348
 21
1.87502855335254
 31
0.0
  0
LINE
  8
9
  6
CONTINUOUS
 62
9
 10
1.38204005067566
 20
1.87450521271363
 30
0.0
 11
1.39330583215637
 21
1.87805729997027
 31
0.0
  0
LINE
  8
9
  6
CONTINUOUS
 62
9
 10
1.39330583215637
 20
1.87805729997027
 30
0.0
 11
1.38177333557227
 21
1.87550060703063
 31
0.0
  0
LINE
  8
9
  6
CONTINUOUS
 62
9
 10
1.38138057932008
 20
2.12498875711744
 30
0.0
 11
1.38189583333333
 21
2.1131875
 31
0.0
  0
LINE
  8
9
  6
CONTINUOUS
 62
9
 10
1.38189583333333
 20
2.1131875
 30
0.0
 11
1.38241108734659
 21
2.12498875711744
 31
0.0
  0
LINE
  8
9
  6
CONTINUOUS
 62
9
 10
1.47901086282348
 20
2.12497144664746
 30
0.0
 11
1.48031944444444
 21
2.095
 31
0.0
  0
LINE
  8
9
  6
CONTINUOUS
 62
9
 10
1.48031944444444
 20
2.095
 30
0.0
 11
1.4816280260654
 21
2.12497144664746
 31
0.0
  0
LINE
  8
9
  6
CONTINUOUS
 62
9
 10
1.61826227289788
 20
2.12450521271363
 30
0.0
 11
1.62952805437859
 21
2.12805729997027
 31
0.0
  0
LINE
  8
9
  6
CONTINUOUS
 62
9
 10
1.62952805437859
 20
2.12805729997027
 30
0.0
 11
1.61799555779449
 21
2.12550060703063
 31
0.0
  0
LINE
  8
9
  6
CONTINUOUS
 62
9
 10
1.61863330956881
 20
2.37501124288256
 30
0.0
 11
1.61811805555556
 21
2.3868125
 31
0.0
  0
LINE
  8
9
  6
CONTINUOUS
 62
9
 10
1.61811805555556
 20
2.3868125
 30
0.0
 11
1.6176028015423
 21
2.37501124288256
 31
0.0
  0
LINE
  8
9
  6
CONTINUOUS
 62
9
 10
1.4816280260654
 20
2.37502855335254
 30
0.0
 11
1.48031944444444
 21
2.405
 31
0.0
  0
LINE
  8
9
  6
CONTINUOUS
 62
9
 10
1.48031944444444
 20
2.405
 30
0.0
 11
1.47901086282348
 21
2.37502855335254
 31
0.0
  0
LINE
  8
9
  6
CONTINUOUS
 62
9
 10
1.38204005067566
 20
2.37450521271363
 30
0.0
 11
1.39330583215637
 21
2.37805729997027
 31
0.0
  0
LINE
  8
9
  6
CONTINUOUS
 62
9
 10
1.39330583215637
 20
2.37805729997027
 30
0.0
 11
1.38177333557227
 21
2.37550060703063
 31
0.0
  0
LINE
  8
9
  6
CONTINUOUS
 62
9
 10
1.38138057932008
 20
2.62498875711744
 30
0.0
 11
1.38189583333333
 21
2.6131875
 31
0.0
  0
LINE
  8
9
  6
CONTINUOUS
 62
9
 10
1.38189583333333
 20
2.6131875
 30
0.0
 11
1.38241108734659
 21
2.62498875711744
 31
0.0
  0
LINE
  8
9
  6
CONTINUOUS
 62
9
 10
1.47901086282348
 20
2.62497144664746
 30
0.0
 11
1.48031944444444
 21
2.595
 31
0.0
  0
LINE
  8
9
  6
CONTINUOUS
 62
9
 10
1.48031944444444
 20
2.595
 30
0.0
 11
1.4816280260654
 21
2.62497144664746
 31
0.0
  0
LINE
  8
9
  6
CONTINUOUS
 62
9
 10
1.61826227289788
 20
2.62450521271363
 30
0.0
 11
1.62952805437859
 21
2.62805729997027
 31
0.0
  0
LINE
  8
9
  6
CONTINUOUS
 62
9
 10
1.62952805437859
 20
2.62805729997027
 30
0.0
 11
1.61799555779449
 21
2.62550060703063
 31
0.0
  0
LINE
  8
9
  6
CONTINUOUS
 62
9
 10
1.61863330956881
 20
2.87501124288256
 30
0.0
 11
1.61811805555556
 21
2.8868125
 31
0.0
  0
LINE
  8
9
  6
CONTINUOUS
 62
9
 10
1.61811805555556
 20
2.8868125
 30
0.0
 11
1.6176028015423
 21
2.87501124288256
 31
0.0
  0
LINE
  8
9
  6
CONTINUOUS
 62
9
 10
1.4816280260654
 20
2.87502855335254
 30
0.0
 11
1.48031944444444
 21
2.905
 31
0.0
  0
LINE
  8
9
  6
CONTINUOUS
 62
9
 10
1.48031944444444
 20
2.905
 30
0.0
 11
1.47901086282348
 21
2.87502855335254
 31
0.0
  0
LINE
  8
9
  6
CONTINUOUS
 62
9
 10
1.38204005067566
 20
2.87450521271363
 30
0.0
 11
1.39330583215637
 21
2.87805729997027
 31
0.0
  0
LINE
  8
9
  6
CONTINUOUS
 62
9
 10
1.39330583215637
 20
2.87805729997027
 30
0.0
 11
1.38177333557227
 21
2.87550060703063
 31
0.0
  0
LINE
  8
9
  6
CONTINUOUS
 62
9
 10
1.38138057932008
 20
3.12498875711744
 30
0.0
 11
1.38189583333333
 21
3.1131875
 31
0.0
  0
LINE
  8
9
  6
CONTINUOUS
 62
9
 10
1.38189583333333
 20
3.1131875
 30
0.0
 11
1.38241108734659
 21
3.12498875711744
 31
0.0
  0
LINE
  8
9
  6
CONTINUOUS
 62
9
 10
1.47901086282348
 20
3.12497144664746
 30
0.0
 11
1.48031944444444
 21
3.095
 31
0.0
  0
LINE
  8
9
  6
CONTINUOUS
 62
9
 10
1.48031944444444
 20
3.095
 30
0.0
 11
1.4816280260654
 21
3.12497144664746
 31
0.0
  0
LINE
  8
9
  6
CONTINUOUS
 62
9
 10
1.61826227289788
 20
3.12450521271363
 30
0.0
 11
1.62952805437859
 21
3.12805729997027
 31
0.0
  0
LINE
  8
9
  6
CONTINUOUS
 62
9
 10
1.62952805437859
 20
3.12805729997027
 30
0.0
 11
1.61799555779449
 21
3.12550060703063
 31
0.0
  0
LINE
  8
9
  6
CONTINUOUS
 62
9
 10
1.61863330956881
 20
3.37501124288256
 30
0.0
 11
1.61811805555556
 21
3.3868125
 31
0.0
  0
LINE
  8
9
  6
CONTINUOUS
 62
9
 10
1.61811805555556
 20
3.3868125
 30
0.0
 11
1.6176028015423
 21
3.37501124288256
 31
0.0
  0
LINE
  8
9
  6
CONTINUOUS
 62
9
 10
1.4816280260654
 20
3.37502855335254
 30
0.0
 11
1.48031944444444
 21
3.405
 31
0.0
  0
LINE
  8
9
  6
CONTINUOUS
 62
9
 10
1.48031944444444
 20
3.405
 30
0.0
 11
1.47901086282348
 21
3.37502855335254
 31
0.0
  0
LINE
  8
9
  6
CONTINUOUS
 62
9
 10
1.38204005067566
 20
3.37450521271363
 30
0.0
 11
1.39330583215637
 21
3.37805729997027
 31
0.0
  0
LINE
  8
9
  6
CONTINUOUS
 62
9
 10
1.39330583215637
 20
3.37805729997027
 30
0.0
 11
1.38177333557227
 21
3.37550060703063
 31
0.0
  0
LINE
  8
9
  6
CONTINUOUS
 62
9
 10
1.25262317867422
 20
3.75478142334562
 30
0.0
 11
1.14174682452695
 21
3.8125
 31
0.0
  0
LINE
  8
9
  6
CONTINUOUS
 62
9
 10
1.14174682452695
 20
3.8125
 30
0.0
 11
1.18391639681759
 21
3.78563501958266
 31
0.0
  0
LINE
  8
9
  6
CONTINUOUS
 62
9
 10
0.85
 20
4
 30
0.0
 11
1
 21
4
 31
0.0
  0
LINE
  8
9
  6
CONTINUOUS
 62
9
 10
1
 20
4
 30
0.0
 11
1
 21
4.05
 31
0.0
  0
ENDSEC
  0
EOF
