0
SECTION
2
ENTITIES
0
POLYLINE
8
0
70
0
66
1
0
VERTEX
8
0
10
0.0
20
3.0098472222222221
0
VERTEX
8
0
10
3.0098472222222221
20
3.0098472222222221
0
VERTEX
8
0
10
3.0098472222222221
20
-0.0
0
VERTEX
8
0
10
0.0
20
-0.0
0
VERTEX
8
0
10
0.0
20
3.0098472222222221
0
SEQEND
8
0
0
POLYLINE
8
0
70
0
66
1
0
VERTEX
8
0
10
2.5152361111111112
20
1.6299208333333333
42
0.4142361111111254
0
VERTEX
8
0
10
2.485236111111111
20
1.6599208333333331
42
0.4142361111111138
0
VERTEX
8
0
10
2.4552361111111112
20
1.6299208333333333
42
0.4142361111111196
0
VERTEX
8
0
10
2.485236111111111
20
1.5999208333333332
42
0.4142361111111294
0
VERTEX
8
0
10
2.5152361111111112
20
1.6299208333333333
0
SEQEND
8
0
0
POLYLINE
8
0
70
0
66
1
0
VERTEX
8
0
10
2.398622222222222
20
1.6299208333333333
42
0.4142647747028211
0
VERTEX
8
0
10
2.3868166666666664
20
1.6417263888888887
42
0.4144619588839495
0
VERTEX
8
0
10
2.374997222222222
20
1.6299208333333333
42
0.4144619588839398
0
VERTEX
8
0
10
2.3868166666666664
20
1.6181152777777776
42
0.414264774702831
0
VERTEX
8
0
10
2.398622222222222
20
1.6299208333333333
0
SEQEND
8
0
0
POLYLINE
8
0
70
0
66
1
0
VERTEX
8
0
10
2.6348430555555553
20
1.6299208333333333
42
0.4142647747028211
0
VERTEX
8
0
10
2.6230374999999997
20
1.6417263888888887
42
0.4144619588839105
0
VERTEX
8
0
10
2.6112180555555553
20
1.6299208333333333
42
0.414461958883935
0
VERTEX
8
0
10
2.6230374999999997
20
1.6181152777777776
42
0.4142647747027722
0
VERTEX
8
0
10
2.6348430555555553
20
1.6299208333333333
0
SEQEND
8
0
0
POLYLINE
8
0
70
0
66
1
0
VERTEX
8
0
10
0.5152361111111111
20
1.3799208333333333
42
0.4142361111111187
0
VERTEX
8
0
10
0.485236111111111
20
1.4099208333333331
42
0.4142361111111129
0
VERTEX
8
0
10
0.4552361111111111
20
1.3799208333333333
42
0.414236111111114
0
VERTEX
8
0
10
0.485236111111111
20
1.3499208333333332
42
0.414236111111114
0
VERTEX
8
0
10
0.5152361111111111
20
1.3799208333333333
0
SEQEND
8
0
0
POLYLINE
8
0
70
0
66
1
0
VERTEX
8
0
10
2.6348430555555553
20
1.8799208333333333
42
0.4142647747028211
0
VERTEX
8
0
10
2.6230374999999997
20
1.8917263888888887
42
0.4144619588839105
0
VERTEX
8
0
10
2.6112180555555553
20
1.8799208333333333
42
0.4144619588839398
0
VERTEX
8
0
10
2.6230374999999997
20
1.8681152777777776
42
0.4142647747027722
0
VERTEX
8
0
10
2.6348430555555553
20
1.8799208333333333
0
SEQEND
8
0
0
POLYLINE
8
0
70
0
66
1
0
VERTEX
8
0
10
0.5152361111111111
20
1.6299208333333333
42
0.4142361111111187
0
VERTEX
8
0
10
0.485236111111111
20
1.6599208333333331
42
0.4142361111111129
0
VERTEX
8
0
10
0.4552361111111111
20
1.6299208333333333
42
0.414236111111114
0
VERTEX
8
0
10
0.485236111111111
20
1.5999208333333332
42
0.414236111111114
0
VERTEX
8
0
10
0.5152361111111111
20
1.6299208333333333
0
SEQEND
8
0
0
POLYLINE
8
0
70
0
66
1
0
VERTEX
8
0
10
0.3986222222222222
20
1.6299208333333333
42
0.4142647747028296
0
VERTEX
8
0
10
0.3868166666666666
20
1.6417263888888887
42
0.4144619588839386
0
VERTEX
8
0
10
0.3749972222222222
20
1.6299208333333333
42
0.4144619588839313
0
VERTEX
8
0
10
0.3868166666666666
20
1.6181152777777776
42
0.4142647747028296
0
VERTEX
8
0
10
0.3986222222222222
20
1.6299208333333333
0
SEQEND
8
0
0
POLYLINE
8
0
70
0
66
1
0
VERTEX
8
0
10
0.6348430555555555
20
1.6299208333333333
42
0.414264774702831
0
VERTEX
8
0
10
0.6230374999999999
20
1.6417263888888887
42
0.4144619588839276
0
VERTEX
8
0
10
0.6112180555555555
20
1.6299208333333333
42
0.4144619588839326
0
VERTEX
8
0
10
0.6230374999999999
20
1.6181152777777776
42
0.4142647747028382
0
VERTEX
8
0
10
0.6348430555555555
20
1.6299208333333333
0
SEQEND
8
0
0
POLYLINE
8
0
70
0
66
1
0
VERTEX
8
0
10
2.6348430555555553
20
1.3799208333333333
42
0.4142647747028211
0
VERTEX
8
0
10
2.6230374999999997
20
1.3917263888888887
42
0.4144619588839105
0
VERTEX
8
0
10
2.6112180555555553
20
1.3799208333333333
42
0.414461958883935
0
VERTEX
8
0
10
2.6230374999999997
20
1.3681152777777776
42
0.4142647747027722
0
VERTEX
8
0
10
2.6348430555555553
20
1.3799208333333333
0
SEQEND
8
0
0
POLYLINE
8
0
70
0
66
1
0
VERTEX
8
0
10
0.5152361111111111
20
1.1299208333333333
42
0.4142361111111187
0
VERTEX
8
0
10
0.485236111111111
20
1.1599208333333331
42
0.4142361111111129
0
VERTEX
8
0
10
0.4552361111111111
20
1.1299208333333333
42
0.414236111111114
0
VERTEX
8
0
10
0.485236111111111
20
1.0999208333333332
42
0.414236111111114
0
VERTEX
8
0
10
0.5152361111111111
20
1.1299208333333333
0
SEQEND
8
0
0
POLYLINE
8
0
70
0
66
1
0
VERTEX
8
0
10
0.3986222222222222
20
1.1299208333333333
42
0.4142647747028296
0
VERTEX
8
0
10
0.3868166666666666
20
1.1417263888888887
42
0.4144619588839263
0
VERTEX
8
0
10
0.3749972222222222
20
1.1299208333333333
42
0.4144619588839313
0
VERTEX
8
0
10
0.3868166666666666
20
1.1181152777777776
42
0.4142647747028296
0
VERTEX
8
0
10
0.3986222222222222
20
1.1299208333333333
0
SEQEND
8
0
0
POLYLINE
8
0
70
0
66
1
0
VERTEX
8
0
10
0.6348430555555555
20
1.1299208333333333
42
0.414264774702831
0
VERTEX
8
0
10
0.6230374999999999
20
1.1417263888888887
42
0.4144619588839349
0
VERTEX
8
0
10
0.6112180555555555
20
1.1299208333333333
42
0.4144619588839326
0
VERTEX
8
0
10
0.6230374999999999
20
1.1181152777777776
42
0.414264774702831
0
VERTEX
8
0
10
0.6348430555555555
20
1.1299208333333333
0
SEQEND
8
0
0
POLYLINE
8
0
70
0
66
1
0
VERTEX
8
0
10
2.398622222222222
20
1.3799208333333333
42
0.4142647747028211
0
VERTEX
8
0
10
2.3868166666666664
20
1.3917263888888887
42
0.4144619588839495
0
VERTEX
8
0
10
2.374997222222222
20
1.3799208333333333
42
0.4144619588839398
0
VERTEX
8
0
10
2.3868166666666664
20
1.3681152777777776
42
0.414264774702831
0
VERTEX
8
0
10
2.398622222222222
20
1.3799208333333333
0
SEQEND
8
0
0
POLYLINE
8
0
70
0
66
1
0
VERTEX
8
0
10
2.5152361111111112
20
1.3799208333333333
42
0.4142361111111254
0
VERTEX
8
0
10
2.485236111111111
20
1.4099208333333331
42
0.4142361111111138
0
VERTEX
8
0
10
2.4552361111111112
20
1.3799208333333333
42
0.4142361111111196
0
VERTEX
8
0
10
2.485236111111111
20
1.3499208333333332
42
0.4142361111111294
0
VERTEX
8
0
10
2.5152361111111112
20
1.3799208333333333
0
SEQEND
8
0
0
POLYLINE
8
0
70
0
66
1
0
VERTEX
8
0
10
0.6348430555555555
20
1.3799208333333333
42
0.414264774702831
0
VERTEX
8
0
10
0.6230374999999999
20
1.3917263888888887
42
0.4144619588839349
0
VERTEX
8
0
10
0.6112180555555555
20
1.3799208333333333
42
0.4144619588839326
0
VERTEX
8
0
10
0.6230374999999999
20
1.3681152777777776
42
0.414264774702831
0
VERTEX
8
0
10
0.6348430555555555
20
1.3799208333333333
0
SEQEND
8
0
0
POLYLINE
8
0
70
0
66
1
0
VERTEX
8
0
10
0.3986222222222222
20
1.3799208333333333
42
0.4142647747028296
0
VERTEX
8
0
10
0.3868166666666666
20
1.3917263888888887
42
0.4144619588839263
0
VERTEX
8
0
10
0.3749972222222222
20
1.3799208333333333
42
0.4144619588839313
0
VERTEX
8
0
10
0.3868166666666666
20
1.3681152777777776
42
0.4142647747028296
0
VERTEX
8
0
10
0.3986222222222222
20
1.3799208333333333
0
SEQEND
8
0
0
POLYLINE
8
0
70
0
66
1
0
VERTEX
8
0
10
2.6348430555555553
20
2.3799208333333333
42
0.4142647747028211
0
VERTEX
8
0
10
2.6230374999999997
20
2.3917263888888884
42
0.4144619588839105
0
VERTEX
8
0
10
2.6112180555555553
20
2.3799208333333333
42
0.4144619588839398
0
VERTEX
8
0
10
2.6230374999999997
20
2.3681152777777776
42
0.4142647747027722
0
VERTEX
8
0
10
2.6348430555555553
20
2.3799208333333333
0
SEQEND
8
0
0
POLYLINE
8
0
70
0
66
1
0
VERTEX
8
0
10
0.5152361111111111
20
2.1299208333333333
42
0.4142361111111176
0
VERTEX
8
0
10
0.485236111111111
20
2.1599208333333331
42
0.4142361111111167
0
VERTEX
8
0
10
0.4552361111111111
20
2.1299208333333333
42
0.4142361111111042
0
VERTEX
8
0
10
0.485236111111111
20
2.099920833333333
42
0.4142361111111169
0
VERTEX
8
0
10
0.5152361111111111
20
2.1299208333333333
0
SEQEND
8
0
0
POLYLINE
8
0
70
0
66
1
0
VERTEX
8
0
10
0.3986222222222222
20
2.1299208333333333
42
0.4142647747028005
0
VERTEX
8
0
10
0.3868166666666666
20
2.1417263888888884
42
0.4144619588839422
0
VERTEX
8
0
10
0.3749972222222222
20
2.1299208333333333
42
0.4144619588839398
0
VERTEX
8
0
10
0.3868166666666666
20
2.1181152777777776
42
0.4142647747028346
0
VERTEX
8
0
10
0.3986222222222222
20
2.1299208333333333
0
SEQEND
8
0
0
POLYLINE
8
0
70
0
66
1
0
VERTEX
8
0
10
0.6348430555555555
20
2.1299208333333333
42
0.4142647747027992
0
VERTEX
8
0
10
0.6230374999999999
20
2.1417263888888884
42
0.4144619588839055
0
VERTEX
8
0
10
0.6112180555555555
20
2.1299208333333333
42
0.4144619588839081
0
VERTEX
8
0
10
0.6230374999999999
20
2.1181152777777776
42
0.4142647747028382
0
VERTEX
8
0
10
0.6348430555555555
20
2.1299208333333333
0
SEQEND
8
0
0
POLYLINE
8
0
70
0
66
1
0
VERTEX
8
0
10
2.398622222222222
20
2.3799208333333333
42
0.4142647747027919
0
VERTEX
8
0
10
2.3868166666666664
20
2.3917263888888884
42
0.4144619588839105
0
VERTEX
8
0
10
2.374997222222222
20
2.3799208333333333
42
0.4144619588839398
0
VERTEX
8
0
10
2.3868166666666664
20
2.3681152777777776
42
0.414264774702831
0
VERTEX
8
0
10
2.398622222222222
20
2.3799208333333333
0
SEQEND
8
0
0
POLYLINE
8
0
70
0
66
1
0
VERTEX
8
0
10
2.5152361111111112
20
2.3799208333333333
42
0.4142361111111254
0
VERTEX
8
0
10
2.485236111111111
20
2.4099208333333331
42
0.4142361111111176
0
VERTEX
8
0
10
2.4552361111111112
20
2.3799208333333333
42
0.414236111111106
0
VERTEX
8
0
10
2.485236111111111
20
2.349920833333333
42
0.4142361111111294
0
VERTEX
8
0
10
2.5152361111111112
20
2.3799208333333333
0
SEQEND
8
0
0
POLYLINE
8
0
70
0
66
1
0
VERTEX
8
0
10
1.6348430555555553
20
2.3799208333333333
42
0.4142647747028161
0
VERTEX
8
0
10
1.6230374999999999
20
2.3917263888888884
42
0.41446195888393
0
VERTEX
8
0
10
1.6112180555555555
20
2.3799208333333333
42
0.4144619588839202
0
VERTEX
8
0
10
1.6230374999999999
20
2.3681152777777776
42
0.4142647747028213
0
VERTEX
8
0
10
1.6348430555555553
20
2.3799208333333333
0
SEQEND
8
0
0
POLYLINE
8
0
70
0
66
1
0
VERTEX
8
0
10
1.3986222222222222
20
2.3799208333333333
42
0.4142647747028161
0
VERTEX
8
0
10
1.3868166666666666
20
2.3917263888888884
42
0.4144619588839251
0
VERTEX
8
0
10
1.3749972222222222
20
2.3799208333333333
42
0.4144619588839251
0
VERTEX
8
0
10
1.3868166666666666
20
2.3681152777777776
42
0.4142647747028114
0
VERTEX
8
0
10
1.3986222222222222
20
2.3799208333333333
0
SEQEND
8
0
0
POLYLINE
8
0
70
0
66
1
0
VERTEX
8
0
10
2.398622222222222
20
1.8799208333333333
42
0.4142647747028211
0
VERTEX
8
0
10
2.3868166666666664
20
1.8917263888888887
42
0.4144619588839105
0
VERTEX
8
0
10
2.374997222222222
20
1.8799208333333333
42
0.4144619588839398
0
VERTEX
8
0
10
2.3868166666666664
20
1.8681152777777776
42
0.414264774702831
0
VERTEX
8
0
10
2.398622222222222
20
1.8799208333333333
0
SEQEND
8
0
0
POLYLINE
8
0
70
0
66
1
0
VERTEX
8
0
10
2.5152361111111112
20
1.8799208333333333
42
0.4142361111111254
0
VERTEX
8
0
10
2.485236111111111
20
1.9099208333333331
42
0.4142361111111176
0
VERTEX
8
0
10
2.4552361111111112
20
1.8799208333333333
42
0.4142361111111176
0
VERTEX
8
0
10
2.485236111111111
20
1.8499208333333332
42
0.4142361111111294
0
VERTEX
8
0
10
2.5152361111111112
20
1.8799208333333333
0
SEQEND
8
0
0
POLYLINE
8
0
70
0
66
1
0
VERTEX
8
0
10
0.6348430555555555
20
1.8799208333333333
42
0.4142647747028234
0
VERTEX
8
0
10
0.6230374999999999
20
1.8917263888888887
42
0.4144619588839055
0
VERTEX
8
0
10
0.6112180555555555
20
1.8799208333333333
42
0.4144619588839081
0
VERTEX
8
0
10
0.6230374999999999
20
1.8681152777777776
42
0.4142647747028382
0
VERTEX
8
0
10
0.6348430555555555
20
1.8799208333333333
0
SEQEND
8
0
0
POLYLINE
8
0
70
0
66
1
0
VERTEX
8
0
10
0.3986222222222222
20
1.8799208333333333
42
0.4142647747028224
0
VERTEX
8
0
10
0.3868166666666666
20
1.8917263888888887
42
0.4144619588839422
0
VERTEX
8
0
10
0.3749972222222222
20
1.8799208333333333
42
0.4144619588839398
0
VERTEX
8
0
10
0.3868166666666666
20
1.8681152777777776
42
0.4142647747028346
0
VERTEX
8
0
10
0.3986222222222222
20
1.8799208333333333
0
SEQEND
8
0
0
POLYLINE
8
0
70
0
66
1
0
VERTEX
8
0
10
2.5152361111111112
20
2.1299208333333333
42
0.4142361111111254
0
VERTEX
8
0
10
2.485236111111111
20
2.1599208333333331
42
0.4142361111111176
0
VERTEX
8
0
10
2.4552361111111112
20
2.1299208333333333
42
0.414236111111106
0
VERTEX
8
0
10
2.485236111111111
20
2.099920833333333
42
0.4142361111111294
0
VERTEX
8
0
10
2.5152361111111112
20
2.1299208333333333
0
SEQEND
8
0
0
POLYLINE
8
0
70
0
66
1
0
VERTEX
8
0
10
2.398622222222222
20
2.1299208333333333
42
0.4142647747027919
0
VERTEX
8
0
10
2.3868166666666664
20
2.1417263888888884
42
0.4144619588839105
0
VERTEX
8
0
10
2.374997222222222
20
2.1299208333333333
42
0.4144619588839398
0
VERTEX
8
0
10
2.3868166666666664
20
2.1181152777777776
42
0.414264774702831
0
VERTEX
8
0
10
2.398622222222222
20
2.1299208333333333
0
SEQEND
8
0
0
POLYLINE
8
0
70
0
66
1
0
VERTEX
8
0
10
2.6348430555555553
20
2.1299208333333333
42
0.4142647747028211
0
VERTEX
8
0
10
2.6230374999999997
20
2.1417263888888884
42
0.4144619588839105
0
VERTEX
8
0
10
2.6112180555555553
20
2.1299208333333333
42
0.4144619588839398
0
VERTEX
8
0
10
2.6230374999999997
20
2.1181152777777776
42
0.4142647747027722
0
VERTEX
8
0
10
2.6348430555555553
20
2.1299208333333333
0
SEQEND
8
0
0
POLYLINE
8
0
70
0
66
1
0
VERTEX
8
0
10
0.5152361111111111
20
1.8799208333333333
42
0.4142361111111176
0
VERTEX
8
0
10
0.485236111111111
20
1.9099208333333331
42
0.4142361111111167
0
VERTEX
8
0
10
0.4552361111111111
20
1.8799208333333333
42
0.4142361111111169
0
VERTEX
8
0
10
0.485236111111111
20
1.8499208333333332
42
0.4142361111111169
0
VERTEX
8
0
10
0.5152361111111111
20
1.8799208333333333
0
SEQEND
8
0
0
POLYLINE
8
0
70
0
66
1
0
VERTEX
8
0
10
2.6348430555555553
20
0.6299208333333334
42
0.4142647747028237
0
VERTEX
8
0
10
2.6230374999999997
20
0.6417263888888889
42
0.4144619588839373
0
VERTEX
8
0
10
2.6112180555555553
20
0.6299208333333334
42
0.4144619588839373
0
VERTEX
8
0
10
2.6230374999999997
20
0.6181152777777778
42
0.4142647747027748
0
VERTEX
8
0
10
2.6348430555555553
20
0.6299208333333334
0
SEQEND
8
0
0
POLYLINE
8
0
70
0
66
1
0
VERTEX
8
0
10
2.398622222222222
20
0.6299208333333334
42
0.4142647747028382
0
VERTEX
8
0
10
2.3868166666666664
20
0.6417263888888889
42
0.4144619588839177
0
VERTEX
8
0
10
2.374997222222222
20
0.6299208333333334
42
0.4144619588839423
0
VERTEX
8
0
10
2.3868166666666664
20
0.6181152777777778
42
0.4142647747028333
0
VERTEX
8
0
10
2.398622222222222
20
0.6299208333333334
0
SEQEND
8
0
0
POLYLINE
8
0
70
0
66
1
0
VERTEX
8
0
10
2.398622222222222
20
0.8799208333333333
42
0.4142647747028382
0
VERTEX
8
0
10
2.3868166666666664
20
0.8917263888888889
42
0.4144619588839177
0
VERTEX
8
0
10
2.374997222222222
20
0.8799208333333333
42
0.4144619588839423
0
VERTEX
8
0
10
2.3868166666666664
20
0.8681152777777778
42
0.4142647747028333
0
VERTEX
8
0
10
2.398622222222222
20
0.8799208333333333
0
SEQEND
8
0
0
POLYLINE
8
0
70
0
66
1
0
VERTEX
8
0
10
2.5152361111111112
20
0.8799208333333333
42
0.4142361111111265
0
VERTEX
8
0
10
2.485236111111111
20
0.9099208333333334
42
0.4142361111111129
0
VERTEX
8
0
10
2.4552361111111112
20
0.8799208333333333
42
0.4142361111111072
0
VERTEX
8
0
10
2.485236111111111
20
0.8499208333333332
42
0.4142361111110994
0
VERTEX
8
0
10
2.5152361111111112
20
0.8799208333333333
0
SEQEND
8
0
0
POLYLINE
8
0
70
0
66
1
0
VERTEX
8
0
10
0.6348430555555555
20
0.8799208333333333
42
0.414264774702831
0
VERTEX
8
0
10
0.6230374999999999
20
0.8917263888888889
42
0.4144619588839373
0
VERTEX
8
0
10
0.6112180555555555
20
0.8799208333333333
42
0.414461958883935
0
VERTEX
8
0
10
0.6230374999999999
20
0.8681152777777778
42
0.4142647747028164
0
VERTEX
8
0
10
0.6348430555555555
20
0.8799208333333333
0
SEQEND
8
0
0
POLYLINE
8
0
70
0
66
1
0
VERTEX
8
0
10
0.3986222222222222
20
0.8799208333333333
42
0.4142647747028296
0
VERTEX
8
0
10
0.3868166666666666
20
0.8917263888888889
42
0.4144619588839385
0
VERTEX
8
0
10
0.3749972222222222
20
0.8799208333333333
42
0.4144619588839374
0
VERTEX
8
0
10
0.3868166666666666
20
0.8681152777777778
42
0.4142647747028188
0
VERTEX
8
0
10
0.3986222222222222
20
0.8799208333333333
0
SEQEND
8
0
0
POLYLINE
8
0
70
0
66
1
0
VERTEX
8
0
10
2.5152361111111112
20
1.1299208333333333
42
0.4142361111111254
0
VERTEX
8
0
10
2.485236111111111
20
1.1599208333333331
42
0.4142361111111138
0
VERTEX
8
0
10
2.4552361111111112
20
1.1299208333333333
42
0.4142361111111196
0
VERTEX
8
0
10
2.485236111111111
20
1.0999208333333332
42
0.4142361111111294
0
VERTEX
8
0
10
2.5152361111111112
20
1.1299208333333333
0
SEQEND
8
0
0
POLYLINE
8
0
70
0
66
1
0
VERTEX
8
0
10
2.398622222222222
20
1.1299208333333333
42
0.4142647747028211
0
VERTEX
8
0
10
2.3868166666666664
20
1.1417263888888887
42
0.4144619588839202
0
VERTEX
8
0
10
2.374997222222222
20
1.1299208333333333
42
0.4144619588839398
0
VERTEX
8
0
10
2.3868166666666664
20
1.1181152777777776
42
0.414264774702831
0
VERTEX
8
0
10
2.398622222222222
20
1.1299208333333333
0
SEQEND
8
0
0
POLYLINE
8
0
70
0
66
1
0
VERTEX
8
0
10
2.6348430555555553
20
1.1299208333333333
42
0.4142647747028211
0
VERTEX
8
0
10
2.6230374999999997
20
1.1417263888888887
42
0.4144619588839105
0
VERTEX
8
0
10
2.6112180555555553
20
1.1299208333333333
42
0.414461958883935
0
VERTEX
8
0
10
2.6230374999999997
20
1.1181152777777776
42
0.4142647747027722
0
VERTEX
8
0
10
2.6348430555555553
20
1.1299208333333333
0
SEQEND
8
0
0
POLYLINE
8
0
70
0
66
1
0
VERTEX
8
0
10
0.5152361111111111
20
0.8799208333333333
42
0.4142361111111197
0
VERTEX
8
0
10
0.485236111111111
20
0.9099208333333334
42
0.4142361111111109
0
VERTEX
8
0
10
0.4552361111111111
20
0.8799208333333333
42
0.41423611111111
0
VERTEX
8
0
10
0.485236111111111
20
0.8499208333333332
42
0.414236111111108
0
VERTEX
8
0
10
0.5152361111111111
20
0.8799208333333333
0
SEQEND
8
0
0
POLYLINE
8
0
70
0
66
1
0
VERTEX
8
0
10
2.5152361111111112
20
0.6299208333333334
42
0.4142361111111127
0
VERTEX
8
0
10
2.485236111111111
20
0.6599208333333334
42
0.4142361111111167
0
VERTEX
8
0
10
2.4552361111111112
20
0.6299208333333334
42
0.4142361111111072
0
VERTEX
8
0
10
2.485236111111111
20
0.5999208333333332
42
0.4142361111110994
0
VERTEX
8
0
10
2.5152361111111112
20
0.6299208333333334
0
SEQEND
8
0
0
POLYLINE
8
0
70
0
66
1
0
VERTEX
8
0
10
1.6348430555555553
20
0.6299208333333334
42
0.4142647747028333
0
VERTEX
8
0
10
1.6230374999999999
20
0.6417263888888889
42
0.4144619588839275
0
VERTEX
8
0
10
1.6112180555555555
20
0.6299208333333334
42
0.4144619588839177
0
VERTEX
8
0
10
1.6230374999999999
20
0.6181152777777778
42
0.4142647747027992
0
VERTEX
8
0
10
1.6348430555555553
20
0.6299208333333334
0
SEQEND
8
0
0
POLYLINE
8
0
70
0
66
1
0
VERTEX
8
0
10
1.3986222222222222
20
0.6299208333333334
42
0.4142647747028359
0
VERTEX
8
0
10
1.3868166666666666
20
0.6417263888888889
42
0.4144619588839324
0
VERTEX
8
0
10
1.3749972222222222
20
0.6299208333333334
42
0.4144619588839447
0
VERTEX
8
0
10
1.3868166666666666
20
0.6181152777777778
42
0.4142647747028138
0
VERTEX
8
0
10
1.3986222222222222
20
0.6299208333333334
0
SEQEND
8
0
0
POLYLINE
8
0
70
0
66
1
0
VERTEX
8
0
10
1.515236111111111
20
0.6299208333333334
42
0.4142361111111148
0
VERTEX
8
0
10
1.485236111111111
20
0.6599208333333334
42
0.4142361111111033
0
VERTEX
8
0
10
1.455236111111111
20
0.6299208333333334
42
0.4142361111111062
0
VERTEX
8
0
10
1.485236111111111
20
0.5999208333333332
42
0.4142361111111013
0
VERTEX
8
0
10
1.515236111111111
20
0.6299208333333334
0
SEQEND
8
0
0
POLYLINE
8
0
70
0
66
1
0
VERTEX
8
0
10
2.6348430555555553
20
0.8799208333333333
42
0.4142647747028237
0
VERTEX
8
0
10
2.6230374999999997
20
0.8917263888888889
42
0.4144619588839373
0
VERTEX
8
0
10
2.6112180555555553
20
0.8799208333333333
42
0.4144619588839373
0
VERTEX
8
0
10
2.6230374999999997
20
0.8681152777777778
42
0.4142647747027748
0
VERTEX
8
0
10
2.6348430555555553
20
0.8799208333333333
0
SEQEND
8
0
0
POLYLINE
8
0
70
0
66
1
0
VERTEX
8
0
10
0.5152361111111111
20
0.6299208333333334
42
0.4142361111111119
0
VERTEX
8
0
10
0.485236111111111
20
0.6599208333333334
42
0.4142361111111109
0
VERTEX
8
0
10
0.4552361111111111
20
0.6299208333333334
42
0.41423611111111
0
VERTEX
8
0
10
0.485236111111111
20
0.5999208333333332
42
0.414236111111108
0
VERTEX
8
0
10
0.5152361111111111
20
0.6299208333333334
0
SEQEND
8
0
0
POLYLINE
8
0
70
0
66
1
0
VERTEX
8
0
10
0.3986222222222222
20
0.6299208333333334
42
0.4142647747028296
0
VERTEX
8
0
10
0.3868166666666666
20
0.6417263888888889
42
0.4144619588839447
0
VERTEX
8
0
10
0.3749972222222222
20
0.6299208333333334
42
0.4144619588839374
0
VERTEX
8
0
10
0.3868166666666666
20
0.6181152777777778
42
0.4142647747028164
0
VERTEX
8
0
10
0.3986222222222222
20
0.6299208333333334
0
SEQEND
8
0
0
POLYLINE
8
0
70
0
66
1
0
VERTEX
8
0
10
0.6348430555555555
20
0.6299208333333334
42
0.414264774702831
0
VERTEX
8
0
10
0.6230374999999999
20
0.6417263888888889
42
0.4144619588839373
0
VERTEX
8
0
10
0.6112180555555555
20
0.6299208333333334
42
0.414461958883935
0
VERTEX
8
0
10
0.6230374999999999
20
0.6181152777777778
42
0.4142647747028164
0
VERTEX
8
0
10
0.6348430555555555
20
0.6299208333333334
0
SEQEND
8
0
0
POLYLINE
8
0
70
0
66
1
0
VERTEX
8
0
10
1.515236111111111
20
2.3799208333333333
42
0.4142361111111195
0
VERTEX
8
0
10
1.485236111111111
20
2.4099208333333331
42
0.4142361111111023
0
VERTEX
8
0
10
1.455236111111111
20
2.3799208333333333
42
0.4142361111110927
0
VERTEX
8
0
10
1.485236111111111
20
2.349920833333333
42
0.4142361111111158
0
VERTEX
8
0
10
1.515236111111111
20
2.3799208333333333
0
SEQEND
8
0
0
POLYLINE
8
0
70
0
66
1
0
VERTEX
8
0
10
1.3986222222222222
20
2.1299208333333333
42
0.4142647747028161
0
VERTEX
8
0
10
1.3868166666666666
20
2.1417263888888884
42
0.4144619588839251
0
VERTEX
8
0
10
1.3749972222222222
20
2.1299208333333333
42
0.4144619588839251
0
VERTEX
8
0
10
1.3868166666666666
20
2.1181152777777776
42
0.4142647747028114
0
VERTEX
8
0
10
1.3986222222222222
20
2.1299208333333333
0
SEQEND
8
0
0
POLYLINE
8
0
70
0
66
1
0
VERTEX
8
0
10
1.515236111111111
20
2.1299208333333333
42
0.4142361111111195
0
VERTEX
8
0
10
1.485236111111111
20
2.1599208333333331
42
0.4142361111111023
0
VERTEX
8
0
10
1.455236111111111
20
2.1299208333333333
42
0.4142361111110927
0
VERTEX
8
0
10
1.485236111111111
20
2.099920833333333
42
0.4142361111111158
0
VERTEX
8
0
10
1.515236111111111
20
2.1299208333333333
0
SEQEND
8
0
0
POLYLINE
8
0
70
0
66
1
0
VERTEX
8
0
10
1.6348430555555553
20
2.1299208333333333
42
0.4142647747028161
0
VERTEX
8
0
10
1.6230374999999999
20
2.1417263888888884
42
0.41446195888393
0
VERTEX
8
0
10
1.6112180555555555
20
2.1299208333333333
42
0.4144619588839202
0
VERTEX
8
0
10
1.6230374999999999
20
2.1181152777777776
42
0.4142647747028213
0
VERTEX
8
0
10
1.6348430555555553
20
2.1299208333333333
0
SEQEND
8
0
0
POLYLINE
8
0
70
0
66
1
0
VERTEX
8
0
10
0.6348430555555555
20
2.3799208333333333
42
0.4142647747027992
0
VERTEX
8
0
10
0.6230374999999999
20
2.3917263888888884
42
0.4144619588839055
0
VERTEX
8
0
10
0.6112180555555555
20
2.3799208333333333
42
0.4144619588839081
0
VERTEX
8
0
10
0.6230374999999999
20
2.3681152777777776
42
0.4142647747028382
0
VERTEX
8
0
10
0.6348430555555555
20
2.3799208333333333
0
SEQEND
8
0
0
POLYLINE
8
0
70
0
66
1
0
VERTEX
8
0
10
0.3986222222222222
20
2.3799208333333333
42
0.4142647747028005
0
VERTEX
8
0
10
0.3868166666666666
20
2.3917263888888884
42
0.4144619588839422
0
VERTEX
8
0
10
0.3749972222222222
20
2.3799208333333333
42
0.4144619588839398
0
VERTEX
8
0
10
0.3868166666666666
20
2.3681152777777776
42
0.4142647747028346
0
VERTEX
8
0
10
0.3986222222222222
20
2.3799208333333333
0
SEQEND
8
0
0
POLYLINE
8
0
70
0
66
1
0
VERTEX
8
0
10
0.5152361111111111
20
2.3799208333333333
42
0.4142361111111176
0
VERTEX
8
0
10
0.485236111111111
20
2.4099208333333331
42
0.4142361111111167
0
VERTEX
8
0
10
0.4552361111111111
20
2.3799208333333333
42
0.4142361111111042
0
VERTEX
8
0
10
0.485236111111111
20
2.349920833333333
42
0.4142361111111169
0
VERTEX
8
0
10
0.5152361111111111
20
2.3799208333333333
0
SEQEND
8
0
0
POLYLINE
8
0
70
0
66
1
0
VERTEX
8
0
10
1.1299208333333333
20
1.5049208333333333
42
0.4142499999999995
0
VERTEX
8
0
10
1.0049208333333333
20
1.6299208333333333
42
0.4142500000000001
0
VERTEX
8
0
10
0.8799208333333333
20
1.5049208333333333
42
0.41425
0
VERTEX
8
0
10
1.0049208333333333
20
1.3799208333333333
42
0.4142499999999992
0
VERTEX
8
0
10
1.1299208333333333
20
1.5049208333333333
0
SEQEND
8
0
0
POLYLINE
8
0
70
0
66
1
0
VERTEX
8
0
10
0.3799208333333333
20
0.2549208333333333
42
0.41425
0
VERTEX
8
0
10
0.2549208333333333
20
0.3799208333333333
42
0.4142499999999998
0
VERTEX
8
0
10
0.1299208333333333
20
0.2549208333333333
42
0.4142499999999998
0
VERTEX
8
0
10
0.2549208333333333
20
0.1299208333333333
42
0.4142500000000005
0
VERTEX
8
0
10
0.3799208333333333
20
0.2549208333333333
0
SEQEND
8
0
0
POLYLINE
8
0
70
0
66
1
0
VERTEX
8
0
10
0.3799208333333333
20
2.7549208333333333
42
0.4142499999999992
0
VERTEX
8
0
10
0.2549208333333333
20
2.8799208333333333
42
0.4142499999999993
0
VERTEX
8
0
10
0.1299208333333333
20
2.7549208333333333
42
0.4142499999999993
0
VERTEX
8
0
10
0.2549208333333333
20
2.6299208333333333
42
0.4142499999999992
0
VERTEX
8
0
10
0.3799208333333333
20
2.7549208333333333
0
SEQEND
8
0
0
POLYLINE
8
0
70
0
66
1
0
VERTEX
8
0
10
0.0049208333333333
20
3.0049208333333333
0
VERTEX
8
0
10
0.0049208333333333
20
0.0049208333333333
0
SEQEND
8
0
0
POLYLINE
8
0
70
0
66
1
0
VERTEX
8
0
10
0.0049208333333333
20
0.0049208333333333
0
VERTEX
8
0
10
3.0049208333333333
20
0.0049208333333333
0
SEQEND
8
0
0
POLYLINE
8
0
70
0
66
1
0
VERTEX
8
0
10
3.0049208333333333
20
0.0049208333333333
0
VERTEX
8
0
10
3.0049208333333333
20
3.0049208333333333
0
SEQEND
8
0
0
POLYLINE
8
0
70
0
66
1
0
VERTEX
8
0
10
3.0049208333333333
20
3.0049208333333333
0
VERTEX
8
0
10
0.0049208333333333
20
3.0049208333333333
0
SEQEND
8
0
0
POLYLINE
8
0
70
0
66
1
0
VERTEX
8
0
10
2.8799208333333333
20
2.7549208333333333
42
0.4142499999999997
0
VERTEX
8
0
10
2.7549208333333333
20
2.8799208333333333
42
0.4142500000000014
0
VERTEX
8
0
10
2.6299208333333333
20
2.7549208333333333
42
0.4142500000000005
0
VERTEX
8
0
10
2.7549208333333333
20
2.6299208333333333
42
0.4142499999999997
0
VERTEX
8
0
10
2.8799208333333333
20
2.7549208333333333
0
SEQEND
8
0
0
POLYLINE
8
0
70
0
66
1
0
VERTEX
8
0
10
2.8799208333333333
20
0.2549208333333333
42
0.41425
0
VERTEX
8
0
10
2.7549208333333333
20
0.3799208333333333
42
0.4142500000000013
0
VERTEX
8
0
10
2.6299208333333333
20
0.2549208333333333
42
0.4142500000000006
0
VERTEX
8
0
10
2.7549208333333333
20
0.1299208333333333
42
0.4142499999999997
0
VERTEX
8
0
10
2.8799208333333333
20
0.2549208333333333
0
SEQEND
8
0
0
POLYLINE
8
0
70
0
66
1
0
VERTEX
8
0
10
2.1299208333333333
20
1.5049208333333333
42
0.4142500000000005
0
VERTEX
8
0
10
2.0049208333333333
20
1.6299208333333333
42
0.4142500000000023
0
VERTEX
8
0
10
1.8799208333333333
20
1.5049208333333333
42
0.4142500000000016
0
VERTEX
8
0
10
2.0049208333333333
20
1.3799208333333333
42
0.4142500000000016
0
VERTEX
8
0
10
2.1299208333333333
20
1.5049208333333333
0
SEQEND
8
0
0
POLYLINE
8
0
70
0
66
1
0
VERTEX
8
0
10
1.6348430555555553
20
1.8799208333333333
42
0.4142647747028359
0
VERTEX
8
0
10
1.6230374999999999
20
1.8917263888888887
42
0.41446195888393
0
VERTEX
8
0
10
1.6112180555555555
20
1.8799208333333333
42
0.4144619588839202
0
VERTEX
8
0
10
1.6230374999999999
20
1.8681152777777776
42
0.4142647747028213
0
VERTEX
8
0
10
1.6348430555555553
20
1.8799208333333333
0
SEQEND
8
0
0
POLYLINE
8
0
70
0
66
1
0
VERTEX
8
0
10
1.6348430555555553
20
1.6299208333333333
42
0.414264774702831
0
VERTEX
8
0
10
1.6230374999999999
20
1.6417263888888887
42
0.4144619588839055
0
VERTEX
8
0
10
1.6112180555555555
20
1.6299208333333333
42
0.4144619588839152
0
VERTEX
8
0
10
1.6230374999999999
20
1.6181152777777776
42
0.4142647747027969
0
VERTEX
8
0
10
1.6348430555555553
20
1.6299208333333333
0
SEQEND
8
0
0
POLYLINE
8
0
70
0
66
1
0
VERTEX
8
0
10
1.6348430555555553
20
1.3799208333333333
42
0.414264774702831
0
VERTEX
8
0
10
1.6230374999999999
20
1.3917263888888887
42
0.4144619588839055
0
VERTEX
8
0
10
1.6112180555555555
20
1.3799208333333333
42
0.4144619588839152
0
VERTEX
8
0
10
1.6230374999999999
20
1.3681152777777776
42
0.4142647747027969
0
VERTEX
8
0
10
1.6348430555555553
20
1.3799208333333333
0
SEQEND
8
0
0
POLYLINE
8
0
70
0
66
1
0
VERTEX
8
0
10
1.6348430555555553
20
1.1299208333333333
42
0.414264774702831
0
VERTEX
8
0
10
1.6230374999999999
20
1.1417263888888887
42
0.4144619588839055
0
VERTEX
8
0
10
1.6112180555555555
20
1.1299208333333333
42
0.4144619588839152
0
VERTEX
8
0
10
1.6230374999999999
20
1.1181152777777776
42
0.4142647747027969
0
VERTEX
8
0
10
1.6348430555555553
20
1.1299208333333333
0
SEQEND
8
0
0
POLYLINE
8
0
70
0
66
1
0
VERTEX
8
0
10
1.6348430555555553
20
0.8799208333333333
42
0.4142647747028333
0
VERTEX
8
0
10
1.6230374999999999
20
0.8917263888888889
42
0.4144619588839275
0
VERTEX
8
0
10
1.6112180555555555
20
0.8799208333333333
42
0.4144619588839177
0
VERTEX
8
0
10
1.6230374999999999
20
0.8681152777777778
42
0.4142647747027992
0
VERTEX
8
0
10
1.6348430555555553
20
0.8799208333333333
0
SEQEND
8
0
0
POLYLINE
8
0
70
0
66
1
0
VERTEX
8
0
10
1.515236111111111
20
1.8799208333333333
42
0.4142361111111195
0
VERTEX
8
0
10
1.485236111111111
20
1.9099208333333331
42
0.4142361111111023
0
VERTEX
8
0
10
1.455236111111111
20
1.8799208333333333
42
0.4142361111111176
0
VERTEX
8
0
10
1.485236111111111
20
1.8499208333333332
42
0.4142361111111158
0
VERTEX
8
0
10
1.515236111111111
20
1.8799208333333333
0
SEQEND
8
0
0
POLYLINE
8
0
70
0
66
1
0
VERTEX
8
0
10
1.515236111111111
20
1.6299208333333333
42
0.4142361111111215
0
VERTEX
8
0
10
1.485236111111111
20
1.6599208333333331
42
0.4142361111111061
0
VERTEX
8
0
10
1.455236111111111
20
1.6299208333333333
42
0.4142361111111139
0
VERTEX
8
0
10
1.485236111111111
20
1.5999208333333332
42
0.4142361111111137
0
VERTEX
8
0
10
1.515236111111111
20
1.6299208333333333
0
SEQEND
8
0
0
POLYLINE
8
0
70
0
66
1
0
VERTEX
8
0
10
1.515236111111111
20
1.3799208333333333
42
0.4142361111111215
0
VERTEX
8
0
10
1.485236111111111
20
1.4099208333333331
42
0.4142361111111061
0
VERTEX
8
0
10
1.455236111111111
20
1.3799208333333333
42
0.4142361111111139
0
VERTEX
8
0
10
1.485236111111111
20
1.3499208333333332
42
0.4142361111111137
0
VERTEX
8
0
10
1.515236111111111
20
1.3799208333333333
0
SEQEND
8
0
0
POLYLINE
8
0
70
0
66
1
0
VERTEX
8
0
10
1.515236111111111
20
1.1299208333333333
42
0.4142361111111215
0
VERTEX
8
0
10
1.485236111111111
20
1.1599208333333331
42
0.4142361111111061
0
VERTEX
8
0
10
1.455236111111111
20
1.1299208333333333
42
0.4142361111111139
0
VERTEX
8
0
10
1.485236111111111
20
1.0999208333333332
42
0.4142361111111137
0
VERTEX
8
0
10
1.515236111111111
20
1.1299208333333333
0
SEQEND
8
0
0
POLYLINE
8
0
70
0
66
1
0
VERTEX
8
0
10
1.515236111111111
20
0.8799208333333333
42
0.4142361111111254
0
VERTEX
8
0
10
1.485236111111111
20
0.9099208333333334
42
0.4142361111110994
0
VERTEX
8
0
10
1.455236111111111
20
0.8799208333333333
42
0.4142361111111062
0
VERTEX
8
0
10
1.485236111111111
20
0.8499208333333332
42
0.4142361111111013
0
VERTEX
8
0
10
1.515236111111111
20
0.8799208333333333
0
SEQEND
8
0
0
POLYLINE
8
0
70
0
66
1
0
VERTEX
8
0
10
1.3986222222222222
20
1.8799208333333333
42
0.414264774702826
0
VERTEX
8
0
10
1.3868166666666666
20
1.8917263888888887
42
0.4144619588839251
0
VERTEX
8
0
10
1.3749972222222222
20
1.8799208333333333
42
0.4144619588839251
0
VERTEX
8
0
10
1.3868166666666666
20
1.8681152777777776
42
0.4142647747028114
0
VERTEX
8
0
10
1.3986222222222222
20
1.8799208333333333
0
SEQEND
8
0
0
POLYLINE
8
0
70
0
66
1
0
VERTEX
8
0
10
1.3986222222222222
20
1.6299208333333333
42
0.4142647747028359
0
VERTEX
8
0
10
1.3868166666666666
20
1.6417263888888887
42
0.4144619588839447
0
VERTEX
8
0
10
1.3749972222222222
20
1.6299208333333333
42
0.414461958883935
0
VERTEX
8
0
10
1.3868166666666666
20
1.6181152777777776
42
0.4142647747028359
0
VERTEX
8
0
10
1.3986222222222222
20
1.6299208333333333
0
SEQEND
8
0
0
POLYLINE
8
0
70
0
66
1
0
VERTEX
8
0
10
1.3986222222222222
20
1.3799208333333333
42
0.4142647747028408
0
VERTEX
8
0
10
1.3868166666666666
20
1.3917263888888887
42
0.4144619588839447
0
VERTEX
8
0
10
1.3749972222222222
20
1.3799208333333333
42
0.4144619588839447
0
VERTEX
8
0
10
1.3868166666666666
20
1.3681152777777776
42
0.4142647747028359
0
VERTEX
8
0
10
1.3986222222222222
20
1.3799208333333333
0
SEQEND
8
0
0
POLYLINE
8
0
70
0
66
1
0
VERTEX
8
0
10
1.3986222222222222
20
1.1299208333333333
42
0.4142647747028408
0
VERTEX
8
0
10
1.3868166666666666
20
1.1417263888888887
42
0.4144619588839447
0
VERTEX
8
0
10
1.3749972222222222
20
1.1299208333333333
42
0.4144619588839447
0
VERTEX
8
0
10
1.3868166666666666
20
1.1181152777777776
42
0.4142647747028359
0
VERTEX
8
0
10
1.3986222222222222
20
1.1299208333333333
0
SEQEND
8
0
0
POLYLINE
8
0
70
0
66
1
0
VERTEX
8
0
10
1.3986222222222222
20
0.8799208333333333
42
0.4142647747028359
0
VERTEX
8
0
10
1.3868166666666666
20
0.8917263888888889
42
0.4144619588839324
0
VERTEX
8
0
10
1.3749972222222222
20
0.8799208333333333
42
0.4144619588839447
0
VERTEX
8
0
10
1.3868166666666666
20
0.8681152777777778
42
0.4142647747028138
0
VERTEX
8
0
10
1.3986222222222222
20
0.8799208333333333
0
SEQEND
8
0
0
POLYLINE
8
0
70
0
66
1
0
VERTEX
8
0
10
0.0
20
3.0098472222222221
0
VERTEX
8
0
10
3.0098472222222221
20
3.0098472222222221
0
VERTEX
8
0
10
3.0098472222222221
20
-0.0
0
VERTEX
8
0
10
0.0
20
-0.0
0
VERTEX
8
0
10
0.0
20
3.0098472222222221
0
SEQEND
8
0
0
POLYLINE
8
0
70
0
66
1
0
VERTEX
8
0
10
2.5152361111111112
20
1.6299208333333333
42
0.4142361111111254
0
VERTEX
8
0
10
2.485236111111111
20
1.6599208333333331
42
0.4142361111111138
0
VERTEX
8
0
10
2.4552361111111112
20
1.6299208333333333
42
0.4142361111111196
0
VERTEX
8
0
10
2.485236111111111
20
1.5999208333333332
42
0.4142361111111294
0
VERTEX
8
0
10
2.5152361111111112
20
1.6299208333333333
0
SEQEND
8
0
0
POLYLINE
8
0
70
0
66
1
0
VERTEX
8
0
10
2.398622222222222
20
1.6299208333333333
42
0.4142647747028211
0
VERTEX
8
0
10
2.3868166666666664
20
1.6417263888888887
42
0.4144619588839495
0
VERTEX
8
0
10
2.374997222222222
20
1.6299208333333333
42
0.4144619588839398
0
VERTEX
8
0
10
2.3868166666666664
20
1.6181152777777776
42
0.414264774702831
0
VERTEX
8
0
10
2.398622222222222
20
1.6299208333333333
0
SEQEND
8
0
0
POLYLINE
8
0
70
0
66
1
0
VERTEX
8
0
10
2.6348430555555553
20
1.6299208333333333
42
0.4142647747028211
0
VERTEX
8
0
10
2.6230374999999997
20
1.6417263888888887
42
0.4144619588839105
0
VERTEX
8
0
10
2.6112180555555553
20
1.6299208333333333
42
0.414461958883935
0
VERTEX
8
0
10
2.6230374999999997
20
1.6181152777777776
42
0.4142647747027722
0
VERTEX
8
0
10
2.6348430555555553
20
1.6299208333333333
0
SEQEND
8
0
0
POLYLINE
8
0
70
0
66
1
0
VERTEX
8
0
10
0.5152361111111111
20
1.3799208333333333
42
0.4142361111111187
0
VERTEX
8
0
10
0.485236111111111
20
1.4099208333333331
42
0.4142361111111129
0
VERTEX
8
0
10
0.4552361111111111
20
1.3799208333333333
42
0.414236111111114
0
VERTEX
8
0
10
0.485236111111111
20
1.3499208333333332
42
0.414236111111114
0
VERTEX
8
0
10
0.5152361111111111
20
1.3799208333333333
0
SEQEND
8
0
0
POLYLINE
8
0
70
0
66
1
0
VERTEX
8
0
10
2.6348430555555553
20
1.8799208333333333
42
0.4142647747028211
0
VERTEX
8
0
10
2.6230374999999997
20
1.8917263888888887
42
0.4144619588839105
0
VERTEX
8
0
10
2.6112180555555553
20
1.8799208333333333
42
0.4144619588839398
0
VERTEX
8
0
10
2.6230374999999997
20
1.8681152777777776
42
0.4142647747027722
0
VERTEX
8
0
10
2.6348430555555553
20
1.8799208333333333
0
SEQEND
8
0
0
POLYLINE
8
0
70
0
66
1
0
VERTEX
8
0
10
0.5152361111111111
20
1.6299208333333333
42
0.4142361111111187
0
VERTEX
8
0
10
0.485236111111111
20
1.6599208333333331
42
0.4142361111111129
0
VERTEX
8
0
10
0.4552361111111111
20
1.6299208333333333
42
0.414236111111114
0
VERTEX
8
0
10
0.485236111111111
20
1.5999208333333332
42
0.414236111111114
0
VERTEX
8
0
10
0.5152361111111111
20
1.6299208333333333
0
SEQEND
8
0
0
POLYLINE
8
0
70
0
66
1
0
VERTEX
8
0
10
0.3986222222222222
20
1.6299208333333333
42
0.4142647747028296
0
VERTEX
8
0
10
0.3868166666666666
20
1.6417263888888887
42
0.4144619588839386
0
VERTEX
8
0
10
0.3749972222222222
20
1.6299208333333333
42
0.4144619588839313
0
VERTEX
8
0
10
0.3868166666666666
20
1.6181152777777776
42
0.4142647747028296
0
VERTEX
8
0
10
0.3986222222222222
20
1.6299208333333333
0
SEQEND
8
0
0
POLYLINE
8
0
70
0
66
1
0
VERTEX
8
0
10
0.6348430555555555
20
1.6299208333333333
42
0.414264774702831
0
VERTEX
8
0
10
0.6230374999999999
20
1.6417263888888887
42
0.4144619588839276
0
VERTEX
8
0
10
0.6112180555555555
20
1.6299208333333333
42
0.4144619588839326
0
VERTEX
8
0
10
0.6230374999999999
20
1.6181152777777776
42
0.4142647747028382
0
VERTEX
8
0
10
0.6348430555555555
20
1.6299208333333333
0
SEQEND
8
0
0
POLYLINE
8
0
70
0
66
1
0
VERTEX
8
0
10
2.6348430555555553
20
1.3799208333333333
42
0.4142647747028211
0
VERTEX
8
0
10
2.6230374999999997
20
1.3917263888888887
42
0.4144619588839105
0
VERTEX
8
0
10
2.6112180555555553
20
1.3799208333333333
42
0.414461958883935
0
VERTEX
8
0
10
2.6230374999999997
20
1.3681152777777776
42
0.4142647747027722
0
VERTEX
8
0
10
2.6348430555555553
20
1.3799208333333333
0
SEQEND
8
0
0
POLYLINE
8
0
70
0
66
1
0
VERTEX
8
0
10
0.5152361111111111
20
1.1299208333333333
42
0.4142361111111187
0
VERTEX
8
0
10
0.485236111111111
20
1.1599208333333331
42
0.4142361111111129
0
VERTEX
8
0
10
0.4552361111111111
20
1.1299208333333333
42
0.414236111111114
0
VERTEX
8
0
10
0.485236111111111
20
1.0999208333333332
42
0.414236111111114
0
VERTEX
8
0
10
0.5152361111111111
20
1.1299208333333333
0
SEQEND
8
0
0
POLYLINE
8
0
70
0
66
1
0
VERTEX
8
0
10
0.3986222222222222
20
1.1299208333333333
42
0.4142647747028296
0
VERTEX
8
0
10
0.3868166666666666
20
1.1417263888888887
42
0.4144619588839263
0
VERTEX
8
0
10
0.3749972222222222
20
1.1299208333333333
42
0.4144619588839313
0
VERTEX
8
0
10
0.3868166666666666
20
1.1181152777777776
42
0.4142647747028296
0
VERTEX
8
0
10
0.3986222222222222
20
1.1299208333333333
0
SEQEND
8
0
0
POLYLINE
8
0
70
0
66
1
0
VERTEX
8
0
10
0.6348430555555555
20
1.1299208333333333
42
0.414264774702831
0
VERTEX
8
0
10
0.6230374999999999
20
1.1417263888888887
42
0.4144619588839349
0
VERTEX
8
0
10
0.6112180555555555
20
1.1299208333333333
42
0.4144619588839326
0
VERTEX
8
0
10
0.6230374999999999
20
1.1181152777777776
42
0.414264774702831
0
VERTEX
8
0
10
0.6348430555555555
20
1.1299208333333333
0
SEQEND
8
0
0
POLYLINE
8
0
70
0
66
1
0
VERTEX
8
0
10
2.398622222222222
20
1.3799208333333333
42
0.4142647747028211
0
VERTEX
8
0
10
2.3868166666666664
20
1.3917263888888887
42
0.4144619588839495
0
VERTEX
8
0
10
2.374997222222222
20
1.3799208333333333
42
0.4144619588839398
0
VERTEX
8
0
10
2.3868166666666664
20
1.3681152777777776
42
0.414264774702831
0
VERTEX
8
0
10
2.398622222222222
20
1.3799208333333333
0
SEQEND
8
0
0
POLYLINE
8
0
70
0
66
1
0
VERTEX
8
0
10
2.5152361111111112
20
1.3799208333333333
42
0.4142361111111254
0
VERTEX
8
0
10
2.485236111111111
20
1.4099208333333331
42
0.4142361111111138
0
VERTEX
8
0
10
2.4552361111111112
20
1.3799208333333333
42
0.4142361111111196
0
VERTEX
8
0
10
2.485236111111111
20
1.3499208333333332
42
0.4142361111111294
0
VERTEX
8
0
10
2.5152361111111112
20
1.3799208333333333
0
SEQEND
8
0
0
POLYLINE
8
0
70
0
66
1
0
VERTEX
8
0
10
0.6348430555555555
20
1.3799208333333333
42
0.414264774702831
0
VERTEX
8
0
10
0.6230374999999999
20
1.3917263888888887
42
0.4144619588839349
0
VERTEX
8
0
10
0.6112180555555555
20
1.3799208333333333
42
0.4144619588839326
0
VERTEX
8
0
10
0.6230374999999999
20
1.3681152777777776
42
0.414264774702831
0
VERTEX
8
0
10
0.6348430555555555
20
1.3799208333333333
0
SEQEND
8
0
0
POLYLINE
8
0
70
0
66
1
0
VERTEX
8
0
10
0.3986222222222222
20
1.3799208333333333
42
0.4142647747028296
0
VERTEX
8
0
10
0.3868166666666666
20
1.3917263888888887
42
0.4144619588839263
0
VERTEX
8
0
10
0.3749972222222222
20
1.3799208333333333
42
0.4144619588839313
0
VERTEX
8
0
10
0.3868166666666666
20
1.3681152777777776
42
0.4142647747028296
0
VERTEX
8
0
10
0.3986222222222222
20
1.3799208333333333
0
SEQEND
8
0
0
POLYLINE
8
0
70
0
66
1
0
VERTEX
8
0
10
2.6348430555555553
20
2.3799208333333333
42
0.4142647747028211
0
VERTEX
8
0
10
2.6230374999999997
20
2.3917263888888884
42
0.4144619588839105
0
VERTEX
8
0
10
2.6112180555555553
20
2.3799208333333333
42
0.4144619588839398
0
VERTEX
8
0
10
2.6230374999999997
20
2.3681152777777776
42
0.4142647747027722
0
VERTEX
8
0
10
2.6348430555555553
20
2.3799208333333333
0
SEQEND
8
0
0
POLYLINE
8
0
70
0
66
1
0
VERTEX
8
0
10
0.5152361111111111
20
2.1299208333333333
42
0.4142361111111176
0
VERTEX
8
0
10
0.485236111111111
20
2.1599208333333331
42
0.4142361111111167
0
VERTEX
8
0
10
0.4552361111111111
20
2.1299208333333333
42
0.4142361111111042
0
VERTEX
8
0
10
0.485236111111111
20
2.099920833333333
42
0.4142361111111169
0
VERTEX
8
0
10
0.5152361111111111
20
2.1299208333333333
0
SEQEND
8
0
0
POLYLINE
8
0
70
0
66
1
0
VERTEX
8
0
10
0.3986222222222222
20
2.1299208333333333
42
0.4142647747028005
0
VERTEX
8
0
10
0.3868166666666666
20
2.1417263888888884
42
0.4144619588839422
0
VERTEX
8
0
10
0.3749972222222222
20
2.1299208333333333
42
0.4144619588839398
0
VERTEX
8
0
10
0.3868166666666666
20
2.1181152777777776
42
0.4142647747028346
0
VERTEX
8
0
10
0.3986222222222222
20
2.1299208333333333
0
SEQEND
8
0
0
POLYLINE
8
0
70
0
66
1
0
VERTEX
8
0
10
0.6348430555555555
20
2.1299208333333333
42
0.4142647747027992
0
VERTEX
8
0
10
0.6230374999999999
20
2.1417263888888884
42
0.4144619588839055
0
VERTEX
8
0
10
0.6112180555555555
20
2.1299208333333333
42
0.4144619588839081
0
VERTEX
8
0
10
0.6230374999999999
20
2.1181152777777776
42
0.4142647747028382
0
VERTEX
8
0
10
0.6348430555555555
20
2.1299208333333333
0
SEQEND
8
0
0
POLYLINE
8
0
70
0
66
1
0
VERTEX
8
0
10
2.398622222222222
20
2.3799208333333333
42
0.4142647747027919
0
VERTEX
8
0
10
2.3868166666666664
20
2.3917263888888884
42
0.4144619588839105
0
VERTEX
8
0
10
2.374997222222222
20
2.3799208333333333
42
0.4144619588839398
0
VERTEX
8
0
10
2.3868166666666664
20
2.3681152777777776
42
0.414264774702831
0
VERTEX
8
0
10
2.398622222222222
20
2.3799208333333333
0
SEQEND
8
0
0
POLYLINE
8
0
70
0
66
1
0
VERTEX
8
0
10
2.5152361111111112
20
2.3799208333333333
42
0.4142361111111254
0
VERTEX
8
0
10
2.485236111111111
20
2.4099208333333331
42
0.4142361111111176
0
VERTEX
8
0
10
2.4552361111111112
20
2.3799208333333333
42
0.414236111111106
0
VERTEX
8
0
10
2.485236111111111
20
2.349920833333333
42
0.4142361111111294
0
VERTEX
8
0
10
2.5152361111111112
20
2.3799208333333333
0
SEQEND
8
0
0
POLYLINE
8
0
70
0
66
1
0
VERTEX
8
0
10
1.6348430555555553
20
2.3799208333333333
42
0.4142647747028161
0
VERTEX
8
0
10
1.6230374999999999
20
2.3917263888888884
42
0.41446195888393
0
VERTEX
8
0
10
1.6112180555555555
20
2.3799208333333333
42
0.4144619588839202
0
VERTEX
8
0
10
1.6230374999999999
20
2.3681152777777776
42
0.4142647747028213
0
VERTEX
8
0
10
1.6348430555555553
20
2.3799208333333333
0
SEQEND
8
0
0
POLYLINE
8
0
70
0
66
1
0
VERTEX
8
0
10
1.3986222222222222
20
2.3799208333333333
42
0.4142647747028161
0
VERTEX
8
0
10
1.3868166666666666
20
2.3917263888888884
42
0.4144619588839251
0
VERTEX
8
0
10
1.3749972222222222
20
2.3799208333333333
42
0.4144619588839251
0
VERTEX
8
0
10
1.3868166666666666
20
2.3681152777777776
42
0.4142647747028114
0
VERTEX
8
0
10
1.3986222222222222
20
2.3799208333333333
0
SEQEND
8
0
0
POLYLINE
8
0
70
0
66
1
0
VERTEX
8
0
10
2.398622222222222
20
1.8799208333333333
42
0.4142647747028211
0
VERTEX
8
0
10
2.3868166666666664
20
1.8917263888888887
42
0.4144619588839105
0
VERTEX
8
0
10
2.374997222222222
20
1.8799208333333333
42
0.4144619588839398
0
VERTEX
8
0
10
2.3868166666666664
20
1.8681152777777776
42
0.414264774702831
0
VERTEX
8
0
10
2.398622222222222
20
1.8799208333333333
0
SEQEND
8
0
0
POLYLINE
8
0
70
0
66
1
0
VERTEX
8
0
10
2.5152361111111112
20
1.8799208333333333
42
0.4142361111111254
0
VERTEX
8
0
10
2.485236111111111
20
1.9099208333333331
42
0.4142361111111176
0
VERTEX
8
0
10
2.4552361111111112
20
1.8799208333333333
42
0.4142361111111176
0
VERTEX
8
0
10
2.485236111111111
20
1.8499208333333332
42
0.4142361111111294
0
VERTEX
8
0
10
2.5152361111111112
20
1.8799208333333333
0
SEQEND
8
0
0
POLYLINE
8
0
70
0
66
1
0
VERTEX
8
0
10
0.6348430555555555
20
1.8799208333333333
42
0.4142647747028234
0
VERTEX
8
0
10
0.6230374999999999
20
1.8917263888888887
42
0.4144619588839055
0
VERTEX
8
0
10
0.6112180555555555
20
1.8799208333333333
42
0.4144619588839081
0
VERTEX
8
0
10
0.6230374999999999
20
1.8681152777777776
42
0.4142647747028382
0
VERTEX
8
0
10
0.6348430555555555
20
1.8799208333333333
0
SEQEND
8
0
0
POLYLINE
8
0
70
0
66
1
0
VERTEX
8
0
10
0.3986222222222222
20
1.8799208333333333
42
0.4142647747028224
0
VERTEX
8
0
10
0.3868166666666666
20
1.8917263888888887
42
0.4144619588839422
0
VERTEX
8
0
10
0.3749972222222222
20
1.8799208333333333
42
0.4144619588839398
0
VERTEX
8
0
10
0.3868166666666666
20
1.8681152777777776
42
0.4142647747028346
0
VERTEX
8
0
10
0.3986222222222222
20
1.8799208333333333
0
SEQEND
8
0
0
POLYLINE
8
0
70
0
66
1
0
VERTEX
8
0
10
2.5152361111111112
20
2.1299208333333333
42
0.4142361111111254
0
VERTEX
8
0
10
2.485236111111111
20
2.1599208333333331
42
0.4142361111111176
0
VERTEX
8
0
10
2.4552361111111112
20
2.1299208333333333
42
0.414236111111106
0
VERTEX
8
0
10
2.485236111111111
20
2.099920833333333
42
0.4142361111111294
0
VERTEX
8
0
10
2.5152361111111112
20
2.1299208333333333
0
SEQEND
8
0
0
POLYLINE
8
0
70
0
66
1
0
VERTEX
8
0
10
2.398622222222222
20
2.1299208333333333
42
0.4142647747027919
0
VERTEX
8
0
10
2.3868166666666664
20
2.1417263888888884
42
0.4144619588839105
0
VERTEX
8
0
10
2.374997222222222
20
2.1299208333333333
42
0.4144619588839398
0
VERTEX
8
0
10
2.3868166666666664
20
2.1181152777777776
42
0.414264774702831
0
VERTEX
8
0
10
2.398622222222222
20
2.1299208333333333
0
SEQEND
8
0
0
POLYLINE
8
0
70
0
66
1
0
VERTEX
8
0
10
2.6348430555555553
20
2.1299208333333333
42
0.4142647747028211
0
VERTEX
8
0
10
2.6230374999999997
20
2.1417263888888884
42
0.4144619588839105
0
VERTEX
8
0
10
2.6112180555555553
20
2.1299208333333333
42
0.4144619588839398
0
VERTEX
8
0
10
2.6230374999999997
20
2.1181152777777776
42
0.4142647747027722
0
VERTEX
8
0
10
2.6348430555555553
20
2.1299208333333333
0
SEQEND
8
0
0
POLYLINE
8
0
70
0
66
1
0
VERTEX
8
0
10
0.5152361111111111
20
1.8799208333333333
42
0.4142361111111176
0
VERTEX
8
0
10
0.485236111111111
20
1.9099208333333331
42
0.4142361111111167
0
VERTEX
8
0
10
0.4552361111111111
20
1.8799208333333333
42
0.4142361111111169
0
VERTEX
8
0
10
0.485236111111111
20
1.8499208333333332
42
0.4142361111111169
0
VERTEX
8
0
10
0.5152361111111111
20
1.8799208333333333
0
SEQEND
8
0
0
POLYLINE
8
0
70
0
66
1
0
VERTEX
8
0
10
2.6348430555555553
20
0.6299208333333334
42
0.4142647747028237
0
VERTEX
8
0
10
2.6230374999999997
20
0.6417263888888889
42
0.4144619588839373
0
VERTEX
8
0
10
2.6112180555555553
20
0.6299208333333334
42
0.4144619588839373
0
VERTEX
8
0
10
2.6230374999999997
20
0.6181152777777778
42
0.4142647747027748
0
VERTEX
8
0
10
2.6348430555555553
20
0.6299208333333334
0
SEQEND
8
0
0
POLYLINE
8
0
70
0
66
1
0
VERTEX
8
0
10
2.398622222222222
20
0.6299208333333334
42
0.4142647747028382
0
VERTEX
8
0
10
2.3868166666666664
20
0.6417263888888889
42
0.4144619588839177
0
VERTEX
8
0
10
2.374997222222222
20
0.6299208333333334
42
0.4144619588839423
0
VERTEX
8
0
10
2.3868166666666664
20
0.6181152777777778
42
0.4142647747028333
0
VERTEX
8
0
10
2.398622222222222
20
0.6299208333333334
0
SEQEND
8
0
0
POLYLINE
8
0
70
0
66
1
0
VERTEX
8
0
10
2.398622222222222
20
0.8799208333333333
42
0.4142647747028382
0
VERTEX
8
0
10
2.3868166666666664
20
0.8917263888888889
42
0.4144619588839177
0
VERTEX
8
0
10
2.374997222222222
20
0.8799208333333333
42
0.4144619588839423
0
VERTEX
8
0
10
2.3868166666666664
20
0.8681152777777778
42
0.4142647747028333
0
VERTEX
8
0
10
2.398622222222222
20
0.8799208333333333
0
SEQEND
8
0
0
POLYLINE
8
0
70
0
66
1
0
VERTEX
8
0
10
2.5152361111111112
20
0.8799208333333333
42
0.4142361111111265
0
VERTEX
8
0
10
2.485236111111111
20
0.9099208333333334
42
0.4142361111111129
0
VERTEX
8
0
10
2.4552361111111112
20
0.8799208333333333
42
0.4142361111111072
0
VERTEX
8
0
10
2.485236111111111
20
0.8499208333333332
42
0.4142361111110994
0
VERTEX
8
0
10
2.5152361111111112
20
0.8799208333333333
0
SEQEND
8
0
0
POLYLINE
8
0
70
0
66
1
0
VERTEX
8
0
10
0.6348430555555555
20
0.8799208333333333
42
0.414264774702831
0
VERTEX
8
0
10
0.6230374999999999
20
0.8917263888888889
42
0.4144619588839373
0
VERTEX
8
0
10
0.6112180555555555
20
0.8799208333333333
42
0.414461958883935
0
VERTEX
8
0
10
0.6230374999999999
20
0.8681152777777778
42
0.4142647747028164
0
VERTEX
8
0
10
0.6348430555555555
20
0.8799208333333333
0
SEQEND
8
0
0
POLYLINE
8
0
70
0
66
1
0
VERTEX
8
0
10
0.3986222222222222
20
0.8799208333333333
42
0.4142647747028296
0
VERTEX
8
0
10
0.3868166666666666
20
0.8917263888888889
42
0.4144619588839385
0
VERTEX
8
0
10
0.3749972222222222
20
0.8799208333333333
42
0.4144619588839374
0
VERTEX
8
0
10
0.3868166666666666
20
0.8681152777777778
42
0.4142647747028188
0
VERTEX
8
0
10
0.3986222222222222
20
0.8799208333333333
0
SEQEND
8
0
0
POLYLINE
8
0
70
0
66
1
0
VERTEX
8
0
10
2.5152361111111112
20
1.1299208333333333
42
0.4142361111111254
0
VERTEX
8
0
10
2.485236111111111
20
1.1599208333333331
42
0.4142361111111138
0
VERTEX
8
0
10
2.4552361111111112
20
1.1299208333333333
42
0.4142361111111196
0
VERTEX
8
0
10
2.485236111111111
20
1.0999208333333332
42
0.4142361111111294
0
VERTEX
8
0
10
2.5152361111111112
20
1.1299208333333333
0
SEQEND
8
0
0
POLYLINE
8
0
70
0
66
1
0
VERTEX
8
0
10
2.398622222222222
20
1.1299208333333333
42
0.4142647747028211
0
VERTEX
8
0
10
2.3868166666666664
20
1.1417263888888887
42
0.4144619588839202
0
VERTEX
8
0
10
2.374997222222222
20
1.1299208333333333
42
0.4144619588839398
0
VERTEX
8
0
10
2.3868166666666664
20
1.1181152777777776
42
0.414264774702831
0
VERTEX
8
0
10
2.398622222222222
20
1.1299208333333333
0
SEQEND
8
0
0
POLYLINE
8
0
70
0
66
1
0
VERTEX
8
0
10
2.6348430555555553
20
1.1299208333333333
42
0.4142647747028211
0
VERTEX
8
0
10
2.6230374999999997
20
1.1417263888888887
42
0.4144619588839105
0
VERTEX
8
0
10
2.6112180555555553
20
1.1299208333333333
42
0.414461958883935
0
VERTEX
8
0
10
2.6230374999999997
20
1.1181152777777776
42
0.4142647747027722
0
VERTEX
8
0
10
2.6348430555555553
20
1.1299208333333333
0
SEQEND
8
0
0
POLYLINE
8
0
70
0
66
1
0
VERTEX
8
0
10
0.5152361111111111
20
0.8799208333333333
42
0.4142361111111197
0
VERTEX
8
0
10
0.485236111111111
20
0.9099208333333334
42
0.4142361111111109
0
VERTEX
8
0
10
0.4552361111111111
20
0.8799208333333333
42
0.41423611111111
0
VERTEX
8
0
10
0.485236111111111
20
0.8499208333333332
42
0.414236111111108
0
VERTEX
8
0
10
0.5152361111111111
20
0.8799208333333333
0
SEQEND
8
0
0
POLYLINE
8
0
70
0
66
1
0
VERTEX
8
0
10
2.5152361111111112
20
0.6299208333333334
42
0.4142361111111127
0
VERTEX
8
0
10
2.485236111111111
20
0.6599208333333334
42
0.4142361111111167
0
VERTEX
8
0
10
2.4552361111111112
20
0.6299208333333334
42
0.4142361111111072
0
VERTEX
8
0
10
2.485236111111111
20
0.5999208333333332
42
0.4142361111110994
0
VERTEX
8
0
10
2.5152361111111112
20
0.6299208333333334
0
SEQEND
8
0
0
POLYLINE
8
0
70
0
66
1
0
VERTEX
8
0
10
1.6348430555555553
20
0.6299208333333334
42
0.4142647747028333
0
VERTEX
8
0
10
1.6230374999999999
20
0.6417263888888889
42
0.4144619588839275
0
VERTEX
8
0
10
1.6112180555555555
20
0.6299208333333334
42
0.4144619588839177
0
VERTEX
8
0
10
1.6230374999999999
20
0.6181152777777778
42
0.4142647747027992
0
VERTEX
8
0
10
1.6348430555555553
20
0.6299208333333334
0
SEQEND
8
0
0
POLYLINE
8
0
70
0
66
1
0
VERTEX
8
0
10
1.3986222222222222
20
0.6299208333333334
42
0.4142647747028359
0
VERTEX
8
0
10
1.3868166666666666
20
0.6417263888888889
42
0.4144619588839324
0
VERTEX
8
0
10
1.3749972222222222
20
0.6299208333333334
42
0.4144619588839447
0
VERTEX
8
0
10
1.3868166666666666
20
0.6181152777777778
42
0.4142647747028138
0
VERTEX
8
0
10
1.3986222222222222
20
0.6299208333333334
0
SEQEND
8
0
0
POLYLINE
8
0
70
0
66
1
0
VERTEX
8
0
10
1.515236111111111
20
0.6299208333333334
42
0.4142361111111148
0
VERTEX
8
0
10
1.485236111111111
20
0.6599208333333334
42
0.4142361111111033
0
VERTEX
8
0
10
1.455236111111111
20
0.6299208333333334
42
0.4142361111111062
0
VERTEX
8
0
10
1.485236111111111
20
0.5999208333333332
42
0.4142361111111013
0
VERTEX
8
0
10
1.515236111111111
20
0.6299208333333334
0
SEQEND
8
0
0
POLYLINE
8
0
70
0
66
1
0
VERTEX
8
0
10
2.6348430555555553
20
0.8799208333333333
42
0.4142647747028237
0
VERTEX
8
0
10
2.6230374999999997
20
0.8917263888888889
42
0.4144619588839373
0
VERTEX
8
0
10
2.6112180555555553
20
0.8799208333333333
42
0.4144619588839373
0
VERTEX
8
0
10
2.6230374999999997
20
0.8681152777777778
42
0.4142647747027748
0
VERTEX
8
0
10
2.6348430555555553
20
0.8799208333333333
0
SEQEND
8
0
0
POLYLINE
8
0
70
0
66
1
0
VERTEX
8
0
10
0.5152361111111111
20
0.6299208333333334
42
0.4142361111111119
0
VERTEX
8
0
10
0.485236111111111
20
0.6599208333333334
42
0.4142361111111109
0
VERTEX
8
0
10
0.4552361111111111
20
0.6299208333333334
42
0.41423611111111
0
VERTEX
8
0
10
0.485236111111111
20
0.5999208333333332
42
0.414236111111108
0
VERTEX
8
0
10
0.5152361111111111
20
0.6299208333333334
0
SEQEND
8
0
0
POLYLINE
8
0
70
0
66
1
0
VERTEX
8
0
10
0.3986222222222222
20
0.6299208333333334
42
0.4142647747028296
0
VERTEX
8
0
10
0.3868166666666666
20
0.6417263888888889
42
0.4144619588839447
0
VERTEX
8
0
10
0.3749972222222222
20
0.6299208333333334
42
0.4144619588839374
0
VERTEX
8
0
10
0.3868166666666666
20
0.6181152777777778
42
0.4142647747028164
0
VERTEX
8
0
10
0.3986222222222222
20
0.6299208333333334
0
SEQEND
8
0
0
POLYLINE
8
0
70
0
66
1
0
VERTEX
8
0
10
0.6348430555555555
20
0.6299208333333334
42
0.414264774702831
0
VERTEX
8
0
10
0.6230374999999999
20
0.6417263888888889
42
0.4144619588839373
0
VERTEX
8
0
10
0.6112180555555555
20
0.6299208333333334
42
0.414461958883935
0
VERTEX
8
0
10
0.6230374999999999
20
0.6181152777777778
42
0.4142647747028164
0
VERTEX
8
0
10
0.6348430555555555
20
0.6299208333333334
0
SEQEND
8
0
0
POLYLINE
8
0
70
0
66
1
0
VERTEX
8
0
10
1.515236111111111
20
2.3799208333333333
42
0.4142361111111195
0
VERTEX
8
0
10
1.485236111111111
20
2.4099208333333331
42
0.4142361111111023
0
VERTEX
8
0
10
1.455236111111111
20
2.3799208333333333
42
0.4142361111110927
0
VERTEX
8
0
10
1.485236111111111
20
2.349920833333333
42
0.4142361111111158
0
VERTEX
8
0
10
1.515236111111111
20
2.3799208333333333
0
SEQEND
8
0
0
POLYLINE
8
0
70
0
66
1
0
VERTEX
8
0
10
1.3986222222222222
20
2.1299208333333333
42
0.4142647747028161
0
VERTEX
8
0
10
1.3868166666666666
20
2.1417263888888884
42
0.4144619588839251
0
VERTEX
8
0
10
1.3749972222222222
20
2.1299208333333333
42
0.4144619588839251
0
VERTEX
8
0
10
1.3868166666666666
20
2.1181152777777776
42
0.4142647747028114
0
VERTEX
8
0
10
1.3986222222222222
20
2.1299208333333333
0
SEQEND
8
0
0
POLYLINE
8
0
70
0
66
1
0
VERTEX
8
0
10
1.515236111111111
20
2.1299208333333333
42
0.4142361111111195
0
VERTEX
8
0
10
1.485236111111111
20
2.1599208333333331
42
0.4142361111111023
0
VERTEX
8
0
10
1.455236111111111
20
2.1299208333333333
42
0.4142361111110927
0
VERTEX
8
0
10
1.485236111111111
20
2.099920833333333
42
0.4142361111111158
0
VERTEX
8
0
10
1.515236111111111
20
2.1299208333333333
0
SEQEND
8
0
0
POLYLINE
8
0
70
0
66
1
0
VERTEX
8
0
10
1.6348430555555553
20
2.1299208333333333
42
0.4142647747028161
0
VERTEX
8
0
10
1.6230374999999999
20
2.1417263888888884
42
0.41446195888393
0
VERTEX
8
0
10
1.6112180555555555
20
2.1299208333333333
42
0.4144619588839202
0
VERTEX
8
0
10
1.6230374999999999
20
2.1181152777777776
42
0.4142647747028213
0
VERTEX
8
0
10
1.6348430555555553
20
2.1299208333333333
0
SEQEND
8
0
0
POLYLINE
8
0
70
0
66
1
0
VERTEX
8
0
10
0.6348430555555555
20
2.3799208333333333
42
0.4142647747027992
0
VERTEX
8
0
10
0.6230374999999999
20
2.3917263888888884
42
0.4144619588839055
0
VERTEX
8
0
10
0.6112180555555555
20
2.3799208333333333
42
0.4144619588839081
0
VERTEX
8
0
10
0.6230374999999999
20
2.3681152777777776
42
0.4142647747028382
0
VERTEX
8
0
10
0.6348430555555555
20
2.3799208333333333
0
SEQEND
8
0
0
POLYLINE
8
0
70
0
66
1
0
VERTEX
8
0
10
0.3986222222222222
20
2.3799208333333333
42
0.4142647747028005
0
VERTEX
8
0
10
0.3868166666666666
20
2.3917263888888884
42
0.4144619588839422
0
VERTEX
8
0
10
0.3749972222222222
20
2.3799208333333333
42
0.4144619588839398
0
VERTEX
8
0
10
0.3868166666666666
20
2.3681152777777776
42
0.4142647747028346
0
VERTEX
8
0
10
0.3986222222222222
20
2.3799208333333333
0
SEQEND
8
0
0
POLYLINE
8
0
70
0
66
1
0
VERTEX
8
0
10
0.5152361111111111
20
2.3799208333333333
42
0.4142361111111176
0
VERTEX
8
0
10
0.485236111111111
20
2.4099208333333331
42
0.4142361111111167
0
VERTEX
8
0
10
0.4552361111111111
20
2.3799208333333333
42
0.4142361111111042
0
VERTEX
8
0
10
0.485236111111111
20
2.349920833333333
42
0.4142361111111169
0
VERTEX
8
0
10
0.5152361111111111
20
2.3799208333333333
0
SEQEND
8
0
0
POLYLINE
8
0
70
0
66
1
0
VERTEX
8
0
10
1.1299208333333333
20
1.5049208333333333
42
0.4142499999999995
0
VERTEX
8
0
10
1.0049208333333333
20
1.6299208333333333
42
0.4142500000000001
0
VERTEX
8
0
10
0.8799208333333333
20
1.5049208333333333
42
0.41425
0
VERTEX
8
0
10
1.0049208333333333
20
1.3799208333333333
42
0.4142499999999992
0
VERTEX
8
0
10
1.1299208333333333
20
1.5049208333333333
0
SEQEND
8
0
0
POLYLINE
8
0
70
0
66
1
0
VERTEX
8
0
10
0.3799208333333333
20
0.2549208333333333
42
0.41425
0
VERTEX
8
0
10
0.2549208333333333
20
0.3799208333333333
42
0.4142499999999998
0
VERTEX
8
0
10
0.1299208333333333
20
0.2549208333333333
42
0.4142499999999998
0
VERTEX
8
0
10
0.2549208333333333
20
0.1299208333333333
42
0.4142500000000005
0
VERTEX
8
0
10
0.3799208333333333
20
0.2549208333333333
0
SEQEND
8
0
0
POLYLINE
8
0
70
0
66
1
0
VERTEX
8
0
10
0.3799208333333333
20
2.7549208333333333
42
0.4142499999999992
0
VERTEX
8
0
10
0.2549208333333333
20
2.8799208333333333
42
0.4142499999999993
0
VERTEX
8
0
10
0.1299208333333333
20
2.7549208333333333
42
0.4142499999999993
0
VERTEX
8
0
10
0.2549208333333333
20
2.6299208333333333
42
0.4142499999999992
0
VERTEX
8
0
10
0.3799208333333333
20
2.7549208333333333
0
SEQEND
8
0
0
POLYLINE
8
0
70
0
66
1
0
VERTEX
8
0
10
0.0049208333333333
20
3.0049208333333333
0
VERTEX
8
0
10
0.0049208333333333
20
0.0049208333333333
0
SEQEND
8
0
0
POLYLINE
8
0
70
0
66
1
0
VERTEX
8
0
10
0.0049208333333333
20
0.0049208333333333
0
VERTEX
8
0
10
3.0049208333333333
20
0.0049208333333333
0
SEQEND
8
0
0
POLYLINE
8
0
70
0
66
1
0
VERTEX
8
0
10
3.0049208333333333
20
0.0049208333333333
0
VERTEX
8
0
10
3.0049208333333333
20
3.0049208333333333
0
SEQEND
8
0
0
POLYLINE
8
0
70
0
66
1
0
VERTEX
8
0
10
3.0049208333333333
20
3.0049208333333333
0
VERTEX
8
0
10
0.0049208333333333
20
3.0049208333333333
0
SEQEND
8
0
0
POLYLINE
8
0
70
0
66
1
0
VERTEX
8
0
10
2.8799208333333333
20
2.7549208333333333
42
0.4142499999999997
0
VERTEX
8
0
10
2.7549208333333333
20
2.8799208333333333
42
0.4142500000000014
0
VERTEX
8
0
10
2.6299208333333333
20
2.7549208333333333
42
0.4142500000000005
0
VERTEX
8
0
10
2.7549208333333333
20
2.6299208333333333
42
0.4142499999999997
0
VERTEX
8
0
10
2.8799208333333333
20
2.7549208333333333
0
SEQEND
8
0
0
POLYLINE
8
0
70
0
66
1
0
VERTEX
8
0
10
2.8799208333333333
20
0.2549208333333333
42
0.41425
0
VERTEX
8
0
10
2.7549208333333333
20
0.3799208333333333
42
0.4142500000000013
0
VERTEX
8
0
10
2.6299208333333333
20
0.2549208333333333
42
0.4142500000000006
0
VERTEX
8
0
10
2.7549208333333333
20
0.1299208333333333
42
0.4142499999999997
0
VERTEX
8
0
10
2.8799208333333333
20
0.2549208333333333
0
SEQEND
8
0
0
POLYLINE
8
0
70
0
66
1
0
VERTEX
8
0
10
2.1299208333333333
20
1.5049208333333333
42
0.4142500000000005
0
VERTEX
8
0
10
2.0049208333333333
20
1.6299208333333333
42
0.4142500000000023
0
VERTEX
8
0
10
1.8799208333333333
20
1.5049208333333333
42
0.4142500000000016
0
VERTEX
8
0
10
2.0049208333333333
20
1.3799208333333333
42
0.4142500000000016
0
VERTEX
8
0
10
2.1299208333333333
20
1.5049208333333333
0
SEQEND
8
0
0
POLYLINE
8
0
70
0
66
1
0
VERTEX
8
0
10
1.6348430555555553
20
1.8799208333333333
42
0.4142647747028359
0
VERTEX
8
0
10
1.6230374999999999
20
1.8917263888888887
42
0.41446195888393
0
VERTEX
8
0
10
1.6112180555555555
20
1.8799208333333333
42
0.4144619588839202
0
VERTEX
8
0
10
1.6230374999999999
20
1.8681152777777776
42
0.4142647747028213
0
VERTEX
8
0
10
1.6348430555555553
20
1.8799208333333333
0
SEQEND
8
0
0
POLYLINE
8
0
70
0
66
1
0
VERTEX
8
0
10
1.6348430555555553
20
1.6299208333333333
42
0.414264774702831
0
VERTEX
8
0
10
1.6230374999999999
20
1.6417263888888887
42
0.4144619588839055
0
VERTEX
8
0
10
1.6112180555555555
20
1.6299208333333333
42
0.4144619588839152
0
VERTEX
8
0
10
1.6230374999999999
20
1.6181152777777776
42
0.4142647747027969
0
VERTEX
8
0
10
1.6348430555555553
20
1.6299208333333333
0
SEQEND
8
0
0
POLYLINE
8
0
70
0
66
1
0
VERTEX
8
0
10
1.6348430555555553
20
1.3799208333333333
42
0.414264774702831
0
VERTEX
8
0
10
1.6230374999999999
20
1.3917263888888887
42
0.4144619588839055
0
VERTEX
8
0
10
1.6112180555555555
20
1.3799208333333333
42
0.4144619588839152
0
VERTEX
8
0
10
1.6230374999999999
20
1.3681152777777776
42
0.4142647747027969
0
VERTEX
8
0
10
1.6348430555555553
20
1.3799208333333333
0
SEQEND
8
0
0
POLYLINE
8
0
70
0
66
1
0
VERTEX
8
0
10
1.6348430555555553
20
1.1299208333333333
42
0.414264774702831
0
VERTEX
8
0
10
1.6230374999999999
20
1.1417263888888887
42
0.4144619588839055
0
VERTEX
8
0
10
1.6112180555555555
20
1.1299208333333333
42
0.4144619588839152
0
VERTEX
8
0
10
1.6230374999999999
20
1.1181152777777776
42
0.4142647747027969
0
VERTEX
8
0
10
1.6348430555555553
20
1.1299208333333333
0
SEQEND
8
0
0
POLYLINE
8
0
70
0
66
1
0
VERTEX
8
0
10
1.6348430555555553
20
0.8799208333333333
42
0.4142647747028333
0
VERTEX
8
0
10
1.6230374999999999
20
0.8917263888888889
42
0.4144619588839275
0
VERTEX
8
0
10
1.6112180555555555
20
0.8799208333333333
42
0.4144619588839177
0
VERTEX
8
0
10
1.6230374999999999
20
0.8681152777777778
42
0.4142647747027992
0
VERTEX
8
0
10
1.6348430555555553
20
0.8799208333333333
0
SEQEND
8
0
0
POLYLINE
8
0
70
0
66
1
0
VERTEX
8
0
10
1.515236111111111
20
1.8799208333333333
42
0.4142361111111195
0
VERTEX
8
0
10
1.485236111111111
20
1.9099208333333331
42
0.4142361111111023
0
VERTEX
8
0
10
1.455236111111111
20
1.8799208333333333
42
0.4142361111111176
0
VERTEX
8
0
10
1.485236111111111
20
1.8499208333333332
42
0.4142361111111158
0
VERTEX
8
0
10
1.515236111111111
20
1.8799208333333333
0
SEQEND
8
0
0
POLYLINE
8
0
70
0
66
1
0
VERTEX
8
0
10
1.515236111111111
20
1.6299208333333333
42
0.4142361111111215
0
VERTEX
8
0
10
1.485236111111111
20
1.6599208333333331
42
0.4142361111111061
0
VERTEX
8
0
10
1.455236111111111
20
1.6299208333333333
42
0.4142361111111139
0
VERTEX
8
0
10
1.485236111111111
20
1.5999208333333332
42
0.4142361111111137
0
VERTEX
8
0
10
1.515236111111111
20
1.6299208333333333
0
SEQEND
8
0
0
POLYLINE
8
0
70
0
66
1
0
VERTEX
8
0
10
1.515236111111111
20
1.3799208333333333
42
0.4142361111111215
0
VERTEX
8
0
10
1.485236111111111
20
1.4099208333333331
42
0.4142361111111061
0
VERTEX
8
0
10
1.455236111111111
20
1.3799208333333333
42
0.4142361111111139
0
VERTEX
8
0
10
1.485236111111111
20
1.3499208333333332
42
0.4142361111111137
0
VERTEX
8
0
10
1.515236111111111
20
1.3799208333333333
0
SEQEND
8
0
0
POLYLINE
8
0
70
0
66
1
0
VERTEX
8
0
10
1.515236111111111
20
1.1299208333333333
42
0.4142361111111215
0
VERTEX
8
0
10
1.485236111111111
20
1.1599208333333331
42
0.4142361111111061
0
VERTEX
8
0
10
1.455236111111111
20
1.1299208333333333
42
0.4142361111111139
0
VERTEX
8
0
10
1.485236111111111
20
1.0999208333333332
42
0.4142361111111137
0
VERTEX
8
0
10
1.515236111111111
20
1.1299208333333333
0
SEQEND
8
0
0
POLYLINE
8
0
70
0
66
1
0
VERTEX
8
0
10
1.515236111111111
20
0.8799208333333333
42
0.4142361111111254
0
VERTEX
8
0
10
1.485236111111111
20
0.9099208333333334
42
0.4142361111110994
0
VERTEX
8
0
10
1.455236111111111
20
0.8799208333333333
42
0.4142361111111062
0
VERTEX
8
0
10
1.485236111111111
20
0.8499208333333332
42
0.4142361111111013
0
VERTEX
8
0
10
1.515236111111111
20
0.8799208333333333
0
SEQEND
8
0
0
POLYLINE
8
0
70
0
66
1
0
VERTEX
8
0
10
1.3986222222222222
20
1.8799208333333333
42
0.414264774702826
0
VERTEX
8
0
10
1.3868166666666666
20
1.8917263888888887
42
0.4144619588839251
0
VERTEX
8
0
10
1.3749972222222222
20
1.8799208333333333
42
0.4144619588839251
0
VERTEX
8
0
10
1.3868166666666666
20
1.8681152777777776
42
0.4142647747028114
0
VERTEX
8
0
10
1.3986222222222222
20
1.8799208333333333
0
SEQEND
8
0
0
POLYLINE
8
0
70
0
66
1
0
VERTEX
8
0
10
1.3986222222222222
20
1.6299208333333333
42
0.4142647747028359
0
VERTEX
8
0
10
1.3868166666666666
20
1.6417263888888887
42
0.4144619588839447
0
VERTEX
8
0
10
1.3749972222222222
20
1.6299208333333333
42
0.414461958883935
0
VERTEX
8
0
10
1.3868166666666666
20
1.6181152777777776
42
0.4142647747028359
0
VERTEX
8
0
10
1.3986222222222222
20
1.6299208333333333
0
SEQEND
8
0
0
POLYLINE
8
0
70
0
66
1
0
VERTEX
8
0
10
1.3986222222222222
20
1.3799208333333333
42
0.4142647747028408
0
VERTEX
8
0
10
1.3868166666666666
20
1.3917263888888887
42
0.4144619588839447
0
VERTEX
8
0
10
1.3749972222222222
20
1.3799208333333333
42
0.4144619588839447
0
VERTEX
8
0
10
1.3868166666666666
20
1.3681152777777776
42
0.4142647747028359
0
VERTEX
8
0
10
1.3986222222222222
20
1.3799208333333333
0
SEQEND
8
0
0
POLYLINE
8
0
70
0
66
1
0
VERTEX
8
0
10
1.3986222222222222
20
1.1299208333333333
42
0.4142647747028408
0
VERTEX
8
0
10
1.3868166666666666
20
1.1417263888888887
42
0.4144619588839447
0
VERTEX
8
0
10
1.3749972222222222
20
1.1299208333333333
42
0.4144619588839447
0
VERTEX
8
0
10
1.3868166666666666
20
1.1181152777777776
42
0.4142647747028359
0
VERTEX
8
0
10
1.3986222222222222
20
1.1299208333333333
0
SEQEND
8
0
0
POLYLINE
8
0
70
0
66
1
0
VERTEX
8
0
10
1.3986222222222222
20
0.8799208333333333
42
0.4142647747028359
0
VERTEX
8
0
10
1.3868166666666666
20
0.8917263888888889
42
0.4144619588839324
0
VERTEX
8
0
10
1.3749972222222222
20
0.8799208333333333
42
0.4144619588839447
0
VERTEX
8
0
10
1.3868166666666666
20
0.8681152777777778
42
0.4142647747028138
0
VERTEX
8
0
10
1.3986222222222222
20
0.8799208333333333
0
SEQEND
8
0
0
POLYLINE
8
0
70
0
66
1
0
VERTEX
8
0
10
0.0
20
3.0098472222222221
0
VERTEX
8
0
10
3.0098472222222221
20
3.0098472222222221
0
VERTEX
8
0
10
3.0098472222222221
20
-0.0
0
VERTEX
8
0
10
0.0
20
-0.0
0
VERTEX
8
0
10
0.0
20
3.0098472222222221
0
SEQEND
8
0
0
POLYLINE
8
0
70
0
66
1
0
VERTEX
8
0
10
2.5152361111111112
20
1.6299208333333333
42
0.4142361111111254
0
VERTEX
8
0
10
2.485236111111111
20
1.6599208333333331
42
0.4142361111111138
0
VERTEX
8
0
10
2.4552361111111112
20
1.6299208333333333
42
0.4142361111111196
0
VERTEX
8
0
10
2.485236111111111
20
1.5999208333333332
42
0.4142361111111294
0
VERTEX
8
0
10
2.5152361111111112
20
1.6299208333333333
0
SEQEND
8
0
0
POLYLINE
8
0
70
0
66
1
0
VERTEX
8
0
10
2.398622222222222
20
1.6299208333333333
42
0.4142647747028211
0
VERTEX
8
0
10
2.3868166666666664
20
1.6417263888888887
42
0.4144619588839495
0
VERTEX
8
0
10
2.374997222222222
20
1.6299208333333333
42
0.4144619588839398
0
VERTEX
8
0
10
2.3868166666666664
20
1.6181152777777776
42
0.414264774702831
0
VERTEX
8
0
10
2.398622222222222
20
1.6299208333333333
0
SEQEND
8
0
0
POLYLINE
8
0
70
0
66
1
0
VERTEX
8
0
10
2.6348430555555553
20
1.6299208333333333
42
0.4142647747028211
0
VERTEX
8
0
10
2.6230374999999997
20
1.6417263888888887
42
0.4144619588839105
0
VERTEX
8
0
10
2.6112180555555553
20
1.6299208333333333
42
0.414461958883935
0
VERTEX
8
0
10
2.6230374999999997
20
1.6181152777777776
42
0.4142647747027722
0
VERTEX
8
0
10
2.6348430555555553
20
1.6299208333333333
0
SEQEND
8
0
0
POLYLINE
8
0
70
0
66
1
0
VERTEX
8
0
10
0.5152361111111111
20
1.3799208333333333
42
0.4142361111111187
0
VERTEX
8
0
10
0.485236111111111
20
1.4099208333333331
42
0.4142361111111129
0
VERTEX
8
0
10
0.4552361111111111
20
1.3799208333333333
42
0.414236111111114
0
VERTEX
8
0
10
0.485236111111111
20
1.3499208333333332
42
0.414236111111114
0
VERTEX
8
0
10
0.5152361111111111
20
1.3799208333333333
0
SEQEND
8
0
0
POLYLINE
8
0
70
0
66
1
0
VERTEX
8
0
10
2.6348430555555553
20
1.8799208333333333
42
0.4142647747028211
0
VERTEX
8
0
10
2.6230374999999997
20
1.8917263888888887
42
0.4144619588839105
0
VERTEX
8
0
10
2.6112180555555553
20
1.8799208333333333
42
0.4144619588839398
0
VERTEX
8
0
10
2.6230374999999997
20
1.8681152777777776
42
0.4142647747027722
0
VERTEX
8
0
10
2.6348430555555553
20
1.8799208333333333
0
SEQEND
8
0
0
POLYLINE
8
0
70
0
66
1
0
VERTEX
8
0
10
0.5152361111111111
20
1.6299208333333333
42
0.4142361111111187
0
VERTEX
8
0
10
0.485236111111111
20
1.6599208333333331
42
0.4142361111111129
0
VERTEX
8
0
10
0.4552361111111111
20
1.6299208333333333
42
0.414236111111114
0
VERTEX
8
0
10
0.485236111111111
20
1.5999208333333332
42
0.414236111111114
0
VERTEX
8
0
10
0.5152361111111111
20
1.6299208333333333
0
SEQEND
8
0
0
POLYLINE
8
0
70
0
66
1
0
VERTEX
8
0
10
0.3986222222222222
20
1.6299208333333333
42
0.4142647747028296
0
VERTEX
8
0
10
0.3868166666666666
20
1.6417263888888887
42
0.4144619588839386
0
VERTEX
8
0
10
0.3749972222222222
20
1.6299208333333333
42
0.4144619588839313
0
VERTEX
8
0
10
0.3868166666666666
20
1.6181152777777776
42
0.4142647747028296
0
VERTEX
8
0
10
0.3986222222222222
20
1.6299208333333333
0
SEQEND
8
0
0
POLYLINE
8
0
70
0
66
1
0
VERTEX
8
0
10
0.6348430555555555
20
1.6299208333333333
42
0.414264774702831
0
VERTEX
8
0
10
0.6230374999999999
20
1.6417263888888887
42
0.4144619588839276
0
VERTEX
8
0
10
0.6112180555555555
20
1.6299208333333333
42
0.4144619588839326
0
VERTEX
8
0
10
0.6230374999999999
20
1.6181152777777776
42
0.4142647747028382
0
VERTEX
8
0
10
0.6348430555555555
20
1.6299208333333333
0
SEQEND
8
0
0
POLYLINE
8
0
70
0
66
1
0
VERTEX
8
0
10
2.6348430555555553
20
1.3799208333333333
42
0.4142647747028211
0
VERTEX
8
0
10
2.6230374999999997
20
1.3917263888888887
42
0.4144619588839105
0
VERTEX
8
0
10
2.6112180555555553
20
1.3799208333333333
42
0.414461958883935
0
VERTEX
8
0
10
2.6230374999999997
20
1.3681152777777776
42
0.4142647747027722
0
VERTEX
8
0
10
2.6348430555555553
20
1.3799208333333333
0
SEQEND
8
0
0
POLYLINE
8
0
70
0
66
1
0
VERTEX
8
0
10
0.5152361111111111
20
1.1299208333333333
42
0.4142361111111187
0
VERTEX
8
0
10
0.485236111111111
20
1.1599208333333331
42
0.4142361111111129
0
VERTEX
8
0
10
0.4552361111111111
20
1.1299208333333333
42
0.414236111111114
0
VERTEX
8
0
10
0.485236111111111
20
1.0999208333333332
42
0.414236111111114
0
VERTEX
8
0
10
0.5152361111111111
20
1.1299208333333333
0
SEQEND
8
0
0
POLYLINE
8
0
70
0
66
1
0
VERTEX
8
0
10
0.3986222222222222
20
1.1299208333333333
42
0.4142647747028296
0
VERTEX
8
0
10
0.3868166666666666
20
1.1417263888888887
42
0.4144619588839263
0
VERTEX
8
0
10
0.3749972222222222
20
1.1299208333333333
42
0.4144619588839313
0
VERTEX
8
0
10
0.3868166666666666
20
1.1181152777777776
42
0.4142647747028296
0
VERTEX
8
0
10
0.3986222222222222
20
1.1299208333333333
0
SEQEND
8
0
0
POLYLINE
8
0
70
0
66
1
0
VERTEX
8
0
10
0.6348430555555555
20
1.1299208333333333
42
0.414264774702831
0
VERTEX
8
0
10
0.6230374999999999
20
1.1417263888888887
42
0.4144619588839349
0
VERTEX
8
0
10
0.6112180555555555
20
1.1299208333333333
42
0.4144619588839326
0
VERTEX
8
0
10
0.6230374999999999
20
1.1181152777777776
42
0.414264774702831
0
VERTEX
8
0
10
0.6348430555555555
20
1.1299208333333333
0
SEQEND
8
0
0
POLYLINE
8
0
70
0
66
1
0
VERTEX
8
0
10
2.398622222222222
20
1.3799208333333333
42
0.4142647747028211
0
VERTEX
8
0
10
2.3868166666666664
20
1.3917263888888887
42
0.4144619588839495
0
VERTEX
8
0
10
2.374997222222222
20
1.3799208333333333
42
0.4144619588839398
0
VERTEX
8
0
10
2.3868166666666664
20
1.3681152777777776
42
0.414264774702831
0
VERTEX
8
0
10
2.398622222222222
20
1.3799208333333333
0
SEQEND
8
0
0
POLYLINE
8
0
70
0
66
1
0
VERTEX
8
0
10
2.5152361111111112
20
1.3799208333333333
42
0.4142361111111254
0
VERTEX
8
0
10
2.485236111111111
20
1.4099208333333331
42
0.4142361111111138
0
VERTEX
8
0
10
2.4552361111111112
20
1.3799208333333333
42
0.4142361111111196
0
VERTEX
8
0
10
2.485236111111111
20
1.3499208333333332
42
0.4142361111111294
0
VERTEX
8
0
10
2.5152361111111112
20
1.3799208333333333
0
SEQEND
8
0
0
POLYLINE
8
0
70
0
66
1
0
VERTEX
8
0
10
0.6348430555555555
20
1.3799208333333333
42
0.414264774702831
0
VERTEX
8
0
10
0.6230374999999999
20
1.3917263888888887
42
0.4144619588839349
0
VERTEX
8
0
10
0.6112180555555555
20
1.3799208333333333
42
0.4144619588839326
0
VERTEX
8
0
10
0.6230374999999999
20
1.3681152777777776
42
0.414264774702831
0
VERTEX
8
0
10
0.6348430555555555
20
1.3799208333333333
0
SEQEND
8
0
0
POLYLINE
8
0
70
0
66
1
0
VERTEX
8
0
10
0.3986222222222222
20
1.3799208333333333
42
0.4142647747028296
0
VERTEX
8
0
10
0.3868166666666666
20
1.3917263888888887
42
0.4144619588839263
0
VERTEX
8
0
10
0.3749972222222222
20
1.3799208333333333
42
0.4144619588839313
0
VERTEX
8
0
10
0.3868166666666666
20
1.3681152777777776
42
0.4142647747028296
0
VERTEX
8
0
10
0.3986222222222222
20
1.3799208333333333
0
SEQEND
8
0
0
POLYLINE
8
0
70
0
66
1
0
VERTEX
8
0
10
2.6348430555555553
20
2.3799208333333333
42
0.4142647747028211
0
VERTEX
8
0
10
2.6230374999999997
20
2.3917263888888884
42
0.4144619588839105
0
VERTEX
8
0
10
2.6112180555555553
20
2.3799208333333333
42
0.4144619588839398
0
VERTEX
8
0
10
2.6230374999999997
20
2.3681152777777776
42
0.4142647747027722
0
VERTEX
8
0
10
2.6348430555555553
20
2.3799208333333333
0
SEQEND
8
0
0
POLYLINE
8
0
70
0
66
1
0
VERTEX
8
0
10
0.5152361111111111
20
2.1299208333333333
42
0.4142361111111176
0
VERTEX
8
0
10
0.485236111111111
20
2.1599208333333331
42
0.4142361111111167
0
VERTEX
8
0
10
0.4552361111111111
20
2.1299208333333333
42
0.4142361111111042
0
VERTEX
8
0
10
0.485236111111111
20
2.099920833333333
42
0.4142361111111169
0
VERTEX
8
0
10
0.5152361111111111
20
2.1299208333333333
0
SEQEND
8
0
0
POLYLINE
8
0
70
0
66
1
0
VERTEX
8
0
10
0.3986222222222222
20
2.1299208333333333
42
0.4142647747028005
0
VERTEX
8
0
10
0.3868166666666666
20
2.1417263888888884
42
0.4144619588839422
0
VERTEX
8
0
10
0.3749972222222222
20
2.1299208333333333
42
0.4144619588839398
0
VERTEX
8
0
10
0.3868166666666666
20
2.1181152777777776
42
0.4142647747028346
0
VERTEX
8
0
10
0.3986222222222222
20
2.1299208333333333
0
SEQEND
8
0
0
POLYLINE
8
0
70
0
66
1
0
VERTEX
8
0
10
0.6348430555555555
20
2.1299208333333333
42
0.4142647747027992
0
VERTEX
8
0
10
0.6230374999999999
20
2.1417263888888884
42
0.4144619588839055
0
VERTEX
8
0
10
0.6112180555555555
20
2.1299208333333333
42
0.4144619588839081
0
VERTEX
8
0
10
0.6230374999999999
20
2.1181152777777776
42
0.4142647747028382
0
VERTEX
8
0
10
0.6348430555555555
20
2.1299208333333333
0
SEQEND
8
0
0
POLYLINE
8
0
70
0
66
1
0
VERTEX
8
0
10
2.398622222222222
20
2.3799208333333333
42
0.4142647747027919
0
VERTEX
8
0
10
2.3868166666666664
20
2.3917263888888884
42
0.4144619588839105
0
VERTEX
8
0
10
2.374997222222222
20
2.3799208333333333
42
0.4144619588839398
0
VERTEX
8
0
10
2.3868166666666664
20
2.3681152777777776
42
0.414264774702831
0
VERTEX
8
0
10
2.398622222222222
20
2.3799208333333333
0
SEQEND
8
0
0
POLYLINE
8
0
70
0
66
1
0
VERTEX
8
0
10
2.5152361111111112
20
2.3799208333333333
42
0.4142361111111254
0
VERTEX
8
0
10
2.485236111111111
20
2.4099208333333331
42
0.4142361111111176
0
VERTEX
8
0
10
2.4552361111111112
20
2.3799208333333333
42
0.414236111111106
0
VERTEX
8
0
10
2.485236111111111
20
2.349920833333333
42
0.4142361111111294
0
VERTEX
8
0
10
2.5152361111111112
20
2.3799208333333333
0
SEQEND
8
0
0
POLYLINE
8
0
70
0
66
1
0
VERTEX
8
0
10
1.6348430555555553
20
2.3799208333333333
42
0.4142647747028161
0
VERTEX
8
0
10
1.6230374999999999
20
2.3917263888888884
42
0.41446195888393
0
VERTEX
8
0
10
1.6112180555555555
20
2.3799208333333333
42
0.4144619588839202
0
VERTEX
8
0
10
1.6230374999999999
20
2.3681152777777776
42
0.4142647747028213
0
VERTEX
8
0
10
1.6348430555555553
20
2.3799208333333333
0
SEQEND
8
0
0
POLYLINE
8
0
70
0
66
1
0
VERTEX
8
0
10
1.3986222222222222
20
2.3799208333333333
42
0.4142647747028161
0
VERTEX
8
0
10
1.3868166666666666
20
2.3917263888888884
42
0.4144619588839251
0
VERTEX
8
0
10
1.3749972222222222
20
2.3799208333333333
42
0.4144619588839251
0
VERTEX
8
0
10
1.3868166666666666
20
2.3681152777777776
42
0.4142647747028114
0
VERTEX
8
0
10
1.3986222222222222
20
2.3799208333333333
0
SEQEND
8
0
0
POLYLINE
8
0
70
0
66
1
0
VERTEX
8
0
10
2.398622222222222
20
1.8799208333333333
42
0.4142647747028211
0
VERTEX
8
0
10
2.3868166666666664
20
1.8917263888888887
42
0.4144619588839105
0
VERTEX
8
0
10
2.374997222222222
20
1.8799208333333333
42
0.4144619588839398
0
VERTEX
8
0
10
2.3868166666666664
20
1.8681152777777776
42
0.414264774702831
0
VERTEX
8
0
10
2.398622222222222
20
1.8799208333333333
0
SEQEND
8
0
0
POLYLINE
8
0
70
0
66
1
0
VERTEX
8
0
10
2.5152361111111112
20
1.8799208333333333
42
0.4142361111111254
0
VERTEX
8
0
10
2.485236111111111
20
1.9099208333333331
42
0.4142361111111176
0
VERTEX
8
0
10
2.4552361111111112
20
1.8799208333333333
42
0.4142361111111176
0
VERTEX
8
0
10
2.485236111111111
20
1.8499208333333332
42
0.4142361111111294
0
VERTEX
8
0
10
2.5152361111111112
20
1.8799208333333333
0
SEQEND
8
0
0
POLYLINE
8
0
70
0
66
1
0
VERTEX
8
0
10
0.6348430555555555
20
1.8799208333333333
42
0.4142647747028234
0
VERTEX
8
0
10
0.6230374999999999
20
1.8917263888888887
42
0.4144619588839055
0
VERTEX
8
0
10
0.6112180555555555
20
1.8799208333333333
42
0.4144619588839081
0
VERTEX
8
0
10
0.6230374999999999
20
1.8681152777777776
42
0.4142647747028382
0
VERTEX
8
0
10
0.6348430555555555
20
1.8799208333333333
0
SEQEND
8
0
0
POLYLINE
8
0
70
0
66
1
0
VERTEX
8
0
10
0.3986222222222222
20
1.8799208333333333
42
0.4142647747028224
0
VERTEX
8
0
10
0.3868166666666666
20
1.8917263888888887
42
0.4144619588839422
0
VERTEX
8
0
10
0.3749972222222222
20
1.8799208333333333
42
0.4144619588839398
0
VERTEX
8
0
10
0.3868166666666666
20
1.8681152777777776
42
0.4142647747028346
0
VERTEX
8
0
10
0.3986222222222222
20
1.8799208333333333
0
SEQEND
8
0
0
POLYLINE
8
0
70
0
66
1
0
VERTEX
8
0
10
2.5152361111111112
20
2.1299208333333333
42
0.4142361111111254
0
VERTEX
8
0
10
2.485236111111111
20
2.1599208333333331
42
0.4142361111111176
0
VERTEX
8
0
10
2.4552361111111112
20
2.1299208333333333
42
0.414236111111106
0
VERTEX
8
0
10
2.485236111111111
20
2.099920833333333
42
0.4142361111111294
0
VERTEX
8
0
10
2.5152361111111112
20
2.1299208333333333
0
SEQEND
8
0
0
POLYLINE
8
0
70
0
66
1
0
VERTEX
8
0
10
2.398622222222222
20
2.1299208333333333
42
0.4142647747027919
0
VERTEX
8
0
10
2.3868166666666664
20
2.1417263888888884
42
0.4144619588839105
0
VERTEX
8
0
10
2.374997222222222
20
2.1299208333333333
42
0.4144619588839398
0
VERTEX
8
0
10
2.3868166666666664
20
2.1181152777777776
42
0.414264774702831
0
VERTEX
8
0
10
2.398622222222222
20
2.1299208333333333
0
SEQEND
8
0
0
POLYLINE
8
0
70
0
66
1
0
VERTEX
8
0
10
2.6348430555555553
20
2.1299208333333333
42
0.4142647747028211
0
VERTEX
8
0
10
2.6230374999999997
20
2.1417263888888884
42
0.4144619588839105
0
VERTEX
8
0
10
2.6112180555555553
20
2.1299208333333333
42
0.4144619588839398
0
VERTEX
8
0
10
2.6230374999999997
20
2.1181152777777776
42
0.4142647747027722
0
VERTEX
8
0
10
2.6348430555555553
20
2.1299208333333333
0
SEQEND
8
0
0
POLYLINE
8
0
70
0
66
1
0
VERTEX
8
0
10
0.5152361111111111
20
1.8799208333333333
42
0.4142361111111176
0
VERTEX
8
0
10
0.485236111111111
20
1.9099208333333331
42
0.4142361111111167
0
VERTEX
8
0
10
0.4552361111111111
20
1.8799208333333333
42
0.4142361111111169
0
VERTEX
8
0
10
0.485236111111111
20
1.8499208333333332
42
0.4142361111111169
0
VERTEX
8
0
10
0.5152361111111111
20
1.8799208333333333
0
SEQEND
8
0
0
POLYLINE
8
0
70
0
66
1
0
VERTEX
8
0
10
2.6348430555555553
20
0.6299208333333334
42
0.4142647747028237
0
VERTEX
8
0
10
2.6230374999999997
20
0.6417263888888889
42
0.4144619588839373
0
VERTEX
8
0
10
2.6112180555555553
20
0.6299208333333334
42
0.4144619588839373
0
VERTEX
8
0
10
2.6230374999999997
20
0.6181152777777778
42
0.4142647747027748
0
VERTEX
8
0
10
2.6348430555555553
20
0.6299208333333334
0
SEQEND
8
0
0
POLYLINE
8
0
70
0
66
1
0
VERTEX
8
0
10
2.398622222222222
20
0.6299208333333334
42
0.4142647747028382
0
VERTEX
8
0
10
2.3868166666666664
20
0.6417263888888889
42
0.4144619588839177
0
VERTEX
8
0
10
2.374997222222222
20
0.6299208333333334
42
0.4144619588839423
0
VERTEX
8
0
10
2.3868166666666664
20
0.6181152777777778
42
0.4142647747028333
0
VERTEX
8
0
10
2.398622222222222
20
0.6299208333333334
0
SEQEND
8
0
0
POLYLINE
8
0
70
0
66
1
0
VERTEX
8
0
10
2.398622222222222
20
0.8799208333333333
42
0.4142647747028382
0
VERTEX
8
0
10
2.3868166666666664
20
0.8917263888888889
42
0.4144619588839177
0
VERTEX
8
0
10
2.374997222222222
20
0.8799208333333333
42
0.4144619588839423
0
VERTEX
8
0
10
2.3868166666666664
20
0.8681152777777778
42
0.4142647747028333
0
VERTEX
8
0
10
2.398622222222222
20
0.8799208333333333
0
SEQEND
8
0
0
POLYLINE
8
0
70
0
66
1
0
VERTEX
8
0
10
2.5152361111111112
20
0.8799208333333333
42
0.4142361111111265
0
VERTEX
8
0
10
2.485236111111111
20
0.9099208333333334
42
0.4142361111111129
0
VERTEX
8
0
10
2.4552361111111112
20
0.8799208333333333
42
0.4142361111111072
0
VERTEX
8
0
10
2.485236111111111
20
0.8499208333333332
42
0.4142361111110994
0
VERTEX
8
0
10
2.5152361111111112
20
0.8799208333333333
0
SEQEND
8
0
0
POLYLINE
8
0
70
0
66
1
0
VERTEX
8
0
10
0.6348430555555555
20
0.8799208333333333
42
0.414264774702831
0
VERTEX
8
0
10
0.6230374999999999
20
0.8917263888888889
42
0.4144619588839373
0
VERTEX
8
0
10
0.6112180555555555
20
0.8799208333333333
42
0.414461958883935
0
VERTEX
8
0
10
0.6230374999999999
20
0.8681152777777778
42
0.4142647747028164
0
VERTEX
8
0
10
0.6348430555555555
20
0.8799208333333333
0
SEQEND
8
0
0
POLYLINE
8
0
70
0
66
1
0
VERTEX
8
0
10
0.3986222222222222
20
0.8799208333333333
42
0.4142647747028296
0
VERTEX
8
0
10
0.3868166666666666
20
0.8917263888888889
42
0.4144619588839385
0
VERTEX
8
0
10
0.3749972222222222
20
0.8799208333333333
42
0.4144619588839374
0
VERTEX
8
0
10
0.3868166666666666
20
0.8681152777777778
42
0.4142647747028188
0
VERTEX
8
0
10
0.3986222222222222
20
0.8799208333333333
0
SEQEND
8
0
0
POLYLINE
8
0
70
0
66
1
0
VERTEX
8
0
10
2.5152361111111112
20
1.1299208333333333
42
0.4142361111111254
0
VERTEX
8
0
10
2.485236111111111
20
1.1599208333333331
42
0.4142361111111138
0
VERTEX
8
0
10
2.4552361111111112
20
1.1299208333333333
42
0.4142361111111196
0
VERTEX
8
0
10
2.485236111111111
20
1.0999208333333332
42
0.4142361111111294
0
VERTEX
8
0
10
2.5152361111111112
20
1.1299208333333333
0
SEQEND
8
0
0
POLYLINE
8
0
70
0
66
1
0
VERTEX
8
0
10
2.398622222222222
20
1.1299208333333333
42
0.4142647747028211
0
VERTEX
8
0
10
2.3868166666666664
20
1.1417263888888887
42
0.4144619588839202
0
VERTEX
8
0
10
2.374997222222222
20
1.1299208333333333
42
0.4144619588839398
0
VERTEX
8
0
10
2.3868166666666664
20
1.1181152777777776
42
0.414264774702831
0
VERTEX
8
0
10
2.398622222222222
20
1.1299208333333333
0
SEQEND
8
0
0
POLYLINE
8
0
70
0
66
1
0
VERTEX
8
0
10
2.6348430555555553
20
1.1299208333333333
42
0.4142647747028211
0
VERTEX
8
0
10
2.6230374999999997
20
1.1417263888888887
42
0.4144619588839105
0
VERTEX
8
0
10
2.6112180555555553
20
1.1299208333333333
42
0.414461958883935
0
VERTEX
8
0
10
2.6230374999999997
20
1.1181152777777776
42
0.4142647747027722
0
VERTEX
8
0
10
2.6348430555555553
20
1.1299208333333333
0
SEQEND
8
0
0
POLYLINE
8
0
70
0
66
1
0
VERTEX
8
0
10
0.5152361111111111
20
0.8799208333333333
42
0.4142361111111197
0
VERTEX
8
0
10
0.485236111111111
20
0.9099208333333334
42
0.4142361111111109
0
VERTEX
8
0
10
0.4552361111111111
20
0.8799208333333333
42
0.41423611111111
0
VERTEX
8
0
10
0.485236111111111
20
0.8499208333333332
42
0.414236111111108
0
VERTEX
8
0
10
0.5152361111111111
20
0.8799208333333333
0
SEQEND
8
0
0
POLYLINE
8
0
70
0
66
1
0
VERTEX
8
0
10
2.5152361111111112
20
0.6299208333333334
42
0.4142361111111127
0
VERTEX
8
0
10
2.485236111111111
20
0.6599208333333334
42
0.4142361111111167
0
VERTEX
8
0
10
2.4552361111111112
20
0.6299208333333334
42
0.4142361111111072
0
VERTEX
8
0
10
2.485236111111111
20
0.5999208333333332
42
0.4142361111110994
0
VERTEX
8
0
10
2.5152361111111112
20
0.6299208333333334
0
SEQEND
8
0
0
POLYLINE
8
0
70
0
66
1
0
VERTEX
8
0
10
1.6348430555555553
20
0.6299208333333334
42
0.4142647747028333
0
VERTEX
8
0
10
1.6230374999999999
20
0.6417263888888889
42
0.4144619588839275
0
VERTEX
8
0
10
1.6112180555555555
20
0.6299208333333334
42
0.4144619588839177
0
VERTEX
8
0
10
1.6230374999999999
20
0.6181152777777778
42
0.4142647747027992
0
VERTEX
8
0
10
1.6348430555555553
20
0.6299208333333334
0
SEQEND
8
0
0
POLYLINE
8
0
70
0
66
1
0
VERTEX
8
0
10
1.3986222222222222
20
0.6299208333333334
42
0.4142647747028359
0
VERTEX
8
0
10
1.3868166666666666
20
0.6417263888888889
42
0.4144619588839324
0
VERTEX
8
0
10
1.3749972222222222
20
0.6299208333333334
42
0.4144619588839447
0
VERTEX
8
0
10
1.3868166666666666
20
0.6181152777777778
42
0.4142647747028138
0
VERTEX
8
0
10
1.3986222222222222
20
0.6299208333333334
0
SEQEND
8
0
0
POLYLINE
8
0
70
0
66
1
0
VERTEX
8
0
10
1.515236111111111
20
0.6299208333333334
42
0.4142361111111148
0
VERTEX
8
0
10
1.485236111111111
20
0.6599208333333334
42
0.4142361111111033
0
VERTEX
8
0
10
1.455236111111111
20
0.6299208333333334
42
0.4142361111111062
0
VERTEX
8
0
10
1.485236111111111
20
0.5999208333333332
42
0.4142361111111013
0
VERTEX
8
0
10
1.515236111111111
20
0.6299208333333334
0
SEQEND
8
0
0
POLYLINE
8
0
70
0
66
1
0
VERTEX
8
0
10
2.6348430555555553
20
0.8799208333333333
42
0.4142647747028237
0
VERTEX
8
0
10
2.6230374999999997
20
0.8917263888888889
42
0.4144619588839373
0
VERTEX
8
0
10
2.6112180555555553
20
0.8799208333333333
42
0.4144619588839373
0
VERTEX
8
0
10
2.6230374999999997
20
0.8681152777777778
42
0.4142647747027748
0
VERTEX
8
0
10
2.6348430555555553
20
0.8799208333333333
0
SEQEND
8
0
0
POLYLINE
8
0
70
0
66
1
0
VERTEX
8
0
10
0.5152361111111111
20
0.6299208333333334
42
0.4142361111111119
0
VERTEX
8
0
10
0.485236111111111
20
0.6599208333333334
42
0.4142361111111109
0
VERTEX
8
0
10
0.4552361111111111
20
0.6299208333333334
42
0.41423611111111
0
VERTEX
8
0
10
0.485236111111111
20
0.5999208333333332
42
0.414236111111108
0
VERTEX
8
0
10
0.5152361111111111
20
0.6299208333333334
0
SEQEND
8
0
0
POLYLINE
8
0
70
0
66
1
0
VERTEX
8
0
10
0.3986222222222222
20
0.6299208333333334
42
0.4142647747028296
0
VERTEX
8
0
10
0.3868166666666666
20
0.6417263888888889
42
0.4144619588839447
0
VERTEX
8
0
10
0.3749972222222222
20
0.6299208333333334
42
0.4144619588839374
0
VERTEX
8
0
10
0.3868166666666666
20
0.6181152777777778
42
0.4142647747028164
0
VERTEX
8
0
10
0.3986222222222222
20
0.6299208333333334
0
SEQEND
8
0
0
POLYLINE
8
0
70
0
66
1
0
VERTEX
8
0
10
0.6348430555555555
20
0.6299208333333334
42
0.414264774702831
0
VERTEX
8
0
10
0.6230374999999999
20
0.6417263888888889
42
0.4144619588839373
0
VERTEX
8
0
10
0.6112180555555555
20
0.6299208333333334
42
0.414461958883935
0
VERTEX
8
0
10
0.6230374999999999
20
0.6181152777777778
42
0.4142647747028164
0
VERTEX
8
0
10
0.6348430555555555
20
0.6299208333333334
0
SEQEND
8
0
0
POLYLINE
8
0
70
0
66
1
0
VERTEX
8
0
10
1.515236111111111
20
2.3799208333333333
42
0.4142361111111195
0
VERTEX
8
0
10
1.485236111111111
20
2.4099208333333331
42
0.4142361111111023
0
VERTEX
8
0
10
1.455236111111111
20
2.3799208333333333
42
0.4142361111110927
0
VERTEX
8
0
10
1.485236111111111
20
2.349920833333333
42
0.4142361111111158
0
VERTEX
8
0
10
1.515236111111111
20
2.3799208333333333
0
SEQEND
8
0
0
POLYLINE
8
0
70
0
66
1
0
VERTEX
8
0
10
1.3986222222222222
20
2.1299208333333333
42
0.4142647747028161
0
VERTEX
8
0
10
1.3868166666666666
20
2.1417263888888884
42
0.4144619588839251
0
VERTEX
8
0
10
1.3749972222222222
20
2.1299208333333333
42
0.4144619588839251
0
VERTEX
8
0
10
1.3868166666666666
20
2.1181152777777776
42
0.4142647747028114
0
VERTEX
8
0
10
1.3986222222222222
20
2.1299208333333333
0
SEQEND
8
0
0
POLYLINE
8
0
70
0
66
1
0
VERTEX
8
0
10
1.515236111111111
20
2.1299208333333333
42
0.4142361111111195
0
VERTEX
8
0
10
1.485236111111111
20
2.1599208333333331
42
0.4142361111111023
0
VERTEX
8
0
10
1.455236111111111
20
2.1299208333333333
42
0.4142361111110927
0
VERTEX
8
0
10
1.485236111111111
20
2.099920833333333
42
0.4142361111111158
0
VERTEX
8
0
10
1.515236111111111
20
2.1299208333333333
0
SEQEND
8
0
0
POLYLINE
8
0
70
0
66
1
0
VERTEX
8
0
10
1.6348430555555553
20
2.1299208333333333
42
0.4142647747028161
0
VERTEX
8
0
10
1.6230374999999999
20
2.1417263888888884
42
0.41446195888393
0
VERTEX
8
0
10
1.6112180555555555
20
2.1299208333333333
42
0.4144619588839202
0
VERTEX
8
0
10
1.6230374999999999
20
2.1181152777777776
42
0.4142647747028213
0
VERTEX
8
0
10
1.6348430555555553
20
2.1299208333333333
0
SEQEND
8
0
0
POLYLINE
8
0
70
0
66
1
0
VERTEX
8
0
10
0.6348430555555555
20
2.3799208333333333
42
0.4142647747027992
0
VERTEX
8
0
10
0.6230374999999999
20
2.3917263888888884
42
0.4144619588839055
0
VERTEX
8
0
10
0.6112180555555555
20
2.3799208333333333
42
0.4144619588839081
0
VERTEX
8
0
10
0.6230374999999999
20
2.3681152777777776
42
0.4142647747028382
0
VERTEX
8
0
10
0.6348430555555555
20
2.3799208333333333
0
SEQEND
8
0
0
POLYLINE
8
0
70
0
66
1
0
VERTEX
8
0
10
0.3986222222222222
20
2.3799208333333333
42
0.4142647747028005
0
VERTEX
8
0
10
0.3868166666666666
20
2.3917263888888884
42
0.4144619588839422
0
VERTEX
8
0
10
0.3749972222222222
20
2.3799208333333333
42
0.4144619588839398
0
VERTEX
8
0
10
0.3868166666666666
20
2.3681152777777776
42
0.4142647747028346
0
VERTEX
8
0
10
0.3986222222222222
20
2.3799208333333333
0
SEQEND
8
0
0
POLYLINE
8
0
70
0
66
1
0
VERTEX
8
0
10
0.5152361111111111
20
2.3799208333333333
42
0.4142361111111176
0
VERTEX
8
0
10
0.485236111111111
20
2.4099208333333331
42
0.4142361111111167
0
VERTEX
8
0
10
0.4552361111111111
20
2.3799208333333333
42
0.4142361111111042
0
VERTEX
8
0
10
0.485236111111111
20
2.349920833333333
42
0.4142361111111169
0
VERTEX
8
0
10
0.5152361111111111
20
2.3799208333333333
0
SEQEND
8
0
0
POLYLINE
8
0
70
0
66
1
0
VERTEX
8
0
10
1.1299208333333333
20
1.5049208333333333
42
0.4142499999999995
0
VERTEX
8
0
10
1.0049208333333333
20
1.6299208333333333
42
0.4142500000000001
0
VERTEX
8
0
10
0.8799208333333333
20
1.5049208333333333
42
0.41425
0
VERTEX
8
0
10
1.0049208333333333
20
1.3799208333333333
42
0.4142499999999992
0
VERTEX
8
0
10
1.1299208333333333
20
1.5049208333333333
0
SEQEND
8
0
0
POLYLINE
8
0
70
0
66
1
0
VERTEX
8
0
10
0.3799208333333333
20
0.2549208333333333
42
0.41425
0
VERTEX
8
0
10
0.2549208333333333
20
0.3799208333333333
42
0.4142499999999998
0
VERTEX
8
0
10
0.1299208333333333
20
0.2549208333333333
42
0.4142499999999998
0
VERTEX
8
0
10
0.2549208333333333
20
0.1299208333333333
42
0.4142500000000005
0
VERTEX
8
0
10
0.3799208333333333
20
0.2549208333333333
0
SEQEND
8
0
0
POLYLINE
8
0
70
0
66
1
0
VERTEX
8
0
10
0.3799208333333333
20
2.7549208333333333
42
0.4142499999999992
0
VERTEX
8
0
10
0.2549208333333333
20
2.8799208333333333
42
0.4142499999999993
0
VERTEX
8
0
10
0.1299208333333333
20
2.7549208333333333
42
0.4142499999999993
0
VERTEX
8
0
10
0.2549208333333333
20
2.6299208333333333
42
0.4142499999999992
0
VERTEX
8
0
10
0.3799208333333333
20
2.7549208333333333
0
SEQEND
8
0
0
POLYLINE
8
0
70
0
66
1
0
VERTEX
8
0
10
0.0049208333333333
20
3.0049208333333333
0
VERTEX
8
0
10
0.0049208333333333
20
0.0049208333333333
0
SEQEND
8
0
0
POLYLINE
8
0
70
0
66
1
0
VERTEX
8
0
10
0.0049208333333333
20
0.0049208333333333
0
VERTEX
8
0
10
3.0049208333333333
20
0.0049208333333333
0
SEQEND
8
0
0
POLYLINE
8
0
70
0
66
1
0
VERTEX
8
0
10
3.0049208333333333
20
0.0049208333333333
0
VERTEX
8
0
10
3.0049208333333333
20
3.0049208333333333
0
SEQEND
8
0
0
POLYLINE
8
0
70
0
66
1
0
VERTEX
8
0
10
3.0049208333333333
20
3.0049208333333333
0
VERTEX
8
0
10
0.0049208333333333
20
3.0049208333333333
0
SEQEND
8
0
0
POLYLINE
8
0
70
0
66
1
0
VERTEX
8
0
10
2.8799208333333333
20
2.7549208333333333
42
0.4142499999999997
0
VERTEX
8
0
10
2.7549208333333333
20
2.8799208333333333
42
0.4142500000000014
0
VERTEX
8
0
10
2.6299208333333333
20
2.7549208333333333
42
0.4142500000000005
0
VERTEX
8
0
10
2.7549208333333333
20
2.6299208333333333
42
0.4142499999999997
0
VERTEX
8
0
10
2.8799208333333333
20
2.7549208333333333
0
SEQEND
8
0
0
POLYLINE
8
0
70
0
66
1
0
VERTEX
8
0
10
2.8799208333333333
20
0.2549208333333333
42
0.41425
0
VERTEX
8
0
10
2.7549208333333333
20
0.3799208333333333
42
0.4142500000000013
0
VERTEX
8
0
10
2.6299208333333333
20
0.2549208333333333
42
0.4142500000000006
0
VERTEX
8
0
10
2.7549208333333333
20
0.1299208333333333
42
0.4142499999999997
0
VERTEX
8
0
10
2.8799208333333333
20
0.2549208333333333
0
SEQEND
8
0
0
POLYLINE
8
0
70
0
66
1
0
VERTEX
8
0
10
2.1299208333333333
20
1.5049208333333333
42
0.4142500000000005
0
VERTEX
8
0
10
2.0049208333333333
20
1.6299208333333333
42
0.4142500000000023
0
VERTEX
8
0
10
1.8799208333333333
20
1.5049208333333333
42
0.4142500000000016
0
VERTEX
8
0
10
2.0049208333333333
20
1.3799208333333333
42
0.4142500000000016
0
VERTEX
8
0
10
2.1299208333333333
20
1.5049208333333333
0
SEQEND
8
0
0
POLYLINE
8
0
70
0
66
1
0
VERTEX
8
0
10
1.6348430555555553
20
1.8799208333333333
42
0.4142647747028359
0
VERTEX
8
0
10
1.6230374999999999
20
1.8917263888888887
42
0.41446195888393
0
VERTEX
8
0
10
1.6112180555555555
20
1.8799208333333333
42
0.4144619588839202
0
VERTEX
8
0
10
1.6230374999999999
20
1.8681152777777776
42
0.4142647747028213
0
VERTEX
8
0
10
1.6348430555555553
20
1.8799208333333333
0
SEQEND
8
0
0
POLYLINE
8
0
70
0
66
1
0
VERTEX
8
0
10
1.6348430555555553
20
1.6299208333333333
42
0.414264774702831
0
VERTEX
8
0
10
1.6230374999999999
20
1.6417263888888887
42
0.4144619588839055
0
VERTEX
8
0
10
1.6112180555555555
20
1.6299208333333333
42
0.4144619588839152
0
VERTEX
8
0
10
1.6230374999999999
20
1.6181152777777776
42
0.4142647747027969
0
VERTEX
8
0
10
1.6348430555555553
20
1.6299208333333333
0
SEQEND
8
0
0
POLYLINE
8
0
70
0
66
1
0
VERTEX
8
0
10
1.6348430555555553
20
1.3799208333333333
42
0.414264774702831
0
VERTEX
8
0
10
1.6230374999999999
20
1.3917263888888887
42
0.4144619588839055
0
VERTEX
8
0
10
1.6112180555555555
20
1.3799208333333333
42
0.4144619588839152
0
VERTEX
8
0
10
1.6230374999999999
20
1.3681152777777776
42
0.4142647747027969
0
VERTEX
8
0
10
1.6348430555555553
20
1.3799208333333333
0
SEQEND
8
0
0
POLYLINE
8
0
70
0
66
1
0
VERTEX
8
0
10
1.6348430555555553
20
1.1299208333333333
42
0.414264774702831
0
VERTEX
8
0
10
1.6230374999999999
20
1.1417263888888887
42
0.4144619588839055
0
VERTEX
8
0
10
1.6112180555555555
20
1.1299208333333333
42
0.4144619588839152
0
VERTEX
8
0
10
1.6230374999999999
20
1.1181152777777776
42
0.4142647747027969
0
VERTEX
8
0
10
1.6348430555555553
20
1.1299208333333333
0
SEQEND
8
0
0
POLYLINE
8
0
70
0
66
1
0
VERTEX
8
0
10
1.6348430555555553
20
0.8799208333333333
42
0.4142647747028333
0
VERTEX
8
0
10
1.6230374999999999
20
0.8917263888888889
42
0.4144619588839275
0
VERTEX
8
0
10
1.6112180555555555
20
0.8799208333333333
42
0.4144619588839177
0
VERTEX
8
0
10
1.6230374999999999
20
0.8681152777777778
42
0.4142647747027992
0
VERTEX
8
0
10
1.6348430555555553
20
0.8799208333333333
0
SEQEND
8
0
0
POLYLINE
8
0
70
0
66
1
0
VERTEX
8
0
10
1.515236111111111
20
1.8799208333333333
42
0.4142361111111195
0
VERTEX
8
0
10
1.485236111111111
20
1.9099208333333331
42
0.4142361111111023
0
VERTEX
8
0
10
1.455236111111111
20
1.8799208333333333
42
0.4142361111111176
0
VERTEX
8
0
10
1.485236111111111
20
1.8499208333333332
42
0.4142361111111158
0
VERTEX
8
0
10
1.515236111111111
20
1.8799208333333333
0
SEQEND
8
0
0
POLYLINE
8
0
70
0
66
1
0
VERTEX
8
0
10
1.515236111111111
20
1.6299208333333333
42
0.4142361111111215
0
VERTEX
8
0
10
1.485236111111111
20
1.6599208333333331
42
0.4142361111111061
0
VERTEX
8
0
10
1.455236111111111
20
1.6299208333333333
42
0.4142361111111139
0
VERTEX
8
0
10
1.485236111111111
20
1.5999208333333332
42
0.4142361111111137
0
VERTEX
8
0
10
1.515236111111111
20
1.6299208333333333
0
SEQEND
8
0
0
POLYLINE
8
0
70
0
66
1
0
VERTEX
8
0
10
1.515236111111111
20
1.3799208333333333
42
0.4142361111111215
0
VERTEX
8
0
10
1.485236111111111
20
1.4099208333333331
42
0.4142361111111061
0
VERTEX
8
0
10
1.455236111111111
20
1.3799208333333333
42
0.4142361111111139
0
VERTEX
8
0
10
1.485236111111111
20
1.3499208333333332
42
0.4142361111111137
0
VERTEX
8
0
10
1.515236111111111
20
1.3799208333333333
0
SEQEND
8
0
0
POLYLINE
8
0
70
0
66
1
0
VERTEX
8
0
10
1.515236111111111
20
1.1299208333333333
42
0.4142361111111215
0
VERTEX
8
0
10
1.485236111111111
20
1.1599208333333331
42
0.4142361111111061
0
VERTEX
8
0
10
1.455236111111111
20
1.1299208333333333
42
0.4142361111111139
0
VERTEX
8
0
10
1.485236111111111
20
1.0999208333333332
42
0.4142361111111137
0
VERTEX
8
0
10
1.515236111111111
20
1.1299208333333333
0
SEQEND
8
0
0
POLYLINE
8
0
70
0
66
1
0
VERTEX
8
0
10
1.515236111111111
20
0.8799208333333333
42
0.4142361111111254
0
VERTEX
8
0
10
1.485236111111111
20
0.9099208333333334
42
0.4142361111110994
0
VERTEX
8
0
10
1.455236111111111
20
0.8799208333333333
42
0.4142361111111062
0
VERTEX
8
0
10
1.485236111111111
20
0.8499208333333332
42
0.4142361111111013
0
VERTEX
8
0
10
1.515236111111111
20
0.8799208333333333
0
SEQEND
8
0
0
POLYLINE
8
0
70
0
66
1
0
VERTEX
8
0
10
1.3986222222222222
20
1.8799208333333333
42
0.414264774702826
0
VERTEX
8
0
10
1.3868166666666666
20
1.8917263888888887
42
0.4144619588839251
0
VERTEX
8
0
10
1.3749972222222222
20
1.8799208333333333
42
0.4144619588839251
0
VERTEX
8
0
10
1.3868166666666666
20
1.8681152777777776
42
0.4142647747028114
0
VERTEX
8
0
10
1.3986222222222222
20
1.8799208333333333
0
SEQEND
8
0
0
POLYLINE
8
0
70
0
66
1
0
VERTEX
8
0
10
1.3986222222222222
20
1.6299208333333333
42
0.4142647747028359
0
VERTEX
8
0
10
1.3868166666666666
20
1.6417263888888887
42
0.4144619588839447
0
VERTEX
8
0
10
1.3749972222222222
20
1.6299208333333333
42
0.414461958883935
0
VERTEX
8
0
10
1.3868166666666666
20
1.6181152777777776
42
0.4142647747028359
0
VERTEX
8
0
10
1.3986222222222222
20
1.6299208333333333
0
SEQEND
8
0
0
POLYLINE
8
0
70
0
66
1
0
VERTEX
8
0
10
1.3986222222222222
20
1.3799208333333333
42
0.4142647747028408
0
VERTEX
8
0
10
1.3868166666666666
20
1.3917263888888887
42
0.4144619588839447
0
VERTEX
8
0
10
1.3749972222222222
20
1.3799208333333333
42
0.4144619588839447
0
VERTEX
8
0
10
1.3868166666666666
20
1.3681152777777776
42
0.4142647747028359
0
VERTEX
8
0
10
1.3986222222222222
20
1.3799208333333333
0
SEQEND
8
0
0
POLYLINE
8
0
70
0
66
1
0
VERTEX
8
0
10
1.3986222222222222
20
1.1299208333333333
42
0.4142647747028408
0
VERTEX
8
0
10
1.3868166666666666
20
1.1417263888888887
42
0.4144619588839447
0
VERTEX
8
0
10
1.3749972222222222
20
1.1299208333333333
42
0.4144619588839447
0
VERTEX
8
0
10
1.3868166666666666
20
1.1181152777777776
42
0.4142647747028359
0
VERTEX
8
0
10
1.3986222222222222
20
1.1299208333333333
0
SEQEND
8
0
0
POLYLINE
8
0
70
0
66
1
0
VERTEX
8
0
10
1.3986222222222222
20
0.8799208333333333
42
0.4142647747028359
0
VERTEX
8
0
10
1.3868166666666666
20
0.8917263888888889
42
0.4144619588839324
0
VERTEX
8
0
10
1.3749972222222222
20
0.8799208333333333
42
0.4144619588839447
0
VERTEX
8
0
10
1.3868166666666666
20
0.8681152777777778
42
0.4142647747028138
0
VERTEX
8
0
10
1.3986222222222222
20
0.8799208333333333
0
SEQEND
8
0
0
POLYLINE
8
0
70
0
66
1
0
VERTEX
8
0
10
0.0
20
3.0098472222222221
0
VERTEX
8
0
10
3.0098472222222221
20
3.0098472222222221
0
VERTEX
8
0
10
3.0098472222222221
20
-0.0
0
VERTEX
8
0
10
0.0
20
-0.0
0
VERTEX
8
0
10
0.0
20
3.0098472222222221
0
SEQEND
8
0
0
POLYLINE
8
0
70
0
66
1
0
VERTEX
8
0
10
2.5152361111111112
20
1.6299208333333333
42
0.4142361111111254
0
VERTEX
8
0
10
2.485236111111111
20
1.6599208333333331
42
0.4142361111111138
0
VERTEX
8
0
10
2.4552361111111112
20
1.6299208333333333
42
0.4142361111111196
0
VERTEX
8
0
10
2.485236111111111
20
1.5999208333333332
42
0.4142361111111294
0
VERTEX
8
0
10
2.5152361111111112
20
1.6299208333333333
0
SEQEND
8
0
0
POLYLINE
8
0
70
0
66
1
0
VERTEX
8
0
10
2.398622222222222
20
1.6299208333333333
42
0.4142647747028211
0
VERTEX
8
0
10
2.3868166666666664
20
1.6417263888888887
42
0.4144619588839495
0
VERTEX
8
0
10
2.374997222222222
20
1.6299208333333333
42
0.4144619588839398
0
VERTEX
8
0
10
2.3868166666666664
20
1.6181152777777776
42
0.414264774702831
0
VERTEX
8
0
10
2.398622222222222
20
1.6299208333333333
0
SEQEND
8
0
0
POLYLINE
8
0
70
0
66
1
0
VERTEX
8
0
10
2.6348430555555553
20
1.6299208333333333
42
0.4142647747028211
0
VERTEX
8
0
10
2.6230374999999997
20
1.6417263888888887
42
0.4144619588839105
0
VERTEX
8
0
10
2.6112180555555553
20
1.6299208333333333
42
0.414461958883935
0
VERTEX
8
0
10
2.6230374999999997
20
1.6181152777777776
42
0.4142647747027722
0
VERTEX
8
0
10
2.6348430555555553
20
1.6299208333333333
0
SEQEND
8
0
0
POLYLINE
8
0
70
0
66
1
0
VERTEX
8
0
10
0.5152361111111111
20
1.3799208333333333
42
0.4142361111111187
0
VERTEX
8
0
10
0.485236111111111
20
1.4099208333333331
42
0.4142361111111129
0
VERTEX
8
0
10
0.4552361111111111
20
1.3799208333333333
42
0.414236111111114
0
VERTEX
8
0
10
0.485236111111111
20
1.3499208333333332
42
0.414236111111114
0
VERTEX
8
0
10
0.5152361111111111
20
1.3799208333333333
0
SEQEND
8
0
0
POLYLINE
8
0
70
0
66
1
0
VERTEX
8
0
10
2.6348430555555553
20
1.8799208333333333
42
0.4142647747028211
0
VERTEX
8
0
10
2.6230374999999997
20
1.8917263888888887
42
0.4144619588839105
0
VERTEX
8
0
10
2.6112180555555553
20
1.8799208333333333
42
0.4144619588839398
0
VERTEX
8
0
10
2.6230374999999997
20
1.8681152777777776
42
0.4142647747027722
0
VERTEX
8
0
10
2.6348430555555553
20
1.8799208333333333
0
SEQEND
8
0
0
POLYLINE
8
0
70
0
66
1
0
VERTEX
8
0
10
0.5152361111111111
20
1.6299208333333333
42
0.4142361111111187
0
VERTEX
8
0
10
0.485236111111111
20
1.6599208333333331
42
0.4142361111111129
0
VERTEX
8
0
10
0.4552361111111111
20
1.6299208333333333
42
0.414236111111114
0
VERTEX
8
0
10
0.485236111111111
20
1.5999208333333332
42
0.414236111111114
0
VERTEX
8
0
10
0.5152361111111111
20
1.6299208333333333
0
SEQEND
8
0
0
POLYLINE
8
0
70
0
66
1
0
VERTEX
8
0
10
0.3986222222222222
20
1.6299208333333333
42
0.4142647747028296
0
VERTEX
8
0
10
0.3868166666666666
20
1.6417263888888887
42
0.4144619588839386
0
VERTEX
8
0
10
0.3749972222222222
20
1.6299208333333333
42
0.4144619588839313
0
VERTEX
8
0
10
0.3868166666666666
20
1.6181152777777776
42
0.4142647747028296
0
VERTEX
8
0
10
0.3986222222222222
20
1.6299208333333333
0
SEQEND
8
0
0
POLYLINE
8
0
70
0
66
1
0
VERTEX
8
0
10
0.6348430555555555
20
1.6299208333333333
42
0.414264774702831
0
VERTEX
8
0
10
0.6230374999999999
20
1.6417263888888887
42
0.4144619588839276
0
VERTEX
8
0
10
0.6112180555555555
20
1.6299208333333333
42
0.4144619588839326
0
VERTEX
8
0
10
0.6230374999999999
20
1.6181152777777776
42
0.4142647747028382
0
VERTEX
8
0
10
0.6348430555555555
20
1.6299208333333333
0
SEQEND
8
0
0
POLYLINE
8
0
70
0
66
1
0
VERTEX
8
0
10
2.6348430555555553
20
1.3799208333333333
42
0.4142647747028211
0
VERTEX
8
0
10
2.6230374999999997
20
1.3917263888888887
42
0.4144619588839105
0
VERTEX
8
0
10
2.6112180555555553
20
1.3799208333333333
42
0.414461958883935
0
VERTEX
8
0
10
2.6230374999999997
20
1.3681152777777776
42
0.4142647747027722
0
VERTEX
8
0
10
2.6348430555555553
20
1.3799208333333333
0
SEQEND
8
0
0
POLYLINE
8
0
70
0
66
1
0
VERTEX
8
0
10
0.5152361111111111
20
1.1299208333333333
42
0.4142361111111187
0
VERTEX
8
0
10
0.485236111111111
20
1.1599208333333331
42
0.4142361111111129
0
VERTEX
8
0
10
0.4552361111111111
20
1.1299208333333333
42
0.414236111111114
0
VERTEX
8
0
10
0.485236111111111
20
1.0999208333333332
42
0.414236111111114
0
VERTEX
8
0
10
0.5152361111111111
20
1.1299208333333333
0
SEQEND
8
0
0
POLYLINE
8
0
70
0
66
1
0
VERTEX
8
0
10
0.3986222222222222
20
1.1299208333333333
42
0.4142647747028296
0
VERTEX
8
0
10
0.3868166666666666
20
1.1417263888888887
42
0.4144619588839263
0
VERTEX
8
0
10
0.3749972222222222
20
1.1299208333333333
42
0.4144619588839313
0
VERTEX
8
0
10
0.3868166666666666
20
1.1181152777777776
42
0.4142647747028296
0
VERTEX
8
0
10
0.3986222222222222
20
1.1299208333333333
0
SEQEND
8
0
0
POLYLINE
8
0
70
0
66
1
0
VERTEX
8
0
10
0.6348430555555555
20
1.1299208333333333
42
0.414264774702831
0
VERTEX
8
0
10
0.6230374999999999
20
1.1417263888888887
42
0.4144619588839349
0
VERTEX
8
0
10
0.6112180555555555
20
1.1299208333333333
42
0.4144619588839326
0
VERTEX
8
0
10
0.6230374999999999
20
1.1181152777777776
42
0.414264774702831
0
VERTEX
8
0
10
0.6348430555555555
20
1.1299208333333333
0
SEQEND
8
0
0
POLYLINE
8
0
70
0
66
1
0
VERTEX
8
0
10
2.398622222222222
20
1.3799208333333333
42
0.4142647747028211
0
VERTEX
8
0
10
2.3868166666666664
20
1.3917263888888887
42
0.4144619588839495
0
VERTEX
8
0
10
2.374997222222222
20
1.3799208333333333
42
0.4144619588839398
0
VERTEX
8
0
10
2.3868166666666664
20
1.3681152777777776
42
0.414264774702831
0
VERTEX
8
0
10
2.398622222222222
20
1.3799208333333333
0
SEQEND
8
0
0
POLYLINE
8
0
70
0
66
1
0
VERTEX
8
0
10
2.5152361111111112
20
1.3799208333333333
42
0.4142361111111254
0
VERTEX
8
0
10
2.485236111111111
20
1.4099208333333331
42
0.4142361111111138
0
VERTEX
8
0
10
2.4552361111111112
20
1.3799208333333333
42
0.4142361111111196
0
VERTEX
8
0
10
2.485236111111111
20
1.3499208333333332
42
0.4142361111111294
0
VERTEX
8
0
10
2.5152361111111112
20
1.3799208333333333
0
SEQEND
8
0
0
POLYLINE
8
0
70
0
66
1
0
VERTEX
8
0
10
0.6348430555555555
20
1.3799208333333333
42
0.414264774702831
0
VERTEX
8
0
10
0.6230374999999999
20
1.3917263888888887
42
0.4144619588839349
0
VERTEX
8
0
10
0.6112180555555555
20
1.3799208333333333
42
0.4144619588839326
0
VERTEX
8
0
10
0.6230374999999999
20
1.3681152777777776
42
0.414264774702831
0
VERTEX
8
0
10
0.6348430555555555
20
1.3799208333333333
0
SEQEND
8
0
0
POLYLINE
8
0
70
0
66
1
0
VERTEX
8
0
10
0.3986222222222222
20
1.3799208333333333
42
0.4142647747028296
0
VERTEX
8
0
10
0.3868166666666666
20
1.3917263888888887
42
0.4144619588839263
0
VERTEX
8
0
10
0.3749972222222222
20
1.3799208333333333
42
0.4144619588839313
0
VERTEX
8
0
10
0.3868166666666666
20
1.3681152777777776
42
0.4142647747028296
0
VERTEX
8
0
10
0.3986222222222222
20
1.3799208333333333
0
SEQEND
8
0
0
POLYLINE
8
0
70
0
66
1
0
VERTEX
8
0
10
2.6348430555555553
20
2.3799208333333333
42
0.4142647747028211
0
VERTEX
8
0
10
2.6230374999999997
20
2.3917263888888884
42
0.4144619588839105
0
VERTEX
8
0
10
2.6112180555555553
20
2.3799208333333333
42
0.4144619588839398
0
VERTEX
8
0
10
2.6230374999999997
20
2.3681152777777776
42
0.4142647747027722
0
VERTEX
8
0
10
2.6348430555555553
20
2.3799208333333333
0
SEQEND
8
0
0
POLYLINE
8
0
70
0
66
1
0
VERTEX
8
0
10
0.5152361111111111
20
2.1299208333333333
42
0.4142361111111176
0
VERTEX
8
0
10
0.485236111111111
20
2.1599208333333331
42
0.4142361111111167
0
VERTEX
8
0
10
0.4552361111111111
20
2.1299208333333333
42
0.4142361111111042
0
VERTEX
8
0
10
0.485236111111111
20
2.099920833333333
42
0.4142361111111169
0
VERTEX
8
0
10
0.5152361111111111
20
2.1299208333333333
0
SEQEND
8
0
0
POLYLINE
8
0
70
0
66
1
0
VERTEX
8
0
10
0.3986222222222222
20
2.1299208333333333
42
0.4142647747028005
0
VERTEX
8
0
10
0.3868166666666666
20
2.1417263888888884
42
0.4144619588839422
0
VERTEX
8
0
10
0.3749972222222222
20
2.1299208333333333
42
0.4144619588839398
0
VERTEX
8
0
10
0.3868166666666666
20
2.1181152777777776
42
0.4142647747028346
0
VERTEX
8
0
10
0.3986222222222222
20
2.1299208333333333
0
SEQEND
8
0
0
POLYLINE
8
0
70
0
66
1
0
VERTEX
8
0
10
0.6348430555555555
20
2.1299208333333333
42
0.4142647747027992
0
VERTEX
8
0
10
0.6230374999999999
20
2.1417263888888884
42
0.4144619588839055
0
VERTEX
8
0
10
0.6112180555555555
20
2.1299208333333333
42
0.4144619588839081
0
VERTEX
8
0
10
0.6230374999999999
20
2.1181152777777776
42
0.4142647747028382
0
VERTEX
8
0
10
0.6348430555555555
20
2.1299208333333333
0
SEQEND
8
0
0
POLYLINE
8
0
70
0
66
1
0
VERTEX
8
0
10
2.398622222222222
20
2.3799208333333333
42
0.4142647747027919
0
VERTEX
8
0
10
2.3868166666666664
20
2.3917263888888884
42
0.4144619588839105
0
VERTEX
8
0
10
2.374997222222222
20
2.3799208333333333
42
0.4144619588839398
0
VERTEX
8
0
10
2.3868166666666664
20
2.3681152777777776
42
0.414264774702831
0
VERTEX
8
0
10
2.398622222222222
20
2.3799208333333333
0
SEQEND
8
0
0
POLYLINE
8
0
70
0
66
1
0
VERTEX
8
0
10
2.5152361111111112
20
2.3799208333333333
42
0.4142361111111254
0
VERTEX
8
0
10
2.485236111111111
20
2.4099208333333331
42
0.4142361111111176
0
VERTEX
8
0
10
2.4552361111111112
20
2.3799208333333333
42
0.414236111111106
0
VERTEX
8
0
10
2.485236111111111
20
2.349920833333333
42
0.4142361111111294
0
VERTEX
8
0
10
2.5152361111111112
20
2.3799208333333333
0
SEQEND
8
0
0
POLYLINE
8
0
70
0
66
1
0
VERTEX
8
0
10
1.6348430555555553
20
2.3799208333333333
42
0.4142647747028161
0
VERTEX
8
0
10
1.6230374999999999
20
2.3917263888888884
42
0.41446195888393
0
VERTEX
8
0
10
1.6112180555555555
20
2.3799208333333333
42
0.4144619588839202
0
VERTEX
8
0
10
1.6230374999999999
20
2.3681152777777776
42
0.4142647747028213
0
VERTEX
8
0
10
1.6348430555555553
20
2.3799208333333333
0
SEQEND
8
0
0
POLYLINE
8
0
70
0
66
1
0
VERTEX
8
0
10
1.3986222222222222
20
2.3799208333333333
42
0.4142647747028161
0
VERTEX
8
0
10
1.3868166666666666
20
2.3917263888888884
42
0.4144619588839251
0
VERTEX
8
0
10
1.3749972222222222
20
2.3799208333333333
42
0.4144619588839251
0
VERTEX
8
0
10
1.3868166666666666
20
2.3681152777777776
42
0.4142647747028114
0
VERTEX
8
0
10
1.3986222222222222
20
2.3799208333333333
0
SEQEND
8
0
0
POLYLINE
8
0
70
0
66
1
0
VERTEX
8
0
10
2.398622222222222
20
1.8799208333333333
42
0.4142647747028211
0
VERTEX
8
0
10
2.3868166666666664
20
1.8917263888888887
42
0.4144619588839105
0
VERTEX
8
0
10
2.374997222222222
20
1.8799208333333333
42
0.4144619588839398
0
VERTEX
8
0
10
2.3868166666666664
20
1.8681152777777776
42
0.414264774702831
0
VERTEX
8
0
10
2.398622222222222
20
1.8799208333333333
0
SEQEND
8
0
0
POLYLINE
8
0
70
0
66
1
0
VERTEX
8
0
10
2.5152361111111112
20
1.8799208333333333
42
0.4142361111111254
0
VERTEX
8
0
10
2.485236111111111
20
1.9099208333333331
42
0.4142361111111176
0
VERTEX
8
0
10
2.4552361111111112
20
1.8799208333333333
42
0.4142361111111176
0
VERTEX
8
0
10
2.485236111111111
20
1.8499208333333332
42
0.4142361111111294
0
VERTEX
8
0
10
2.5152361111111112
20
1.8799208333333333
0
SEQEND
8
0
0
POLYLINE
8
0
70
0
66
1
0
VERTEX
8
0
10
0.6348430555555555
20
1.8799208333333333
42
0.4142647747028234
0
VERTEX
8
0
10
0.6230374999999999
20
1.8917263888888887
42
0.4144619588839055
0
VERTEX
8
0
10
0.6112180555555555
20
1.8799208333333333
42
0.4144619588839081
0
VERTEX
8
0
10
0.6230374999999999
20
1.8681152777777776
42
0.4142647747028382
0
VERTEX
8
0
10
0.6348430555555555
20
1.8799208333333333
0
SEQEND
8
0
0
POLYLINE
8
0
70
0
66
1
0
VERTEX
8
0
10
0.3986222222222222
20
1.8799208333333333
42
0.4142647747028224
0
VERTEX
8
0
10
0.3868166666666666
20
1.8917263888888887
42
0.4144619588839422
0
VERTEX
8
0
10
0.3749972222222222
20
1.8799208333333333
42
0.4144619588839398
0
VERTEX
8
0
10
0.3868166666666666
20
1.8681152777777776
42
0.4142647747028346
0
VERTEX
8
0
10
0.3986222222222222
20
1.8799208333333333
0
SEQEND
8
0
0
POLYLINE
8
0
70
0
66
1
0
VERTEX
8
0
10
2.5152361111111112
20
2.1299208333333333
42
0.4142361111111254
0
VERTEX
8
0
10
2.485236111111111
20
2.1599208333333331
42
0.4142361111111176
0
VERTEX
8
0
10
2.4552361111111112
20
2.1299208333333333
42
0.414236111111106
0
VERTEX
8
0
10
2.485236111111111
20
2.099920833333333
42
0.4142361111111294
0
VERTEX
8
0
10
2.5152361111111112
20
2.1299208333333333
0
SEQEND
8
0
0
POLYLINE
8
0
70
0
66
1
0
VERTEX
8
0
10
2.398622222222222
20
2.1299208333333333
42
0.4142647747027919
0
VERTEX
8
0
10
2.3868166666666664
20
2.1417263888888884
42
0.4144619588839105
0
VERTEX
8
0
10
2.374997222222222
20
2.1299208333333333
42
0.4144619588839398
0
VERTEX
8
0
10
2.3868166666666664
20
2.1181152777777776
42
0.414264774702831
0
VERTEX
8
0
10
2.398622222222222
20
2.1299208333333333
0
SEQEND
8
0
0
POLYLINE
8
0
70
0
66
1
0
VERTEX
8
0
10
2.6348430555555553
20
2.1299208333333333
42
0.4142647747028211
0
VERTEX
8
0
10
2.6230374999999997
20
2.1417263888888884
42
0.4144619588839105
0
VERTEX
8
0
10
2.6112180555555553
20
2.1299208333333333
42
0.4144619588839398
0
VERTEX
8
0
10
2.6230374999999997
20
2.1181152777777776
42
0.4142647747027722
0
VERTEX
8
0
10
2.6348430555555553
20
2.1299208333333333
0
SEQEND
8
0
0
POLYLINE
8
0
70
0
66
1
0
VERTEX
8
0
10
0.5152361111111111
20
1.8799208333333333
42
0.4142361111111176
0
VERTEX
8
0
10
0.485236111111111
20
1.9099208333333331
42
0.4142361111111167
0
VERTEX
8
0
10
0.4552361111111111
20
1.8799208333333333
42
0.4142361111111169
0
VERTEX
8
0
10
0.485236111111111
20
1.8499208333333332
42
0.4142361111111169
0
VERTEX
8
0
10
0.5152361111111111
20
1.8799208333333333
0
SEQEND
8
0
0
POLYLINE
8
0
70
0
66
1
0
VERTEX
8
0
10
2.6348430555555553
20
0.6299208333333334
42
0.4142647747028237
0
VERTEX
8
0
10
2.6230374999999997
20
0.6417263888888889
42
0.4144619588839373
0
VERTEX
8
0
10
2.6112180555555553
20
0.6299208333333334
42
0.4144619588839373
0
VERTEX
8
0
10
2.6230374999999997
20
0.6181152777777778
42
0.4142647747027748
0
VERTEX
8
0
10
2.6348430555555553
20
0.6299208333333334
0
SEQEND
8
0
0
POLYLINE
8
0
70
0
66
1
0
VERTEX
8
0
10
2.398622222222222
20
0.6299208333333334
42
0.4142647747028382
0
VERTEX
8
0
10
2.3868166666666664
20
0.6417263888888889
42
0.4144619588839177
0
VERTEX
8
0
10
2.374997222222222
20
0.6299208333333334
42
0.4144619588839423
0
VERTEX
8
0
10
2.3868166666666664
20
0.6181152777777778
42
0.4142647747028333
0
VERTEX
8
0
10
2.398622222222222
20
0.6299208333333334
0
SEQEND
8
0
0
POLYLINE
8
0
70
0
66
1
0
VERTEX
8
0
10
2.398622222222222
20
0.8799208333333333
42
0.4142647747028382
0
VERTEX
8
0
10
2.3868166666666664
20
0.8917263888888889
42
0.4144619588839177
0
VERTEX
8
0
10
2.374997222222222
20
0.8799208333333333
42
0.4144619588839423
0
VERTEX
8
0
10
2.3868166666666664
20
0.8681152777777778
42
0.4142647747028333
0
VERTEX
8
0
10
2.398622222222222
20
0.8799208333333333
0
SEQEND
8
0
0
POLYLINE
8
0
70
0
66
1
0
VERTEX
8
0
10
2.5152361111111112
20
0.8799208333333333
42
0.4142361111111265
0
VERTEX
8
0
10
2.485236111111111
20
0.9099208333333334
42
0.4142361111111129
0
VERTEX
8
0
10
2.4552361111111112
20
0.8799208333333333
42
0.4142361111111072
0
VERTEX
8
0
10
2.485236111111111
20
0.8499208333333332
42
0.4142361111110994
0
VERTEX
8
0
10
2.5152361111111112
20
0.8799208333333333
0
SEQEND
8
0
0
POLYLINE
8
0
70
0
66
1
0
VERTEX
8
0
10
0.6348430555555555
20
0.8799208333333333
42
0.414264774702831
0
VERTEX
8
0
10
0.6230374999999999
20
0.8917263888888889
42
0.4144619588839373
0
VERTEX
8
0
10
0.6112180555555555
20
0.8799208333333333
42
0.414461958883935
0
VERTEX
8
0
10
0.6230374999999999
20
0.8681152777777778
42
0.4142647747028164
0
VERTEX
8
0
10
0.6348430555555555
20
0.8799208333333333
0
SEQEND
8
0
0
POLYLINE
8
0
70
0
66
1
0
VERTEX
8
0
10
0.3986222222222222
20
0.8799208333333333
42
0.4142647747028296
0
VERTEX
8
0
10
0.3868166666666666
20
0.8917263888888889
42
0.4144619588839385
0
VERTEX
8
0
10
0.3749972222222222
20
0.8799208333333333
42
0.4144619588839374
0
VERTEX
8
0
10
0.3868166666666666
20
0.8681152777777778
42
0.4142647747028188
0
VERTEX
8
0
10
0.3986222222222222
20
0.8799208333333333
0
SEQEND
8
0
0
POLYLINE
8
0
70
0
66
1
0
VERTEX
8
0
10
2.5152361111111112
20
1.1299208333333333
42
0.4142361111111254
0
VERTEX
8
0
10
2.485236111111111
20
1.1599208333333331
42
0.4142361111111138
0
VERTEX
8
0
10
2.4552361111111112
20
1.1299208333333333
42
0.4142361111111196
0
VERTEX
8
0
10
2.485236111111111
20
1.0999208333333332
42
0.4142361111111294
0
VERTEX
8
0
10
2.5152361111111112
20
1.1299208333333333
0
SEQEND
8
0
0
POLYLINE
8
0
70
0
66
1
0
VERTEX
8
0
10
2.398622222222222
20
1.1299208333333333
42
0.4142647747028211
0
VERTEX
8
0
10
2.3868166666666664
20
1.1417263888888887
42
0.4144619588839202
0
VERTEX
8
0
10
2.374997222222222
20
1.1299208333333333
42
0.4144619588839398
0
VERTEX
8
0
10
2.3868166666666664
20
1.1181152777777776
42
0.414264774702831
0
VERTEX
8
0
10
2.398622222222222
20
1.1299208333333333
0
SEQEND
8
0
0
POLYLINE
8
0
70
0
66
1
0
VERTEX
8
0
10
2.6348430555555553
20
1.1299208333333333
42
0.4142647747028211
0
VERTEX
8
0
10
2.6230374999999997
20
1.1417263888888887
42
0.4144619588839105
0
VERTEX
8
0
10
2.6112180555555553
20
1.1299208333333333
42
0.414461958883935
0
VERTEX
8
0
10
2.6230374999999997
20
1.1181152777777776
42
0.4142647747027722
0
VERTEX
8
0
10
2.6348430555555553
20
1.1299208333333333
0
SEQEND
8
0
0
POLYLINE
8
0
70
0
66
1
0
VERTEX
8
0
10
0.5152361111111111
20
0.8799208333333333
42
0.4142361111111197
0
VERTEX
8
0
10
0.485236111111111
20
0.9099208333333334
42
0.4142361111111109
0
VERTEX
8
0
10
0.4552361111111111
20
0.8799208333333333
42
0.41423611111111
0
VERTEX
8
0
10
0.485236111111111
20
0.8499208333333332
42
0.414236111111108
0
VERTEX
8
0
10
0.5152361111111111
20
0.8799208333333333
0
SEQEND
8
0
0
POLYLINE
8
0
70
0
66
1
0
VERTEX
8
0
10
2.5152361111111112
20
0.6299208333333334
42
0.4142361111111127
0
VERTEX
8
0
10
2.485236111111111
20
0.6599208333333334
42
0.4142361111111167
0
VERTEX
8
0
10
2.4552361111111112
20
0.6299208333333334
42
0.4142361111111072
0
VERTEX
8
0
10
2.485236111111111
20
0.5999208333333332
42
0.4142361111110994
0
VERTEX
8
0
10
2.5152361111111112
20
0.6299208333333334
0
SEQEND
8
0
0
POLYLINE
8
0
70
0
66
1
0
VERTEX
8
0
10
1.6348430555555553
20
0.6299208333333334
42
0.4142647747028333
0
VERTEX
8
0
10
1.6230374999999999
20
0.6417263888888889
42
0.4144619588839275
0
VERTEX
8
0
10
1.6112180555555555
20
0.6299208333333334
42
0.4144619588839177
0
VERTEX
8
0
10
1.6230374999999999
20
0.6181152777777778
42
0.4142647747027992
0
VERTEX
8
0
10
1.6348430555555553
20
0.6299208333333334
0
SEQEND
8
0
0
POLYLINE
8
0
70
0
66
1
0
VERTEX
8
0
10
1.3986222222222222
20
0.6299208333333334
42
0.4142647747028359
0
VERTEX
8
0
10
1.3868166666666666
20
0.6417263888888889
42
0.4144619588839324
0
VERTEX
8
0
10
1.3749972222222222
20
0.6299208333333334
42
0.4144619588839447
0
VERTEX
8
0
10
1.3868166666666666
20
0.6181152777777778
42
0.4142647747028138
0
VERTEX
8
0
10
1.3986222222222222
20
0.6299208333333334
0
SEQEND
8
0
0
POLYLINE
8
0
70
0
66
1
0
VERTEX
8
0
10
1.515236111111111
20
0.6299208333333334
42
0.4142361111111148
0
VERTEX
8
0
10
1.485236111111111
20
0.6599208333333334
42
0.4142361111111033
0
VERTEX
8
0
10
1.455236111111111
20
0.6299208333333334
42
0.4142361111111062
0
VERTEX
8
0
10
1.485236111111111
20
0.5999208333333332
42
0.4142361111111013
0
VERTEX
8
0
10
1.515236111111111
20
0.6299208333333334
0
SEQEND
8
0
0
POLYLINE
8
0
70
0
66
1
0
VERTEX
8
0
10
2.6348430555555553
20
0.8799208333333333
42
0.4142647747028237
0
VERTEX
8
0
10
2.6230374999999997
20
0.8917263888888889
42
0.4144619588839373
0
VERTEX
8
0
10
2.6112180555555553
20
0.8799208333333333
42
0.4144619588839373
0
VERTEX
8
0
10
2.6230374999999997
20
0.8681152777777778
42
0.4142647747027748
0
VERTEX
8
0
10
2.6348430555555553
20
0.8799208333333333
0
SEQEND
8
0
0
POLYLINE
8
0
70
0
66
1
0
VERTEX
8
0
10
0.5152361111111111
20
0.6299208333333334
42
0.4142361111111119
0
VERTEX
8
0
10
0.485236111111111
20
0.6599208333333334
42
0.4142361111111109
0
VERTEX
8
0
10
0.4552361111111111
20
0.6299208333333334
42
0.41423611111111
0
VERTEX
8
0
10
0.485236111111111
20
0.5999208333333332
42
0.414236111111108
0
VERTEX
8
0
10
0.5152361111111111
20
0.6299208333333334
0
SEQEND
8
0
0
POLYLINE
8
0
70
0
66
1
0
VERTEX
8
0
10
0.3986222222222222
20
0.6299208333333334
42
0.4142647747028296
0
VERTEX
8
0
10
0.3868166666666666
20
0.6417263888888889
42
0.4144619588839447
0
VERTEX
8
0
10
0.3749972222222222
20
0.6299208333333334
42
0.4144619588839374
0
VERTEX
8
0
10
0.3868166666666666
20
0.6181152777777778
42
0.4142647747028164
0
VERTEX
8
0
10
0.3986222222222222
20
0.6299208333333334
0
SEQEND
8
0
0
POLYLINE
8
0
70
0
66
1
0
VERTEX
8
0
10
0.6348430555555555
20
0.6299208333333334
42
0.414264774702831
0
VERTEX
8
0
10
0.6230374999999999
20
0.6417263888888889
42
0.4144619588839373
0
VERTEX
8
0
10
0.6112180555555555
20
0.6299208333333334
42
0.414461958883935
0
VERTEX
8
0
10
0.6230374999999999
20
0.6181152777777778
42
0.4142647747028164
0
VERTEX
8
0
10
0.6348430555555555
20
0.6299208333333334
0
SEQEND
8
0
0
POLYLINE
8
0
70
0
66
1
0
VERTEX
8
0
10
1.515236111111111
20
2.3799208333333333
42
0.4142361111111195
0
VERTEX
8
0
10
1.485236111111111
20
2.4099208333333331
42
0.4142361111111023
0
VERTEX
8
0
10
1.455236111111111
20
2.3799208333333333
42
0.4142361111110927
0
VERTEX
8
0
10
1.485236111111111
20
2.349920833333333
42
0.4142361111111158
0
VERTEX
8
0
10
1.515236111111111
20
2.3799208333333333
0
SEQEND
8
0
0
POLYLINE
8
0
70
0
66
1
0
VERTEX
8
0
10
1.3986222222222222
20
2.1299208333333333
42
0.4142647747028161
0
VERTEX
8
0
10
1.3868166666666666
20
2.1417263888888884
42
0.4144619588839251
0
VERTEX
8
0
10
1.3749972222222222
20
2.1299208333333333
42
0.4144619588839251
0
VERTEX
8
0
10
1.3868166666666666
20
2.1181152777777776
42
0.4142647747028114
0
VERTEX
8
0
10
1.3986222222222222
20
2.1299208333333333
0
SEQEND
8
0
0
POLYLINE
8
0
70
0
66
1
0
VERTEX
8
0
10
1.515236111111111
20
2.1299208333333333
42
0.4142361111111195
0
VERTEX
8
0
10
1.485236111111111
20
2.1599208333333331
42
0.4142361111111023
0
VERTEX
8
0
10
1.455236111111111
20
2.1299208333333333
42
0.4142361111110927
0
VERTEX
8
0
10
1.485236111111111
20
2.099920833333333
42
0.4142361111111158
0
VERTEX
8
0
10
1.515236111111111
20
2.1299208333333333
0
SEQEND
8
0
0
POLYLINE
8
0
70
0
66
1
0
VERTEX
8
0
10
1.6348430555555553
20
2.1299208333333333
42
0.4142647747028161
0
VERTEX
8
0
10
1.6230374999999999
20
2.1417263888888884
42
0.41446195888393
0
VERTEX
8
0
10
1.6112180555555555
20
2.1299208333333333
42
0.4144619588839202
0
VERTEX
8
0
10
1.6230374999999999
20
2.1181152777777776
42
0.4142647747028213
0
VERTEX
8
0
10
1.6348430555555553
20
2.1299208333333333
0
SEQEND
8
0
0
POLYLINE
8
0
70
0
66
1
0
VERTEX
8
0
10
0.6348430555555555
20
2.3799208333333333
42
0.4142647747027992
0
VERTEX
8
0
10
0.6230374999999999
20
2.3917263888888884
42
0.4144619588839055
0
VERTEX
8
0
10
0.6112180555555555
20
2.3799208333333333
42
0.4144619588839081
0
VERTEX
8
0
10
0.6230374999999999
20
2.3681152777777776
42
0.4142647747028382
0
VERTEX
8
0
10
0.6348430555555555
20
2.3799208333333333
0
SEQEND
8
0
0
POLYLINE
8
0
70
0
66
1
0
VERTEX
8
0
10
0.3986222222222222
20
2.3799208333333333
42
0.4142647747028005
0
VERTEX
8
0
10
0.3868166666666666
20
2.3917263888888884
42
0.4144619588839422
0
VERTEX
8
0
10
0.3749972222222222
20
2.3799208333333333
42
0.4144619588839398
0
VERTEX
8
0
10
0.3868166666666666
20
2.3681152777777776
42
0.4142647747028346
0
VERTEX
8
0
10
0.3986222222222222
20
2.3799208333333333
0
SEQEND
8
0
0
POLYLINE
8
0
70
0
66
1
0
VERTEX
8
0
10
0.5152361111111111
20
2.3799208333333333
42
0.4142361111111176
0
VERTEX
8
0
10
0.485236111111111
20
2.4099208333333331
42
0.4142361111111167
0
VERTEX
8
0
10
0.4552361111111111
20
2.3799208333333333
42
0.4142361111111042
0
VERTEX
8
0
10
0.485236111111111
20
2.349920833333333
42
0.4142361111111169
0
VERTEX
8
0
10
0.5152361111111111
20
2.3799208333333333
0
SEQEND
8
0
0
POLYLINE
8
0
70
0
66
1
0
VERTEX
8
0
10
1.1299208333333333
20
1.5049208333333333
42
0.4142499999999995
0
VERTEX
8
0
10
1.0049208333333333
20
1.6299208333333333
42
0.4142500000000001
0
VERTEX
8
0
10
0.8799208333333333
20
1.5049208333333333
42
0.41425
0
VERTEX
8
0
10
1.0049208333333333
20
1.3799208333333333
42
0.4142499999999992
0
VERTEX
8
0
10
1.1299208333333333
20
1.5049208333333333
0
SEQEND
8
0
0
POLYLINE
8
0
70
0
66
1
0
VERTEX
8
0
10
0.3799208333333333
20
0.2549208333333333
42
0.41425
0
VERTEX
8
0
10
0.2549208333333333
20
0.3799208333333333
42
0.4142499999999998
0
VERTEX
8
0
10
0.1299208333333333
20
0.2549208333333333
42
0.4142499999999998
0
VERTEX
8
0
10
0.2549208333333333
20
0.1299208333333333
42
0.4142500000000005
0
VERTEX
8
0
10
0.3799208333333333
20
0.2549208333333333
0
SEQEND
8
0
0
POLYLINE
8
0
70
0
66
1
0
VERTEX
8
0
10
0.3799208333333333
20
2.7549208333333333
42
0.4142499999999992
0
VERTEX
8
0
10
0.2549208333333333
20
2.8799208333333333
42
0.4142499999999993
0
VERTEX
8
0
10
0.1299208333333333
20
2.7549208333333333
42
0.4142499999999993
0
VERTEX
8
0
10
0.2549208333333333
20
2.6299208333333333
42
0.4142499999999992
0
VERTEX
8
0
10
0.3799208333333333
20
2.7549208333333333
0
SEQEND
8
0
0
POLYLINE
8
0
70
0
66
1
0
VERTEX
8
0
10
0.0049208333333333
20
3.0049208333333333
0
VERTEX
8
0
10
0.0049208333333333
20
0.0049208333333333
0
SEQEND
8
0
0
POLYLINE
8
0
70
0
66
1
0
VERTEX
8
0
10
0.0049208333333333
20
0.0049208333333333
0
VERTEX
8
0
10
3.0049208333333333
20
0.0049208333333333
0
SEQEND
8
0
0
POLYLINE
8
0
70
0
66
1
0
VERTEX
8
0
10
3.0049208333333333
20
0.0049208333333333
0
VERTEX
8
0
10
3.0049208333333333
20
3.0049208333333333
0
SEQEND
8
0
0
POLYLINE
8
0
70
0
66
1
0
VERTEX
8
0
10
3.0049208333333333
20
3.0049208333333333
0
VERTEX
8
0
10
0.0049208333333333
20
3.0049208333333333
0
SEQEND
8
0
0
POLYLINE
8
0
70
0
66
1
0
VERTEX
8
0
10
2.8799208333333333
20
2.7549208333333333
42
0.4142499999999997
0
VERTEX
8
0
10
2.7549208333333333
20
2.8799208333333333
42
0.4142500000000014
0
VERTEX
8
0
10
2.6299208333333333
20
2.7549208333333333
42
0.4142500000000005
0
VERTEX
8
0
10
2.7549208333333333
20
2.6299208333333333
42
0.4142499999999997
0
VERTEX
8
0
10
2.8799208333333333
20
2.7549208333333333
0
SEQEND
8
0
0
POLYLINE
8
0
70
0
66
1
0
VERTEX
8
0
10
2.8799208333333333
20
0.2549208333333333
42
0.41425
0
VERTEX
8
0
10
2.7549208333333333
20
0.3799208333333333
42
0.4142500000000013
0
VERTEX
8
0
10
2.6299208333333333
20
0.2549208333333333
42
0.4142500000000006
0
VERTEX
8
0
10
2.7549208333333333
20
0.1299208333333333
42
0.4142499999999997
0
VERTEX
8
0
10
2.8799208333333333
20
0.2549208333333333
0
SEQEND
8
0
0
POLYLINE
8
0
70
0
66
1
0
VERTEX
8
0
10
2.1299208333333333
20
1.5049208333333333
42
0.4142500000000005
0
VERTEX
8
0
10
2.0049208333333333
20
1.6299208333333333
42
0.4142500000000023
0
VERTEX
8
0
10
1.8799208333333333
20
1.5049208333333333
42
0.4142500000000016
0
VERTEX
8
0
10
2.0049208333333333
20
1.3799208333333333
42
0.4142500000000016
0
VERTEX
8
0
10
2.1299208333333333
20
1.5049208333333333
0
SEQEND
8
0
0
POLYLINE
8
0
70
0
66
1
0
VERTEX
8
0
10
1.6348430555555553
20
1.8799208333333333
42
0.4142647747028359
0
VERTEX
8
0
10
1.6230374999999999
20
1.8917263888888887
42
0.41446195888393
0
VERTEX
8
0
10
1.6112180555555555
20
1.8799208333333333
42
0.4144619588839202
0
VERTEX
8
0
10
1.6230374999999999
20
1.8681152777777776
42
0.4142647747028213
0
VERTEX
8
0
10
1.6348430555555553
20
1.8799208333333333
0
SEQEND
8
0
0
POLYLINE
8
0
70
0
66
1
0
VERTEX
8
0
10
1.6348430555555553
20
1.6299208333333333
42
0.414264774702831
0
VERTEX
8
0
10
1.6230374999999999
20
1.6417263888888887
42
0.4144619588839055
0
VERTEX
8
0
10
1.6112180555555555
20
1.6299208333333333
42
0.4144619588839152
0
VERTEX
8
0
10
1.6230374999999999
20
1.6181152777777776
42
0.4142647747027969
0
VERTEX
8
0
10
1.6348430555555553
20
1.6299208333333333
0
SEQEND
8
0
0
POLYLINE
8
0
70
0
66
1
0
VERTEX
8
0
10
1.6348430555555553
20
1.3799208333333333
42
0.414264774702831
0
VERTEX
8
0
10
1.6230374999999999
20
1.3917263888888887
42
0.4144619588839055
0
VERTEX
8
0
10
1.6112180555555555
20
1.3799208333333333
42
0.4144619588839152
0
VERTEX
8
0
10
1.6230374999999999
20
1.3681152777777776
42
0.4142647747027969
0
VERTEX
8
0
10
1.6348430555555553
20
1.3799208333333333
0
SEQEND
8
0
0
POLYLINE
8
0
70
0
66
1
0
VERTEX
8
0
10
1.6348430555555553
20
1.1299208333333333
42
0.414264774702831
0
VERTEX
8
0
10
1.6230374999999999
20
1.1417263888888887
42
0.4144619588839055
0
VERTEX
8
0
10
1.6112180555555555
20
1.1299208333333333
42
0.4144619588839152
0
VERTEX
8
0
10
1.6230374999999999
20
1.1181152777777776
42
0.4142647747027969
0
VERTEX
8
0
10
1.6348430555555553
20
1.1299208333333333
0
SEQEND
8
0
0
POLYLINE
8
0
70
0
66
1
0
VERTEX
8
0
10
1.6348430555555553
20
0.8799208333333333
42
0.4142647747028333
0
VERTEX
8
0
10
1.6230374999999999
20
0.8917263888888889
42
0.4144619588839275
0
VERTEX
8
0
10
1.6112180555555555
20
0.8799208333333333
42
0.4144619588839177
0
VERTEX
8
0
10
1.6230374999999999
20
0.8681152777777778
42
0.4142647747027992
0
VERTEX
8
0
10
1.6348430555555553
20
0.8799208333333333
0
SEQEND
8
0
0
POLYLINE
8
0
70
0
66
1
0
VERTEX
8
0
10
1.515236111111111
20
1.8799208333333333
42
0.4142361111111195
0
VERTEX
8
0
10
1.485236111111111
20
1.9099208333333331
42
0.4142361111111023
0
VERTEX
8
0
10
1.455236111111111
20
1.8799208333333333
42
0.4142361111111176
0
VERTEX
8
0
10
1.485236111111111
20
1.8499208333333332
42
0.4142361111111158
0
VERTEX
8
0
10
1.515236111111111
20
1.8799208333333333
0
SEQEND
8
0
0
POLYLINE
8
0
70
0
66
1
0
VERTEX
8
0
10
1.515236111111111
20
1.6299208333333333
42
0.4142361111111215
0
VERTEX
8
0
10
1.485236111111111
20
1.6599208333333331
42
0.4142361111111061
0
VERTEX
8
0
10
1.455236111111111
20
1.6299208333333333
42
0.4142361111111139
0
VERTEX
8
0
10
1.485236111111111
20
1.5999208333333332
42
0.4142361111111137
0
VERTEX
8
0
10
1.515236111111111
20
1.6299208333333333
0
SEQEND
8
0
0
POLYLINE
8
0
70
0
66
1
0
VERTEX
8
0
10
1.515236111111111
20
1.3799208333333333
42
0.4142361111111215
0
VERTEX
8
0
10
1.485236111111111
20
1.4099208333333331
42
0.4142361111111061
0
VERTEX
8
0
10
1.455236111111111
20
1.3799208333333333
42
0.4142361111111139
0
VERTEX
8
0
10
1.485236111111111
20
1.3499208333333332
42
0.4142361111111137
0
VERTEX
8
0
10
1.515236111111111
20
1.3799208333333333
0
SEQEND
8
0
0
POLYLINE
8
0
70
0
66
1
0
VERTEX
8
0
10
1.515236111111111
20
1.1299208333333333
42
0.4142361111111215
0
VERTEX
8
0
10
1.485236111111111
20
1.1599208333333331
42
0.4142361111111061
0
VERTEX
8
0
10
1.455236111111111
20
1.1299208333333333
42
0.4142361111111139
0
VERTEX
8
0
10
1.485236111111111
20
1.0999208333333332
42
0.4142361111111137
0
VERTEX
8
0
10
1.515236111111111
20
1.1299208333333333
0
SEQEND
8
0
0
POLYLINE
8
0
70
0
66
1
0
VERTEX
8
0
10
1.515236111111111
20
0.8799208333333333
42
0.4142361111111254
0
VERTEX
8
0
10
1.485236111111111
20
0.9099208333333334
42
0.4142361111110994
0
VERTEX
8
0
10
1.455236111111111
20
0.8799208333333333
42
0.4142361111111062
0
VERTEX
8
0
10
1.485236111111111
20
0.8499208333333332
42
0.4142361111111013
0
VERTEX
8
0
10
1.515236111111111
20
0.8799208333333333
0
SEQEND
8
0
0
POLYLINE
8
0
70
0
66
1
0
VERTEX
8
0
10
1.3986222222222222
20
1.8799208333333333
42
0.414264774702826
0
VERTEX
8
0
10
1.3868166666666666
20
1.8917263888888887
42
0.4144619588839251
0
VERTEX
8
0
10
1.3749972222222222
20
1.8799208333333333
42
0.4144619588839251
0
VERTEX
8
0
10
1.3868166666666666
20
1.8681152777777776
42
0.4142647747028114
0
VERTEX
8
0
10
1.3986222222222222
20
1.8799208333333333
0
SEQEND
8
0
0
POLYLINE
8
0
70
0
66
1
0
VERTEX
8
0
10
1.3986222222222222
20
1.6299208333333333
42
0.4142647747028359
0
VERTEX
8
0
10
1.3868166666666666
20
1.6417263888888887
42
0.4144619588839447
0
VERTEX
8
0
10
1.3749972222222222
20
1.6299208333333333
42
0.414461958883935
0
VERTEX
8
0
10
1.3868166666666666
20
1.6181152777777776
42
0.4142647747028359
0
VERTEX
8
0
10
1.3986222222222222
20
1.6299208333333333
0
SEQEND
8
0
0
POLYLINE
8
0
70
0
66
1
0
VERTEX
8
0
10
1.3986222222222222
20
1.3799208333333333
42
0.4142647747028408
0
VERTEX
8
0
10
1.3868166666666666
20
1.3917263888888887
42
0.4144619588839447
0
VERTEX
8
0
10
1.3749972222222222
20
1.3799208333333333
42
0.4144619588839447
0
VERTEX
8
0
10
1.3868166666666666
20
1.3681152777777776
42
0.4142647747028359
0
VERTEX
8
0
10
1.3986222222222222
20
1.3799208333333333
0
SEQEND
8
0
0
POLYLINE
8
0
70
0
66
1
0
VERTEX
8
0
10
1.3986222222222222
20
1.1299208333333333
42
0.4142647747028408
0
VERTEX
8
0
10
1.3868166666666666
20
1.1417263888888887
42
0.4144619588839447
0
VERTEX
8
0
10
1.3749972222222222
20
1.1299208333333333
42
0.4144619588839447
0
VERTEX
8
0
10
1.3868166666666666
20
1.1181152777777776
42
0.4142647747028359
0
VERTEX
8
0
10
1.3986222222222222
20
1.1299208333333333
0
SEQEND
8
0
0
POLYLINE
8
0
70
0
66
1
0
VERTEX
8
0
10
1.3986222222222222
20
0.8799208333333333
42
0.4142647747028359
0
VERTEX
8
0
10
1.3868166666666666
20
0.8917263888888889
42
0.4144619588839324
0
VERTEX
8
0
10
1.3749972222222222
20
0.8799208333333333
42
0.4144619588839447
0
VERTEX
8
0
10
1.3868166666666666
20
0.8681152777777778
42
0.4142647747028138
0
VERTEX
8
0
10
1.3986222222222222
20
0.8799208333333333
0
SEQEND
8
0
0
ENDSEC
0
EOF
