  0
SECTION
  2
HEADER
  9
$ACADVER
  1
AC1003
  9
$EXTMIN
 10
0.85
 20
4.05
  9
$EXTMAX
 10
4
 20
1
  9
$INSUNITS
 70
1
  9
$INSBASE
 10
2.425
 20
2.525
999
Created with OMAX LAYOUT for Windows. (www.omax.com) 3/13/2023
  0
ENDSEC
  0
SECTION
  2
TABLES
  0
TABLE
  2
LAYER
 70
    10
  0
LAYER
  2
0
 70
     0
 62
     7
  6
CONTINUOUS
  0
LAYER
  2
1
 70
     0
 62
     7
  6
CONTINUOUS
  0
LAYER
  2
2
 70
     0
 62
     7
  6
CONTINUOUS
  0
LAYER
  2
3
 70
     0
 62
     7
  6
CONTINUOUS
  0
LAYER
  2
4
 70
     0
 62
     7
  6
CONTINUOUS
  0
LAYER
  2
5
 70
     0
 62
     7
  6
CONTINUOUS
  0
LAYER
  2
6
 70
     0
 62
     7
  6
CONTINUOUS
  0
LAYER
  2
7
 70
     0
 62
     7
  6
CONTINUOUS
  0
LAYER
  2
8
 70
     0
 62
     7
  6
CONTINUOUS
  0
LAYER
  2
9
 70
     0
 62
     7
  6
CONTINUOUS
  0
LAYER
  2
10
 70
     0
 62
     7
  6
CONTINUOUS
  0
LAYER
  2
11
 70
     0
 62
     7
  6
CONTINUOUS
  0
LAYER
  2
12
 70
     0
 62
     7
  6
CONTINUOUS
  0
LAYER
  2
13
 70
     0
 62
     7
  6
CONTINUOUS
  0
LAYER
  2
14
 70
     0
 62
     7
  6
CONTINUOUS
  0
LAYER
  2
15
 70
     0
 62
     7
  6
CONTINUOUS
  0
LAYER
  2
16
 70
     0
 62
     7
  6
CONTINUOUS
  0
LAYER
  2
17
 70
     0
 62
     7
  6
CONTINUOUS
  0
LAYER
  2
18
 70
     0
 62
     7
  6
CONTINUOUS
  0
LAYER
  2
19
 70
     0
 62
     7
  6
CONTINUOUS
  0
LAYER
  2
20
 70
     0
 62
     7
  6
CONTINUOUS
  0
LAYER
  2
21
 70
     0
 62
     7
  6
CONTINUOUS
  0
LAYER
  2
22
 70
     0
 62
     7
  6
CONTINUOUS
  0
LAYER
  2
23
 70
     0
 62
     7
  6
CONTINUOUS
  0
LAYER
  2
24
 70
     0
 62
     7
  6
CONTINUOUS
  0
LAYER
  2
25
 70
     0
 62
     7
  6
CONTINUOUS
  0
LAYER
  2
26
 70
     0
 62
     7
  6
CONTINUOUS
  0
LAYER
  2
27
 70
     0
 62
     7
  6
CONTINUOUS
  0
LAYER
  2
28
 70
     0
 62
     7
  6
CONTINUOUS
  0
LAYER
  2
29
 70
     0
 62
     7
  6
CONTINUOUS
  0
LAYER
  2
30
 70
     0
 62
     7
  6
CONTINUOUS
  0
LAYER
  2
31
 70
     0
 62
     7
  6
CONTINUOUS
  0
ENDTAB
  0
ENDSEC
  0
SECTION
  2
ENTITIES
  0
LINE
  8
0
  6
CONTINUOUS
 62
0
 10
0.85
 20
1
 30
0.0
 11
1.25460312300466
 21
1.24707109964636
 31
0.0
  0
LINE
  8
0
  6
CONTINUOUS
 62
0
 10
1.28988326309127
 20
1.3136134019008
 30
0.0
 11
1.48277455426635
 21
1.62224008177739
 31
0.0
  0
LINE
  8
0
  6
CONTINUOUS
 62
0
 10
1.38257713689804
 20
1.62643019888126
 30
0.0
 11
1.48277455426635
 21
1.87224008177739
 31
0.0
  0
LINE
  8
0
  6
CONTINUOUS
 62
0
 10
1.38257713689804
 20
1.87643019888126
 30
0.0
 11
1.48277455426635
 21
2.12224008177738
 31
0.0
  0
LINE
  8
0
  6
CONTINUOUS
 62
0
 10
1.38257713689804
 20
2.12643019888126
 30
0.0
 11
2.48277455426635
 21
1.62224008177739
 31
0.0
  0
LINE
  8
0
  6
CONTINUOUS
 62
0
 10
2.38257713689804
 20
1.62643019888126
 30
0.0
 11
2.48277455426635
 21
1.87224008177739
 31
0.0
  0
LINE
  8
0
  6
CONTINUOUS
 62
0
 10
2.38257713689804
 20
1.87643019888126
 30
0.0
 11
2.48277455426635
 21
2.12224008177739
 31
0.0
  0
LINE
  8
0
  6
CONTINUOUS
 62
0
 10
2.38257713689804
 20
2.12643019888126
 30
0.0
 11
2.48277455426635
 21
3.37224008177739
 31
0.0
  0
LINE
  8
0
  6
CONTINUOUS
 62
0
 10
2.38257713689804
 20
3.37643019888126
 30
0.0
 11
2.48277455426635
 21
3.12224008177738
 31
0.0
  0
LINE
  8
0
  6
CONTINUOUS
 62
0
 10
2.38257713689804
 20
3.12643019888126
 30
0.0
 11
2.48277455426635
 21
2.87224008177739
 31
0.0
  0
LINE
  8
0
  6
CONTINUOUS
 62
0
 10
2.38257713689804
 20
2.87643019888126
 30
0.0
 11
2.48277455426635
 21
2.62224008177738
 31
0.0
  0
LINE
  8
0
  6
CONTINUOUS
 62
0
 10
2.38257713689804
 20
2.62643019888126
 30
0.0
 11
3.7544640199867
 21
1.2531293669545
 31
0.0
  0
LINE
  8
0
  6
CONTINUOUS
 62
0
 10
3.70648987971725
 20
1.31119009498353
 30
0.0
 11
3.48277455426635
 21
1.62224008177739
 31
0.0
  0
LINE
  8
0
  6
CONTINUOUS
 62
0
 10
3.38257713689804
 20
1.62643019888126
 30
0.0
 11
3.48277455426635
 21
1.87224008177739
 31
0.0
  0
LINE
  8
0
  6
CONTINUOUS
 62
0
 10
3.38257713689804
 20
1.87643019888126
 30
0.0
 11
3.48277455426635
 21
2.12224008177739
 31
0.0
  0
LINE
  8
0
  6
CONTINUOUS
 62
0
 10
3.38257713689804
 20
2.12643019888126
 30
0.0
 11
3.74539687699009
 21
3.75292890037379
 31
0.0
  0
LINE
  8
0
  6
CONTINUOUS
 62
0
 10
3.71011673690946
 20
3.68638659811617
 30
0.0
 11
3.48277455426635
 21
3.37224008177739
 31
0.0
  0
LINE
  8
0
  6
CONTINUOUS
 62
0
 10
3.38257713689804
 20
3.37643019888126
 30
0.0
 11
3.48277455426635
 21
3.12224008177739
 31
0.0
  0
LINE
  8
0
  6
CONTINUOUS
 62
0
 10
3.38257713689804
 20
3.12643019888126
 30
0.0
 11
3.48277455426635
 21
2.87224008177739
 31
0.0
  0
LINE
  8
0
  6
CONTINUOUS
 62
0
 10
3.38257713689804
 20
2.87643019888126
 30
0.0
 11
3.48277455426635
 21
2.62224008177739
 31
0.0
  0
LINE
  8
0
  6
CONTINUOUS
 62
0
 10
3.38257713689804
 20
2.62643019888126
 30
0.0
 11
3.48277455426635
 21
2.37224008177739
 31
0.0
  0
LINE
  8
0
  6
CONTINUOUS
 62
0
 10
3.38257713689804
 20
2.37643019888126
 30
0.0
 11
2.99881969751391
 21
2.50531824296763
 31
0.0
  0
LINE
  8
0
  6
CONTINUOUS
 62
0
 10
2.92681898317828
 20
2.48321703465196
 30
0.0
 11
2.48277455426635
 21
2.37224008177739
 31
0.0
  0
LINE
  8
0
  6
CONTINUOUS
 62
0
 10
2.38257713689804
 20
2.37643019888126
 30
0.0
 11
1.9988196975139
 21
2.50531824296764
 31
0.0
  0
LINE
  8
0
  6
CONTINUOUS
 62
0
 10
1.92681898317828
 20
2.48321703465196
 30
0.0
 11
1.48277455426635
 21
2.37224008177739
 31
0.0
  0
LINE
  8
0
  6
CONTINUOUS
 62
0
 10
1.38257713689804
 20
2.37643019888126
 30
0.0
 11
1.48277455426635
 21
2.62224008177739
 31
0.0
  0
LINE
  8
0
  6
CONTINUOUS
 62
0
 10
1.38257713689804
 20
2.62643019888126
 30
0.0
 11
1.48277455426635
 21
2.87224008177739
 31
0.0
  0
LINE
  8
0
  6
CONTINUOUS
 62
0
 10
1.38257713689804
 20
2.87643019888126
 30
0.0
 11
1.48277455426635
 21
3.12224008177738
 31
0.0
  0
LINE
  8
0
  6
CONTINUOUS
 62
0
 10
1.38257713689804
 20
3.12643019888126
 30
0.0
 11
1.48277455426635
 21
3.37224008177738
 31
0.0
  0
LINE
  8
0
  6
CONTINUOUS
 62
0
 10
1.38257713689804
 20
3.37643019888126
 30
0.0
 11
1.25292890035365
 21
3.75460312300466
 31
0.0
  0
LINE
  8
0
  6
CONTINUOUS
 62
0
 10
1.1863865980992
 20
3.78988326309127
 30
0.0
 11
0.85
 21
4
 31
0.0
  0
LINE
  8
0
  6
CONTINUOUS
 62
0
 10
1
 20
4.05
 30
0.0
 11
0.85
 21
4.05
 31
0.0
  0
ARC
  8
3
  6
CONTINUOUS
 62
3
 10
1.25000388778976
 20
1.24999495931531
 30
0.0
 40
0.125005040745149
 50
56.252672932986
 51
90.0017819596988
  0
ARC
  8
3
  6
CONTINUOUS
 62
3
 10
1.24999222521877
 20
1.25000777478123
 30
0.0
 40
0.124992225460573
 50
89.9964360811256
 51
180.003563918874
  0
ARC
  8
3
  6
CONTINUOUS
 62
3
 10
1.24999222521877
 20
1.24999222521877
 30
0.0
 40
0.124992225460573
 50
179.996436081125
 51
270.003563918874
  0
ARC
  8
3
  6
CONTINUOUS
 62
3
 10
1.25000777478123
 20
1.24999222521877
 30
0.0
 40
0.124992225460573
 50
269.996436081125
 51
0.00356391887417281
  0
ARC
  8
3
  6
CONTINUOUS
 62
3
 10
1.25000050202647
 20
1.25000388762662
 30
0.0
 40
0.124999498033985
 50
359.99821803606
 51
56.2491090273553
  0
ARC
  8
3
  6
CONTINUOUS
 62
3
 10
3.74999949799209
 20
1.25000388761857
 30
0.0
 40
0.12499949805254
 50
123.750890976669
 51
180.001781960246
  0
ARC
  8
3
  6
CONTINUOUS
 62
3
 10
3.74999222521877
 20
1.24999222521877
 30
0.0
 40
0.124992225460573
 50
179.996436081125
 51
270.003563918874
  0
ARC
  8
3
  6
CONTINUOUS
 62
3
 10
3.75000777478123
 20
1.24999222521877
 30
0.0
 40
0.124992225460574
 50
269.996436081126
 51
0.00356391887368301
  0
ARC
  8
3
  6
CONTINUOUS
 62
3
 10
3.75000777478123
 20
1.25000777478123
 30
0.0
 40
0.124992225460573
 50
359.996436081125
 51
90.003563918874
  0
ARC
  8
3
  6
CONTINUOUS
 62
3
 10
3.74999611219819
 20
1.24999495934587
 30
0.0
 40
0.12500504071459
 50
89.9982180347745
 51
123.747327069204
  0
ARC
  8
3
  6
CONTINUOUS
 62
3
 10
3.74999611223602
 20
3.75000504068469
 30
0.0
 40
0.125005040745148
 50
236.252672921171
 51
270.001781947884
  0
ARC
  8
3
  6
CONTINUOUS
 62
3
 10
3.75000777478123
 20
3.74999222521877
 30
0.0
 40
0.124992225460574
 50
269.996436081126
 51
0.0035639188733904
  0
ARC
  8
3
  6
CONTINUOUS
 62
3
 10
3.75000777478124
 20
3.75000777478123
 30
0.0
 40
0.124992225460571
 50
359.996436081124
 51
90.0035639188749
  0
ARC
  8
3
  6
CONTINUOUS
 62
3
 10
3.74999222521877
 20
3.75000777478123
 30
0.0
 40
0.124992225460572
 50
89.996436081125
 51
180.003563918875
  0
ARC
  8
3
  6
CONTINUOUS
 62
3
 10
3.74999949796231
 20
3.7499961123846
 30
0.0
 40
0.124999498022762
 50
179.998218041205
 51
236.249109032499
  0
ARC
  8
3
  6
CONTINUOUS
 62
3
 10
2.99999611245813
 20
2.49999696190499
 30
0.0
 40
0.124996961965444
 50
191.24910901566
 51
270.001781961247
  0
ARC
  8
3
  6
CONTINUOUS
 62
3
 10
3.00000777478123
 20
2.49999222521877
 30
0.0
 40
0.124992225460574
 50
269.996436081126
 51
0.00356391887349217
  0
ARC
  8
3
  6
CONTINUOUS
 62
3
 10
3.00000777478123
 20
2.50000777478123
 30
0.0
 40
0.124992225460573
 50
359.996436081125
 51
90.003563918874
  0
ARC
  8
3
  6
CONTINUOUS
 62
3
 10
2.99999222521877
 20
2.50000777478123
 30
0.0
 40
0.124992225460572
 50
89.9964360811249
 51
180.003563918875
  0
ARC
  8
3
  6
CONTINUOUS
 62
3
 10
3.00003170397712
 20
2.49999611138296
 30
0.0
 40
0.12503170403759
 50
179.998218041205
 51
191.245545113625
  0
ARC
  8
3
  6
CONTINUOUS
 62
3
 10
1.99999611245812
 20
2.49999696190499
 30
0.0
 40
0.124996961965446
 50
191.249109015661
 51
270.001781961248
  0
ARC
  8
3
  6
CONTINUOUS
 62
3
 10
2.00000777478124
 20
2.49999222521877
 30
0.0
 40
0.124992225460573
 50
269.996436081125
 51
0.0035639188740774
  0
ARC
  8
3
  6
CONTINUOUS
 62
3
 10
2.00000777478123
 20
2.50000777478123
 30
0.0
 40
0.124992225460573
 50
359.996436081125
 51
90.0035639188742
  0
ARC
  8
3
  6
CONTINUOUS
 62
3
 10
1.99999222521877
 20
2.50000777478123
 30
0.0
 40
0.124992225460575
 50
89.9964360811248
 51
180.003563918873
  0
ARC
  8
3
  6
CONTINUOUS
 62
3
 10
2.00003170397712
 20
2.49999611138296
 30
0.0
 40
0.125031704037587
 50
179.998218041205
 51
191.245545113625
  0
ARC
  8
3
  6
CONTINUOUS
 62
3
 10
1.25000504069394
 20
3.75000388778695
 30
0.0
 40
0.125005040754399
 50
146.252672934272
 51
180.001781958412
  0
ARC
  8
3
  6
CONTINUOUS
 62
3
 10
1.24999222521877
 20
3.74999222521877
 30
0.0
 40
0.124992225460572
 50
179.996436081125
 51
270.003563918874
  0
ARC
  8
3
  6
CONTINUOUS
 62
3
 10
1.25000777478123
 20
3.74999222521877
 30
0.0
 40
0.124992225460573
 50
269.996436081125
 51
0.0035639188738802
  0
ARC
  8
3
  6
CONTINUOUS
 62
3
 10
1.25000777478123
 20
3.75000777478123
 30
0.0
 40
0.124992225460571
 50
359.996436081124
 51
90.0035639188749
  0
ARC
  8
3
  6
CONTINUOUS
 62
3
 10
1.24999611237057
 20
3.75000050203172
 30
0.0
 40
0.124999498028735
 50
89.9982180347748
 51
146.249109028642
  0
ARC
  8
5
  6
CONTINUOUS
 62
5
 10
1.41054746775505
 20
1.6250044692671
 30
0.0
 40
0.0778739755350128
 50
172.615139192718
 51
262.6075195092
  0
ARC
  8
5
  6
CONTINUOUS
 62
5
 10
1.41054166666667
 20
1.62508941905617
 30
0.0
 40
0.0779574746117209
 50
262.619780859904
 51
277.380219140095
  0
LINE
  8
5
  6
CONTINUOUS
 62
5
 10
1.42055555555556
 20
1.54777777777778
 30
0.0
 11
1.62247222222222
 21
1.57395833333333
 31
0.0
  0
ARC
  8
5
  6
CONTINUOUS
 62
5
 10
1.615855276591
 20
1.62500608927876
 30
0.0
 40
0.0514748225499631
 50
277.385650109265
 51
7.38785572326697
  0
ARC
  8
5
  6
CONTINUOUS
 62
5
 10
1.61585412956262
 20
1.62499094683265
 30
0.0
 40
0.051477909301199
 50
7.40440544798389
 51
82.6135078798385
  0
LINE
  8
5
  6
CONTINUOUS
 62
5
 10
1.62247222222222
 20
1.67604166666667
 30
0.0
 11
1.42055555555556
 21
1.70222222222222
 31
0.0
  0
ARC
  8
5
  6
CONTINUOUS
 62
5
 10
1.4105375390633
 20
1.6250053576104
 30
0.0
 40
0.0778640150192611
 50
82.6078103114992
 51
172.61484839042
  0
ARC
  8
5
  6
CONTINUOUS
 62
5
 10
1.41054746775505
 20
1.8750044692671
 30
0.0
 40
0.077873975535013
 50
172.615139192718
 51
262.6075195092
  0
ARC
  8
5
  6
CONTINUOUS
 62
5
 10
1.41054166666667
 20
1.87508941905612
 30
0.0
 40
0.0779574746116795
 50
262.6197808599
 51
277.380219140099
  0
LINE
  8
5
  6
CONTINUOUS
 62
5
 10
1.42055555555556
 20
1.79777777777778
 30
0.0
 11
1.62247222222222
 21
1.82395833333333
 31
0.0
  0
ARC
  8
5
  6
CONTINUOUS
 62
5
 10
1.615855276591
 20
1.87500608927876
 30
0.0
 40
0.0514748225499632
 50
277.385650109265
 51
7.38785572326688
  0
ARC
  8
5
  6
CONTINUOUS
 62
5
 10
1.61585412956262
 20
1.87499094683265
 30
0.0
 40
0.0514779093011991
 50
7.40440544798399
 51
82.6135078798384
  0
LINE
  8
5
  6
CONTINUOUS
 62
5
 10
1.62247222222222
 20
1.92604166666667
 30
0.0
 11
1.42055555555556
 21
1.95222222222222
 31
0.0
  0
ARC
  8
5
  6
CONTINUOUS
 62
5
 10
1.4105375390633
 20
1.8750053576104
 30
0.0
 40
0.0778640150192611
 50
82.6078103114992
 51
172.61484839042
  0
ARC
  8
5
  6
CONTINUOUS
 62
5
 10
1.41054746775504
 20
2.1250044692671
 30
0.0
 40
0.0778739755350123
 50
172.615139192718
 51
262.607519509201
  0
ARC
  8
5
  6
CONTINUOUS
 62
5
 10
1.41054166666667
 20
2.12508941905614
 30
0.0
 40
0.0779574746116944
 50
262.619780859902
 51
277.380219140097
  0
LINE
  8
5
  6
CONTINUOUS
 62
5
 10
1.42055555555556
 20
2.04777777777778
 30
0.0
 11
1.62247222222222
 21
2.07395833333333
 31
0.0
  0
ARC
  8
5
  6
CONTINUOUS
 62
5
 10
1.615855276591
 20
2.12500608927875
 30
0.0
 40
0.0514748225499641
 50
277.385650109266
 51
7.38785572326884
  0
ARC
  8
5
  6
CONTINUOUS
 62
5
 10
1.61585412956261
 20
2.12499094683265
 30
0.0
 40
0.0514779093012018
 50
7.4044054479827
 51
82.6135078798357
  0
LINE
  8
5
  6
CONTINUOUS
 62
5
 10
1.62247222222222
 20
2.17604166666667
 30
0.0
 11
1.42055555555556
 21
2.20222222222222
 31
0.0
  0
ARC
  8
5
  6
CONTINUOUS
 62
5
 10
1.4105375390633
 20
2.1250053576104
 30
0.0
 40
0.0778640150192599
 50
82.607810311498
 51
172.614848390419
  0
ARC
  8
5
  6
CONTINUOUS
 62
5
 10
2.41054746775504
 20
1.6250044692671
 30
0.0
 40
0.0778739755350119
 50
172.615139192717
 51
262.607519509199
  0
ARC
  8
5
  6
CONTINUOUS
 62
5
 10
2.41054166666666
 20
1.62508941905617
 30
0.0
 40
0.0779574746117272
 50
262.619780859904
 51
277.380219140095
  0
LINE
  8
5
  6
CONTINUOUS
 62
5
 10
2.42055555555555
 20
1.54777777777778
 30
0.0
 11
2.62247222222222
 21
1.57395833333333
 31
0.0
  0
ARC
  8
5
  6
CONTINUOUS
 62
5
 10
2.615855276591
 20
1.62500608927875
 30
0.0
 40
0.0514748225499603
 50
277.385650109268
 51
7.38785572327084
  0
ARC
  8
5
  6
CONTINUOUS
 62
5
 10
2.61585412956262
 20
1.62499094683265
 30
0.0
 40
0.0514779093011953
 50
7.40440544797999
 51
82.6135078798358
  0
LINE
  8
5
  6
CONTINUOUS
 62
5
 10
2.62247222222222
 20
1.67604166666667
 30
0.0
 11
2.42055555555555
 21
1.70222222222222
 31
0.0
  0
ARC
  8
5
  6
CONTINUOUS
 62
5
 10
2.4105375390633
 20
1.6250053576104
 30
0.0
 40
0.0778640150192604
 50
82.6078103114994
 51
172.61484839042
  0
ARC
  8
5
  6
CONTINUOUS
 62
5
 10
2.41054746775504
 20
1.8750044692671
 30
0.0
 40
0.0778739755350117
 50
172.615139192717
 51
262.607519509199
  0
ARC
  8
5
  6
CONTINUOUS
 62
5
 10
2.41054166666666
 20
1.87508941905613
 30
0.0
 40
0.0779574746116906
 50
262.619780859901
 51
277.380219140098
  0
LINE
  8
5
  6
CONTINUOUS
 62
5
 10
2.42055555555555
 20
1.79777777777778
 30
0.0
 11
2.62247222222222
 21
1.82395833333333
 31
0.0
  0
ARC
  8
5
  6
CONTINUOUS
 62
5
 10
2.615855276591
 20
1.87500608927875
 30
0.0
 40
0.0514748225499607
 50
277.385650109268
 51
7.38785572327035
  0
ARC
  8
5
  6
CONTINUOUS
 62
5
 10
2.61585412956262
 20
1.87499094683265
 30
0.0
 40
0.0514779093011957
 50
7.4044054479803
 51
82.6135078798355
  0
LINE
  8
5
  6
CONTINUOUS
 62
5
 10
2.62247222222222
 20
1.92604166666667
 30
0.0
 11
2.42055555555555
 21
1.95222222222222
 31
0.0
  0
ARC
  8
5
  6
CONTINUOUS
 62
5
 10
2.4105375390633
 20
1.8750053576104
 30
0.0
 40
0.0778640150192602
 50
82.6078103114993
 51
172.61484839042
  0
ARC
  8
5
  6
CONTINUOUS
 62
5
 10
2.41054746775504
 20
2.1250044692671
 30
0.0
 40
0.0778739755350111
 50
172.615139192717
 51
262.607519509199
  0
ARC
  8
5
  6
CONTINUOUS
 62
5
 10
2.41054166666666
 20
2.12508941905615
 30
0.0
 40
0.0779574746117023
 50
262.619780859902
 51
277.380219140097
  0
LINE
  8
5
  6
CONTINUOUS
 62
5
 10
2.42055555555555
 20
2.04777777777778
 30
0.0
 11
2.62247222222222
 21
2.07395833333333
 31
0.0
  0
ARC
  8
5
  6
CONTINUOUS
 62
5
 10
2.61585527659099
 20
2.12500608927875
 30
0.0
 40
0.0514748225499619
 50
277.385650109269
 51
7.38785572327193
  0
ARC
  8
5
  6
CONTINUOUS
 62
5
 10
2.61585412956261
 20
2.12499094683265
 30
0.0
 40
0.051477909301198
 50
7.4044054479787
 51
82.6135078798331
  0
LINE
  8
5
  6
CONTINUOUS
 62
5
 10
2.62247222222222
 20
2.17604166666667
 30
0.0
 11
2.42055555555555
 21
2.20222222222222
 31
0.0
  0
ARC
  8
5
  6
CONTINUOUS
 62
5
 10
2.4105375390633
 20
2.1250053576104
 30
0.0
 40
0.0778640150192595
 50
82.6078103114985
 51
172.614848390419
  0
ARC
  8
5
  6
CONTINUOUS
 62
5
 10
2.41054746775504
 20
3.3750044692671
 30
0.0
 40
0.0778739755350116
 50
172.615139192718
 51
262.607519509199
  0
ARC
  8
5
  6
CONTINUOUS
 62
5
 10
2.41054166666666
 20
3.37508941905615
 30
0.0
 40
0.0779574746117023
 50
262.619780859902
 51
277.380219140097
  0
LINE
  8
5
  6
CONTINUOUS
 62
5
 10
2.42055555555555
 20
3.29777777777778
 30
0.0
 11
2.62247222222222
 21
3.32395833333333
 31
0.0
  0
ARC
  8
5
  6
CONTINUOUS
 62
5
 10
2.61585527659099
 20
3.37500608927875
 30
0.0
 40
0.0514748225499616
 50
277.385650109269
 51
7.38785572327232
  0
ARC
  8
5
  6
CONTINUOUS
 62
5
 10
2.61585412956261
 20
3.37499094683265
 30
0.0
 40
0.0514779093011979
 50
7.4044054479786
 51
82.6135078798332
  0
LINE
  8
5
  6
CONTINUOUS
 62
5
 10
2.62247222222222
 20
3.42604166666667
 30
0.0
 11
2.42055555555555
 21
3.45222222222222
 31
0.0
  0
ARC
  8
5
  6
CONTINUOUS
 62
5
 10
2.4105375390633
 20
3.3750053576104
 30
0.0
 40
0.0778640150192591
 50
82.6078103114981
 51
172.614848390419
  0
ARC
  8
5
  6
CONTINUOUS
 62
5
 10
2.41054746775504
 20
3.1250044692671
 30
0.0
 40
0.0778739755350114
 50
172.615139192717
 51
262.607519509199
  0
ARC
  8
5
  6
CONTINUOUS
 62
5
 10
2.41054166666666
 20
3.12508941905615
 30
0.0
 40
0.0779574746117023
 50
262.619780859902
 51
277.380219140097
  0
LINE
  8
5
  6
CONTINUOUS
 62
5
 10
2.42055555555555
 20
3.04777777777778
 30
0.0
 11
2.62247222222222
 21
3.07395833333333
 31
0.0
  0
ARC
  8
5
  6
CONTINUOUS
 62
5
 10
2.615855276591
 20
3.12500608927875
 30
0.0
 40
0.0514748225499603
 50
277.385650109267
 51
7.38785572327379
  0
ARC
  8
5
  6
CONTINUOUS
 62
5
 10
2.61585412956261
 20
3.12499094683265
 30
0.0
 40
0.0514779093011979
 50
7.4044054479786
 51
82.6135078798332
  0
LINE
  8
5
  6
CONTINUOUS
 62
5
 10
2.62247222222222
 20
3.17604166666667
 30
0.0
 11
2.42055555555555
 21
3.20222222222222
 31
0.0
  0
ARC
  8
5
  6
CONTINUOUS
 62
5
 10
2.4105375390633
 20
3.1250053576104
 30
0.0
 40
0.0778640150192593
 50
82.6078103114983
 51
172.614848390419
  0
ARC
  8
5
  6
CONTINUOUS
 62
5
 10
2.41054746775504
 20
2.8750044692671
 30
0.0
 40
0.0778739755350111
 50
172.615139192717
 51
262.607519509199
  0
ARC
  8
5
  6
CONTINUOUS
 62
5
 10
2.41054166666666
 20
2.87508941905615
 30
0.0
 40
0.0779574746117006
 50
262.619780859901
 51
277.380219140097
  0
LINE
  8
5
  6
CONTINUOUS
 62
5
 10
2.42055555555555
 20
2.79777777777778
 30
0.0
 11
2.62247222222222
 21
2.82395833333333
 31
0.0
  0
ARC
  8
5
  6
CONTINUOUS
 62
5
 10
2.61585527659099
 20
2.87500608927875
 30
0.0
 40
0.0514748225499633
 50
277.385650109271
 51
7.38785572327036
  0
ARC
  8
5
  6
CONTINUOUS
 62
5
 10
2.61585412956261
 20
2.87499094683266
 30
0.0
 40
0.0514779093011968
 50
7.40440544797768
 51
82.6135078798341
  0
LINE
  8
5
  6
CONTINUOUS
 62
5
 10
2.62247222222222
 20
2.92604166666667
 30
0.0
 11
2.42055555555555
 21
2.95222222222222
 31
0.0
  0
ARC
  8
5
  6
CONTINUOUS
 62
5
 10
2.4105375390633
 20
2.8750053576104
 30
0.0
 40
0.0778640150192594
 50
82.6078103114984
 51
172.614848390419
  0
ARC
  8
5
  6
CONTINUOUS
 62
5
 10
2.41054746775504
 20
2.6250044692671
 30
0.0
 40
0.077873975535011
 50
172.615139192717
 51
262.607519509199
  0
ARC
  8
5
  6
CONTINUOUS
 62
5
 10
2.41054166666666
 20
2.62508941905615
 30
0.0
 40
0.0779574746117023
 50
262.619780859902
 51
277.380219140097
  0
LINE
  8
5
  6
CONTINUOUS
 62
5
 10
2.42055555555555
 20
2.54777777777778
 30
0.0
 11
2.62247222222222
 21
2.57395833333333
 31
0.0
  0
ARC
  8
5
  6
CONTINUOUS
 62
5
 10
2.61585527659099
 20
2.62500608927875
 30
0.0
 40
0.0514748225499623
 50
277.385650109269
 51
7.38785572327154
  0
ARC
  8
5
  6
CONTINUOUS
 62
5
 10
2.61585412956261
 20
2.62499094683266
 30
0.0
 40
0.0514779093011967
 50
7.40440544797758
 51
82.6135078798342
  0
LINE
  8
5
  6
CONTINUOUS
 62
5
 10
2.62247222222222
 20
2.67604166666667
 30
0.0
 11
2.42055555555555
 21
2.70222222222222
 31
0.0
  0
ARC
  8
5
  6
CONTINUOUS
 62
5
 10
2.4105375390633
 20
2.6250053576104
 30
0.0
 40
0.0778640150192597
 50
82.6078103114986
 51
172.614848390419
  0
ARC
  8
5
  6
CONTINUOUS
 62
5
 10
3.41054746775504
 20
1.6250044692671
 30
0.0
 40
0.0778739755350115
 50
172.615139192717
 51
262.607519509199
  0
ARC
  8
5
  6
CONTINUOUS
 62
5
 10
3.41054166666666
 20
1.62508941905617
 30
0.0
 40
0.0779574746117287
 50
262.619780859904
 51
277.380219140095
  0
LINE
  8
5
  6
CONTINUOUS
 62
5
 10
3.42055555555555
 20
1.54777777777778
 30
0.0
 11
3.62247222222222
 21
1.57395833333333
 31
0.0
  0
ARC
  8
5
  6
CONTINUOUS
 62
5
 10
3.615855276591
 20
1.62500608927875
 30
0.0
 40
0.05147482254996
 50
277.385650109267
 51
7.38785572327106
  0
ARC
  8
5
  6
CONTINUOUS
 62
5
 10
3.61585412956261
 20
1.62499094683265
 30
0.0
 40
0.0514779093011965
 50
7.40440544798109
 51
82.6135078798353
  0
LINE
  8
5
  6
CONTINUOUS
 62
5
 10
3.62247222222222
 20
1.67604166666667
 30
0.0
 11
3.42055555555555
 21
1.70222222222222
 31
0.0
  0
ARC
  8
5
  6
CONTINUOUS
 62
5
 10
3.4105375390633
 20
1.6250053576104
 30
0.0
 40
0.0778640150192601
 50
82.6078103114996
 51
172.61484839042
  0
ARC
  8
5
  6
CONTINUOUS
 62
5
 10
3.41054746775504
 20
1.8750044692671
 30
0.0
 40
0.0778739755350109
 50
172.615139192716
 51
262.607519509199
  0
ARC
  8
5
  6
CONTINUOUS
 62
5
 10
3.41054166666666
 20
1.87508941905614
 30
0.0
 40
0.0779574746116938
 50
262.619780859901
 51
277.380219140098
  0
LINE
  8
5
  6
CONTINUOUS
 62
5
 10
3.42055555555555
 20
1.79777777777778
 30
0.0
 11
3.62247222222222
 21
1.82395833333333
 31
0.0
  0
ARC
  8
5
  6
CONTINUOUS
 62
5
 10
3.615855276591
 20
1.87500608927875
 30
0.0
 40
0.0514748225499604
 50
277.385650109267
 51
7.38785572327057
  0
ARC
  8
5
  6
CONTINUOUS
 62
5
 10
3.61585412956261
 20
1.87499094683265
 30
0.0
 40
0.0514779093011974
 50
7.40440544798181
 51
82.6135078798346
  0
LINE
  8
5
  6
CONTINUOUS
 62
5
 10
3.62247222222222
 20
1.92604166666667
 30
0.0
 11
3.42055555555555
 21
1.95222222222222
 31
0.0
  0
ARC
  8
5
  6
CONTINUOUS
 62
5
 10
3.4105375390633
 20
1.8750053576104
 30
0.0
 40
0.07786401501926
 50
82.6078103114995
 51
172.61484839042
  0
ARC
  8
5
  6
CONTINUOUS
 62
5
 10
3.41054746775504
 20
2.1250044692671
 30
0.0
 40
0.0778739755350104
 50
172.615139192717
 51
262.6075195092
  0
ARC
  8
5
  6
CONTINUOUS
 62
5
 10
3.41054166666666
 20
2.12508941905615
 30
0.0
 40
0.0779574746117022
 50
262.619780859902
 51
277.380219140097
  0
LINE
  8
5
  6
CONTINUOUS
 62
5
 10
3.42055555555555
 20
2.04777777777778
 30
0.0
 11
3.62247222222222
 21
2.07395833333333
 31
0.0
  0
ARC
  8
5
  6
CONTINUOUS
 62
5
 10
3.61585527659099
 20
2.12500608927875
 30
0.0
 40
0.0514748225499619
 50
277.385650109269
 51
7.38785572327194
  0
ARC
  8
5
  6
CONTINUOUS
 62
5
 10
3.61585412956261
 20
2.12499094683265
 30
0.0
 40
0.0514779093011998
 50
7.40440544798032
 51
82.613507879832
  0
LINE
  8
5
  6
CONTINUOUS
 62
5
 10
3.62247222222222
 20
2.17604166666667
 30
0.0
 11
3.42055555555555
 21
2.20222222222222
 31
0.0
  0
ARC
  8
5
  6
CONTINUOUS
 62
5
 10
3.4105375390633
 20
2.1250053576104
 30
0.0
 40
0.0778640150192585
 50
82.6078103114981
 51
172.614848390419
  0
ARC
  8
5
  6
CONTINUOUS
 62
5
 10
3.41054746775504
 20
3.3750044692671
 30
0.0
 40
0.0778739755350111
 50
172.615139192717
 51
262.607519509199
  0
ARC
  8
5
  6
CONTINUOUS
 62
5
 10
3.41054166666666
 20
3.37508941905615
 30
0.0
 40
0.0779574746117038
 50
262.619780859902
 51
277.380219140097
  0
LINE
  8
5
  6
CONTINUOUS
 62
5
 10
3.42055555555555
 20
3.29777777777778
 30
0.0
 11
3.62247222222222
 21
3.32395833333333
 31
0.0
  0
ARC
  8
5
  6
CONTINUOUS
 62
5
 10
3.61585527659099
 20
3.37500608927875
 30
0.0
 40
0.0514748225499619
 50
277.385650109269
 51
7.38785572327185
  0
ARC
  8
5
  6
CONTINUOUS
 62
5
 10
3.61585412956261
 20
3.37499094683265
 30
0.0
 40
0.0514779093011987
 50
7.40440544797939
 51
82.613507879833
  0
LINE
  8
5
  6
CONTINUOUS
 62
5
 10
3.62247222222222
 20
3.42604166666667
 30
0.0
 11
3.42055555555555
 21
3.45222222222222
 31
0.0
  0
ARC
  8
5
  6
CONTINUOUS
 62
5
 10
3.4105375390633
 20
3.3750053576104
 30
0.0
 40
0.0778640150192571
 50
82.607810311497
 51
172.61484839042
  0
ARC
  8
5
  6
CONTINUOUS
 62
5
 10
3.41054746775504
 20
3.1250044692671
 30
0.0
 40
0.0778739755350111
 50
172.615139192717
 51
262.607519509199
  0
ARC
  8
5
  6
CONTINUOUS
 62
5
 10
3.41054166666666
 20
3.12508941905615
 30
0.0
 40
0.0779574746117038
 50
262.619780859902
 51
277.380219140097
  0
LINE
  8
5
  6
CONTINUOUS
 62
5
 10
3.42055555555555
 20
3.04777777777778
 30
0.0
 11
3.62247222222222
 21
3.07395833333333
 31
0.0
  0
ARC
  8
5
  6
CONTINUOUS
 62
5
 10
3.615855276591
 20
3.12500608927875
 30
0.0
 40
0.0514748225499598
 50
277.385650109266
 51
7.38785572327429
  0
ARC
  8
5
  6
CONTINUOUS
 62
5
 10
3.61585412956261
 20
3.12499094683265
 30
0.0
 40
0.0514779093011991
 50
7.4044054479797
 51
82.6135078798327
  0
LINE
  8
5
  6
CONTINUOUS
 62
5
 10
3.62247222222222
 20
3.17604166666667
 30
0.0
 11
3.42055555555555
 21
3.20222222222222
 31
0.0
  0
ARC
  8
5
  6
CONTINUOUS
 62
5
 10
3.4105375390633
 20
3.1250053576104
 30
0.0
 40
0.0778640150192579
 50
82.6078103114976
 51
172.61484839042
  0
ARC
  8
5
  6
CONTINUOUS
 62
5
 10
3.41054746775504
 20
2.8750044692671
 30
0.0
 40
0.0778739755350106
 50
172.615139192717
 51
262.607519509199
  0
ARC
  8
5
  6
CONTINUOUS
 62
5
 10
3.41054166666666
 20
2.87508941905615
 30
0.0
 40
0.0779574746117005
 50
262.619780859902
 51
277.380219140097
  0
LINE
  8
5
  6
CONTINUOUS
 62
5
 10
3.42055555555555
 20
2.79777777777778
 30
0.0
 11
3.62247222222222
 21
2.82395833333333
 31
0.0
  0
ARC
  8
5
  6
CONTINUOUS
 62
5
 10
3.61585527659099
 20
2.87500608927875
 30
0.0
 40
0.0514748225499629
 50
277.38565010927
 51
7.38785572327077
  0
ARC
  8
5
  6
CONTINUOUS
 62
5
 10
3.61585412956261
 20
2.87499094683265
 30
0.0
 40
0.0514779093011982
 50
7.40440544797898
 51
82.6135078798334
  0
LINE
  8
5
  6
CONTINUOUS
 62
5
 10
3.62247222222222
 20
2.92604166666667
 30
0.0
 11
3.42055555555555
 21
2.95222222222222
 31
0.0
  0
ARC
  8
5
  6
CONTINUOUS
 62
5
 10
3.4105375390633
 20
2.8750053576104
 30
0.0
 40
0.0778640150192594
 50
82.6078103114988
 51
172.614848390419
  0
ARC
  8
5
  6
CONTINUOUS
 62
5
 10
3.41054746775504
 20
2.6250044692671
 30
0.0
 40
0.0778739755350102
 50
172.615139192716
 51
262.6075195092
  0
ARC
  8
5
  6
CONTINUOUS
 62
5
 10
3.41054166666666
 20
2.62508941905615
 30
0.0
 40
0.0779574746117005
 50
262.619780859902
 51
277.380219140097
  0
LINE
  8
5
  6
CONTINUOUS
 62
5
 10
3.42055555555555
 20
2.54777777777778
 30
0.0
 11
3.62247222222222
 21
2.57395833333333
 31
0.0
  0
ARC
  8
5
  6
CONTINUOUS
 62
5
 10
3.61585527659099
 20
2.62500608927875
 30
0.0
 40
0.0514748225499619
 50
277.385650109269
 51
7.38785572327185
  0
ARC
  8
5
  6
CONTINUOUS
 62
5
 10
3.61585412956261
 20
2.62499094683265
 30
0.0
 40
0.0514779093011983
 50
7.40440544797908
 51
82.6135078798333
  0
LINE
  8
5
  6
CONTINUOUS
 62
5
 10
3.62247222222222
 20
2.67604166666667
 30
0.0
 11
3.42055555555555
 21
2.70222222222222
 31
0.0
  0
ARC
  8
5
  6
CONTINUOUS
 62
5
 10
3.4105375390633
 20
2.6250053576104
 30
0.0
 40
0.0778640150192591
 50
82.6078103114986
 51
172.614848390419
  0
ARC
  8
5
  6
CONTINUOUS
 62
5
 10
3.41054746775504
 20
2.3750044692671
 30
0.0
 40
0.0778739755350102
 50
172.615139192716
 51
262.6075195092
  0
ARC
  8
5
  6
CONTINUOUS
 62
5
 10
3.41054166666666
 20
2.37508941905615
 30
0.0
 40
0.0779574746117005
 50
262.619780859902
 51
277.380219140097
  0
LINE
  8
5
  6
CONTINUOUS
 62
5
 10
3.42055555555555
 20
2.29777777777778
 30
0.0
 11
3.62247222222222
 21
2.32395833333333
 31
0.0
  0
ARC
  8
5
  6
CONTINUOUS
 62
5
 10
3.61585527659099
 20
2.37500608927875
 30
0.0
 40
0.0514748225499619
 50
277.385650109269
 51
7.38785572327194
  0
ARC
  8
5
  6
CONTINUOUS
 62
5
 10
3.61585412956261
 20
2.37499094683265
 30
0.0
 40
0.0514779093011981
 50
7.40440544797888
 51
82.6135078798335
  0
LINE
  8
5
  6
CONTINUOUS
 62
5
 10
3.62247222222222
 20
2.42604166666667
 30
0.0
 11
3.42055555555555
 21
2.45222222222222
 31
0.0
  0
ARC
  8
5
  6
CONTINUOUS
 62
5
 10
3.4105375390633
 20
2.3750053576104
 30
0.0
 40
0.077864015019259
 50
82.6078103114985
 51
172.614848390419
  0
ARC
  8
5
  6
CONTINUOUS
 62
5
 10
2.41054746775504
 20
2.3750044692671
 30
0.0
 40
0.0778739755350108
 50
172.615139192717
 51
262.607519509199
  0
ARC
  8
5
  6
CONTINUOUS
 62
5
 10
2.41054166666666
 20
2.37508941905615
 30
0.0
 40
0.0779574746117039
 50
262.619780859902
 51
277.380219140097
  0
LINE
  8
5
  6
CONTINUOUS
 62
5
 10
2.42055555555555
 20
2.29777777777778
 30
0.0
 11
2.62247222222222
 21
2.32395833333333
 31
0.0
  0
ARC
  8
5
  6
CONTINUOUS
 62
5
 10
2.61585527659099
 20
2.37500608927875
 30
0.0
 40
0.0514748225499621
 50
277.385650109269
 51
7.38785572327173
  0
ARC
  8
5
  6
CONTINUOUS
 62
5
 10
2.61585412956261
 20
2.37499094683266
 30
0.0
 40
0.0514779093011967
 50
7.40440544797758
 51
82.6135078798342
  0
LINE
  8
5
  6
CONTINUOUS
 62
5
 10
2.62247222222222
 20
2.42604166666667
 30
0.0
 11
2.42055555555555
 21
2.45222222222222
 31
0.0
  0
ARC
  8
5
  6
CONTINUOUS
 62
5
 10
2.4105375390633
 20
2.3750053576104
 30
0.0
 40
0.0778640150192594
 50
82.6078103114984
 51
172.614848390419
  0
ARC
  8
5
  6
CONTINUOUS
 62
5
 10
1.41054746775504
 20
2.3750044692671
 30
0.0
 40
0.0778739755350119
 50
172.615139192718
 51
262.607519509201
  0
ARC
  8
5
  6
CONTINUOUS
 62
5
 10
1.41054166666667
 20
2.37508941905614
 30
0.0
 40
0.0779574746116944
 50
262.619780859902
 51
277.380219140097
  0
LINE
  8
5
  6
CONTINUOUS
 62
5
 10
1.42055555555556
 20
2.29777777777778
 30
0.0
 11
1.62247222222222
 21
2.32395833333333
 31
0.0
  0
ARC
  8
5
  6
CONTINUOUS
 62
5
 10
1.615855276591
 20
2.37500608927876
 30
0.0
 40
0.0514748225499643
 50
277.385650109266
 51
7.38785572326854
  0
ARC
  8
5
  6
CONTINUOUS
 62
5
 10
1.61585412956261
 20
2.37499094683265
 30
0.0
 40
0.0514779093012007
 50
7.40440544798178
 51
82.6135078798366
  0
LINE
  8
5
  6
CONTINUOUS
 62
5
 10
1.62247222222222
 20
2.42604166666667
 30
0.0
 11
1.42055555555556
 21
2.45222222222222
 31
0.0
  0
ARC
  8
5
  6
CONTINUOUS
 62
5
 10
1.4105375390633
 20
2.3750053576104
 30
0.0
 40
0.0778640150192595
 50
82.6078103114977
 51
172.614848390419
  0
ARC
  8
5
  6
CONTINUOUS
 62
5
 10
1.41054746775504
 20
2.6250044692671
 30
0.0
 40
0.0778739755350119
 50
172.615139192718
 51
262.607519509201
  0
ARC
  8
5
  6
CONTINUOUS
 62
5
 10
1.41054166666667
 20
2.62508941905614
 30
0.0
 40
0.0779574746116944
 50
262.619780859902
 51
277.380219140097
  0
LINE
  8
5
  6
CONTINUOUS
 62
5
 10
1.42055555555556
 20
2.54777777777778
 30
0.0
 11
1.62247222222222
 21
2.57395833333333
 31
0.0
  0
ARC
  8
5
  6
CONTINUOUS
 62
5
 10
1.615855276591
 20
2.62500608927876
 30
0.0
 40
0.0514748225499644
 50
277.385650109266
 51
7.38785572326845
  0
ARC
  8
5
  6
CONTINUOUS
 62
5
 10
1.61585412956261
 20
2.62499094683265
 30
0.0
 40
0.0514779093012007
 50
7.40440544798178
 51
82.6135078798366
  0
LINE
  8
5
  6
CONTINUOUS
 62
5
 10
1.62247222222222
 20
2.67604166666667
 30
0.0
 11
1.42055555555556
 21
2.70222222222222
 31
0.0
  0
ARC
  8
5
  6
CONTINUOUS
 62
5
 10
1.4105375390633
 20
2.6250053576104
 30
0.0
 40
0.0778640150192593
 50
82.6078103114976
 51
172.614848390419
  0
ARC
  8
5
  6
CONTINUOUS
 62
5
 10
1.41054746775504
 20
2.8750044692671
 30
0.0
 40
0.0778739755350119
 50
172.615139192718
 51
262.607519509201
  0
ARC
  8
5
  6
CONTINUOUS
 62
5
 10
1.41054166666667
 20
2.87508941905614
 30
0.0
 40
0.0779574746116944
 50
262.619780859902
 51
277.380219140097
  0
LINE
  8
5
  6
CONTINUOUS
 62
5
 10
1.42055555555556
 20
2.79777777777778
 30
0.0
 11
1.62247222222222
 21
2.82395833333333
 31
0.0
  0
ARC
  8
5
  6
CONTINUOUS
 62
5
 10
1.61585527659099
 20
2.87500608927876
 30
0.0
 40
0.0514748225499649
 50
277.385650109267
 51
7.38785572326786
  0
ARC
  8
5
  6
CONTINUOUS
 62
5
 10
1.61585412956261
 20
2.87499094683265
 30
0.0
 40
0.0514779093012006
 50
7.40440544798168
 51
82.6135078798367
  0
LINE
  8
5
  6
CONTINUOUS
 62
5
 10
1.62247222222222
 20
2.92604166666667
 30
0.0
 11
1.42055555555556
 21
2.95222222222222
 31
0.0
  0
ARC
  8
5
  6
CONTINUOUS
 62
5
 10
1.4105375390633
 20
2.8750053576104
 30
0.0
 40
0.0778640150192593
 50
82.6078103114976
 51
172.614848390419
  0
ARC
  8
5
  6
CONTINUOUS
 62
5
 10
1.41054746775505
 20
3.1250044692671
 30
0.0
 40
0.0778739755350127
 50
172.615139192719
 51
262.6075195092
  0
ARC
  8
5
  6
CONTINUOUS
 62
5
 10
1.41054166666667
 20
3.12508941905614
 30
0.0
 40
0.0779574746116944
 50
262.619780859902
 51
277.380219140097
  0
LINE
  8
5
  6
CONTINUOUS
 62
5
 10
1.42055555555556
 20
3.04777777777778
 30
0.0
 11
1.62247222222222
 21
3.07395833333333
 31
0.0
  0
ARC
  8
5
  6
CONTINUOUS
 62
5
 10
1.615855276591
 20
3.12500608927876
 30
0.0
 40
0.0514748225499639
 50
277.385650109266
 51
7.38785572326903
  0
ARC
  8
5
  6
CONTINUOUS
 62
5
 10
1.61585412956261
 20
3.12499094683265
 30
0.0
 40
0.0514779093012014
 50
7.4044054479824
 51
82.613507879836
  0
LINE
  8
5
  6
CONTINUOUS
 62
5
 10
1.62247222222222
 20
3.17604166666667
 30
0.0
 11
1.42055555555556
 21
3.20222222222222
 31
0.0
  0
ARC
  8
5
  6
CONTINUOUS
 62
5
 10
1.4105375390633
 20
3.1250053576104
 30
0.0
 40
0.0778640150192595
 50
82.6078103114977
 51
172.614848390418
  0
ARC
  8
5
  6
CONTINUOUS
 62
5
 10
1.41054746775505
 20
3.3750044692671
 30
0.0
 40
0.0778739755350127
 50
172.615139192719
 51
262.6075195092
  0
ARC
  8
5
  6
CONTINUOUS
 62
5
 10
1.41054166666667
 20
3.37508941905614
 30
0.0
 40
0.0779574746116944
 50
262.619780859902
 51
277.380219140097
  0
LINE
  8
5
  6
CONTINUOUS
 62
5
 10
1.42055555555556
 20
3.29777777777778
 30
0.0
 11
1.62247222222222
 21
3.32395833333333
 31
0.0
  0
ARC
  8
5
  6
CONTINUOUS
 62
5
 10
1.615855276591
 20
3.37500608927875
 30
0.0
 40
0.051474822549963
 50
277.385650109265
 51
7.38785572327001
  0
ARC
  8
5
  6
CONTINUOUS
 62
5
 10
1.61585412956261
 20
3.37499094683265
 30
0.0
 40
0.0514779093012019
 50
7.4044054479828
 51
82.6135078798356
  0
LINE
  8
5
  6
CONTINUOUS
 62
5
 10
1.62247222222222
 20
3.42604166666667
 30
0.0
 11
1.42055555555556
 21
3.45222222222222
 31
0.0
  0
ARC
  8
5
  6
CONTINUOUS
 62
5
 10
1.4105375390633
 20
3.3750053576104
 30
0.0
 40
0.0778640150192599
 50
82.607810311498
 51
172.614848390418
  0
LINE
  8
6
  6
CONTINUOUS
 62
6
 10
1
 20
4
 30
0.0
 11
4
 21
4
 31
0.0
  0
LINE
  8
6
  6
CONTINUOUS
 62
6
 10
4
 20
4
 30
0.0
 11
4
 21
1
 31
0.0
  0
LINE
  8
6
  6
CONTINUOUS
 62
6
 10
4
 20
1
 30
0.0
 11
1
 21
1
 31
0.0
  0
LINE
  8
6
  6
CONTINUOUS
 62
6
 10
1
 20
1
 30
0.0
 11
1
 21
4
 31
0.0
  0
LINE
  8
9
  6
CONTINUOUS
 62
9
 10
1.25460312300466
 20
1.24707109964636
 30
0.0
 11
1.31944811847293
 21
1.35393609186888
 31
0.0
  0
LINE
  8
9
  6
CONTINUOUS
 62
9
 10
1.31944811847293
 20
1.35393609186888
 30
0.0
 11
1.28988326309127
 21
1.3136134019008
 31
0.0
  0
LINE
  8
9
  6
CONTINUOUS
 62
9
 10
1.48277455426635
 20
1.62224008177739
 30
0.0
 11
1.33331944444444
 21
1.63501388888889
 31
0.0
  0
LINE
  8
9
  6
CONTINUOUS
 62
9
 10
1.33331944444444
 20
1.63501388888889
 30
0.0
 11
1.38257713689804
 21
1.62643019888126
 31
0.0
  0
LINE
  8
9
  6
CONTINUOUS
 62
9
 10
1.48277455426635
 20
1.87224008177739
 30
0.0
 11
1.33331944444444
 21
1.88501388888889
 31
0.0
  0
LINE
  8
9
  6
CONTINUOUS
 62
9
 10
1.33331944444444
 20
1.88501388888889
 30
0.0
 11
1.38257713689804
 21
1.87643019888126
 31
0.0
  0
LINE
  8
9
  6
CONTINUOUS
 62
9
 10
1.48277455426635
 20
2.12224008177738
 30
0.0
 11
1.33331944444444
 21
2.13501388888889
 31
0.0
  0
LINE
  8
9
  6
CONTINUOUS
 62
9
 10
1.33331944444444
 20
2.13501388888889
 30
0.0
 11
1.38257713689804
 21
2.12643019888126
 31
0.0
  0
LINE
  8
9
  6
CONTINUOUS
 62
9
 10
2.48277455426635
 20
1.62224008177739
 30
0.0
 11
2.33331944444444
 21
1.63501388888889
 31
0.0
  0
LINE
  8
9
  6
CONTINUOUS
 62
9
 10
2.33331944444444
 20
1.63501388888889
 30
0.0
 11
2.38257713689804
 21
1.62643019888126
 31
0.0
  0
LINE
  8
9
  6
CONTINUOUS
 62
9
 10
2.48277455426635
 20
1.87224008177739
 30
0.0
 11
2.33331944444444
 21
1.88501388888889
 31
0.0
  0
LINE
  8
9
  6
CONTINUOUS
 62
9
 10
2.33331944444444
 20
1.88501388888889
 30
0.0
 11
2.38257713689804
 21
1.87643019888126
 31
0.0
  0
LINE
  8
9
  6
CONTINUOUS
 62
9
 10
2.48277455426635
 20
2.12224008177739
 30
0.0
 11
2.33331944444444
 21
2.13501388888889
 31
0.0
  0
LINE
  8
9
  6
CONTINUOUS
 62
9
 10
2.33331944444444
 20
2.13501388888889
 30
0.0
 11
2.38257713689804
 21
2.12643019888126
 31
0.0
  0
LINE
  8
9
  6
CONTINUOUS
 62
9
 10
2.48277455426635
 20
3.37224008177739
 30
0.0
 11
2.33331944444444
 21
3.38501388888889
 31
0.0
  0
LINE
  8
9
  6
CONTINUOUS
 62
9
 10
2.33331944444444
 20
3.38501388888889
 30
0.0
 11
2.38257713689804
 21
3.37643019888126
 31
0.0
  0
LINE
  8
9
  6
CONTINUOUS
 62
9
 10
2.48277455426635
 20
3.12224008177738
 30
0.0
 11
2.33331944444444
 21
3.13501388888889
 31
0.0
  0
LINE
  8
9
  6
CONTINUOUS
 62
9
 10
2.33331944444444
 20
3.13501388888889
 30
0.0
 11
2.38257713689804
 21
3.12643019888126
 31
0.0
  0
LINE
  8
9
  6
CONTINUOUS
 62
9
 10
2.48277455426635
 20
2.87224008177739
 30
0.0
 11
2.33331944444444
 21
2.88501388888889
 31
0.0
  0
LINE
  8
9
  6
CONTINUOUS
 62
9
 10
2.33331944444444
 20
2.88501388888889
 30
0.0
 11
2.38257713689804
 21
2.87643019888126
 31
0.0
  0
LINE
  8
9
  6
CONTINUOUS
 62
9
 10
2.48277455426635
 20
2.62224008177738
 30
0.0
 11
2.33331944444444
 21
2.63501388888889
 31
0.0
  0
LINE
  8
9
  6
CONTINUOUS
 62
9
 10
2.33331944444444
 20
2.63501388888889
 30
0.0
 11
2.38257713689804
 21
2.62643019888126
 31
0.0
  0
LINE
  8
9
  6
CONTINUOUS
 62
9
 10
3.7544640199867
 20
1.2531293669545
 30
0.0
 11
3.68055188152802
 21
1.35393609187137
 31
0.0
  0
LINE
  8
9
  6
CONTINUOUS
 62
9
 10
3.68055188152802
 20
1.35393609187137
 30
0.0
 11
3.70648987971725
 21
1.31119009498353
 31
0.0
  0
LINE
  8
9
  6
CONTINUOUS
 62
9
 10
3.48277455426635
 20
1.62224008177739
 30
0.0
 11
3.33331944444444
 21
1.63501388888889
 31
0.0
  0
LINE
  8
9
  6
CONTINUOUS
 62
9
 10
3.33331944444444
 20
1.63501388888889
 30
0.0
 11
3.38257713689804
 21
1.62643019888126
 31
0.0
  0
LINE
  8
9
  6
CONTINUOUS
 62
9
 10
3.48277455426635
 20
1.87224008177739
 30
0.0
 11
3.33331944444444
 21
1.88501388888889
 31
0.0
  0
LINE
  8
9
  6
CONTINUOUS
 62
9
 10
3.33331944444444
 20
1.88501388888889
 30
0.0
 11
3.38257713689804
 21
1.87643019888126
 31
0.0
  0
LINE
  8
9
  6
CONTINUOUS
 62
9
 10
3.48277455426635
 20
2.12224008177739
 30
0.0
 11
3.33331944444444
 21
2.13501388888889
 31
0.0
  0
LINE
  8
9
  6
CONTINUOUS
 62
9
 10
3.33331944444444
 20
2.13501388888889
 30
0.0
 11
3.38257713689804
 21
2.12643019888126
 31
0.0
  0
LINE
  8
9
  6
CONTINUOUS
 62
9
 10
3.74539687699009
 20
3.75292890037379
 30
0.0
 11
3.68055188153141
 21
3.64606390814544
 31
0.0
  0
LINE
  8
9
  6
CONTINUOUS
 62
9
 10
3.68055188153141
 20
3.64606390814544
 30
0.0
 11
3.71011673690946
 21
3.68638659811617
 31
0.0
  0
LINE
  8
9
  6
CONTINUOUS
 62
9
 10
3.48277455426635
 20
3.37224008177739
 30
0.0
 11
3.33331944444444
 21
3.38501388888889
 31
0.0
  0
LINE
  8
9
  6
CONTINUOUS
 62
9
 10
3.33331944444444
 20
3.38501388888889
 30
0.0
 11
3.38257713689804
 21
3.37643019888126
 31
0.0
  0
LINE
  8
9
  6
CONTINUOUS
 62
9
 10
3.48277455426635
 20
3.12224008177739
 30
0.0
 11
3.33331944444444
 21
3.13501388888889
 31
0.0
  0
LINE
  8
9
  6
CONTINUOUS
 62
9
 10
3.33331944444444
 20
3.13501388888889
 30
0.0
 11
3.38257713689804
 21
3.12643019888126
 31
0.0
  0
LINE
  8
9
  6
CONTINUOUS
 62
9
 10
3.48277455426635
 20
2.87224008177739
 30
0.0
 11
3.33331944444444
 21
2.88501388888889
 31
0.0
  0
LINE
  8
9
  6
CONTINUOUS
 62
9
 10
3.33331944444444
 20
2.88501388888889
 30
0.0
 11
3.38257713689804
 21
2.87643019888126
 31
0.0
  0
LINE
  8
9
  6
CONTINUOUS
 62
9
 10
3.48277455426635
 20
2.62224008177739
 30
0.0
 11
3.33331944444444
 21
2.63501388888889
 31
0.0
  0
LINE
  8
9
  6
CONTINUOUS
 62
9
 10
3.33331944444444
 20
2.63501388888889
 30
0.0
 11
3.38257713689804
 21
2.62643019888126
 31
0.0
  0
LINE
  8
9
  6
CONTINUOUS
 62
9
 10
3.48277455426635
 20
2.37224008177739
 30
0.0
 11
3.33331944444444
 21
2.38501388888889
 31
0.0
  0
LINE
  8
9
  6
CONTINUOUS
 62
9
 10
3.33331944444444
 20
2.38501388888889
 30
0.0
 11
3.38257713689804
 21
2.37643019888126
 31
0.0
  0
LINE
  8
9
  6
CONTINUOUS
 62
9
 10
2.99881969751391
 20
2.50531824296763
 30
0.0
 11
2.87740055286964
 21
2.47561317077694
 31
0.0
  0
LINE
  8
9
  6
CONTINUOUS
 62
9
 10
2.87740055286964
 20
2.47561317077694
 30
0.0
 11
2.92681898317828
 21
2.48321703465196
 31
0.0
  0
LINE
  8
9
  6
CONTINUOUS
 62
9
 10
2.48277455426635
 20
2.37224008177739
 30
0.0
 11
2.33331944444444
 21
2.38501388888889
 31
0.0
  0
LINE
  8
9
  6
CONTINUOUS
 62
9
 10
2.33331944444444
 20
2.38501388888889
 30
0.0
 11
2.38257713689804
 21
2.37643019888126
 31
0.0
  0
LINE
  8
9
  6
CONTINUOUS
 62
9
 10
1.9988196975139
 20
2.50531824296764
 30
0.0
 11
1.87740055286964
 21
2.47561317077694
 31
0.0
  0
LINE
  8
9
  6
CONTINUOUS
 62
9
 10
1.87740055286964
 20
2.47561317077694
 30
0.0
 11
1.92681898317828
 21
2.48321703465196
 31
0.0
  0
LINE
  8
9
  6
CONTINUOUS
 62
9
 10
1.48277455426635
 20
2.37224008177739
 30
0.0
 11
1.33331944444444
 21
2.38501388888889
 31
0.0
  0
LINE
  8
9
  6
CONTINUOUS
 62
9
 10
1.33331944444444
 20
2.38501388888889
 30
0.0
 11
1.38257713689804
 21
2.37643019888126
 31
0.0
  0
LINE
  8
9
  6
CONTINUOUS
 62
9
 10
1.48277455426635
 20
2.62224008177739
 30
0.0
 11
1.33331944444444
 21
2.63501388888889
 31
0.0
  0
LINE
  8
9
  6
CONTINUOUS
 62
9
 10
1.33331944444444
 20
2.63501388888889
 30
0.0
 11
1.38257713689804
 21
2.62643019888126
 31
0.0
  0
LINE
  8
9
  6
CONTINUOUS
 62
9
 10
1.48277455426635
 20
2.87224008177739
 30
0.0
 11
1.33331944444444
 21
2.88501388888889
 31
0.0
  0
LINE
  8
9
  6
CONTINUOUS
 62
9
 10
1.33331944444444
 20
2.88501388888889
 30
0.0
 11
1.38257713689804
 21
2.87643019888126
 31
0.0
  0
LINE
  8
9
  6
CONTINUOUS
 62
9
 10
1.48277455426635
 20
3.12224008177738
 30
0.0
 11
1.33331944444444
 21
3.13501388888889
 31
0.0
  0
LINE
  8
9
  6
CONTINUOUS
 62
9
 10
1.33331944444444
 20
3.13501388888889
 30
0.0
 11
1.38257713689804
 21
3.12643019888126
 31
0.0
  0
LINE
  8
9
  6
CONTINUOUS
 62
9
 10
1.48277455426635
 20
3.37224008177738
 30
0.0
 11
1.33331944444444
 21
3.38501388888889
 31
0.0
  0
LINE
  8
9
  6
CONTINUOUS
 62
9
 10
1.33331944444444
 20
3.38501388888889
 30
0.0
 11
1.38257713689804
 21
3.37643019888126
 31
0.0
  0
LINE
  8
9
  6
CONTINUOUS
 62
9
 10
1.25292890035365
 20
3.75460312300466
 30
0.0
 11
1.14606390813113
 21
3.81944811847293
 31
0.0
  0
LINE
  8
9
  6
CONTINUOUS
 62
9
 10
1.14606390813113
 20
3.81944811847293
 30
0.0
 11
1.1863865980992
 21
3.78988326309127
 31
0.0
  0
LINE
  8
9
  6
CONTINUOUS
 62
9
 10
0.85
 20
4
 30
0.0
 11
1
 21
4
 31
0.0
  0
LINE
  8
9
  6
CONTINUOUS
 62
9
 10
1
 20
4
 30
0.0
 11
1
 21
4.05
 31
0.0
  0
ENDSEC
  0
EOF
